<?xml version="1.0" encoding="utf-8"?>
<!-- Generator: https://github.com/anvaka/l-system -->
<!DOCTYPE svg PUBLIC "-//W3C//DTD SVG 1.1//EN" "http://www.w3.org/Graphics/SVG/1.1/DTD/svg11.dtd">
<svg version="1.1" xmlns="http://www.w3.org/2000/svg" xmlns:xlink="http://www.w3.org/1999/xlink"
    viewBox="0 0 1680 909">
<style>
  path {
   vector-effect: non-scaling-stroke;
  }
</style>

<rect id="background" fill="#0c2952" x="0" y="0" width="1680" height="909"></rect>
<g fill="none" stroke-width="2" stroke="#a52a2a">
<path d="M1036.7466632273363 664.9809564158024 L1034.8214579803314 652.1844503245715"/>
</g>
<g fill="none" stroke-width="2" stroke="#daa520">
<path d="M1034.8214579803314 652.1844503245715 L1037.5185828868578 640.2926407946042,1037.5185828868578 640.2926407946042,1030.269155065261 629.1038388656774"/>
<path d="M1021.5544911381144 631.6512031883311 L1024.323774518261 620.1655854615295,1024.323774518261 620.1655854615295,1017.3258713116983 609.3628265148637"/>
<path d="M1026.490239203756 610.5849472146327 L1029.385697456441 599.2361874863435,1029.385697456441 599.2361874863435,1022.3701216471724 588.5488439773653"/>
<path d="M1012.9136415430497 591.4824055344884 L1015.4466424371743 580.271677922928,1015.4466424371743 580.271677922928,1007.7331040213836 570.359205999328"/>
<path d="M999.882138504737 572.5374026894953 L1002.6494475898132 560.8265664537504,1002.6494475898132 560.8265664537504,994.6236470033432 550.7455755184045"/>
<path d="M1004.4003682036422 551.4254524761953 L1006.6504317471583 539.3911508201013,1006.6504317471583 539.3911508201013,997.9752669541056 529.6731584562891"/>
<path d="M988.9380925824859 533.4944879421183 L991.1425058991088 520.9437400523622,991.1425058991088 520.9437400523622,998.3664829560685 510.9013089564828,998.3664829560685 510.9013089564828,994.4304069277822 498.5336228302232"/>
<path d="M984.0309503415111 498.7472213996003 L991.219496142068 488.9089889216472,991.219496142068 488.9089889216472,987.355607947095 476.76588003019754"/>
<path d="M996.8931461945488 480.993270731882 L1004.1001002059298 471.176267170869,1004.1001002059298 471.176267170869,1000.1892358662307 459.0650571782112"/>
<path d="M980.3009111632017 450.4641121073679 L976.2536591323287 438.4070357180719,976.2536591323287 438.4070357180719,963.951675796069 434.23392506258665"/>
<path d="M958.2366702319039 442.9502004894103 L954.3022603271371 431.01145858373553,954.3022603271371 431.01145858373553,942.1738117957033 426.8970453465043"/>
<path d="M951.3312202908046 421.52688051988235 L947.5426505530287 409.6146766051018,947.5426505530287 409.6146766051018,935.4842187731531 405.47079489017034"/>
<path d="M980.0930016537075 523.5449843694857 L976.4687972100235 510.8325854829362,976.4687972100235 510.8325854829362,964.1164884440261 505.74237974746256"/>
<path d="M957.9176223980304 514.3076397449033 L954.4228012873631 501.7476615919613,954.4228012873631 501.7476615919613,942.2751703270446 496.7417907008199"/>
<path d="M951.8040721450063 491.7324067420682 L948.470618563876 479.2366876600337,948.470618563876 479.2366876600337,936.3997392084109 474.2304687323605"/>
<path d="M932.4522735103296 470.386190951792 L940.2074884603735 460.42513724037576,940.2074884603735 460.42513724037576,936.6083304177552 448.0975222384595"/>
<path d="M926.0173093125725 448.34715336325525 L933.7422154805615 438.5262148238935,933.7422154805615 438.5262148238935,930.1885362010277 426.3535767975119"/>
<path d="M939.8509294447865 430.69961439565594 L947.5814309633103 420.87489788000255,947.5814309633103 420.87489788000255,943.9880105953863 408.7026353082969"/>
<path d="M976.6412613530844 528.2520816474183 L967.8427829372722 518.130808109246,967.8427829372722 518.130808109246,954.5951356164703 518.7187626772561"/>
<path d="M952.8336431650823 529.1496644759254 L944.2166252393121 519.1131727015427,944.2166252393121 519.1131727015427,931.1876813641477 519.6917097073961"/>
<path d="M937.6016330608702 511.0290896032916 L929.2113600468133 501.0171727240486,929.2113600468133 501.0171727240486,916.2921382636717 501.5317568505095"/>
<path d="M911.100780507503 499.42575937092283 L913.9326825746921 486.7862827627355,913.9326825746921 486.7862827627355,905.4106479899922 476.90205352070797"/>
<path d="M895.8824990444123 481.71326880286136 L898.7434710032728 469.20464058351655,898.7434710032728 469.20464058351655,890.3192535943775 459.43374469568255"/>
<path d="M901.0646789475329 459.3036867900339 L903.9694305245077 446.8291332115391,903.9694305245077 446.8291332115391,895.5431651243151 437.07002938984044"/>
<path d="M885.8076003375528 441.966904308211 L888.6143548710289 429.5295338427473,888.6143548710289 429.5295338427473,896.6809014988885 419.6891899511928,896.6809014988885 419.6891899511928,893.3618150273513 407.36400504283154"/>
<path d="M882.7080296027533 407.539234164602 L890.752061592953 397.79060962145627,890.752061592953 397.79060962145627,887.4605801718353 385.56769744220054"/>
<path d="M897.0979399792759 390.05500020805016 L905.1420440369723 380.28225185337783,905.1420440369723 380.28225185337783,901.819395865514 368.03445973892923"/>
<path d="M882.3782072905896 359.0283424321913 L878.9957295231644 346.75573974980335,878.9957295231644 346.75573974980335,866.9830576066997 342.3048696111741"/>
<path d="M860.953075785395 351.0955798539836 L857.6045371877341 338.8620901502587,857.6045371877341 338.8620901502587,845.6465043765829 334.4314223540624"/>
<path d="M855.0293131002227 329.208876365921 L851.7157365684895 316.94625262652767,851.7157365684895 316.94625262652767,839.764324399632 312.46979075775994"/>
<path d="M894.0487055594803 432.15409681773673 L905.7340067335405 427.1145190838342,905.7340067335405 427.1145190838342,908.4072828319825 414.6619799754764"/>
<path d="M898.8319792438152 409.95465463773473 L910.4567978373101 404.9844320239615,910.4567978373101 404.9844320239615,913.1084744046482 392.6327382364524"/>
<path d="M919.5871820197204 400.9830077605488 L931.1881668725721 395.9640960225292,931.1881668725721 395.9640960225292,933.7816002594784 383.5830770902077"/>
<path d="M920.5123173298653 366.9935576564865 L922.9699129514896 354.6467399967838,922.9699129514896 354.6467399967838,914.2642863552162 345.3889101812702"/>
<path d="M904.9770651241594 350.4911605769918 L907.4521337545096 338.21214106456773,907.4521337545096 338.21214106456773,898.8006060030231 329.01171637726264"/>
<path d="M909.4562572474085 328.49651921467677 L911.9710140489468 316.18100014001556,911.9710140489468 316.18100014001556,903.3298844807973 306.92931488895005"/>
<path d="M885.2917979373133 302.79346981639424 L881.857391988135 290.5380292888064,881.857391988135 290.5380292888064,869.8762474809921 286.1290135722215"/>
<path d="M863.935201115972 294.9408168482734 L860.5114472804202 282.6975706465098,860.5114472804202 282.6975706465098,848.5473954002075 278.2948393805137"/>
<path d="M857.8521108608028 273.0220052022578 L854.4394669515912 260.72313088320124,854.4394669515912 260.72313088320124,842.4727679663426 256.26092187883876"/>
<path d="M839.0918119163288 252.31901391765567 L847.0873063814436 242.22465751055955,847.0873063814436 242.22465751055955,843.7227820917999 229.7577982220654"/>
<path d="M833.0873621732734 230.08702789625858 L841.0889643555684 219.9667728285936,841.0889643555684 219.9667728285936,837.7166540220759 207.47108011677676"/>
<path d="M847.3348372908698 211.86763624161367 L855.3533414072672 201.64256070267834,855.3533414072672 201.64256070267834,852.0005197745232 189.02711997639378"/>
<path d="M893.9549646782086 312.0253113424162 L896.4328468951614 299.70175457142295,896.4328468951614 299.70175457142295,904.2830452848311 289.8184391796243,904.2830452848311 289.8184391796243,900.777637596107 277.6907547910396"/>
<path d="M890.1875266556355 278.10315244041465 L898.0300754813708 268.2532643662892,898.0300754813708 268.2532643662892,894.535389124209 256.16266322338805"/>
<path d="M904.2128209361365 260.4045396476816 L912.0768207687057 250.4752503216903,912.0768207687057 250.4752503216903,908.5888931181427 238.297474379234"/>
<path d="M889.2528029140191 229.5743639600101 L885.7867375675332 217.27762676441895,885.7867375675332 217.27762676441895,873.835086402801 212.84129369221984"/>
<path d="M867.9578824739506 221.66378349611801 L864.4866927130093 209.36118916718053,864.4866927130093 209.36118916718053,852.5268443543624 204.92180793962245"/>
<path d="M861.7748693675109 199.59573733358712 L858.2989303075301 187.20913147467675,858.2989303075301 187.20913147467675,846.3305610493807 182.69052143878596"/>
<path d="M881.9409308670303 307.74567067040334 L873.2658306479238 298.37445927144967,873.2658306479238 298.37445927144967,860.5609480675965 299.89177442620286"/>
<path d="M859.2954391273242 310.4528224023735 L850.6288296671872 301.0849917439283,850.6288296671872 301.0849917439283,837.9341428978107 302.6011279112189"/>
<path d="M843.8592763909761 293.7153957533623 L835.1989527809077 284.32356041152264,835.1989527809077 284.32356041152264,822.5025861937104 285.81456939626173"/>
<path d="M817.7764389741092 283.7839213525962 L820.3164103347976 271.09867711555773,820.3164103347976 271.09867711555773,811.6767346316418 261.47057656579176"/>
<path d="M802.3704984117712 266.61102248114383 L804.8995254534466 253.88068777049378,804.8995254534466 253.88068777049378,796.2251586858937 244.21388481888388"/>
<path d="M806.8083682707671 243.76912809914037 L809.3155283029898 230.9326615460785,809.3155283029898 230.9326615460785,800.623602887836 221.16070680891582"/>
</g>
<g fill="none" stroke-width="2" stroke="#00ff00">
<path d="M1034.8214579803314 652.1844503245715 L1027.52952626802 640.7801477127235,1027.52952626802 640.7801477127235,1030.269155065261 629.1038388656774"/>
<path d="M1021.5544911381144 631.6512031883311 L1028.6622728145699 623.1095876095204,1028.6622728145699 623.1095876095204,1026.490239203756 610.5849472146327,1026.490239203756 610.5849472146327,1019.4389565441754 599.7066252829565,1019.4389565441754 599.7066252829565,1022.3701216471724 588.5488439773653"/>
<path d="M1012.9136415430497 591.4824055344884 L1005.6683215239475 581.177765829549,1005.6683215239475 581.177765829549,1008.3249533346186 569.657619533623"/>
<path d="M999.882138504737 572.5374026894953 L1007.4277658182158 563.6757752257917,1007.4277658182158 563.6757752257917,1004.4003682036422 551.4254524761953,1004.4003682036422 551.4254524761953,996.0564910612512 541.4019770757085,996.0564910612512 541.4019770757085,998.4430365121979 529.1374096452348"/>
<path d="M991.1425058991088 520.9437400523622 L987.2224650160806 508.4667683063555,987.2224650160806 508.4667683063555,994.4304069277822 498.5336228302232"/>
<path d="M984.0309503415111 498.7472213996003 L994.9336088536376 493.44814506709486,994.9336088536376 493.44814506709486,996.8931461945488 480.993270731882,996.8931461945488 480.993270731882,992.9967938536944 468.78552984955587,992.9967938536944 468.78552984955587,1000.1892358662307 459.0650571782112"/>
<path d="M980.3009111632017 450.4641121073679 L967.9372969787966 446.22981937390387,967.9372969787966 446.22981937390387,963.951675796069 434.23392506258665"/>
<path d="M958.2366702319039 442.9502004894103 L960.2690405296122 430.6441532877134,960.2690405296122 430.6441532877134,951.3312202908046 421.52688051988235,951.3312202908046 421.52688051988235,939.218469051955 417.3279690268255,939.218469051955 417.3279690268255,935.4842187731531 405.47079489017034"/>
<path d="M988.9380925824859 533.4944879421183 L980.0930016537075 523.5449843694857,980.0930016537075 523.5449843694857,967.6698142415697 518.3758007417935,967.6698142415697 518.3758007417935,964.1164884440261 505.74237974746256"/>
<path d="M957.9176223980304 514.3076397449033 L960.4985454031953 501.6557348349714,960.4985454031953 501.6557348349714,951.8040721450063 491.7324067420682,951.8040721450063 491.7324067420682,939.6706942366998 486.6551788455528,939.6706942366998 486.6551788455528,936.3997392084109 474.2304687323605"/>
<path d="M932.4522735103296 470.386190951792 L928.8670876683933 457.983639195503,928.8670876683933 457.983639195503,936.6083304177552 448.0975222384595"/>
<path d="M926.0173093125725 448.34715336325525 L937.4728796766275 443.1611126322905,937.4728796766275 443.1611126322905,939.8509294447865 430.69961439565594,939.8509294447865 430.69961439565594,936.2696190267075 418.46296750550295,936.2696190267075 418.46296750550295,943.9880105953863 408.7026353082969"/>
<path d="M976.6412613530844 528.2520816474183 L963.2961351920401 528.797886079544,963.2961351920401 528.797886079544,954.5951356164703 518.7187626772561"/>
<path d="M952.8336431650823 529.1496644759254 L949.6608071437498 516.3969529548951,949.6608071437498 516.3969529548951,937.6016330608702 511.0290896032916,937.6016330608702 511.0290896032916,924.5931806536723 511.5038946883915,924.5931806536723 511.5038946883915,916.2921382636717 501.5317568505095"/>
<path d="M911.100780507503 499.42575937092283 L902.5613309449633 489.4725570531044,902.5613309449633 489.4725570531044,905.4106479899922 476.90205352070797"/>
<path d="M895.8824990444123 481.71326880286136 L904.1679896725014 471.87790515252544,904.1679896725014 471.87790515252544,901.0646789475329 459.3036867900339,901.0646789475329 459.3036867900339,892.6238757031343 449.4860429632275,892.6238757031343 449.4860429632275,895.5431651243151 437.07002938984044"/>
<path d="M888.6143548710289 429.5295338427473 L885.305755714417 417.1553360980843,885.305755714417 417.1553360980843,893.3618150273513 407.36400504283154"/>
<path d="M882.7080296027533 407.539234164602 L894.4214933159257 402.49323838701093,894.4214933159257 402.49323838701093,897.0979399792759 390.05500020805016,897.0979399792759 390.05500020805016,893.7837783913467 377.7676236219426,893.7837783913467 377.7676236219426,901.819395865514 368.03445973892923"/>
<path d="M882.3782072905896 359.0283424321913 L870.3469607717672 354.55730149110593,870.3469607717672 354.55730149110593,866.9830576066997 342.3048696111741"/>
<path d="M860.953075785395 351.0955798539836 L863.6169605444188 338.64148051935837,863.6169605444188 338.64148051935837,855.0293131002227 329.208876365921,855.0293131002227 329.208876365921,843.0641627882949 324.71734970035186,843.0641627882949 324.71734970035186,839.764324399632 312.46979075775994"/>
<path d="M885.8076003375528 441.966904308211 L894.0487055594803 432.15409681773673,894.0487055594803 432.15409681773673,896.7529556643703 419.6638115590813,896.7529556643703 419.6638115590813,908.4072828319825 414.6619799754764"/>
<path d="M898.8319792438152 409.95465463773473 L911.560094497485 410.8129474125193,911.560094497485 410.8129474125193,919.5871820197204 400.9830077605488,919.5871820197204 400.9830077605488,922.2065621012208 388.5702024038765,922.2065621012208 388.5702024038765,933.7816002594784 383.5830770902077"/>
<path d="M920.5123173298653 366.9935576564865 L911.7963790286824 357.7000546915766,911.7963790286824 357.7000546915766,914.2642863552162 345.3889101812702"/>
<path d="M904.9770651241594 350.4911605769918 L912.8964369133387 340.6641638135059,912.8964369133387 340.6641638135059,909.4562572474085 328.49651921467677,909.4562572474085 328.49651921467677,900.8074576341664 319.2178324349745,900.8074576341664 319.2178324349745,903.3298844807973 306.92931488895005"/>
<path d="M893.9549646782086 312.0253113424162 L885.2917979373133 302.79346981639424,885.2917979373133 302.79346981639424,873.304831291938 298.37817978359533,873.304831291938 298.37817978359533,869.8762474809921 286.1290135722215"/>
<path d="M863.935201115972 294.9408168482734 L866.4842684565823 282.43162989985683,866.4842684565823 282.43162989985683,857.8521108608028 273.0220052022578,857.8521108608028 273.0220052022578,845.8842152590919 268.558492072721,845.8842152590919 268.558492072721,842.4727679663426 256.26092187883876"/>
<path d="M839.0918119163288 252.31901391765567 L835.724453557709 239.86595316725916,835.724453557709 239.86595316725916,843.7227820917999 229.7577982220654"/>
<path d="M833.0873621732734 230.08702789625858 L844.7254648264627 224.61612915733255,844.7254648264627 224.61612915733255,847.3348372908698 211.86763624161367,847.3348372908698 211.86763624161367,843.9773073354427 199.27525724180833,843.9773073354427 199.27525724180833,852.0005197745232 189.02711997639378"/>
<path d="M896.4328468951614 299.70175457142295 L892.9309502762562 287.55627247469005,892.9309502762562 287.55627247469005,900.777637596107 277.6907547910396"/>
<path d="M890.1875266556355 278.10315244041465 L901.7508646282982 272.835315351388,901.7508646282982 272.835315351388,904.2128209361365 260.4045396476816,904.2128209361365 260.4045396476816,900.7266946589855 248.21770474784984,900.7266946589855 248.21770474784984,908.5888931181427 238.297474379234"/>
<path d="M889.2528029140191 229.5743639600101 L877.3039591903425 225.14102841339215,877.3039591903425 225.14102841339215,873.835086402801 212.84129369221984"/>
<path d="M867.9578824739506 221.66378349611801 L870.4304819813793 209.0537923330866,870.4304819813793 209.0537923330866,861.7748693675109 199.59573733358712,861.7748693675109 199.59573733358712,849.8139118123772 195.08526837545526,849.8139118123772 195.08526837545526,846.3305610493807 182.69052143878596"/>
<path d="M881.9409308670303 307.74567067040334 L869.2315127810173 309.26133923035053,869.2315127810173 309.26133923035053,860.5609480675965 299.89177442620286"/>
<path d="M859.2954391273242 310.4528224023735 L855.8463764638011 298.15136840204013,855.8463764638011 298.15136840204013,843.8592763909761 293.7153957533623,843.8592763909761 293.7153957533623,831.1614104574392 295.20584356876935,831.1614104574392 295.20584356876935,822.5025861937104 285.81456939626173"/>
<path d="M817.7764389741092 283.7839213525962 L809.1432140192646 274.1794167086603,809.1432140192646 274.1794167086603,811.6767346316418 261.47057656579176"/>
<path d="M802.3704984117712 266.61102248114383 L810.2580082626248 256.3634678042711,810.2580082626248 256.3634678042711,806.8083682707671 243.76912809914037,806.8083682707671 243.76912809914037,798.1254493787171 234.03009672383286,798.1254493787171 234.03009672383286,800.623602887836 221.16070680891582"/>
</g>
<g fill="none" stroke-width="2" stroke="#008000">
<path d="M1034.8214579803314 652.1844503245715 L1023.7865432795986 644.3066221491182,1023.7865432795986 644.3066221491182,1021.5544911381144 631.6512031883311"/>
<path d="M1026.490239203756 610.5849472146327 L1015.4211144613847 603.619826345215,1015.4211144613847 603.619826345215,1012.9136415430497 591.4824055344884,1012.9136415430497 591.4824055344884,1002.1475235787352 584.7975339413595,1002.1475235787352 584.7975339413595,999.882138504737 572.5374026894953"/>
<path d="M1004.4003682036422 551.4254524761953 L992.3845104638932 546.0375303828042,992.3845104638932 546.0375303828042,988.9380925824859 533.4944879421183,988.9380925824859 533.4944879421183,976.6412613530844 528.2520816474183,976.6412613530844 528.2520816474183,965.0806537705764 534.487145806603,965.0806537705764 534.487145806603,952.8336431650823 529.1496644759254"/>
<path d="M991.1425058991088 520.9437400523622 L982.0520612838059 511.23640104512805,982.0520612838059 511.23640104512805,984.0309503415111 498.7472213996003"/>
<path d="M996.8931461945488 480.993270731882 L987.6885565735788 471.76409955414374,987.6885565735788 471.76409955414374,989.3893813110228 459.514310581382,989.3893813110228 459.514310581382,980.3009111632017 450.4641121073679,980.3009111632017 450.4641121073679,967.2979753474257 452.0658466897781,967.2979753474257 452.0658466897781,958.2366702319039 442.9502004894103"/>
<path d="M951.3312202908046 421.52688051988235 L938.4710341308925 423.26078514472755,938.4710341308925 423.26078514472755,929.517084579599 414.2108604246826"/>
<path d="M980.0930016537075 523.5449843694857 L966.748421809261 524.2636697304706,966.748421809261 524.2636697304706,957.9176223980304 514.3076397449033"/>
<path d="M951.8040721450063 491.7324067420682 L938.6158903642238 492.6891320627537,938.6158903642238 492.6891320627537,929.8911603020812 482.88954058716126,929.8911603020812 482.88954058716126,932.4522735103296 470.386190951792,932.4522735103296 470.386190951792,923.6175827998402 460.81614216308253,923.6175827998402 460.81614216308253,926.0173093125725 448.34715336325525"/>
<path d="M939.8509294447865 430.69961439565594 L930.9290596744104 421.4404428265022,930.9290596744104 421.4404428265022,933.1294378737272 409.12214795525585"/>
<path d="M937.6016330608702 511.0290896032916 L926.2054369429262 517.3632399860684,926.2054369429262 517.3632399860684,914.1553742058067 512.0650751946351,914.1553742058067 512.0650751946351,911.100780507503 499.42575937092283,911.100780507503 499.42575937092283,899.0121429789289 494.3203823592336,899.0121429789289 494.3203823592336,895.8824990444123 481.71326880286136"/>
<path d="M901.0646789475329 459.3036867900339 L888.9954767196874 454.43285097181877,888.9954767196874 454.43285097181877,885.8076003375528 441.966904308211"/>
<path d="M888.6143548710289 429.5295338427473 L880.0118252938274 419.96332803167587,880.0118252938274 419.96332803167587,882.7080296027533 407.539234164602"/>
<path d="M897.0979399792759 390.05500020805016 L888.4336774806677 380.6736607567857,888.4336774806677 380.6736607567857,890.9974940482878 368.3319825699449,890.9974940482878 368.3319825699449,882.3782072905896 359.0283424321913,882.3782072905896 359.0283424321913,869.570574903492 360.49602516308465,869.570574903492 360.49602516308465,860.953075785395 351.0955798539836"/>
<path d="M855.0293131002227 329.208876365921 L842.2539482664267 330.62673084458146,842.2539482664267 330.62673084458146,833.6549088418029 321.1598757328127"/>
<path d="M894.0487055594803 432.15409681773673 L890.75313876689 419.74977504905763,890.75313876689 419.74977504905763,898.8319792438152 409.95465463773473"/>
<path d="M919.5871820197204 400.9830077605488 L916.1278661625098 388.797854180061,916.1278661625098 388.797854180061,923.9660423707359 379.0767526106744,923.9660423707359 379.0767526106744,920.5123173298653 366.9935576564865,920.5123173298653 366.9935576564865,908.447105325662 362.62534501191647,908.447105325662 362.62534501191647,904.9770651241594 350.4911605769918"/>
<path d="M909.4562572474085 328.49651921467677 L897.4262919038052 324.16677718371733,897.4262919038052 324.16677718371733,893.9549646782086 312.0253113424162,893.9549646782086 312.0253113424162,881.9409308670303 307.74567067040334,881.9409308670303 307.74567067040334,871.2897500092269 314.8654529104543,871.2897500092269 314.8654529104543,859.2954391273242 310.4528224023735"/>
<path d="M885.2917979373133 302.79346981639424 L872.5789506784353 304.29985487476995,872.5789506784353 304.29985487476995,863.935201115972 294.9408168482734"/>
<path d="M857.8521108608028 273.0220052022578 L845.1621316091401 274.3990868303655,845.1621316091401 274.3990868303655,836.5353381712548 264.90959861288053,836.5353381712548 264.90959861288053,839.0918119163288 252.31901391765567,839.0918119163288 252.31901391765567,830.4938160534267 242.73827691333827,830.4938160534267 242.73827691333827,833.0873621732734 230.08702789625858"/>
<path d="M847.3348372908698 211.86763624161367 L838.7708074707052 202.13631434477196,838.7708074707052 202.13631434477196,841.4334834154636 189.3741998704655"/>
<path d="M896.4328468951614 299.70175457142295 L887.7367514950297 290.46278912012815,887.7367514950297 290.46278912012815,890.1875266556355 278.10315244041465"/>
<path d="M904.2128209361365 260.4045396476816 L895.5123756484968 251.17123854018894,895.5123756484968 251.17123854018894,897.9407305353396 238.78650831093907,897.9407305353396 238.78650831093907,889.2528029140191 229.5743639600101,889.2528029140191 229.5743639600101,876.6131189074193 231.0485137840868,876.6131189074193 231.0485137840868,867.9578824739506 221.66378349611801"/>
<path d="M861.7748693675109 199.59573733358712 L849.1533937758398 200.86179886693412,849.1533937758398 200.86179886693412,840.5153613530866 191.27803650175042"/>
<path d="M843.8592763909761 293.7153957533623 L833.220253085398 300.71128334843394,833.220253085398 300.71128334843394,821.2312270611333 296.18265528972273,821.2312270611333 296.18265528972273,817.7764389741092 283.7839213525962,817.7764389741092 283.7839213525962,805.803216655427 279.1152888142322,805.803216655427 279.1152888142322,802.3704984117712 266.61102248114383"/>
<path d="M806.8083682707671 243.76912809914037 L794.8290894466193 238.87207655217657,794.8290894466193 238.87207655217657,791.4269420268154 226.17670524242166"/>
</g>
</svg>