<?xml version="1.0" encoding="UTF-8" standalone="no"?>
<!-- Generator: https://github.com/anvaka/l-system -->

<svg
   version="1.1"
   viewBox="0 0 610.48969 576.34852"
   id="svg1351"
   sodipodi:docname="another-aquatic.svg"
   width="610.48969"
   height="576.34851"
   inkscape:version="1.1.2 (0a00cf5339, 2022-02-04)"
   inkscape:export-filename="/home/mwa/Audio/supercollider/supercollider-lsystems/another-aquatic.png"
   inkscape:export-xdpi="28.959999"
   inkscape:export-ydpi="28.959999"
   xmlns:inkscape="http://www.inkscape.org/namespaces/inkscape"
   xmlns:sodipodi="http://sodipodi.sourceforge.net/DTD/sodipodi-0.dtd"
   xmlns="http://www.w3.org/2000/svg"
   xmlns:svg="http://www.w3.org/2000/svg">
  <defs
     id="defs1355" />
  <sodipodi:namedview
     id="namedview1353"
     pagecolor="#ffffff"
     bordercolor="#666666"
     borderopacity="1.0"
     inkscape:pageshadow="2"
     inkscape:pageopacity="0.0"
     inkscape:pagecheckerboard="0"
     showgrid="false"
     inkscape:zoom="0.93069307"
     inkscape:cx="2.1489362"
     inkscape:cy="334.15957"
     inkscape:window-width="1920"
     inkscape:window-height="1055"
     inkscape:window-x="0"
     inkscape:window-y="25"
     inkscape:window-maximized="1"
     inkscape:current-layer="svg1351" />
  <style
     id="style1108">
  path {
   vector-effect: non-scaling-stroke;
  }
</style>
  <rect
     id="background"
     fill="#0c2952"
     x="0"
     y="0"
     width="610.48969"
     height="576.34851"
     style="stroke-width:0.480004" />
  <g
     fill="none"
     stroke-width="2"
     stroke="#a52a2a"
     id="g1113"
     transform="translate(-612.91834,-120.86048)">
    <path
       d="m 1036.7467,664.98096 -1.9252,-12.79651"
       id="path1111" />
  </g>
  <g
     fill="none"
     stroke-width="2"
     stroke="#daa520"
     id="g1223"
     transform="translate(-612.91834,-120.86048)">
    <path
       d="m 1034.8215,652.18445 2.6971,-11.89181 v 0 l -7.2494,-11.1888"
       id="path1115" />
    <path
       d="m 1021.5545,631.6512 2.7693,-11.48561 v 0 l -6.9979,-10.80276"
       id="path1117" />
    <path
       d="m 1026.4902,610.58495 2.8955,-11.34876 v 0 l -7.0156,-10.68735"
       id="path1119" />
    <path
       d="m 1012.9136,591.48241 2.533,-11.21073 v 0 l -7.7135,-9.91247"
       id="path1121" />
    <path
       d="m 999.88214,572.5374 2.76726,-11.71083 v 0 l -8.02575,-10.08099"
       id="path1123" />
    <path
       d="m 1004.4004,551.42545 2.25,-12.0343 v 0 l -8.67513,-9.71799"
       id="path1125" />
    <path
       d="m 988.93809,533.49449 2.20442,-12.55075 v 0 l 7.22397,-10.04243 v 0 l -3.93607,-12.36769"
       id="path1127" />
    <path
       d="m 984.03095,498.74722 7.18855,-9.83823 v 0 l -3.86389,-12.14311"
       id="path1129" />
    <path
       d="m 996.89315,480.99327 7.20695,-9.817 v 0 l -3.9109,-12.11121"
       id="path1131" />
    <path
       d="m 980.30091,450.46411 -4.04725,-12.05707 v 0 l -12.30198,-4.17311"
       id="path1133" />
    <path
       d="m 958.23667,442.9502 -3.93441,-11.93874 v 0 l -12.12845,-4.11441"
       id="path1135" />
    <path
       d="m 951.33122,421.52688 -3.78857,-11.9122 v 0 l -12.05843,-4.14389"
       id="path1137" />
    <path
       d="m 980.093,523.54498 -3.6242,-12.71239 v 0 l -12.35231,-5.09021"
       id="path1139" />
    <path
       d="m 957.91762,514.30764 -3.49482,-12.55998 v 0 l -12.14763,-5.00587"
       id="path1141" />
    <path
       d="m 951.80407,491.73241 -3.33345,-12.49572 v 0 l -12.07088,-5.00622"
       id="path1143" />
    <path
       d="m 932.45227,470.38619 7.75522,-9.96105 v 0 l -3.59916,-12.32762"
       id="path1145" />
    <path
       d="m 926.01731,448.34715 7.72491,-9.82094 v 0 l -3.55368,-12.17263"
       id="path1147" />
    <path
       d="m 939.85093,430.69961 7.7305,-9.82471 v 0 l -3.59342,-12.17226"
       id="path1149" />
    <path
       d="m 976.64126,528.25208 -8.79848,-10.12127 v 0 l -13.24764,0.58795"
       id="path1151" />
    <path
       d="m 952.83364,529.14966 -8.61701,-10.03649 v 0 l -13.02895,0.57854"
       id="path1153" />
    <path
       d="m 937.60163,511.02909 -8.39027,-10.01192 v 0 l -12.91922,0.51459"
       id="path1155" />
    <path
       d="m 911.10078,499.42576 2.8319,-12.63948 v 0 l -8.52203,-9.88423"
       id="path1157" />
    <path
       d="m 895.8825,481.71327 2.86097,-12.50863 v 0 l -8.42422,-9.7709"
       id="path1159" />
    <path
       d="m 901.06468,459.30369 2.90475,-12.47456 v 0 l -8.42626,-9.7591"
       id="path1161" />
    <path
       d="m 885.8076,441.9669 2.80675,-12.43737 v 0 l 8.06655,-9.84034 v 0 l -3.31908,-12.32518"
       id="path1163" />
    <path
       d="m 882.70803,407.53923 8.04403,-9.74862 v 0 l -3.29148,-12.22291"
       id="path1165" />
    <path
       d="m 897.09794,390.055 8.0441,-9.77275 v 0 l -3.32264,-12.24779"
       id="path1167" />
    <path
       d="m 882.37821,359.02834 -3.38248,-12.2726 v 0 l -12.01267,-4.45087"
       id="path1169" />
    <path
       d="m 860.95308,351.09558 -3.34854,-12.23349 v 0 l -11.95804,-4.43067"
       id="path1171" />
    <path
       d="m 855.02931,329.20888 -3.31357,-12.26263 v 0 l -11.95142,-4.47646"
       id="path1173" />
    <path
       d="m 894.04871,432.1541 11.6853,-5.03958 v 0 l 2.67327,-12.45254"
       id="path1175" />
    <path
       d="m 898.83198,409.95465 11.62482,-4.97022 v 0 l 2.65167,-12.35169"
       id="path1177" />
    <path
       d="m 919.58718,400.98301 11.60099,-5.01891 v 0 l 2.59343,-12.38102"
       id="path1179" />
    <path
       d="m 920.51232,366.99356 2.45759,-12.34682 v 0 l -8.70562,-9.25783"
       id="path1181" />
    <path
       d="m 904.97707,350.49116 2.47506,-12.27902 v 0 l -8.65152,-9.20042"
       id="path1183" />
    <path
       d="m 909.45626,328.49652 2.51475,-12.31552 v 0 l -8.64113,-9.25169"
       id="path1185" />
    <path
       d="m 885.2918,302.79347 -3.43441,-12.25544 v 0 l -11.98114,-4.40902"
       id="path1187" />
    <path
       d="m 863.9352,294.94082 -3.42375,-12.24325 v 0 l -11.96405,-4.40273"
       id="path1189" />
    <path
       d="m 857.85211,273.02201 -3.41264,-12.29888 v 0 l -11.9667,-4.46221"
       id="path1191" />
    <path
       d="m 839.09181,252.31901 7.9955,-10.09435 v 0 l -3.36453,-12.46686"
       id="path1193" />
    <path
       d="m 833.08736,230.08703 8.0016,-10.12026 v 0 l -3.37231,-12.49569"
       id="path1195" />
    <path
       d="m 847.33484,211.86764 8.0185,-10.22508 v 0 l -3.35282,-12.61544"
       id="path1197" />
    <path
       d="m 893.95496,312.02531 2.47789,-12.32356 v 0 l 7.8502,-9.88331 v 0 l -3.50541,-12.12769"
       id="path1199" />
    <path
       d="m 890.18753,278.10315 7.84255,-9.84989 v 0 l -3.49469,-12.0906"
       id="path1201" />
    <path
       d="m 904.21282,260.40454 7.864,-9.92929 v 0 l -3.48793,-12.17778"
       id="path1203" />
    <path
       d="m 889.2528,229.57436 -3.46606,-12.29673 v 0 l -11.95165,-4.43634"
       id="path1205" />
    <path
       d="m 867.95788,221.66378 -3.47119,-12.30259 v 0 l -11.95985,-4.43938"
       id="path1207" />
    <path
       d="m 861.77487,199.59574 -3.47594,-12.38661 v 0 l -11.96837,-4.51861"
       id="path1209" />
    <path
       d="m 881.94093,307.74567 -8.6751,-9.37121 v 0 l -12.70488,1.51731"
       id="path1211" />
    <path
       d="m 859.29544,310.45282 -8.66661,-9.36783 v 0 l -12.69469,1.51614"
       id="path1213" />
    <path
       d="m 843.85928,293.7154 -8.66033,-9.39184 v 0 l -12.69636,1.49101"
       id="path1215" />
    <path
       d="m 817.77644,283.78392 2.53997,-12.68524 v 0 l -8.63968,-9.6281"
       id="path1217" />
    <path
       d="m 802.3705,266.61102 2.52903,-12.73033 v 0 l -8.67437,-9.66681"
       id="path1219" />
    <path
       d="m 806.80837,243.76913 2.50716,-12.83647 v 0 l -8.69193,-9.77195"
       id="path1221" />
  </g>
  <g
     fill="none"
     stroke-width="2"
     stroke="#00ff00"
     id="g1297"
     transform="translate(-612.91834,-120.86048)">
    <path
       d="m 1034.8215,652.18445 -7.292,-11.4043 v 0 l 2.7397,-11.67631"
       id="path1225" />
    <path
       d="m 1021.5545,631.6512 7.1078,-8.54161 v 0 l -2.1721,-12.52464 v 0 l -7.0512,-10.87832 v 0 l 2.9311,-11.15779"
       id="path1227" />
    <path
       d="m 1012.9136,591.48241 -7.2453,-10.30464 v 0 l 2.6567,-11.52015"
       id="path1229" />
    <path
       d="m 999.88214,572.5374 7.54566,-8.86162 v 0 l -3.0274,-12.25033 v 0 l -8.34391,-10.02347 v 0 l 2.38655,-12.26457"
       id="path1231" />
    <path
       d="m 991.14251,520.94374 -3.92004,-12.47697 v 0 l 7.20794,-9.93315"
       id="path1233" />
    <path
       d="m 984.03095,498.74722 10.90266,-5.29907 v 0 l 1.95954,-12.45488 v 0 l -3.89636,-12.20774 v 0 l 7.19241,-9.72047"
       id="path1235" />
    <path
       d="m 980.30091,450.46411 -12.36361,-4.23429 v 0 l -3.98562,-11.99589"
       id="path1237" />
    <path
       d="m 958.23667,442.9502 2.03237,-12.30605 v 0 l -8.93782,-9.11727 v 0 l -12.11275,-4.19891 v 0 l -3.73425,-11.85718"
       id="path1239" />
    <path
       d="m 988.93809,533.49449 -8.84509,-9.94951 v 0 l -12.42319,-5.16918 v 0 l -3.55332,-12.63342"
       id="path1241" />
    <path
       d="m 957.91762,514.30764 2.58093,-12.65191 v 0 l -8.69448,-9.92332 v 0 l -12.13338,-5.07723 v 0 l -3.27095,-12.42471"
       id="path1243" />
    <path
       d="m 932.45227,470.38619 -3.58518,-12.40255 v 0 l 7.74124,-9.88612"
       id="path1245" />
    <path
       d="m 926.01731,448.34715 11.45557,-5.18604 v 0 l 2.37805,-12.4615 v 0 l -3.58131,-12.23664 v 0 l 7.71839,-9.76033"
       id="path1247" />
    <path
       d="m 976.64126,528.25208 -13.34512,0.54581 v 0 l -8.701,-10.07913"
       id="path1249" />
    <path
       d="m 952.83364,529.14966 -3.17283,-12.75271 v 0 l -12.05918,-5.36786 v 0 l -13.00845,0.4748 v 0 l -8.30104,-9.97213"
       id="path1251" />
    <path
       d="m 911.10078,499.42576 -8.53945,-9.9532 v 0 l 2.84932,-12.57051"
       id="path1253" />
    <path
       d="m 895.8825,481.71327 8.28549,-9.83536 v 0 l -3.10331,-12.57422 v 0 l -8.4408,-9.81765 v 0 l 2.91929,-12.41601"
       id="path1255" />
    <path
       d="m 888.61435,429.52953 -3.30859,-12.37419 v 0 l 8.05606,-9.79133"
       id="path1257" />
    <path
       d="m 882.70803,407.53923 11.71346,-5.04599 v 0 l 2.67645,-12.43824 v 0 l -3.31416,-12.28738 v 0 l 8.03562,-9.73316"
       id="path1259" />
    <path
       d="m 882.37821,359.02834 -12.03125,-4.47104 v 0 l -3.3639,-12.25243"
       id="path1261" />
    <path
       d="m 860.95308,351.09558 2.66388,-12.4541 v 0 l -8.58765,-9.4326 v 0 l -11.96515,-4.49153 v 0 l -3.29984,-12.24756"
       id="path1263" />
    <path
       d="m 885.8076,441.9669 8.24111,-9.8128 v 0 l 2.70425,-12.49029 v 0 l 11.65432,-5.00183"
       id="path1265" />
    <path
       d="m 898.83198,409.95465 12.72811,0.8583 v 0 l 8.02709,-9.82994 v 0 l 2.61938,-12.41281 v 0 l 11.57504,-4.98712"
       id="path1267" />
    <path
       d="m 920.51232,366.99356 -8.71594,-9.29351 v 0 l 2.46791,-12.31114"
       id="path1269" />
    <path
       d="m 904.97707,350.49116 7.91937,-9.827 v 0 l -3.44018,-12.16764 v 0 l -8.6488,-9.27869 v 0 l 2.52242,-12.28852"
       id="path1271" />
    <path
       d="m 893.95496,312.02531 -8.66316,-9.23184 v 0 l -11.98697,-4.41529 v 0 l -3.42858,-12.24917"
       id="path1273" />
    <path
       d="m 863.9352,294.94082 2.54907,-12.50919 v 0 l -8.63216,-9.40962 v 0 l -11.96789,-4.46352 v 0 l -3.41145,-12.29757"
       id="path1275" />
    <path
       d="m 839.09181,252.31901 -3.36736,-12.45306 v 0 l 7.99833,-10.10815"
       id="path1277" />
    <path
       d="m 833.08736,230.08703 11.6381,-5.4709 v 0 l 2.60938,-12.74849 v 0 l -3.35753,-12.59238 v 0 l 8.02321,-10.24814"
       id="path1279" />
    <path
       d="m 896.43285,299.70175 -3.5019,-12.14548 v 0 l 7.84669,-9.86552"
       id="path1281" />
    <path
       d="m 890.18753,278.10315 11.56333,-5.26783 v 0 l 2.46196,-12.43078 v 0 l -3.48613,-12.18684 v 0 l 7.8622,-9.92023"
       id="path1283" />
    <path
       d="m 889.2528,229.57436 -11.94884,-4.43333 v 0 l -3.46887,-12.29974"
       id="path1285" />
    <path
       d="m 867.95788,221.66378 2.4726,-12.60999 v 0 l -8.65561,-9.45805 v 0 l -11.96096,-4.51047 v 0 l -3.48335,-12.39475"
       id="path1287" />
    <path
       d="m 881.94093,307.74567 -12.70942,1.51567 v 0 l -8.67056,-9.36957"
       id="path1289" />
    <path
       d="m 859.29544,310.45282 -3.44906,-12.30145 v 0 l -11.9871,-4.43597 v 0 l -12.69787,1.49044 v 0 l -8.65882,-9.39127"
       id="path1291" />
    <path
       d="m 817.77644,283.78392 -8.63323,-9.6045 v 0 l 2.53352,-12.70884"
       id="path1293" />
    <path
       d="m 802.3705,266.61102 7.88751,-10.24755 v 0 l -3.44964,-12.59434 v 0 l -8.68292,-9.73903 v 0 l 2.49815,-12.86939"
       id="path1295" />
  </g>
  <g
     fill="none"
     stroke-width="2"
     stroke="#008000"
     id="g1349"
     transform="translate(-612.91834,-120.86048)">
    <path
       d="m 1034.8215,652.18445 -11.035,-7.87783 v 0 l -2.232,-12.65542"
       id="path1299" />
    <path
       d="m 1026.4902,610.58495 -11.0691,-6.96512 v 0 l -2.5075,-12.13742 v 0 l -10.7661,-6.68488 v 0 l -2.26536,-12.26013"
       id="path1301" />
    <path
       d="m 1004.4004,551.42545 -12.01589,-5.38792 v 0 l -3.44642,-12.54304 v 0 l -12.29683,-5.24241 v 0 l -11.56061,6.23507 v 0 l -12.24701,-5.33749"
       id="path1303" />
    <path
       d="m 991.14251,520.94374 -9.09045,-9.70734 v 0 l 1.97889,-12.48918"
       id="path1305" />
    <path
       d="m 996.89315,480.99327 -9.20459,-9.22917 v 0 l 1.70082,-12.24979 v 0 l -9.08847,-9.0502 v 0 l -13.00293,1.60174 v 0 l -9.06131,-9.11565"
       id="path1307" />
    <path
       d="m 951.33122,421.52688 -12.86019,1.73391 v 0 l -8.95395,-9.04993"
       id="path1309" />
    <path
       d="m 980.093,523.54498 -13.34458,0.71869 v 0 l -8.8308,-9.95603"
       id="path1311" />
    <path
       d="m 951.80407,491.73241 -13.18818,0.95672 v 0 l -8.72473,-9.79959 v 0 l 2.56111,-12.50335 v 0 l -8.83469,-9.57005 v 0 l 2.39973,-12.46899"
       id="path1313" />
    <path
       d="m 939.85093,430.69961 -8.92187,-9.25917 v 0 l 2.20038,-12.31829"
       id="path1315" />
    <path
       d="m 937.60163,511.02909 -11.39619,6.33415 v 0 l -12.05007,-5.29816 v 0 l -3.05459,-12.63932 v 0 l -12.08864,-5.10538 v 0 l -3.12964,-12.60711"
       id="path1317" />
    <path
       d="m 901.06468,459.30369 -12.0692,-4.87084 v 0 L 885.8076,441.9669"
       id="path1319" />
    <path
       d="m 888.61435,429.52953 -8.60252,-9.5662 v 0 l 2.6962,-12.4241"
       id="path1321" />
    <path
       d="m 897.09794,390.055 -8.66426,-9.38134 v 0 l 2.56381,-12.34168 v 0 l -8.61928,-9.30364 v 0 l -12.80764,1.46769 v 0 l -8.61749,-9.40045"
       id="path1323" />
    <path
       d="m 855.02931,329.20888 -12.77536,1.41785 v 0 l -8.59904,-9.46685"
       id="path1325" />
    <path
       d="m 894.04871,432.1541 -3.29557,-12.40432 v 0 l 8.07884,-9.79513"
       id="path1327" />
    <path
       d="m 919.58718,400.98301 -3.45931,-12.18516 v 0 l 7.83817,-9.7211 v 0 l -3.45372,-12.08319 v 0 l -12.06521,-4.36821 v 0 l -3.47004,-12.13419"
       id="path1329" />
    <path
       d="m 909.45626,328.49652 -12.02997,-4.32974 v 0 l -3.47133,-12.14147 v 0 l -12.01403,-4.27964 v 0 l -10.65118,7.11978 v 0 l -11.99431,-4.41263"
       id="path1331" />
    <path
       d="m 885.2918,302.79347 -12.71285,1.50638 v 0 l -8.64375,-9.35903"
       id="path1333" />
    <path
       d="m 857.85211,273.02201 -12.68998,1.37708 v 0 l -8.62679,-9.48949 v 0 l 2.55647,-12.59059 v 0 l -8.59799,-9.58073 v 0 l 2.59354,-12.65125"
       id="path1335" />
    <path
       d="m 847.33484,211.86764 -8.56403,-9.73133 v 0 l 2.66267,-12.76211"
       id="path1337" />
    <path
       d="m 896.43285,299.70175 -8.6961,-9.23896 v 0 l 2.45078,-12.35964"
       id="path1339" />
    <path
       d="m 904.21282,260.40454 -8.70044,-9.2333 v 0 l 2.42835,-12.38473 v 0 l -8.68793,-9.21215 v 0 l -12.63968,1.47415 v 0 l -8.65524,-9.38473"
       id="path1341" />
    <path
       d="m 861.77487,199.59574 -12.62148,1.26606 v 0 l -8.63803,-9.58376"
       id="path1343" />
    <path
       d="m 843.85928,293.7154 -10.63903,6.99588 v 0 l -11.98902,-4.52862 v 0 l -3.45479,-12.39874 v 0 l -11.97322,-4.66863 v 0 l -3.43272,-12.50427"
       id="path1345" />
    <path
       d="m 806.80837,243.76913 -11.97928,-4.89705 v 0 l -3.40215,-12.69537"
       id="path1347" />
  </g>
</svg>
