<?xml version="1.0" encoding="utf-8"?>
<!-- Generator: https://github.com/anvaka/l-system -->
<!DOCTYPE svg PUBLIC "-//W3C//DTD SVG 1.1//EN" "http://www.w3.org/Graphics/SVG/1.1/DTD/svg11.dtd">
<svg version="1.1" xmlns="http://www.w3.org/2000/svg" xmlns:xlink="http://www.w3.org/1999/xlink"
    viewBox="0 0 1680 909">
<style>
  path {
   vector-effect: non-scaling-stroke;
  }
</style>

<rect id="background" fill="#0c2952" x="0" y="0" width="1680" height="909"></rect>
<g fill="none" stroke-width="2" stroke="#ffffff">
<path d="M811.7466632273363 335.242845474803 L819.4138284596189 321.9629250668176,819.4138284596189 321.9629250668176,804.0794979950537 321.9629250668176,804.0794979950537 321.9629250668176,796.4123327627711 308.68300465883243,796.4123327627711 308.68300465883243,811.7466632273363 308.68300465883243,811.7466632273363 308.68300465883243,827.0809936919014 308.68300465883243,827.0809936919014 308.68300465883243,834.7481589241839 321.9629250668176,834.7481589241839 321.9629250668176,850.0824893887492 321.9629250668176,850.0824893887492 321.9629250668176,857.7496546210316 308.68300465883243,857.7496546210316 308.68300465883243,865.4168198533142 295.4030857132428,865.4168198533142 295.4030857132428,850.0824893887492 295.4030857132428,850.0824893887492 295.4030857132428,842.4153241564666 308.68300465883243,842.4153241564666 308.68300465883243,834.7481589241839 295.4030857132428,834.7481589241839 295.4030857132428,842.4153241564666 282.1231638428618,842.4153241564666 282.1231638428618,834.7481589241839 268.8432478220637,834.7481589241839 268.8432478220637,819.4138284596189 268.8432478220637,819.4138284596189 268.8432478220637,804.0794979950537 268.8432478220637,804.0794979950537 268.8432478220637,811.7466632273363 282.1231638428618,811.7466632273363 282.1231638428618,827.0809936919014 282.1231638428618,827.0809936919014 282.1231638428618,819.4138284596189 295.4030857132428,819.4138284596189 295.4030857132428,804.0794979950537 295.4030857132428,804.0794979950537 295.4030857132428,796.4123327627711 282.1231638428618,796.4123327627711 282.1231638428618,781.078002298206 282.1231638428618,781.078002298206 282.1231638428618,788.7451675304885 295.4030857132428,788.7451675304885 295.4030857132428,781.078002298206 308.68300465883243,781.078002298206 308.68300465883243,773.4108370659235 295.4030857132428,773.4108370659235 295.4030857132428,765.7436718336409 282.1231638428618,765.7436718336409 282.1231638428618,773.4108370659235 268.8432478220637,773.4108370659235 268.8432478220637,788.7451675304885 268.8432478220637,788.7451675304885 268.8432478220637,796.4123327627711 255.5633259516827,796.4123327627711 255.5633259516827,781.078002298206 255.5633259516827,781.078002298206 255.5633259516827,773.4108370659235 242.28340993088446,773.4108370659235 242.28340993088446,788.7451675304885 242.28340993088446,788.7451675304885 242.28340993088446,804.0794979950537 242.28340993088446,804.0794979950537 242.28340993088446,811.7466632273363 255.5633259516827,811.7466632273363 255.5633259516827,827.0809936919014 255.5633259516827,827.0809936919014 255.5633259516827,834.7481589241839 242.28340993088446,834.7481589241839 242.28340993088446,819.4138284596189 242.28340993088446,819.4138284596189 242.28340993088446,811.7466632273363 229.0034822109206,811.7466632273363 229.0034822109206,827.0809936919014 229.0034822109206,827.0809936919014 229.0034822109206,842.4153241564666 229.0034822109206,842.4153241564666 229.0034822109206,850.0824893887492 242.28340993088446,850.0824893887492 242.28340993088446,842.4153241564666 255.5633259516827,842.4153241564666 255.5633259516827,850.0824893887492 268.8432478220637,850.0824893887492 268.8432478220637,857.7496546210316 282.1231638428618,857.7496546210316 282.1231638428618,865.4168198533142 268.8432478220637,865.4168198533142 268.8432478220637,857.7496546210316 255.5633259516827,857.7496546210316 255.5633259516827,873.0839850855969 255.5633259516827,873.0839850855969 255.5633259516827,880.7511503178795 268.8432478220637,880.7511503178795 268.8432478220637,896.0854807824446 268.8432478220637,896.0854807824446 268.8432478220637,903.752646014727 255.5633259516827,903.752646014727 255.5633259516827,888.418315550162 255.5633259516827,888.418315550162 255.5633259516827,880.7511503178795 242.28340993088446,880.7511503178795 242.28340993088446,896.0854807824446 242.28340993088446,896.0854807824446 242.28340993088446,911.4198112470096 242.28340993088446,911.4198112470096 242.28340993088446,919.0869764792923 255.5633259516827,919.0869764792923 255.5633259516827,934.4213069438575 255.5633259516827,934.4213069438575 255.5633259516827,942.0884721761399 242.28340993088446,942.0884721761399 242.28340993088446,949.7556374084224 229.0034822109206,949.7556374084224 229.0034822109206,934.4213069438575 229.0034822109206,934.4213069438575 229.0034822109206,926.7541417115749 242.28340993088446,926.7541417115749 242.28340993088446,919.0869764792923 229.0034822109206,919.0869764792923 229.0034822109206,926.7541417115749 215.72357203970535,926.7541417115749 215.72357203970535,942.0884721761399 215.72357203970535,942.0884721761399 215.72357203970535,949.7556374084224 202.4436501693243,949.7556374084224 202.4436501693243,957.4228026407051 189.16372829894334,957.4228026407051 189.16372829894334,942.08847217614 189.16372829894334,942.08847217614 189.16372829894334,934.4213069438575 202.4436501693243,934.4213069438575 202.4436501693243,926.7541417115749 189.16372829894334,926.7541417115749 189.16372829894334,934.4213069438575 175.88380642856228,934.4213069438575 175.88380642856228,926.7541417115749 162.60388455818122,926.7541417115749 162.60388455818122,911.4198112470096 162.60388455818122,911.4198112470096 162.60388455818122,896.0854807824446 162.60388455818122,896.0854807824446 162.60388455818122,903.752646014727 175.88380642856228,903.752646014727 175.88380642856228,919.0869764792923 175.88380642856228,919.0869764792923 175.88380642856228,911.4198112470096 189.16372829894334,911.4198112470096 189.16372829894334,896.0854807824446 189.16372829894334,896.0854807824446 189.16372829894334,888.418315550162 202.4436501693243,888.418315550162 202.4436501693243,896.0854807824446 215.72357203970535,896.0854807824446 215.72357203970535,903.752646014727 202.4436501693243,903.752646014727 202.4436501693243,919.0869764792923 202.4436501693243,919.0869764792923 202.4436501693243,911.4198112470096 215.72357203970535,911.4198112470096 215.72357203970535,903.752646014727 229.0034822109206,903.752646014727 229.0034822109206,888.418315550162 229.0034822109206,888.418315550162 229.0034822109206,880.7511503178795 215.72357203970535,880.7511503178795 215.72357203970535,865.4168198533142 215.72357203970535,865.4168198533142 215.72357203970535,873.0839850855969 229.0034822109206,873.0839850855969 229.0034822109206,865.4168198533142 242.28340993088446,865.4168198533142 242.28340993088446,857.7496546210316 229.0034822109206,857.7496546210316 229.0034822109206,850.0824893887492 215.72357203970535,850.0824893887492 215.72357203970535,857.7496546210316 202.4436501693243,857.7496546210316 202.4436501693243,873.0839850855969 202.4436501693243,873.0839850855969 202.4436501693243,880.7511503178795 189.16372829894334,880.7511503178795 189.16372829894334,888.418315550162 175.88380642856228,888.418315550162 175.88380642856228,873.0839850855969 175.88380642856228,873.0839850855969 175.88380642856228,865.4168198533142 189.16372829894334,865.4168198533142 189.16372829894334,857.7496546210316 175.88380642856228,857.7496546210316 175.88380642856228,865.4168198533142 162.60388455818122,865.4168198533142 162.60388455818122,857.7496546210316 149.32397438696609,857.7496546210316 149.32397438696609,842.4153241564666 149.32397438696609,842.4153241564666 149.32397438696609,850.0824893887492 162.60388455818122,850.0824893887492 162.60388455818122,842.4153241564666 175.88380642856228,842.4153241564666 175.88380642856228,834.7481589241839 162.60388455818122,834.7481589241839 162.60388455818122,827.0809936919014 149.32397438696609,827.0809936919014 149.32397438696609,834.7481589241839 136.04405251658503,834.7481589241839 136.04405251658503,827.0809936919014 122.76411894703834,827.0809936919014 122.76411894703834,811.7466632273362 122.76411894703834,811.7466632273362 122.76411894703834,796.4123327627711 122.76411894703834,796.4123327627711 122.76411894703834,804.0794979950537 136.04405251658503,804.0794979950537 136.04405251658503,819.4138284596189 136.04405251658503,819.4138284596189 136.04405251658503,811.7466632273362 149.32397438696609,811.7466632273362 149.32397438696609,796.4123327627711 149.32397438696609,796.4123327627711 149.32397438696609,788.7451675304885 136.04405251658503,788.7451675304885 136.04405251658503,773.4108370659235 136.04405251658503,773.4108370659235 136.04405251658503,758.0765066013583 136.04405251658503,758.0765066013583 136.04405251658503,765.7436718336409 149.32397438696609,765.7436718336409 149.32397438696609,781.078002298206 149.32397438696609,781.078002298206 149.32397438696609,773.4108370659235 162.60388455818122,773.4108370659235 162.60388455818122,758.0765066013583 162.60388455818122,758.0765066013583 162.60388455818122,750.4093413690757 175.88380642856228,750.4093413690757 175.88380642856228,758.0765066013583 189.16372829894334,758.0765066013583 189.16372829894334,765.7436718336409 202.4436501693243,765.7436718336409 202.4436501693243,773.4108370659235 189.16372829894334,773.4108370659235 189.16372829894334,765.7436718336409 175.88380642856228,765.7436718336409 175.88380642856228,781.078002298206 175.88380642856228,781.078002298206 175.88380642856228,788.7451675304885 189.16372829894334,788.7451675304885 189.16372829894334,804.0794979950537 189.16372829894334,804.0794979950537 189.16372829894334,811.7466632273362 175.88380642856228,811.7466632273362 175.88380642856228,796.4123327627711 175.88380642856228,796.4123327627711 175.88380642856228,788.7451675304885 162.60388455818122,788.7451675304885 162.60388455818122,804.0794979950537 162.60388455818122,804.0794979950537 162.60388455818122,819.4138284596189 162.60388455818122,819.4138284596189 162.60388455818122,827.0809936919014 175.88380642856228,827.0809936919014 175.88380642856228,819.4138284596189 189.16372829894334,819.4138284596189 189.16372829894334,827.0809936919014 202.4436501693243,827.0809936919014 202.4436501693243,834.7481589241839 189.16372829894334,834.7481589241839 189.16372829894334,850.0824893887492 189.16372829894334,850.0824893887492 189.16372829894334,842.4153241564666 202.4436501693243,842.4153241564666 202.4436501693243,834.7481589241839 215.72357203970535,834.7481589241839 215.72357203970535,819.4138284596189 215.72357203970535,819.4138284596189 215.72357203970535,811.7466632273362 202.4436501693243,811.7466632273362 202.4436501693243,796.4123327627711 202.4436501693243,796.4123327627711 202.4436501693243,781.078002298206 202.4436501693243,781.078002298206 202.4436501693243,788.7451675304885 215.72357203970535,788.7451675304885 215.72357203970535,804.0794979950537 215.72357203970535,804.0794979950537 215.72357203970535,796.4123327627711 229.0034822109206,796.4123327627711 229.0034822109206,781.078002298206 229.0034822109206,781.078002298206 229.0034822109206,773.4108370659235 215.72357203970535,773.4108370659235 215.72357203970535,758.0765066013583 215.72357203970535,758.0765066013583 215.72357203970535,765.7436718336409 229.0034822109206,765.7436718336409 229.0034822109206,758.0765066013583 242.28340993088446,758.0765066013583 242.28340993088446,750.4093413690757 229.0034822109206,750.4093413690757 229.0034822109206,742.7421761367931 215.72357203970535,742.7421761367931 215.72357203970535,750.4093413690757 202.4436501693243,750.4093413690757 202.4436501693243,742.7421761367931 189.16372829894334,742.7421761367931 189.16372829894334,727.407845672228 189.16372829894334,727.407845672228 189.16372829894334,712.0735152076629 189.16372829894334,712.0735152076629 189.16372829894334,719.7406804399454 202.4436501693243,719.7406804399454 202.4436501693243,735.0750109045105 202.4436501693243,735.0750109045105 202.4436501693243,727.407845672228 215.72357203970535,727.407845672228 215.72357203970535,712.0735152076629 215.72357203970535,712.0735152076629 215.72357203970535,704.4063499753803 229.0034822109206,704.4063499753803 229.0034822109206,712.0735152076629 242.28340993088446,712.0735152076629 242.28340993088446,719.7406804399454 255.5633259516827,719.7406804399454 255.5633259516827,727.407845672228 242.28340993088446,727.407845672228 242.28340993088446,719.7406804399454 229.0034822109206,719.7406804399454 229.0034822109206,735.0750109045105 229.0034822109206,735.0750109045105 229.0034822109206,742.7421761367931 242.28340993088446,742.7421761367931 242.28340993088446,735.0750109045105 255.5633259516827,735.0750109045105 255.5633259516827,742.7421761367931 268.8432478220637,742.7421761367931 268.8432478220637,750.4093413690757 255.5633259516827,750.4093413690757 255.5633259516827,765.7436718336409 255.5633259516827,765.7436718336409 255.5633259516827,758.0765066013582 268.8432478220637,758.0765066013582 268.8432478220637,750.4093413690757 282.1231638428618,750.4093413690757 282.1231638428618,735.0750109045105 282.1231638428618,735.0750109045105 282.1231638428618,727.407845672228 268.8432478220637,727.407845672228 268.8432478220637,712.0735152076629 268.8432478220637,712.0735152076629 268.8432478220637,719.7406804399454 282.1231638428618,719.7406804399454 282.1231638428618,712.0735152076629 295.4030857132428,712.0735152076629 295.4030857132428,704.4063499753803 282.1231638428618,704.4063499753803 282.1231638428618,696.7391847430977 268.8432478220637,696.7391847430977 268.8432478220637,704.4063499753803 255.5633259516827,704.4063499753803 255.5633259516827,696.7391847430977 242.28340993088446,696.7391847430977 242.28340993088446,681.4048542785325 242.28340993088446,681.4048542785325 242.28340993088446,689.072019510815 255.5633259516827,689.072019510815 255.5633259516827,681.4048542785325 268.8432478220637,681.4048542785325 268.8432478220637,673.73768904625 255.5633259516827,673.73768904625 255.5633259516827,666.0705238139674 242.28340993088446,666.0705238139674 242.28340993088446,673.73768904625 229.0034822109206,673.73768904625 229.0034822109206,689.072019510815 229.0034822109206,689.072019510815 229.0034822109206,696.7391847430977 215.72357203970535,696.7391847430977 215.72357203970535,704.4063499753803 202.4436501693243,704.4063499753803 202.4436501693243,689.072019510815 202.4436501693243,689.072019510815 202.4436501693243,681.4048542785325 215.72357203970535,681.4048542785325 215.72357203970535,673.73768904625 202.4436501693243,673.73768904625 202.4436501693243,681.4048542785325 189.16372829894334,681.4048542785325 189.16372829894334,696.7391847430977 189.16372829894334,696.7391847430977 189.16372829894334,704.4063499753803 175.88380642856228,704.4063499753803 175.88380642856228,689.0720195108152 175.88380642856228,689.0720195108152 175.88380642856228,681.4048542785325 162.60388455818122,681.4048542785325 162.60388455818122,696.7391847430977 162.60388455818122,696.7391847430977 162.60388455818122,712.0735152076629 162.60388455818122,712.0735152076629 162.60388455818122,719.7406804399454 175.88380642856228,719.7406804399454 175.88380642856228,735.0750109045105 175.88380642856228,735.0750109045105 175.88380642856228,742.7421761367931 162.60388455818122,742.7421761367931 162.60388455818122,750.4093413690757 149.32397438696609,750.4093413690757 149.32397438696609,735.0750109045105 149.32397438696609,735.0750109045105 149.32397438696609,727.407845672228 162.60388455818122,727.407845672228 162.60388455818122,719.7406804399454 149.32397438696609,719.7406804399454 149.32397438696609,727.407845672228 136.04405251658503,727.407845672228 136.04405251658503,719.7406804399454 122.76411894703834,719.7406804399454 122.76411894703834,704.4063499753803 122.76411894703834,704.4063499753803 122.76411894703834,689.0720195108152 122.76411894703834,689.0720195108152 122.76411894703834,696.7391847430977 136.04405251658503,696.7391847430977 136.04405251658503,712.0735152076629 136.04405251658503,712.0735152076629 136.04405251658503,704.4063499753803 149.32397438696609,704.4063499753803 149.32397438696609,689.0720195108152 149.32397438696609,689.0720195108152 149.32397438696609,681.4048542785325 136.04405251658503,681.4048542785325 136.04405251658503,666.0705238139674 136.04405251658503,666.0705238139674 136.04405251658503,673.73768904625 149.32397438696609,673.73768904625 149.32397438696609,666.0705238139674 162.60388455818122,666.0705238139674 162.60388455818122,658.4033585816849 149.32397438696609,658.4033585816849 149.32397438696609,650.7361933494022 136.04405251658503,650.7361933494022 136.04405251658503,658.4033585816849 122.76411894703834,658.4033585816849 122.76411894703834,673.73768904625 122.76411894703834,673.73768904625 122.76411894703834,681.4048542785325 109.484208775823,681.4048542785325 109.484208775823,666.0705238139674 109.484208775823,666.0705238139674 109.484208775823,658.4033585816849 96.20429860460766,658.4033585816849 96.20429860460766,673.73768904625 96.20429860460766,673.73768904625 96.20429860460766,689.0720195108152 96.20429860460766,689.0720195108152 96.20429860460766,696.7391847430977 109.484208775823,696.7391847430977 109.484208775823,712.0735152076629 109.484208775823,712.0735152076629 109.484208775823,719.7406804399454 96.20429860460766,719.7406804399454 96.20429860460766,704.4063499753803 96.20429860460766,704.4063499753803 96.20429860460766,696.7391847430977 82.92436503506089,696.7391847430977 82.92436503506089,712.0735152076629 82.92436503506089,712.0735152076629 82.92436503506089,727.407845672228 82.92436503506089,727.407845672228 82.92436503506089,735.0750109045105 96.20429860460766,735.0750109045105 96.20429860460766,727.407845672228 109.484208775823,727.407845672228 109.484208775823,735.0750109045105 122.76411894703834,735.0750109045105 122.76411894703834,742.7421761367931 136.04405251658503,742.7421761367931 136.04405251658503,750.4093413690757 122.76411894703834,750.4093413690757 122.76411894703834,742.7421761367931 109.484208775823,742.7421761367931 109.484208775823,758.0765066013583 109.484208775823,758.0765066013583 109.484208775823,765.7436718336409 122.76411894703834,765.7436718336409 122.76411894703834,781.078002298206 122.76411894703834,781.078002298206 122.76411894703834,788.7451675304885 109.484208775823,788.7451675304885 109.484208775823,773.4108370659235 109.484208775823,773.4108370659235 109.484208775823,765.7436718336409 96.20429860460766,765.7436718336409 96.20429860460766,781.078002298206 96.20429860460766,781.078002298206 96.20429860460766,796.4123327627711 96.20429860460766,796.4123327627711 96.20429860460766,804.0794979950537 109.484208775823,804.0794979950537 109.484208775823,819.4138284596189 109.484208775823,819.4138284596189 109.484208775823,827.0809936919014 96.20429860460766,827.0809936919014 96.20429860460766,834.7481589241839 82.92436503506089,834.7481589241839 82.92436503506089,819.4138284596189 82.92436503506089,819.4138284596189 82.92436503506089,811.746663227336 96.20429860460766,811.746663227336 96.20429860460766,804.0794979950537 82.92436503506089,804.0794979950537 82.92436503506089,811.746663227336 69.64445486384565,811.746663227336 69.64445486384565,804.0794979950538 56.364521294298974,804.0794979950538 56.364521294298974,788.7451675304885 56.364521294298974,788.7451675304885 56.364521294298974,773.4108370659235 56.364521294298974,773.4108370659235 56.364521294298974,781.078002298206 69.64445486384565,781.078002298206 69.64445486384565,796.4123327627711 69.64445486384565,796.4123327627711 69.64445486384565,788.7451675304885 82.92436503506089,788.7451675304885 82.92436503506089,773.4108370659235 82.92436503506089,773.4108370659235 82.92436503506089,765.7436718336409 69.64445486384565,765.7436718336409 69.64445486384565,750.4093413690757 69.64445486384565,750.4093413690757 69.64445486384565,758.0765066013583 82.92436503506089,758.0765066013583 82.92436503506089,750.4093413690757 96.20429860460766,750.4093413690757 96.20429860460766,742.7421761367931 82.92436503506089,742.7421761367931 82.92436503506089,735.0750109045105 69.64445486384565,735.0750109045105 69.64445486384565,742.7421761367931 56.364521294298974,742.7421761367931 56.364521294298974,758.0765066013583 56.364521294298974,758.0765066013583 56.364521294298974,765.7436718336409 43.08461112308363,765.7436718336409 43.08461112308363,750.4093413690757 43.08461112308363,750.4093413690757 43.08461112308363,742.7421761367931 29.80470095186829,742.7421761367931 29.80470095186829,758.0765066013583 29.80470095186829,758.0765066013583 29.80470095186829,773.4108370659235 29.80470095186829,773.4108370659235 29.80470095186829,781.078002298206 43.08461112308363,781.078002298206 43.08461112308363,796.4123327627711 43.08461112308363,796.4123327627711 43.08461112308363,804.0794979950538 29.80470095186829,804.0794979950538 29.80470095186829,788.7451675304885 29.80470095186829,788.7451675304885 29.80470095186829,781.078002298206 16.524767382321617,781.078002298206 16.524767382321617,796.4123327627711 16.524767382321617,796.4123327627711 16.524767382321617,811.746663227336 16.524767382321617,811.746663227336 16.524767382321617,819.4138284596189 29.80470095186829,819.4138284596189 29.80470095186829,811.746663227336 43.08461112308363,811.746663227336 43.08461112308363,819.4138284596189 56.364521294298974,819.4138284596189 56.364521294298974,827.0809936919014 69.64445486384565,827.0809936919014 69.64445486384565,834.7481589241839 56.364521294298974,834.7481589241839 56.364521294298974,827.0809936919014 43.08461112308363,827.0809936919014 43.08461112308363,842.4153241564666 43.08461112308363,842.4153241564666 43.08461112308363,850.0824893887492 56.364521294298974,850.0824893887492 56.364521294298974,842.4153241564666 69.64445486384565,842.4153241564666 69.64445486384565,850.0824893887492 82.92436503506089,850.0824893887492 82.92436503506089,857.7496546210318 69.64445486384565,857.7496546210318 69.64445486384565,873.0839850855969 69.64445486384565,873.0839850855969 69.64445486384565,865.4168198533142 82.92436503506089,865.4168198533142 82.92436503506089,857.7496546210318 96.20429860460766,857.7496546210318 96.20429860460766,842.4153241564666 96.20429860460766,842.4153241564666 96.20429860460766,834.7481589241839 109.484208775823,834.7481589241839 109.484208775823,842.4153241564666 122.76411894703834,842.4153241564666 122.76411894703834,850.0824893887492 136.04405251658503,850.0824893887492 136.04405251658503,857.7496546210318 122.76411894703834,857.7496546210318 122.76411894703834,850.0824893887492 109.484208775823,850.0824893887492 109.484208775823,865.4168198533142 109.484208775823,865.4168198533142 109.484208775823,873.0839850855969 122.76411894703834,873.0839850855969 122.76411894703834,865.4168198533142 136.04405251658503,865.4168198533142 136.04405251658503,873.0839850855969 149.32397438696609,873.0839850855969 149.32397438696609,880.7511503178795 162.60388455818122,880.7511503178795 162.60388455818122,888.418315550162 149.32397438696609,888.418315550162 149.32397438696609,880.7511503178795 136.04405251658503,880.7511503178795 136.04405251658503,896.0854807824446 136.04405251658503,896.0854807824446 136.04405251658503,903.752646014727 149.32397438696609,903.752646014727 149.32397438696609,919.0869764792923 149.32397438696609,919.0869764792923 149.32397438696609,926.7541417115749 136.04405251658503,926.7541417115749 136.04405251658503,934.4213069438575 122.76411894703834,934.4213069438575 122.76411894703834,919.0869764792923 122.76411894703834,919.0869764792923 122.76411894703834,911.4198112470096 136.04405251658503,911.4198112470096 136.04405251658503,903.752646014727 122.76411894703834,903.752646014727 122.76411894703834,911.4198112470096 109.484208775823,911.4198112470096 109.484208775823,903.752646014727 96.20429860460766,903.752646014727 96.20429860460766,888.418315550162 96.20429860460766,888.418315550162 96.20429860460766,896.0854807824446 109.484208775823,896.0854807824446 109.484208775823,888.418315550162 122.76411894703834,888.418315550162 122.76411894703834,880.7511503178795 109.484208775823,880.7511503178795 109.484208775823,873.0839850855969 96.20429860460766,873.0839850855969 96.20429860460766,880.7511503178795 82.92436503506089,880.7511503178795 82.92436503506089,896.0854807824446 82.92436503506089,896.0854807824446 82.92436503506089,903.752646014727 69.64445486384565,903.752646014727 69.64445486384565,888.418315550162 69.64445486384565,888.418315550162 69.64445486384565,880.7511503178795 56.364521294298974,880.7511503178795 56.364521294298974,896.0854807824446 56.364521294298974,896.0854807824446 56.364521294298974,911.4198112470096 56.364521294298974,911.4198112470096 56.364521294298974,919.0869764792923 69.64445486384565,919.0869764792923 69.64445486384565,911.4198112470096 82.92436503506089,911.4198112470096 82.92436503506089,919.0869764792923 96.20429860460766,919.0869764792923 96.20429860460766,926.7541417115749 109.484208775823,926.7541417115749 109.484208775823,934.4213069438575 96.20429860460766,934.4213069438575 96.20429860460766,926.7541417115749 82.92436503506089,926.7541417115749 82.92436503506089,942.08847217614 82.92436503506089,942.08847217614 82.92436503506089,949.7556374084224 96.20429860460766"/>
</g>
</svg>