<?xml version="1.0" encoding="UTF-8" standalone="no"?>
<!-- Generator: https://github.com/anvaka/l-system -->

<svg
   version="1.1"
   viewBox="0 0 456.86401 429.14319"
   id="svg9"
   sodipodi:docname="gosper.svg"
   width="456.86401"
   height="429.14319"
   inkscape:version="1.1.2 (0a00cf5339, 2022-02-04)"
   xmlns:inkscape="http://www.inkscape.org/namespaces/inkscape"
   xmlns:sodipodi="http://sodipodi.sourceforge.net/DTD/sodipodi-0.dtd"
   xmlns="http://www.w3.org/2000/svg"
   xmlns:svg="http://www.w3.org/2000/svg">
  <defs
     id="defs13" />
  <sodipodi:namedview
     id="namedview11"
     pagecolor="#ffffff"
     bordercolor="#666666"
     borderopacity="1.0"
     inkscape:pageshadow="2"
     inkscape:pageopacity="0.0"
     inkscape:pagecheckerboard="0"
     showgrid="false"
     inkscape:zoom="0.8875"
     inkscape:cx="87.887324"
     inkscape:cy="217.46479"
     inkscape:window-width="1920"
     inkscape:window-height="1055"
     inkscape:window-x="0"
     inkscape:window-y="25"
     inkscape:window-maximized="1"
     inkscape:current-layer="svg9" />
  <style
     id="style2">
  path {
   vector-effect: non-scaling-stroke;
  }
</style>
  <g
     fill="none"
     stroke-width="2"
     stroke="#ffffff"
     id="g7"
     transform="translate(-752.18096,-236.75672)">
    <path
       d="m 1052.0049,665.39991 3.9823,-6.89747 v 0 h -7.9645 v 0 l -3.9823,-6.89747 v 0 h 7.9645 v 0 h 7.9645 v 0 l 3.9823,6.89747 v 0 h 7.9645 v 0 l 3.9823,-6.89747 v 0 l 3.9822,-6.89747 v 0 h -7.9645 v 0 l -3.9823,6.89747 v 0 l -3.9822,-6.89747 v 0 l 3.9822,-6.89748 v 0 l -3.9822,-6.89747 v 0 h -7.9645 v 0 h -7.9645 v 0 l 3.9822,6.89747 v 0 h 7.9645 v 0 l -3.9822,6.89748 v 0 h -7.9645 v 0 l -3.9823,-6.89748 v 0 h -7.9645 v 0 l 3.9822,6.89748 v 0 l -3.9822,6.89747 v 0 l -3.9823,-6.89747 v 0 l -3.9822,-6.89748 v 0 l 3.9822,-6.89747 v 0 h 7.9645 v 0 l 3.9823,-6.89747 v 0 h -7.9645 v 0 l -3.9823,-6.89747 v 0 h 7.9645 v 0 h 7.9646 v 0 l 3.9822,6.89747 v 0 h 7.9645 v 0 l 3.9823,-6.89747 v 0 h -7.9645 v 0 l -3.9823,-6.89747 v 0 h 7.9645 v 0 h 7.9645 v 0 l 3.9823,6.89747 v 0 l -3.9823,6.89747 v 0 l 3.9823,6.89747 v 0 l 3.9823,6.89747 v 0 l 3.9822,-6.89747 v 0 l -3.9822,-6.89747 v 0 h 7.9645 v 0 l 3.9822,6.89747 v 0 h 7.9645 v 0 l 3.9823,-6.89747 v 0 h -7.9645 v 0 l -3.9823,-6.89747 v 0 h 7.9645 v 0 h 7.9646 v 0 l 3.9822,6.89747 v 0 h 7.9645 v 0 l 3.9823,-6.89747 v 0 l 3.9822,-6.89747 v 0 h -7.9645 v 0 l -3.9822,6.89747 v 0 l -3.9823,-6.89747 v 0 l 3.9823,-6.89747 v 0 h 7.9645 v 0 l 3.9822,-6.89747 v 0 l 3.9823,-6.89747 v 0 h -7.9645 v 0 l -3.9823,6.89747 v 0 l -3.9822,-6.89747 v 0 l 3.9822,-6.89747 v 0 l -3.9822,-6.89748 v 0 h -7.9645 v 0 h -7.9646 v 0 l 3.9823,6.89748 v 0 h 7.9645 v 0 l -3.9822,6.89747 v 0 h -7.9646 v 0 l -3.9822,6.89747 v 0 l 3.9822,6.89747 v 0 l 3.9823,-6.89747 v 0 h 7.9645 v 0 l -3.9822,6.89747 v 0 l -3.9823,6.89747 v 0 h -7.9645 v 0 l -3.9823,-6.89747 v 0 h -7.9645 v 0 l 3.9823,6.89747 v 0 l -3.9823,6.89747 v 0 l -3.9822,-6.89747 v 0 l -3.9823,-6.89747 v 0 l 3.9823,-6.89747 v 0 h 7.9645 v 0 l 3.9822,-6.89747 v 0 l 3.9823,-6.89747 v 0 h -7.9645 v 0 l -3.9823,6.89747 v 0 l -3.9822,-6.89747 v 0 l 3.9822,-6.89748 v 0 l -3.9822,-6.89746 v 0 h -7.9646 v 0 l 3.9823,6.89746 v 0 l -3.9823,6.89748 v 0 l -3.9822,-6.89748 v 0 l -3.9823,-6.89746 v 0 l 3.9823,-6.89747 v 0 l -3.9823,-6.89748 v 0 h -7.9645 v 0 h -7.9645 v 0 l 3.9823,6.89748 v 0 h 7.9645 v 0 l -3.9823,6.89747 v 0 h -7.9645 v 0 l -3.9823,-6.89747 v 0 h -7.9645 v 0 h -7.9645 v 0 l 3.9823,6.89747 v 0 h 7.9645 v 0 l -3.9823,6.89746 v 0 h -7.9645 v 0 l -3.9822,6.89748 v 0 l 3.9822,6.89747 v 0 l 3.9823,6.89747 v 0 l 3.9822,-6.89747 v 0 l -3.9822,-6.89747 v 0 h 7.9645 v 0 l 3.9822,6.89747 v 0 h 7.9646 v 0 l 3.9822,-6.89747 v 0 h -7.9645 v 0 l -3.9823,-6.89748 v 0 h 7.9646 v 0 h 7.9645 v 0 l 3.9822,6.89748 v 0 l -3.9822,6.89747 v 0 l 3.9822,6.89747 v 0 l 3.9823,-6.89747 v 0 h 7.9645 v 0 l -3.9823,6.89747 v 0 l -3.9822,6.89747 v 0 h -7.9645 v 0 l -3.9823,-6.89747 v 0 h -7.9645 v 0 h -7.9645 v 0 l 3.9822,6.89747 v 0 h 7.9646 v 0 l -3.9823,6.89747 v 0 h -7.9645 v 0 l -3.9823,-6.89747 v 0 h -7.9645 v 0 l 3.9823,6.89747 v 0 l -3.9823,6.89747 v 0 l -3.9822,-6.89747 v 0 l -3.9823,-6.89747 v 0 l 3.9823,-6.89747 v 0 l -3.9823,-6.89747 v 0 h -7.9645 v 0 h -7.9645 v 0 l 3.9822,6.89747 v 0 h 7.9645 v 0 l -3.9822,6.89747 v 0 h -7.9645 v 0 l -3.98228,6.89747 v 0 l 3.98228,6.89747 v 0 l 3.9822,6.89747 v 0 l 3.9823,-6.89747 v 0 l -3.9823,-6.89747 v 0 h 7.9645 v 0 l 3.9823,6.89747 v 0 l -3.9823,6.89747 v 0 l 3.9823,6.89747 v 0 l 3.9823,-6.89747 v 0 h 7.9645 v 0 l -3.9823,6.89747 v 0 l -3.9822,6.89747 v 0 h -7.9646 v 0 l -3.9822,-6.89747 v 0 h -7.9645 v 0 l 3.9822,6.89747 v 0 l -3.9822,6.89748 v 0 l -3.98228,-6.89748 v 0 l -3.98225,-6.89747 v 0 l 3.98225,-6.89747 v 0 l -3.98225,-6.89747 v 0 h -7.96452 v 0 l 3.98226,6.89747 v 0 l -3.98226,6.89747 v 0 l -3.98225,-6.89747 v 0 l -3.98226,-6.89747 v 0 l 3.98226,-6.89747 v 0 h 7.96451 v 0 l 3.98226,-6.89747 v 0 l 3.98225,-6.89747 v 0 h -7.96451 v 0 l -3.98226,6.89747 v 0 l -3.98225,-6.89747 v 0 l 3.98225,-6.89747 v 0 h 7.96452 v 0 l 3.98225,-6.89747 v 0 h -7.96451 v 0 l -3.98226,-6.89748 v 0 h 7.96452 v 0 h 7.96453 v 0 l 3.9822,6.89748 v 0 h 7.9645 v 0 l 3.9823,-6.89748 v 0 l 3.9823,-6.89746 v 0 h -7.9646 v 0 l -3.9822,6.89746 v 0 l -3.9823,-6.89746 v 0 l 3.9823,-6.89747 v 0 l -3.9823,-6.89748 v 0 h -7.96448 v 0 h -7.96451 v 0 l 3.98226,6.89748 v 0 h 7.96453 v 0 l -3.98228,6.89747 v 0 h -7.96451 v 0 l -3.98226,-6.89747 v 0 h -7.96451 v 0 l 3.98226,6.89747 v 0 l -3.98226,6.89746 v 0 l -3.98226,-6.89746 v 0 l -3.98225,-6.89747 v 0 l 3.98225,-6.89748 v 0 h 7.96452 v 0 l 3.98225,-6.89747 v 0 h -7.96451 v 0 l -3.98226,-6.89746 v 0 h 7.96452 v 0 h 7.96451 v 0 l 3.98226,6.89746 v 0 h 7.96453 v 0 l 3.9822,-6.89746 v 0 h -7.96448 v 0 l -3.98225,-6.89748 v 0 h 7.96453 v 0 h 7.9645 v 0 l 3.9822,6.89748 v 0 l -3.9822,6.89746 v 0 l 3.9822,6.89747 v 0 l 3.9823,6.89748 v 0 l 3.9823,-6.89748 v 0 l -3.9823,-6.89747 v 0 h 7.9645 v 0 l 3.9823,6.89747 v 0 h 7.9645 v 0 l 3.9822,-6.89747 v 0 h -7.9645 v 0 l -3.9822,-6.89746 v 0 h 7.9645 v 0 h 7.9645 v 0 l 3.9823,6.89746 v 0 h 7.9645 v 0 l 3.9822,-6.89746 v 0 l 3.9823,-6.89748 v 0 h -7.9645 v 0 l -3.9823,6.89748 v 0 l -3.9822,-6.89748 v 0 l 3.9822,-6.89747 v 0 l -3.9822,-6.89748 v 0 h -7.9646 v 0 h -7.9645 v 0 l 3.9823,6.89748 v 0 h 7.9645 v 0 l -3.9823,6.89747 v 0 h -7.9645 v 0 l -3.9822,-6.89747 v 0 h -7.9645 v 0 l 3.9822,6.89747 v 0 l -3.9822,6.89748 v 0 l -3.9823,-6.89748 v 0 l -3.9823,-6.89747 v 0 l 3.9823,-6.89748 v 0 h 7.9645 v 0 l 3.9823,-6.89746 v 0 h -7.9645 v 0 l -3.9823,-6.89747 v 0 h 7.9645 v 0 h 7.9645 v 0 l 3.9823,6.89747 v 0 h 7.9645 v 0 l 3.9823,-6.89747 v 0 h -7.9646 v 0 l -3.9822,-6.89748 v 0 h 7.9645 v 0 h 7.9645 v 0 l 3.9823,6.89748 v 0 l -3.9823,6.89747 v 0 l 3.9823,6.89746 v 0 l 3.9822,6.89748 v 0 l 3.9823,-6.89748 v 0 l -3.9823,-6.89746 v 0 h 7.9645 v 0 l 3.9823,6.89746 v 0 l -3.9823,6.89748 v 0 l 3.9823,6.89747 v 0 l 3.9823,-6.89747 v 0 h 7.9645 v 0 l -3.9823,6.89747 v 0 l -3.9822,6.89748 v 0 h -7.9646 v 0 l -3.9822,6.89746 v 0 l 3.9822,6.89747 v 0 l 3.9823,6.89748 v 0 l 3.9823,-6.89748 v 0 l -3.9823,-6.89747 v 0 h 7.9645 v 0 l 3.9823,6.89747 v 0 l -3.9823,6.89748 v 0 l 3.9823,6.89747 v 0 l 3.9822,6.89746 v 0 l 3.9823,-6.89746 v 0 l -3.9823,-6.89747 v 0 h 7.9645 v 0 l 3.9823,6.89747 v 0 h 7.9645 v 0 l 3.9823,-6.89747 v 0 l 3.9822,-6.89748 v 0 h -7.9645 v 0 l -3.9822,6.89748 v 0 l -3.9823,-6.89748 v 0 l 3.9823,-6.89747 v 0 l -3.9823,-6.89746 v 0 h -7.9645 v 0 l 3.9822,6.89746 v 0 l -3.9822,6.89747 v 0 l -3.9823,-6.89747 v 0 l -3.9822,-6.89746 v 0 l 3.9822,-6.89748 v 0 h 7.9645 v 0 l 3.9823,-6.89747 v 0 h -7.9645 v 0 l -3.9823,-6.89748 v 0 h 7.9645 v 0 h 7.9646 v 0 l 3.9822,6.89748 v 0 l -3.9822,6.89747 v 0 l 3.9822,6.89748 v 0 l 3.9823,6.89746 v 0 l 3.9822,-6.89746 v 0 l -3.9822,-6.89748 v 0 h 7.9645 v 0 l 3.9822,6.89748 v 0 h 7.9646 v 0 l 3.9822,-6.89748 v 0 h -7.9645 v 0 l -3.9823,-6.89747 v 0 h 7.9646 v 0 h 7.9645 v 0 l 3.9822,6.89747 v 0 h 7.9645 v 0 l 3.9823,-6.89747 v 0 l 3.9822,-6.89748 v 0 h -7.9645 v 0 l -3.9822,6.89748 v 0 l -3.9823,-6.89748 v 0 l 3.9823,-6.89746 v 0 l -3.9823,-6.89747 v 0 h -7.9645 v 0 h -7.9645 v 0 l 3.9823,6.89747 v 0 h 7.9645 v 0 l -3.9823,6.89746 v 0 h -7.9645 v 0 l -3.9823,-6.89746 v 0 h -7.9645 v 0 l 3.9823,6.89746 v 0 l -3.9823,6.89748 v 0 l -3.9822,-6.89748 v 0 l -3.9823,-6.89746 v 0 l 3.9823,-6.89747 v 0 h 7.9645 v 0 l 3.9822,-6.89748 v 0 h -7.9645 v 0 l -3.9822,-6.89746 v 0 h 7.9645 v 0 h 7.9645 v 0 l 3.9823,6.89746 v 0 h 7.9645 v 0 l 3.9822,-6.89746 v 0 h -7.9645 v 0 l -3.9822,-6.89748 v 0 h 7.9645 v 0 h 7.9645 v 0 l 3.9822,6.89748 v 0 l -3.9822,6.89746 v 0 l 3.9822,6.89748 v 0 l 3.9823,6.89747 v 0 l 3.9822,-6.89747 v 0 l -3.9822,-6.89748 v 0 h 7.9645 v 0 l 3.9823,6.89748 v 0 h 7.9645 v 0 l 3.9822,-6.89748 v 0 h -7.9645 v 0 l -3.9822,-6.89746 v 0 h 7.9645 v 0 h 7.9645 v 0 l 3.9822,6.89746 v 0 h 7.9646 v 0 l 3.9822,-6.89746 v 0 l 3.9823,-6.89748 v 0 h -7.9645 v 0 l -3.9823,6.89748 v 0 l -3.9823,-6.89748 v 0 l 3.9823,-6.89747 v 0 h 7.9645 v 0 l 3.9823,-6.89746 v 0 l 3.9822,-6.89748 v 0 h -7.9645 v 0 l -3.9822,6.89748 v 0 l -3.9823,-6.89748 v 0 l 3.9823,-6.89747 v 0 l -3.9823,-6.89746 v 0 h -7.9645 v 0 h -7.9645 v 0 l 3.9822,6.89746 v 0 h 7.9645 v 0 l -3.9822,6.89747 v 0 h -7.9645 v 0 l -3.9823,6.89748 v 0 l 3.9823,6.89746 v 0 l 3.9822,-6.89746 v 0 h 7.9645 v 0 l -3.9822,6.89746 v 0 l -3.9823,6.89747 v 0 h -7.9645 v 0 l -3.9822,-6.89747 v 0 h -7.9646 v 0 l 3.9823,6.89747 v 0 l -3.9823,6.89748 v 0 l -3.9822,-6.89748 v 0 l -3.9823,-6.89747 v 0 l 3.9823,-6.89746 v 0 h 7.9645 v 0 l 3.9823,-6.89748 v 0 l 3.9822,-6.89747 v 0 h -7.9645 v 0 l -3.9823,6.89747 v 0 l -3.9822,-6.89747 v 0 l 3.9822,-6.89746 v 0 h 7.9646 v 0 l 3.9822,-6.89749 v 0 h -7.9645 v 0 l -3.9823,-6.89747 v 0 h 7.9646 v 0 h 7.9645 v 0 l 3.9822,6.89747 v 0 h 7.9645 v 0 l 3.9823,-6.89747 v 0 l 3.9823,-6.89747 v 0 h -7.9646 v 0 l -3.9822,6.89747 v 0 l -3.9823,-6.89747 v 0 l 3.9823,-6.89746 v 0 h 7.9645 v 0 l 3.9823,-6.89747 v 0 l 3.9822,-6.89749 v 0 h -7.9645 v 0 l -3.9823,6.89749 v 0 l -3.9822,-6.89749 v 0 l 3.9822,-6.89746 v 0 l -3.9822,-6.89747 v 0 h -7.9645 v 0 h -7.9645 v 0 l 3.9822,6.89747 v 0 h 7.9645 v 0 l -3.9822,6.89746 v 0 h -7.9645 v 0 l -3.9823,6.89749 v 0 l 3.9823,6.89747 v 0 l 3.9822,-6.89747 v 0 h 7.9645 v 0 l -3.9822,6.89747 v 0 l -3.9823,6.89746 v 0 h -7.9645 v 0 l -3.9823,-6.89746 v 0 h -7.9645 v 0 l 3.9823,6.89746 v 0 l -3.9823,6.89747 v 0 l -3.9822,-6.89747 v 0 l -3.9823,-6.89746 v 0 l 3.9823,-6.89747 v 0 h 7.9645 v 0 l 3.9822,-6.89749 v 0 l 3.9823,-6.89746 v 0 h -7.9645 v 0 l -3.9823,6.89746 v 0 l -3.9822,-6.89746 v 0 l 3.9822,-6.89747 v 0 l -3.9822,-6.89747 v 0 h -7.9645 v 0 l 3.9822,6.89747 v 0 l -3.9822,6.89747 v 0 l -3.9823,-6.89747 v 0 l -3.9822,-6.89747 v 0 l 3.9822,-6.89746 v 0 l -3.9822,-6.89749 v 0 h -7.9646 v 0 h -7.9645 v 0 l 3.9823,6.89749 v 0 h 7.9645 v 0 l -3.9823,6.89746 v 0 h -7.9645 v 0 l -3.9822,-6.89746 v 0 h -7.9645 v 0 h -7.9646 v 0 l 3.9823,6.89746 v 0 h 7.9645 v 0 l -3.9822,6.89747 v 0 h -7.9646 v 0 l -3.9822,6.89747 v 0 l 3.9822,6.89746 v 0 l 3.9823,6.89749 v 0 l 3.9823,-6.89749 v 0 l -3.9823,-6.89746 v 0 h 7.9645 v 0 l 3.9823,6.89746 v 0 h 7.9645 v 0 l 3.9822,-6.89746 v 0 h -7.9645 v 0 l -3.9822,-6.89747 v 0 h 7.9645 v 0 h 7.9645 v 0 l 3.9823,6.89747 v 0 l -3.9823,6.89746 v 0 l 3.9823,6.89749 v 0 l 3.9822,-6.89749 v 0 h 7.9645 v 0 l -3.9822,6.89749 v 0 l -3.9823,6.89747 v 0 h -7.9645 v 0 l -3.9823,-6.89747 v 0 h -7.9645 v 0 h -7.9645 v 0 l 3.9823,6.89747 v 0 h 7.9645 v 0 l -3.9823,6.89746 v 0 h -7.9645 v 0 l -3.9822,6.89747 v 0 l 3.9822,6.89747 v 0 l 3.9823,-6.89747 v 0 h 7.9645 v 0 l -3.9823,6.89747 v 0 l -3.9822,6.89749 v 0 h -7.9645 v 0 l -3.9823,6.89746 v 0 l 3.9823,6.89747 v 0 l 3.9822,6.89748 v 0 l 3.9823,-6.89748 v 0 l -3.9823,-6.89747 v 0 h 7.9645 v 0 l 3.9823,6.89747 v 0 h 7.9645 v 0 l 3.9823,-6.89747 v 0 l 3.9822,-6.89746 v 0 h -7.9645 v 0 l -3.9823,6.89746 v 0 l -3.9822,-6.89746 v 0 l 3.9822,-6.89749 v 0 h 7.9646 v 0 l 3.9822,-6.89747 v 0 h -7.9645 v 0 l -3.9823,-6.89747 v 0 h 7.9646 v 0 h 7.9645 v 0 l 3.9822,6.89747 v 0 l -3.9822,6.89747 v 0 l 3.9822,6.89749 v 0 l 3.9823,-6.89749 v 0 h 7.9645 v 0 l -3.9823,6.89749 v 0 l -3.9822,6.89746 v 0 h -7.9645 v 0 l -3.9823,6.89747 v 0 l 3.9823,6.89748 v 0 l 3.9822,-6.89748 v 0 h 7.9645 v 0 l -3.9822,6.89748 v 0 l -3.9823,6.89746 v 0 h -7.9645 v 0 l -3.9822,-6.89746 v 0 h -7.9646 v 0 h -7.9645 v 0 l 3.9823,6.89746 v 0 h 7.9645 v 0 l -3.9823,6.89747 v 0 h -7.9645 v 0 l -3.9822,-6.89747 v 0 h -7.9645 v 0 l 3.9822,6.89747 v 0 l -3.9822,6.89748 v 0 l -3.9823,-6.89748 v 0 l -3.9823,-6.89747 v 0 l 3.9823,-6.89746 v 0 l -3.9823,-6.89748 v 0 h -7.9645 v 0 h -7.9645 v 0 l 3.9823,6.89748 v 0 h 7.9645 v 0 l -3.9823,6.89746 v 0 h -7.9645 v 0 l -3.9822,6.89747 v 0 l 3.9822,6.89748 v 0 l 3.9823,6.89746 v 0 l 3.9822,-6.89746 v 0 l -3.9822,-6.89748 v 0 h 7.9645 v 0 l 3.9822,6.89748 v 0 l -3.9822,6.89746 v 0 l 3.9822,6.89748 v 0 l 3.9823,-6.89748 v 0 h 7.9645 v 0 l -3.9822,6.89748 v 0 l -3.9823,6.89747 v 0 h -7.9645 v 0 l -3.9823,-6.89747 v 0 h -7.9645 v 0 l 3.9823,6.89747 v 0 l -3.9823,6.89746 v 0 l -3.9822,-6.89746 v 0 l -3.9823,-6.89747 v 0 l 3.9823,-6.89748 v 0 l -3.9823,-6.89746 v 0 h -7.9645 v 0 l 3.9822,6.89746 v 0 l -3.9822,6.89748 v 0 l -3.9823,-6.89748 v 0 l -3.9822,-6.89746 v 0 l 3.9822,-6.89748 v 0 h 7.9645 v 0 l 3.9823,-6.89747 v 0 l 3.9823,-6.89746 v 0 h -7.9646 v 0 l -3.9822,6.89746 v 0 l -3.9823,-6.89746 v 0 l 3.9823,-6.89748 v 0 h 7.9645 v 0 l 3.9823,-6.89747 v 0 h -7.9646 v 0 l -3.9822,-6.89746 v 0 h 7.9645 v 0 h 7.9645 v 0 l 3.9823,6.89746 v 0 h 7.9645 v 0 l 3.9822,-6.89746 v 0 l 3.9823,-6.89749 v 0 h -7.9645 v 0 l -3.9823,6.89749 v 0 l -3.9822,-6.89749 v 0 l 3.9822,-6.89747 v 0 h 7.9645 v 0 l 3.9823,-6.89747 v 0 l 3.9823,-6.89746 v 0 h -7.9646 v 0 l -3.9822,6.89746 v 0 l -3.9823,-6.89746 v 0 l 3.9823,-6.89747 v 0 l -3.9823,-6.89749 v 0 h -7.9645 v 0 h -7.9645 v 0 l 3.9823,6.89749 v 0 h 7.9645 v 0 l -3.9823,6.89747 v 0 h -7.9645 v 0 l -3.9823,6.89746 v 0 l 3.9823,6.89747 v 0 l 3.9823,-6.89747 v 0 h 7.9645 v 0 l -3.9823,6.89747 v 0 l -3.9822,6.89747 v 0 h -7.9646 v 0 l -3.9822,-6.89747 v 0 h -7.9645 v 0 l 3.9822,6.89747 v 0 l -3.9822,6.89749 v 0 l -3.9823,-6.89749 v 0 l -3.9822,-6.89747 v 0 l 3.9822,-6.89747 v 0 h 7.9645 v 0 l 3.9823,-6.89746 v 0 l 3.9822,-6.89747 v 0 h -7.9645 v 0 l -3.9822,6.89747 v 0 l -3.9823,-6.89747 v 0 l 3.9823,-6.89749 v 0 l -3.9823,-6.89746 v 0 h -7.9645 v 0 l 3.9823,6.89746 v 0 l -3.9823,6.89749 v 0 l -3.9823,-6.89749 v 0 l -3.9822,-6.89746 v 0 l 3.9822,-6.89747 v 0 l -3.9822,-6.89747 v 0 h -7.9645 v 0 h -7.9645 v 0 l 3.9822,6.89747 v 0 h 7.9645 v 0 l -3.9822,6.89747 v 0 h -7.9645 v 0 l -3.9823,6.89746 v 0 l 3.9823,6.89749 v 0 l 3.9822,6.89747 v 0 l 3.9823,-6.89747 v 0 l -3.9823,-6.89749 v 0 h 7.9645 v 0 l 3.9823,6.89749 v 0 l -3.9823,6.89747 v 0 l 3.9823,6.89746 v 0 l 3.9822,-6.89746 v 0 h 7.9646 v 0 l -3.9823,6.89746 v 0 l -3.9823,6.89747 v 0 h -7.9645 v 0 l -3.9822,-6.89747 v 0 h -7.9645 v 0 l 3.9822,6.89747 v 0 l -3.9822,6.89747 v 0 l -3.9823,-6.89747 v 0 l -3.9823,-6.89747 v 0 l 3.9823,-6.89746 v 0 l -3.9823,-6.89747 v 0 h -7.9645 v 0 l 3.9823,6.89747 v 0 l -3.9823,6.89746 v 0 l -3.9822,-6.89746 v 0 l -3.98228,-6.89747 v 0 l 3.98228,-6.89749 v 0 h 7.9645 v 0 l 3.9822,-6.89746 v 0 l 3.9823,-6.89747 v 0 h -7.9645 v 0 l -3.9823,6.89747 v 0 l -3.9822,-6.89747 v 0 l 3.9822,-6.89747 v 0 l -3.9822,-6.89746 v 0 h -7.96453 v 0 l 3.98225,6.89746 v 0 l -3.98225,6.89747 v 0 l -3.98226,-6.89747 v 0 l -3.98226,-6.89746 v 0 l 3.98226,-6.89749 v 0 l -3.98226,-6.89747 v 0 h -7.96451 v 0 h -7.96451 v 0 l 3.98225,6.89747 v 0 h 7.96452 v 0 l -3.98226,6.89749 v 0 h -7.96451 v 0 l -3.98226,-6.89749 v 0 h -7.96451 v 0 h -7.96452 v 0 l 3.98226,6.89749 v 0 h 7.96451 v 0 l -3.98225,6.89746 v 0 h -7.96452 v 0 l -3.98226,6.89747 v 0 l 3.98226,6.89747 v 0 l 3.98226,6.89746 v 0 l 3.98226,-6.89746 v 0 l -3.98226,-6.89747 v 0 h 7.96451 v 0 l 3.98226,6.89747 v 0 h 7.96451 v 0 l 3.98226,-6.89747 v 0 h -7.96451 v 0 l -3.98226,-6.89747 v 0 h 7.96451 v 0 h 7.96452 v 0 l 3.98225,6.89747 v 0 l -3.98225,6.89747 v 0 l 3.98225,6.89746 v 0 l 3.98226,-6.89746 v 0 h 7.96451 v 0 l -3.98225,6.89746 v 0 l -3.98226,6.89749 v 0 h -7.96451 v 0 l -3.98226,-6.89749 v 0 h -7.96451 v 0 h -7.96452 v 0 l 3.98226,6.89749 v 0 h 7.96451 v 0 l -3.98225,6.89747 v 0 h -7.96452 v 0 l -3.98225,-6.89747 v 0 h -7.96452 v 0 l 3.98226,6.89747 v 0 l -3.98226,6.89746 v 0 l -3.98226,-6.89746 v 0 l -3.98225,-6.89747 v 0 l 3.98225,-6.89749 v 0 l -3.98225,-6.89746 v 0 h -7.96452 v 0 h -7.96451 v 0 l 3.98226,6.89746 v 0 h 7.96451 v 0 l -3.98226,6.89749 v 0 h -7.96451 v 0 l -3.98226,-6.89749 v 0 h -7.96451 v 0 h -7.96451 v 0 l 3.98225,6.89749 v 0 h 7.96452 v 0 l -3.98226,6.89747 v 0 h -7.96451 v 0 l -3.98226,6.89746 v 0 l 3.98226,6.89747 v 0 l 3.98225,6.89747 v 0 l 3.98226,-6.89747 v 0 l -3.98226,-6.89747 v 0 h 7.96452 v 0 l 3.98225,6.89747 v 0 h 7.96452 v 0 l 3.98225,-6.89747 v 0 h -7.96451 v 0 l -3.98226,-6.89746 v 0 h 7.96452 v 0 h 7.96451 v 0 l 3.98226,6.89746 v 0 l -3.98226,6.89747 v 0 l 3.98226,6.89747 v 0 l 3.98225,-6.89747 v 0 h 7.96452 v 0 l -3.98226,6.89747 v 0 l -3.98226,6.89749 v 0 h -7.96451 v 0 l -3.98226,-6.89749 v 0 h -7.96451 v 0 h -7.96451 v 0 l 3.98225,6.89749 v 0 h 7.96452 v 0 l -3.98226,6.89746 v 0 h -7.96451 v 0 l -3.98226,6.89747 v 0 l 3.98226,6.89748 v 0 l 3.98225,-6.89748 v 0 h 7.96452 v 0 l -3.98226,6.89748 v 0 l -3.98226,6.89746 v 0 h -7.96451 v 0 l -3.98226,6.89747 v 0 l 3.98226,6.89748 v 0 l 3.98226,6.89746 v 0 l 3.98225,-6.89746 v 0 l -3.98225,-6.89748 v 0 h 7.96451 v 0 l 3.98226,6.89748 v 0 l -3.98226,6.89746 v 0 l 3.98226,6.89748 v 0 l 3.98225,6.89747 v 0 l 3.98226,-6.89747 v 0 l -3.98226,-6.89748 v 0 h 7.96452 v 0 l 3.98225,6.89748 v 0 h 7.96452 v 0 l 3.98226,-6.89748 v 0 l 3.98225,-6.89746 v 0 h -7.96451 v 0 l -3.98226,6.89746 v 0 l -3.98226,-6.89746 v 0 l 3.98226,-6.89748 v 0 l -3.98226,-6.89747 v 0 h -7.96451 v 0 l 3.98226,6.89747 v 0 l -3.98226,6.89748 v 0 l -3.98226,-6.89748 v 0 l -3.98225,-6.89747 v 0 l 3.98225,-6.89746 v 0 h 7.96452 v 0 l 3.98225,-6.89748 v 0 h -7.96451 v 0 l -3.98226,-6.89747 v 0 h 7.96452 v 0 h 7.96451 v 0 l 3.98226,6.89747 v 0 l -3.98226,6.89748 v 0 l 3.98226,6.89746 v 0 l 3.98226,6.89747 v 0 l 3.98225,-6.89747 v 0 l -3.98225,-6.89746 v 0 h 7.96451 v 0 l 3.98226,6.89746 v 0 h 7.96451 v 0 l 3.98226,-6.89746 v 0 h -7.96452 v 0 l -3.98225,-6.89748 v 0 h 7.96451 v 0 h 7.96451 v 0 l 3.98226,6.89748 v 0 h 7.96451 v 0 l 3.98228,-6.89748 v 0 l 3.9822,-6.89747 v 0 h -7.96448 v 0 l -3.98225,6.89747 v 0 l -3.98226,-6.89747 v 0 l 3.98226,-6.89746 v 0 l -3.98226,-6.89749 v 0 h -7.96451 v 0 h -7.96452 v 0 l 3.98226,6.89749 v 0 h 7.96451 v 0 l -3.98225,6.89746 v 0 h -7.96452 v 0 l -3.98225,-6.89746 v 0 h -7.96452 v 0 l 3.98226,6.89746 v 0 l -3.98226,6.89747 v 0 l -3.98225,-6.89747 v 0 l -3.98226,-6.89746 v 0 l 3.98226,-6.89749 v 0 h 7.96451 v 0 l 3.98226,-6.89747 v 0 h -7.96452 v 0 l -3.98225,-6.89747 v 0 h 7.96451 v 0 h 7.96451 v 0 l 3.98226,6.89747 v 0 h 7.96451 v 0 l 3.98226,-6.89747 v 0 h -7.96451 v 0 l -3.98226,-6.89746 v 0 h 7.96451 v 0 h 7.96452 v 0 l 3.98225,6.89746 v 0 l -3.98225,6.89747 v 0 l 3.98225,6.89747 v 0 l 3.98228,6.89749 v 0 l 3.9822,-6.89749 v 0 l -3.9822,-6.89747 v 0 h 7.9645 v 0 l 3.9822,6.89747 v 0 l -3.9822,6.89749 v 0 l 3.9822,6.89746 v 0 l 3.9823,-6.89746 v 0 h 7.9645 v 0 l -3.9822,6.89746 v 0 l -3.9823,6.89747 v 0 h -7.9645 v 0 l -3.9823,6.89748 v 0 l 3.9823,6.89746 v 0 l 3.9822,6.89747 v 0 l 3.9823,-6.89747 v 0 l -3.9823,-6.89746 v 0 h 7.9646 v 0 l 3.9822,6.89746 v 0 h 7.9645 v 0 l 3.9823,-6.89746 v 0 l 3.9822,-6.89748 v 0 h -7.9645 v 0 l -3.9822,6.89748 v 0 l -3.9823,-6.89748 v 0 l 3.9823,-6.89747 v 0 h 7.9645 v 0 l 3.9822,-6.89746 v 0 h -7.9645 v 0 l -3.9822,-6.89749 v 0 h 7.9645 v 0 h 7.9645 v 0 l 3.9823,6.89749 v 0 l -3.9823,6.89746 v 0 l 3.9823,6.89747 v 0 l 3.9822,-6.89747 v 0 h 7.9645 v 0 l -3.9822,6.89747 v 0 l -3.9823,6.89748 v 0 h -7.9645 v 0 l -3.9823,6.89746 v 0 l 3.9823,6.89747 v 0 l 3.9823,-6.89747 v 0 h 7.9645 v 0 l -3.9823,6.89747 v 0 l -3.9822,6.89748 v 0 h -7.9646 v 0 l -3.9822,-6.89748 v 0 h -7.9645 v 0 h -7.9645 v 0 l 3.9822,6.89748 v 0 h 7.9645 v 0 l -3.9822,6.89746 v 0 h -7.9645 v 0 l -3.9823,-6.89746 v 0 h -7.9645 v 0 l 3.9822,6.89746 v 0 l -3.9822,6.89748 v 0 l -3.9823,-6.89748 v 0 l -3.9822,-6.89746 v 0 l 3.9822,-6.89748 v 0 l -3.9822,-6.89747 v 0 h -7.96453 v 0 h -7.96452 v 0 l 3.98226,6.89747 v 0 h 7.96451 v 0 l -3.98225,6.89748 v 0 h -7.96452 v 0 l -3.98225,-6.89748 v 0 h -7.96452 v 0 h -7.96451 v 0 l 3.98226,6.89748 v 0 h 7.96451 v 0 l -3.98226,6.89746 v 0 h -7.96451 v 0 l -3.98226,6.89748 v 0 l 3.98226,6.89747 v 0 l 3.98226,6.89746 v 0 l 3.98225,-6.89746 v 0 l -3.98225,-6.89747 v 0 h 7.96451 v 0 l 3.98226,6.89747 v 0 h 7.96451 v 0 l 3.98226,-6.89747 v 0 h -7.96452 v 0 l -3.98225,-6.89748 v 0 h 7.96451 v 0 h 7.96451 v 0 l 3.98228,6.89748 v 0 l -3.98228,6.89747 v 0 l 3.98228,6.89746 v 0 l 3.9822,-6.89746 v 0 h 7.9645 v 0 l -3.9822,6.89746 v 0 l -3.9823,6.89748 v 0 h -7.96448 v 0 l -3.98225,-6.89748 v 0 h -7.96452 v 0 h -7.96451 v 0 l 3.98226,6.89748 v 0 h 7.96451 v 0 l -3.98226,6.89747 v 0 h -7.96451 v 0 l -3.98226,-6.89747 v 0 h -7.96451 v 0 l 3.98226,6.89747 v 0 l -3.98226,6.89748 v 0 l -3.98226,-6.89748 v 0 l -3.98225,-6.89747 v 0 l 3.98225,-6.89748 v 0 l -3.98225,-6.89746 v 0 h -7.96452 v 0 h -7.96451 v 0 l 3.98225,6.89746 v 0 h 7.96452 v 0 l -3.98226,6.89748 v 0 h -7.96451 v 0 l -3.98226,6.89747 v 0 l 3.98226,6.89748 v 0 l 3.98225,6.89746 v 0 l 3.98226,-6.89746 v 0 l -3.98226,-6.89748 v 0 h 7.96452 v 0 l 3.98226,6.89748 v 0 l -3.98226,6.89746 v 0 l 3.98226,6.89747 v 0 l 3.98225,-6.89747 v 0 h 7.96452 v 0 l -3.98226,6.89747 v 0 l -3.98226,6.89748 v 0 h -7.96451 v 0 l -3.98226,-6.89748 v 0 h -7.96451 v 0 l 3.98225,6.89748 v 0 l -3.98225,6.89747 v 0 l -3.98226,-6.89747 v 0 l -3.98226,-6.89748 v 0 l 3.98226,-6.89747 v 0 l -3.98226,-6.89746 v 0 h -7.96451 v 0 l 3.98226,6.89746 v 0 l -3.98226,6.89747 v 0 l -3.98226,-6.89747 v 0 l -3.98225,-6.89746 v 0 l 3.98225,-6.89748 v 0 h 7.96452 v 0 l 3.98225,-6.89747 v 0 l 3.98226,-6.89748 v 0 h -7.96451 v 0 l -3.98226,6.89748 v 0 l -3.98226,-6.89748 v 0 l 3.98226,-6.89746 v 0 l -3.98226,-6.89747 v 0 h -7.96451 v 0 l 3.98226,6.89747 v 0 l -3.98226,6.89746 v 0 l -3.98226,-6.89746 v 0 l -3.98225,-6.89747 v 0 l 3.98225,-6.89748 v 0 l -3.98225,-6.89746 v 0 h -7.96452 v 0 h -7.96451 v 0 l 3.98226,6.89746 v 0 h 7.96451 v 0 l -3.98226,6.89748 v 0 h -7.96451 v 0 l -3.98226,-6.89748 v 0 h -7.96451 v 0 h -7.96451 v 0 l 3.98225,6.89748 v 0 h 7.96452 v 0 l -3.98226,6.89747 v 0 h -7.96451 v 0 l -3.98226,6.89746 v 0 l 3.98226,6.89748 v 0 l 3.98225,6.89747 v 0 l 3.98226,-6.89747 v 0 l -3.98226,-6.89748 v 0 h 7.96452 v 0 l 3.98225,6.89748 v 0 h 7.96452 v 0 l 3.98225,-6.89748 v 0 h -7.96451 v 0 l -3.98226,-6.89746 v 0 h 7.96452 v 0 h 7.96451 v 0 l 3.98226,6.89746 v 0 l -3.98226,6.89748 v 0 l 3.98226,6.89747 v 0 l 3.98225,-6.89747 v 0 h 7.96452 v 0 l -3.98226,6.89747 v 0 l -3.98226,6.89748 v 0 h -7.96451 v 0 l -3.98226,-6.89748 v 0 h -7.96451 v 0 h -7.96451 v 0 l 3.98225,6.89748 v 0 h 7.96452 v 0 l -3.98226,6.89746 v 0 h -7.96451 v 0 l -3.98226,6.89747 v 0 l 3.98226,6.89748 v 0 l 3.98225,-6.89748 v 0 h 7.96452 v 0 l -3.98226,6.89748 v 0 l -3.98226,6.89747 v 0 h -7.96451 v 0 l -3.98226,6.89746 v 0 l 3.98226,6.89748 v 0 l 3.98226,6.89747 v 0 l 3.98225,-6.89747 v 0 l -3.98225,-6.89748 v 0 h 7.96451 v 0 l 3.98226,6.89748 v 0 l -3.98226,6.89747 v 0 l 3.98226,6.89747 v 0 l 3.98225,6.89747 v 0 l 3.98226,-6.89747 v 0 l -3.98226,-6.89747 v 0 h 7.96452 v 0 l 3.98225,6.89747 v 0 h 7.96452 v 0 l 3.98225,-6.89747 v 0 l 3.98226,-6.89747 v 0 h -7.96451 v 0 l -3.98226,6.89747 v 0 l -3.98226,-6.89747 v 0 l 3.98226,-6.89748 v 0 l -3.98226,-6.89746 v 0 h -7.96451 v 0 l 3.98226,6.89746 v 0 l -3.98226,6.89748 v 0 l -3.98226,-6.89748 v 0 l -3.98225,-6.89746 v 0 l 3.98225,-6.89747 v 0 h 7.96452 v 0 l 3.98225,-6.89748 v 0 h -7.96451 v 0 l -3.98226,-6.89747 v 0 h 7.96452 v 0 h 7.96451 v 0 l 3.98226,6.89747 v 0 l -3.98226,6.89748 v 0 l 3.98226,6.89747 v 0 l 3.98225,6.89746 v 0 l 3.98226,-6.89746 v 0 l -3.98226,-6.89747 v 0 h 7.96452 v 0 l 3.98225,6.89747 v 0 l -3.98225,6.89746 v 0 l 3.98225,6.89748 v 0 l 3.98226,-6.89748 v 0 h 7.96451 v 0 l -3.98225,6.89748 v 0 l -3.98226,6.89747 v 0 h -7.96451 v 0 l -3.98226,6.89747 v 0 l 3.98226,6.89747 v 0 l 3.98225,6.89747 v 0 l 3.98226,-6.89747 v 0 l -3.98226,-6.89747 v 0 h 7.96452 v 0 l 3.98225,6.89747 v 0 h 7.96452 v 0 l 3.98226,-6.89747 v 0 l 3.98225,-6.89747 v 0 h -7.96451 v 0 l -3.98226,6.89747 v 0 l -3.98226,-6.89747 v 0 l 3.98226,-6.89747 v 0 h 7.96452 v 0 l 3.98225,-6.89748 v 0 h -7.96451 v 0 l -3.98226,-6.89746 v 0 h 7.96452 v 0 h 7.96451 v 0 l 3.98226,6.89746 v 0 l -3.98226,6.89748 v 0 l 3.98226,6.89747 v 0 l 3.98225,-6.89747 v 0 h 7.96452 v 0 l -3.98226,6.89747 v 0 l -3.98226,6.89747 v 0 h -7.96451 v 0 l -3.98226,6.89747 v 0 l 3.98226,6.89747 v 0 l 3.98226,-6.89747 v 0 h 7.96451 v 0 l -3.98226,6.89747 v 0 l -3.98225,6.89747 v 0 h -7.96452 v 0 l -3.98225,-6.89747 v 0 h -7.96452 v 0 h -7.96451 v 0 l 3.98225,6.89747 v 0 h 7.96452 v 0 l -3.98226,6.89747 v 0 h -7.96451 v 0 l -3.98226,-6.89747 v 0 h -7.96451 v 0 l 3.98225,6.89747 v 0 l -3.98225,6.89747 v 0 l -3.98226,-6.89747 v 0 l -3.98226,-6.89747 v 0 l 3.98226,-6.89747 v 0 l -3.98226,-6.89747 v 0 h -7.96451 v 0 h -7.96451 v 0 l 3.98225,6.89747 v 0 h 7.96452 v 0 l -3.98226,6.89747 v 0 h -7.96451 v 0 l -3.98226,6.89747 v 0 l 3.98226,6.89747 v 0 l 3.98225,6.89747 v 0 l 3.98226,-6.89747 v 0 l -3.98226,-6.89747 v 0 h 7.96452 v 0 l 3.98225,6.89747 v 0 l -3.98225,6.89747 v 0 l 3.98225,6.89748 v 0 l 3.98226,-6.89748 v 0 h 7.96451 v 0 l -3.98225,6.89748 v 0 l -3.98226,6.89747 v 0 h -7.96451 v 0 l -3.98226,-6.89747 v 0 h -7.96451 v 0 l 3.98225,6.89747 v 0 l -3.98225,6.89747 v 0 l -3.98226,-6.89747 v 0 l -3.98226,-6.89747 v 0 l 3.98226,-6.89748 v 0 l -3.98226,-6.89747 v 0 h -7.96451 v 0 l 3.98226,6.89747 v 0 l -3.98226,6.89748 v 0 l -3.98226,-6.89748 v 0 l -3.98225,-6.89747 v 0 l 3.98225,-6.89747 v 0 h 7.96452 v 0 l 3.98225,-6.89747 v 0 l 3.98226,-6.89747 v 0 h -7.96451 v 0 l -3.98226,6.89747 v 0 l -3.98226,-6.89747 v 0 l 3.98226,-6.89747 v 0 l -3.98226,-6.89747 v 0 h -7.96451 v 0 l 3.98226,6.89747 v 0 l -3.98226,6.89747 v 0 l -3.98226,-6.89747 v 0 l -3.98225,-6.89747 v 0 l 3.98225,-6.89747 v 0 l -3.98225,-6.89747 v 0 h -7.96452 v 0 h -7.96451 v 0 l 3.98226,6.89747 v 0 h 7.96451 v 0 l -3.98226,6.89747 v 0 h -7.96451 v 0 l -3.98226,6.89747 v 0 l 3.98226,6.89747 v 0 l 3.98226,6.89747 v 0 l 3.98225,-6.89747 v 0 l -3.98225,-6.89747 v 0 h 7.96451 v 0 l 3.98226,6.89747 v 0 l -3.98226,6.89747 v 0 l 3.98226,6.89747 v 0 l 3.98225,-6.89747 v 0 h 7.96452 v 0 l -3.98226,6.89747 v 0 l -3.98226,6.89747 v 0 h -7.96451 v 0 l -3.98226,-6.89747 v 0 h -7.96451 v 0 l 3.98226,6.89747 v 0 l -3.98226,6.89747 v 0 l -3.98226,-6.89747 v 0 l -3.98225,-6.89747 v 0 l 3.98225,-6.89747 v 0 l -3.98225,-6.89747 v 0 h -7.96452 v 0 l 3.98226,6.89747 v 0 l -3.98226,6.89747 v 0 l -3.98225,-6.89747 v 0 l -3.98226,-6.89747 v 0 l 3.98226,-6.89747 v 0 h 7.96451 v 0 l 3.98226,-6.89747 v 0 l 3.98225,-6.89747 v 0 h -7.96451 v 0 l -3.98226,6.89747 v 0 l -3.98225,-6.89747 v 0 l 3.98225,-6.89747 v 0 h 7.96452 v 0 l 3.98225,-6.89748 v 0 h -7.96451 v 0 l -3.98226,-6.89746 v 0 h 7.96452 v 0 h 7.96451 v 0 l 3.98226,6.89746 v 0 h 7.96451 v 0 l 3.98226,-6.89746 v 0 l 3.98225,-6.89747 v 0 h -7.96451 v 0 l -3.98226,6.89747 v 0 l -3.98225,-6.89747 v 0 l 3.98225,-6.89748 v 0 h 7.96452 v 0 l 3.98225,-6.89747 v 0 l 3.98226,-6.89746 v 0 h -7.96451 v 0 l -3.98226,6.89746 v 0 l -3.98226,-6.89746 v 0 l 3.98226,-6.89748 v 0 l -3.98226,-6.89747 v 0 h -7.96451 v 0 h -7.96451 v 0 l 3.98225,6.89747 v 0 h 7.96452 v 0 l -3.98226,6.89748 v 0 h -7.96451 v 0 l -3.98226,6.89746 v 0 l 3.98226,6.89747 v 0 l 3.98225,-6.89747 v 0 h 7.96452 v 0 l -3.98226,6.89747 v 0 l -3.98226,6.89748 v 0 h -7.96451 v 0 l -3.98226,-6.89748 v 0 h -7.96451 v 0 l 3.98226,6.89748 v 0 l -3.98226,6.89747 v 0 l -3.98226,-6.89747 v 0 l -3.98225,-6.89748 v 0 l 3.98225,-6.89747 v 0 h 7.96452 v 0 l 3.98225,-6.89746 v 0 l 3.98226,-6.89748 v 0 h -7.96451 v 0 l -3.98226,6.89748 v 0 l -3.98226,-6.89748 v 0 l 3.98226,-6.89747 v 0 h 7.96451 v 0 l 3.98226,-6.89748 v 0 h -7.96451 v 0 l -3.98226,-6.89746 v 0 h 7.96451 v 0 h 7.96452 v 0 l 3.98225,6.89746 v 0 h 7.96452 v 0 l 3.98225,-6.89746 v 0 l 3.98226,-6.89747 v 0 h -7.96451 v 0 l -3.98226,6.89747 v 0 l -3.98226,-6.89747 v 0 l 3.98226,-6.89748 v 0 l -3.98226,-6.89746 v 0 h -7.96451 v 0 h -7.96451 v 0 l 3.98225,6.89746 v 0 h 7.96452 v 0 l -3.98226,6.89748 v 0 h -7.96451 v 0 l -3.98226,-6.89748 v 0 h -7.96451 v 0 l 3.98225,6.89748 v 0 l -3.98225,6.89747 v 0 l -3.98226,-6.89747 v 0 l -3.98226,-6.89748 v 0 l 3.98226,-6.89746 v 0 h 7.96451 v 0 l 3.98226,-6.89748 v 0 h -7.96451 v 0 l -3.98226,-6.89747 v 0 h 7.96451 v 0 h 7.96452 v 0 l 3.98225,6.89747 v 0 h 7.96452 v 0 l 3.98225,-6.89747 v 0 h -7.96451 v 0 l -3.98226,-6.89746 v 0 h 7.96452 v 0 h 7.96451 v 0 l 3.98226,6.89746 v 0 l -3.98226,6.89747 v 0 l 3.98226,6.89748 v 0 l 3.98225,6.89746 v 0 l 3.98226,-6.89746 v 0 l -3.98226,-6.89748 v 0 h 7.96452 v 0 l 3.98225,6.89748 v 0 h 7.96452 v 0 l 3.98225,-6.89748 v 0 h -7.96451 v 0 l -3.98226,-6.89747 v 0 h 7.96452 v 0 h 7.96451 v 0 l 3.98226,6.89747 v 0 h 7.96451 v 0 l 3.98226,-6.89747 v 0 l 3.98225,-6.89746 v 0 h -7.96451 v 0 l -3.98226,6.89746 v 0 l -3.98225,-6.89746 v 0 l 3.98225,-6.89748 v 0 h 7.96452 v 0 l 3.98225,-6.89747 v 0 l 3.98226,-6.89746 v 0 h -7.96451 v 0 l -3.98226,6.89746 v 0 l -3.98226,-6.89746 v 0 l 3.98226,-6.89749 v 0 l -3.98226,-6.89747 v 0 h -7.96451 v 0 h -7.96451 v 0 l 3.98225,6.89747 v 0 h 7.96452 v 0 l -3.98226,6.89749 v 0 h -7.96451 v 0 l -3.98226,6.89746 v 0 l 3.98226,6.89747 v 0 l 3.98225,-6.89747 v 0 h 7.96452 v 0 l -3.98226,6.89747 v 0 l -3.98226,6.89748 v 0 h -7.96451 v 0 l -3.98226,-6.89748 v 0 h -7.96451 v 0 l 3.98226,6.89748 v 0 l -3.98226,6.89746 v 0 l -3.98226,-6.89746 v 0 l -3.98225,-6.89748 v 0 l 3.98225,-6.89747 v 0 h 7.96452 v 0 l 3.98225,-6.89746 v 0 l 3.98226,-6.89749 v 0 h -7.96451 v 0 l -3.98226,6.89749 v 0 l -3.98226,-6.89749 v 0 l 3.98226,-6.89747 v 0 l -3.98226,-6.89747 v 0 h -7.96451 v 0 l 3.98226,6.89747 v 0 l -3.98226,6.89747 v 0 l -3.98226,-6.89747 v 0 l -3.98225,-6.89747 v 0 l 3.98225,-6.89746 v 0 l -3.98225,-6.89747 v 0 h -7.96452 v 0 h -7.96451 v 0 l 3.98226,6.89747 v 0 h 7.96451 v 0 l -3.98226,6.89746 v 0 h -7.96451 v 0 l -3.98226,-6.89746 v 0 h -7.96451 v 0 h -7.96451 v 0 l 3.98225,6.89746 v 0 h 7.96452 v 0 l -3.98226,6.89747 v 0 h -7.96451 v 0 l -3.98226,6.89747 v 0 l 3.98226,6.89749 v 0 l 3.98225,6.89746 v 0 l 3.98226,-6.89746 v 0 l -3.98226,-6.89749 v 0 h 7.96452 v 0 l 3.98225,6.89749 v 0 h 7.96452 v 0 l 3.98225,-6.89749 v 0 h -7.96451 v 0 l -3.98226,-6.89747 v 0 h 7.96452 v 0 h 7.96451 v 0 l 3.98226,6.89747 v 0 l -3.98226,6.89749 v 0 l 3.98226,6.89746 v 0 l 3.98225,-6.89746 v 0 h 7.96452 v 0 l -3.98226,6.89746 v 0 l -3.98226,6.89747 v 0 h -7.96451 v 0 l -3.98226,-6.89747 v 0 h -7.96451 v 0 h -7.96451 v 0 l 3.98225,6.89747 v 0 h 7.96452 v 0 l -3.98226,6.89748 v 0 h -7.96451 v 0 l -3.98226,-6.89748 v 0 h -7.96451 v 0 l 3.98225,6.89748 v 0 l -3.98225,6.89746 v 0 l -3.98226,-6.89746 v 0 l -3.98226,-6.89748 v 0 l 3.98226,-6.89747 v 0 l -3.98226,-6.89746 v 0 h -7.96451 v 0 h -7.96451 v 0 l 3.98225,6.89746 v 0 h 7.96452 v 0 l -3.98226,6.89747 v 0 h -7.96451 v 0 l -3.98226,6.89748 v 0 l 3.98226,6.89746 v 0 l 3.98225,6.89747 v 0 l 3.98226,-6.89747 v 0 l -3.98226,-6.89746 v 0 h 7.96452 v 0 l 3.98225,6.89746 v 0 l -3.98225,6.89747 v 0 l 3.98225,6.89748 v 0 l 3.98226,-6.89748 v 0 h 7.96451 v 0 l -3.98225,6.89748 v 0 l -3.98226,6.89746 v 0 h -7.96451 v 0 l -3.98226,-6.89746 v 0 h -7.96451 v 0 l 3.98225,6.89746 v 0 l -3.98225,6.89748 v 0 l -3.98226,-6.89748 v 0 l -3.98226,-6.89746 v 0 l 3.98226,-6.89748 v 0 l -3.98226,-6.89747 v 0 h -7.96451 v 0 l 3.98226,6.89747 v 0 l -3.98226,6.89748 v 0 l -3.98226,-6.89748 v 0 l -3.98225,-6.89747 v 0 l 3.98225,-6.89746 v 0 h 7.96452 v 0 l 3.98225,-6.89748 v 0 l 3.98226,-6.89747 v 0 h -7.96451 v 0 l -3.98226,6.89747 v 0 l -3.98226,-6.89747 v 0 l 3.98226,-6.89746 v 0 h 7.96451 v 0 l 3.98226,-6.89749 v 0 h -7.96451 v 0 l -3.98226,-6.89747 v 0 h 7.96451 v 0 h 7.96452 v 0 l 3.98225,6.89747 v 0 h 7.96452 v 0 l 3.98225,-6.89747 v 0 l 3.98226,-6.89747 v 0 h -7.96451 v 0 l -3.98226,6.89747 v 0 l -3.98226,-6.89747 v 0 l 3.98226,-6.89746 v 0 l -3.98226,-6.89747 v 0 h -7.96451 v 0 h -7.96451 v 0 l 3.98225,6.89747 v 0 h 7.96452 v 0 l -3.98226,6.89746 v 0 h -7.96451 v 0 l -3.98226,-6.89746 v 0 h -7.96451 v 0 l 3.98225,6.89746 v 0 l -3.98225,6.89747 v 0 l -3.98226,-6.89747 v 0 l -3.98226,-6.89746 v 0 l 3.98226,-6.89747 v 0 h 7.96451 v 0 l 3.98226,-6.89749 v 0 h -7.96451 v 0 l -3.98226,-6.89746 v 0 h 7.96451 v 0 h 7.96452 v 0 l 3.98225,6.89746 v 0 h 7.96452 v 0 l 3.98225,-6.89746 v 0 h -7.96451 v 0 l -3.98226,-6.89747 v 0 h 7.96452 v 0 h 7.96451 v 0 l 3.98226,6.89747 v 0 l -3.98226,6.89746 v 0 l 3.98226,6.89749 v 0 l 3.98225,6.89747 v 0 l 3.98226,-6.89747 v 0 l -3.98226,-6.89749 v 0 h 7.96452 v 0 l 3.98225,6.89749 v 0 h 7.96452 v 0 l 3.98225,-6.89749 v 0 h -7.96451 v 0 l -3.98226,-6.89746 v 0 h 7.96452 v 0 h 7.96451 v 0 l 3.98226,6.89746 v 0 h 7.96451 v 0 l 3.98226,-6.89746 v 0 l 3.98225,-6.89747 v 0 h -7.96451 v 0 l -3.98226,6.89747 v 0 l -3.98225,-6.89747 v 0 l 3.98225,-6.89747 v 0 l -3.98225,-6.89746 v 0 h -7.96452 v 0 h -7.96451 v 0 l 3.98226,6.89746 v 0 h 7.96451 v 0 l -3.98226,6.89747 v 0 h -7.96451 v 0 l -3.98226,-6.89747 v 0 H 805.105 v 0 l 3.98226,6.89747 v 0 l -3.98226,6.89747 v 0 l -3.98226,-6.89747 v 0 l -3.98225,-6.89747 v 0 l 3.98225,-6.89746 v 0 h 7.96452 v 0 l 3.98225,-6.89749 v 0 H 805.105 v 0 l -3.98226,-6.89747 v 0 h 7.96452 v 0 h 7.96451 v 0 l 3.98226,6.89747 v 0 h 7.96451 v 0 l 3.98226,-6.89747 v 0 h -7.96452 v 0 l -3.98225,-6.89746 v 0 h 7.96451 v 0 h 7.96451 v 0 l 3.98226,6.89746 v 0 l -3.98226,6.89747 v 0 l 3.98226,6.89749 v 0 l 3.98226,6.89746 v 0 l 3.98225,-6.89746 v 0 l -3.98225,-6.89749 v 0 h 7.96451 v 0 l 3.98226,6.89749 v 0 l -3.98226,6.89746 v 0 l 3.98226,6.89747 v 0 l 3.98225,-6.89747 v 0 h 7.96452 v 0 l -3.98226,6.89747 v 0 l -3.98226,6.89747 v 0 h -7.96451 v 0 l -3.98226,6.89746 v 0 l 3.98226,6.89749 v 0 l 3.98226,6.89747 v 0 l 3.98225,-6.89747 v 0 l -3.98225,-6.89749 v 0 h 7.96451 v 0 l 3.98226,6.89749 v 0 l -3.98226,6.89747 v 0 l 3.98226,6.89746 v 0 l 3.98225,6.89747 v 0 l 3.98226,-6.89747 v 0 l -3.98226,-6.89746 v 0 h 7.96452 v 0 l 3.98225,6.89746 v 0 h 7.96452 v 0 l 3.98225,-6.89746 v 0 l 3.98226,-6.89747 v 0 h -7.96451 v 0 l -3.98226,6.89747 v 0 l -3.98226,-6.89747 v 0 l 3.98226,-6.89749 v 0 l -3.98226,-6.89746 v 0 h -7.96451 v 0 l 3.98226,6.89746 v 0 l -3.98226,6.89749 v 0 l -3.98226,-6.89749 v 0 l -3.98225,-6.89746 v 0 l 3.98225,-6.89747 v 0 h 7.96452 v 0 l 3.98225,-6.89747 v 0 h -7.96451 v 0 l -3.98226,-6.89746 v 0 h 7.96452 v 0 h 7.96451 v 0 l 3.98226,6.89746 v 0 l -3.98226,6.89747 v 0 l 3.98226,6.89747 v 0 l 3.98225,6.89746 v 0 l 3.98226,-6.89746 v 0 l -3.98226,-6.89747 v 0 h 7.96452 v 0 l 3.98225,6.89747 v 0 h 7.96452 v 0 l 3.98225,-6.89747 v 0 h -7.96451 v 0 l -3.98226,-6.89747 v 0 h 7.96452 v 0 h 7.96451 v 0 l 3.98226,6.89747 v 0 h 7.96451 v 0 l 3.98226,-6.89747 v 0 l 3.98225,-6.89746 v 0 h -7.96451 v 0 l -3.98226,6.89746 v 0 l -3.98225,-6.89746 v 0 l 3.98225,-6.89749 v 0 l -3.98225,-6.89747 v 0 h -7.96452 v 0 h -7.96451 v 0 l 3.98226,6.89747 v 0 h 7.96451 v 0 l -3.98226,6.89749 v 0 h -7.96451 v 0 l -3.98226,-6.89749 v 0 h -7.96451 v 0 l 3.98226,6.89749 v 0 l -3.98226,6.89746 v 0 l -3.98226,-6.89746 v 0 l -3.98225,-6.89749 v 0 l 3.98225,-6.89747 v 0 h 7.96452 v 0 l 3.98225,-6.89746 v 0 h -7.96451 v 0 l -3.98226,-6.89747 v 0 h 7.96452 v 0 h 7.96451 v 0 l 3.98226,6.89747 v 0 h 7.96451 v 0 l 3.98226,-6.89747 v 0 h -7.96452 v 0 l -3.98225,-6.89747 v 0 h 7.96451 v 0 h 7.96451 v 0 l 3.98226,6.89747 v 0 l -3.98226,6.89747 v 0 l 3.98226,6.89746 v 0 l 3.98226,6.89747 v 0 l 3.98225,-6.89747 v 0 l -3.98225,-6.89746 v 0 h 7.96451 v 0 l 3.98226,6.89746 v 0 h 7.96451 v 0 l 3.98226,-6.89746 v 0 h -7.96451 v 0 l -3.98226,-6.89747 v 0 h 7.96451 v 0 h 7.96452 v 0 l 3.98225,6.89747 v 0 h 7.96452 v 0 l 3.98225,-6.89747 v 0 l 3.98226,-6.89747 v 0 h -7.96451 v 0 l -3.98226,6.89747 v 0 l -3.98226,-6.89747 v 0 l 3.98226,-6.89749 v 0 h 7.96451 v 0 l 3.98226,-6.89746 v 0 l 3.98226,-6.89747 v 0 h -7.96452 v 0 l -3.98225,6.89747 v 0 l -3.98226,-6.89747 v 0 l 3.98226,-6.89747 v 0 l -3.98226,-6.89746 v 0 h -7.96451 v 0 h -7.96452 v 0 l 3.98226,6.89746 v 0 h 7.96451 v 0 l -3.98225,6.89747 v 0 h -7.96452 v 0 l -3.98225,6.89747 v 0 l 3.98225,6.89746 v 0 l 3.98226,-6.89746 v 0 h 7.96451 v 0 l -3.98225,6.89746 v 0 l -3.98226,6.89749 v 0 h -7.96451 v 0 l -3.98226,-6.89749 v 0 h -7.96452 v 0 l 3.98226,6.89749 v 0 l -3.98226,6.89747 v 0 l -3.98225,-6.89747 v 0 l -3.98226,-6.89749 v 0 l 3.98226,-6.89746 v 0 h 7.96451 v 0 l 3.98226,-6.89747 v 0 l 3.98226,-6.89747 v 0 h -7.96452 v 0 l -3.98226,6.89747 v 0 l -3.98225,-6.89747 v 0 l 3.98225,-6.89746 v 0 l -3.98225,-6.89749 v 0 h -7.96452 v 0 l 3.98226,6.89749 v 0 l -3.98226,6.89746 v 0 l -3.98225,-6.89746 v 0 l -3.98226,-6.89749 v 0 l 3.98226,-6.89747 v 0 l -3.98226,-6.89746 v 0 h -7.96451 v 0 h -7.96452 v 0 l 3.98226,6.89746 v 0 h 7.96451 v 0 l -3.98225,6.89747 v 0 h -7.96452 v 0 l -3.98225,-6.89747 v 0 h -7.96452 v 0 h -7.96451 v 0 l 3.98226,6.89747 v 0 h 7.96451 v 0 l -3.98226,6.89749 v 0 h -7.96451 v 0 l -3.98226,6.89746 v 0 l 3.98226,6.89747 v 0 l 3.98226,6.89747 v 0 l 3.98225,-6.89747 v 0 l -3.98225,-6.89747 v 0 h 7.96451 v 0 l 3.98226,6.89747 v 0 h 7.96451 v 0 l 3.98226,-6.89747 v 0 h -7.96452 v 0 l -3.98225,-6.89746 v 0 h 7.96451 v 0 h 7.96451 v 0 l 3.98226,6.89746 v 0 l -3.98226,6.89747 v 0 l 3.98226,6.89747 v 0 l 3.98226,-6.89747 v 0 h 7.96451 v 0 l -3.98226,6.89747 v 0 l -3.98225,6.89746 v 0 h -7.96452 v 0 l -3.98225,-6.89746 v 0 h -7.96452 v 0 h -7.96451 v 0 l 3.98226,6.89746 v 0 h 7.96451 v 0 l -3.98226,6.89749 v 0 h -7.96451 v 0 l -3.98226,-6.89749 v 0 h -7.96451 v 0 l 3.98226,6.89749 v 0 l -3.98226,6.89747 v 0 l -3.98226,-6.89747 v 0 l -3.98225,-6.89749 v 0 l 3.98225,-6.89746 v 0 l -3.98225,-6.89747 v 0 h -7.96452 v 0 h -7.96451 v 0 l 3.98226,6.89747 v 0 h 7.96451 v 0 l -3.98226,6.89746 v 0 h -7.96451 v 0 l -3.98226,6.89749 v 0 l 3.98226,6.89747 v 0 l 3.98226,6.89747 v 0 l 3.98225,-6.89747 v 0 l -3.98225,-6.89747 v 0 h 7.96451 v 0 l 3.98226,6.89747 v 0 l -3.98226,6.89747 v 0 l 3.98226,6.89746 v 0 l 3.98225,-6.89746 v 0 h 7.96452 v 0 l -3.98226,6.89746 v 0 l -3.98226,6.89747 v 0 h -7.96451 v 0 l -3.98226,-6.89747 v 0 h -7.96451 v 0 l 3.98226,6.89747 v 0 l -3.98226,6.89749 v 0 l -3.98226,-6.89749 v 0 l -3.98225,-6.89747 v 0 l 3.98225,-6.89746 v 0 l -3.98225,-6.89747 v 0 h -7.96452 v 0 l 3.98226,6.89747 v 0 l -3.98226,6.89746 v 0 l -3.98225,-6.89746 v 0 l -3.98226,-6.89747 v 0 l 3.98226,-6.89747 v 0 h 7.96451 v 0 l 3.98226,-6.89749 v 0 l 3.98225,-6.89746 v 0 h -7.96451 v 0 l -3.98226,6.89746 v 0 l -3.98225,-6.89746 v 0 l 3.98225,-6.89747 v 0 h 7.96452 v 0 l 3.98225,-6.89747 v 0 h -7.96451 v 0 l -3.98226,-6.89746 v 0 h 7.96452 v 0 h 7.96451 v 0 l 3.98226,6.89746 v 0 h 7.96451 v 0 l 3.98226,-6.89746 v 0 l 3.98225,-6.89749 v 0 h -7.96451 v 0 l -3.98226,6.89749 v 0 l -3.98225,-6.89749 v 0 l 3.98225,-6.89747 v 0 l -3.98225,-6.89746 v 0 h -7.96452 v 0 h -7.96451 v 0 l 3.98226,6.89746 v 0 h 7.96451 v 0 l -3.98226,6.89747 v 0 h -7.96451 v 0 l -3.98226,-6.89747 v 0 h -7.96451 v 0 l 3.98226,6.89747 v 0 l -3.98226,6.89749 v 0 l -3.98226,-6.89749 v 0 l -3.98225,-6.89747 v 0 l 3.98225,-6.89746 v 0 h 7.96452 v 0 l 3.98225,-6.89747 v 0 h -7.96451 v 0 l -3.98226,-6.89747 v 0 h 7.96452 v 0 h 7.96451 v 0 l 3.98226,6.89747 v 0 h 7.96451 v 0 l 3.98226,-6.89747 v 0 h -7.96452 v 0 l -3.98225,-6.89749 v 0 h 7.96451 v 0 h 7.96451 v 0 l 3.98226,6.89749 v 0 l -3.98226,6.89747 v 0 l 3.98226,6.89747 v 0 l 3.98226,6.89746 v 0 l 3.98225,-6.89746 v 0 l -3.98225,-6.89747 v 0 h 7.96451 v 0 l 3.98226,6.89747 v 0 h 7.96451 v 0 l 3.98226,-6.89747 v 0 h -7.96452 v 0 l -3.98225,-6.89747 v 0 h 7.96451 v 0 h 7.96451 v 0 l 3.98226,6.89747 v 0 h 7.96451 v 0 l 3.98226,-6.89747 v 0 l 3.98226,-6.89749 v 0 h -7.96452 v 0 l -3.98225,6.89749 v 0 l -3.98226,-6.89749 v 0 l 3.98226,-6.89746 v 0 l -3.98226,-6.89747 v 0 h -7.96451 v 0 h -7.96452 v 0 l 3.98226,6.89747 v 0 h 7.96451 v 0 l -3.98225,6.89746 v 0 h -7.96452 v 0 l -3.98225,-6.89746 v 0 h -7.96452 v 0 l 3.98226,6.89746 v 0 l -3.98226,6.89749 v 0 l -3.98225,-6.89749 v 0 l -3.98226,-6.89746 v 0 l 3.98226,-6.89747 v 0 h 7.96451 v 0 l 3.98226,-6.89746 v 0 h -7.96452 v 0 l -3.98225,-6.89749 v 0 h 7.96451 v 0 h 7.96451 v 0 l 3.98226,6.89749 v 0 h 7.96451 v 0 l 3.98226,-6.89749 v 0 h -7.96451 v 0 l -3.98226,-6.89745 v 0 h 7.96451 v 0 h 7.96452 v 0 l 3.98225,6.89745 v 0 l -3.98225,6.89749 v 0 l 3.98225,6.89746 v 0 l 3.98226,6.89747 v 0 l 3.98226,-6.89747 v 0 l -3.98226,-6.89746 v 0 h 7.96451 v 0 l 3.98226,6.89746 v 0 l -3.98226,6.89747 v 0 l 3.98226,6.89746 v 0 l 3.98226,-6.89746 v 0 h 7.96451 v 0 l -3.98226,6.89746 v 0 l -3.98225,6.89749 v 0 h -7.96452 v 0 l -3.98225,6.89747 v 0 l 3.98225,6.89747 v 0 l 3.98226,6.89746 v 0 l 3.98226,-6.89746 v 0 l -3.98226,-6.89747 v 0 h 7.96451 v 0 l 3.98226,6.89747 v 0 l -3.98226,6.89746 v 0 l 3.98226,6.89747 v 0 l 3.98226,6.89749 v 0 l 3.98226,-6.89749 v 0 l -3.98226,-6.89747 v 0 h 7.96451 v 0 l 3.98226,6.89747 v 0 h 7.96451 v 0 l 3.98226,-6.89747 v 0 l 3.98226,-6.89746 v 0 h -7.96452 v 0 l -3.98225,6.89746 v 0 l -3.98226,-6.89746 v 0 l 3.98226,-6.89747 v 0 l -3.98226,-6.89747 v 0 h -7.96451 v 0 l 3.98225,6.89747 v 0 l -3.98225,6.89747 v 0 l -3.98226,-6.89747 v 0 l -3.98226,-6.89747 v 0 l 3.98226,-6.89749 v 0 h 7.96451 v 0 l 3.98226,-6.89746 v 0 h -7.96451 v 0 l -3.98226,-6.89747 v 0 h 7.96451 v 0 h 7.96452 v 0 l 3.98225,6.89747 v 0 l -3.98225,6.89746 v 0 l 3.98225,6.89749 v 0 l 3.98226,6.89747 v 0 l 3.98226,-6.89747 v 0 l -3.98226,-6.89749 v 0 h 7.96451 v 0 l 3.98226,6.89749 v 0 l -3.98226,6.89747 v 0 l 3.98226,6.89747 v 0 l 3.98226,-6.89747 v 0 h 7.96453 v 0 l -3.98228,6.89747 v 0 l -3.98225,6.89746 v 0 h -7.96452 v 0 l -3.98225,6.89747 v 0 l 3.98225,6.89749 v 0 l 3.98226,6.89746 v 0 l 3.98226,-6.89746 v 0 l -3.98226,-6.89749 v 0 h 7.96451 v 0 l 3.98228,6.89749 v 0 h 7.9645 v 0 l 3.9822,-6.89749 v 0 l 3.9823,-6.89747 v 0 h -7.9645 v 0 l -3.9823,6.89747 v 0 l -3.9822,-6.89747 v 0 l 3.9822,-6.89746 v 0 h 7.9645 v 0 l 3.9823,-6.89747 v 0 h -7.9645 v 0 l -3.9823,-6.89747 v 0 h 7.9645 v 0 h 7.9646 v 0 l 3.9822,6.89747 v 0 l -3.9822,6.89747 v 0 l 3.9822,6.89746 v 0 l 3.9823,-6.89746 v 0 h 7.9645 v 0 l -3.9823,6.89746 v 0 l -3.9822,6.89747 v 0 h -7.9645 v 0 l -3.9823,6.89749 v 0 l 3.9823,6.89746 v 0 l 3.9822,-6.89746 v 0 h 7.9645 v 0 l -3.9822,6.89746 v 0 l -3.9823,6.89747 v 0 h -7.9645 v 0 l -3.9823,-6.89747 v 0 h -7.9645 v 0 h -7.96448 v 0 l 3.98228,6.89747 v 0 h 7.9645 v 0 l -3.9823,6.89747 v 0 h -7.96448 v 0 l -3.98225,6.89746 v 0 l 3.98225,6.89749 v 0 l 3.98228,-6.89749 v 0 h 7.9645 v 0 l -3.9823,6.89749 v 0 l -3.9822,6.89747 v 0 h -7.96453 v 0 l -3.98226,6.89747 v 0 l 3.98226,6.89746 v 0 l 3.98225,6.89747 v 0 l 3.98228,-6.89747 v 0 l -3.98228,-6.89746 v 0 h 7.96448 v 0 l 3.9823,6.89746 v 0 l -3.9823,6.89747 v 0 l 3.9823,6.89749 v 0 l 3.9822,6.89746 v 0 l 3.9823,-6.89746 v 0 l -3.9823,-6.89749 v 0 h 7.9646 v 0 l 3.9822,6.89749 v 0 h 7.9645 v 0 l 3.9823,-6.89749 v 0 l 3.9822,-6.89747 v 0 h -7.9645 v 0 l -3.9822,6.89747 v 0 l -3.9823,-6.89747 v 0 l 3.9823,-6.89746 v 0 l -3.9823,-6.89747 v 0 h -7.9645 v 0 l 3.9823,6.89747 v 0 l -3.9823,6.89746 v 0 l -3.9823,-6.89746 v 0 l -3.9822,-6.89747 v 0 l 3.9822,-6.89747 v 0 h 7.9646 v 0 l 3.9822,-6.89749 v 0 h -7.9645 v 0 l -3.9823,-6.89746 v 0 h 7.9646 v 0 h 7.9645 v 0 l 3.9822,6.89746 v 0 l -3.9822,6.89749 v 0 l 3.9822,6.89747 v 0 l 3.9823,6.89747 v 0 l 3.9822,-6.89747 v 0 l -3.9822,-6.89747 v 0 h 7.9645 v 0 l 3.9823,6.89747 v 0 l -3.9823,6.89747 v 0 l 3.9823,6.89746 v 0 l 3.9822,-6.89746 v 0 h 7.9645 v 0 l -3.9822,6.89746 v 0 l -3.9823,6.89747 v 0 h -7.9645 v 0 l -3.9823,6.89749 v 0 l 3.9823,6.89746 v 0 l 3.9823,6.89747 v 0 l 3.9822,-6.89747 v 0 l -3.9822,-6.89746 v 0 h 7.9645 v 0 l 3.9822,6.89746 v 0 l -3.9822,6.89747 v 0 l 3.9822,6.89747 v 0 l 3.9823,6.89746 v 0 l 3.9822,-6.89746 v 0 l -3.9822,-6.89747 v 0 h 7.9645 v 0 l 3.9823,6.89747 v 0 h 7.9645 v 0 l 3.9822,-6.89747 v 0 l 3.9823,-6.89747 v 0 h -7.9645 v 0 l -3.9823,6.89747 v 0 l -3.9822,-6.89747 v 0 l 3.9822,-6.89746 v 0 l -3.9822,-6.89749 v 0 h -7.9646 v 0 l 3.9823,6.89749 v 0 l -3.9823,6.89746 v 0 l -3.9822,-6.89746 v 0 l -3.9823,-6.89749 v 0 l 3.9823,-6.89747 v 0 h 7.9645 v 0 l 3.9823,-6.89746 v 0 h -7.9646 v 0 l -3.9822,-6.89747 v 0 h 7.9645 v 0 h 7.9645 v 0 l 3.9823,6.89747 v 0 l -3.9823,6.89746 v 0 l 3.9823,6.89747 v 0 l 3.9822,6.89749 v 0 l 3.9823,-6.89749 v 0 l -3.9823,-6.89747 v 0 h 7.9645 v 0 l 3.9823,6.89747 v 0 h 7.9645 v 0 l 3.9823,-6.89747 v 0 h -7.9645 v 0 l -3.9823,-6.89746 v 0 h 7.9645 v 0 h 7.9645 v 0 l 3.9823,6.89746 v 0 h 7.9645 v 0 l 3.9823,-6.89746 v 0 l 3.9822,-6.89747 v 0 h -7.9645 v 0 l -3.9823,6.89747 v 0 l -3.9822,-6.89747 v 0 l 3.9822,-6.89747 v 0 h 7.9646 v 0 l 3.9822,-6.89749 v 0 l 3.9823,-6.89746 v 0 h -7.9645 v 0 l -3.9823,6.89746 v 0 l -3.9823,-6.89746 v 0 l 3.9823,-6.89747 v 0 l -3.9823,-6.89747 v 0 h -7.9645 v 0 h -7.9645 v 0 l 3.9823,6.89747 v 0 h 7.9645 v 0 l -3.9823,6.89747 v 0 h -7.9645 v 0 l -3.9822,6.89746 v 0 l 3.9822,6.89749 v 0 l 3.9823,-6.89749 v 0 h 7.9645 v 0 l -3.9823,6.89749 v 0 l -3.9822,6.89747 v 0 h -7.9645 v 0 l -3.9823,-6.89747 v 0 h -7.9645 v 0 l 3.9822,6.89747 v 0 l -3.9822,6.89747 v 0 l -3.9823,-6.89747 v 0 l -3.9822,-6.89747 v 0 l 3.9822,-6.89749 v 0 h 7.9645 v 0 l 3.9823,-6.89746 v 0 l 3.9823,-6.89747 v 0 h -7.9646 v 0 l -3.9822,6.89747 v 0 l -3.9823,-6.89747 v 0 l 3.9823,-6.89747 v 0 l -3.9823,-6.89746 v 0 h -7.9645 v 0 l 3.9823,6.89746 v 0 l -3.9823,6.89747 v 0 l -3.9822,-6.89747 v 0 l -3.9823,-6.89746 v 0 l 3.9823,-6.89749 v 0 l -3.9823,-6.89747 v 0 h -7.9645 v 0 h -7.9645 v 0 l 3.9822,6.89747 v 0 h 7.9645 v 0 l -3.9822,6.89749 v 0 h -7.9645 v 0 l -3.9823,6.89746 v 0 l 3.9823,6.89747 v 0 l 3.9822,6.89747 v 0 l 3.9823,-6.89747 v 0 l -3.9823,-6.89747 v 0 h 7.9645 v 0 l 3.9823,6.89747 v 0 l -3.9823,6.89747 v 0 l 3.9823,6.89746 v 0 l 3.9823,-6.89746 v 0 h 7.9645 v 0 l -3.9823,6.89746 v 0 l -3.9822,6.89749 v 0 h -7.9646 v 0 l -3.9822,-6.89749 v 0 h -7.9645 v 0 l 3.9822,6.89749 v 0 l -3.9822,6.89747 v 0 l -3.9823,-6.89747 v 0 l -3.9822,-6.89749 v 0 l 3.9822,-6.89746 v 0 l -3.9822,-6.89747 v 0 h -7.9646 v 0 l 3.9823,6.89747 v 0 l -3.9823,6.89746 v 0 l -3.9822,-6.89746 v 0 l -3.9823,-6.89747 v 0 l 3.9823,-6.89747 v 0 h 7.9645 v 0 l 3.9823,-6.89746 v 0 l 3.9822,-6.89749 v 0 h -7.9645 v 0 l -3.9823,6.89749 v 0 l -3.9822,-6.89749 v 0 l 3.9822,-6.89747 v 0 h 7.9646 v 0 l 3.9822,-6.89746 v 0 h -7.9645 v 0 l -3.9823,-6.89747 v 0 h 7.9646 v 0 h 7.9645 v 0 l 3.9822,6.89747 v 0 h 7.9645 v 0 l 3.9823,-6.89747 v 0 l 3.9823,-6.89747 v 0 h -7.9646 v 0 l -3.9822,6.89747 v 0 l -3.9823,-6.89747 v 0 l 3.9823,-6.89749 v 0 l -3.9823,-6.89746 v 0 h -7.9645 v 0 h -7.9645 v 0 l 3.9823,6.89746 v 0 h 7.9645 v 0 l -3.9823,6.89749 v 0 h -7.9645 v 0 l -3.9823,-6.89749 v 0 h -7.9645 v 0 l 3.9823,6.89749 v 0 l -3.9823,6.89747 v 0 l -3.9822,-6.89747 v 0 l -3.9823,-6.89749 v 0 l 3.9823,-6.89746 v 0 h 7.9645 v 0 l 3.9822,-6.89747 v 0 h -7.9645 v 0 l -3.9822,-6.89746 v 0 h 7.9645 v 0 h 7.9645 v 0 l 3.9823,6.89746 v 0 h 7.9645 v 0 l 3.9822,-6.89746 v 0 h -7.9645 v 0 l -3.9822,-6.89749 v 0 h 7.9645 v 0 h 7.9645 v 0 l 3.9822,6.89749 v 0 l -3.9822,6.89746 v 0 l 3.9822,6.89747 v 0 l 3.9823,6.89746 v 0 l 3.9823,-6.89746 v 0 l -3.9823,-6.89747 v 0 h 7.9645 v 0 l 3.9823,6.89747 v 0 l -3.9823,6.89746 v 0 l 3.9823,6.89749 v 0 l 3.9822,-6.89749 v 0 h 7.9645 v 0 l -3.9822,6.89749 v 0 l -3.9823,6.89747 v 0 h -7.9645 v 0 l -3.9822,6.89747 v 0 l 3.9822,6.89746 v 0 l 3.9823,6.89747 v 0 l 3.9822,-6.89747 v 0 l -3.9822,-6.89746 v 0 h 7.9645 v 0 l 3.9822,6.89746 v 0 l -3.9822,6.89747 v 0 l 3.9822,6.89749 v 0 l 3.9823,6.89746 v 0 l 3.9823,-6.89746 v 0 l -3.9823,-6.89749 v 0 h 7.9645 v 0 l 3.9823,6.89749 v 0 h 7.9645 v 0 l 3.9822,-6.89749 v 0 l 3.9823,-6.89747 v 0 h -7.9645 v 0 l -3.9823,6.89747 v 0 l -3.9822,-6.89747 v 0 l 3.9822,-6.89746 v 0 l -3.9822,-6.89747 v 0 h -7.9645 v 0 l 3.9822,6.89747 v 0 l -3.9822,6.89746 v 0 l -3.9823,-6.89746 v 0 l -3.9823,-6.89747 v 0 l 3.9823,-6.89747 v 0 h 7.9645 v 0 l 3.9823,-6.89749 v 0 h -7.9645 v 0 l -3.9823,-6.89746 v 0 h 7.9645 v 0 h 7.9645 v 0 l 3.9823,6.89746 v 0 l -3.9823,6.89749 v 0 l 3.9823,6.89747 v 0 l 3.9822,6.89747 v 0 l 3.9823,-6.89747 v 0 l -3.9823,-6.89747 v 0 h 7.9646 v 0 l 3.9822,6.89747"
       id="path5" />
  </g>
</svg>
