<?xml version="1.0" encoding="utf-8"?>
<!-- Generator: https://github.com/anvaka/l-system -->
<!DOCTYPE svg PUBLIC "-//W3C//DTD SVG 1.1//EN" "http://www.w3.org/Graphics/SVG/1.1/DTD/svg11.dtd">
<svg version="1.1" xmlns="http://www.w3.org/2000/svg" xmlns:xlink="http://www.w3.org/1999/xlink"
    viewBox="0 0 1680 909">
<style>
  path {
   vector-effect: non-scaling-stroke;
  }
</style>

<rect id="background" fill="#0c2952" x="0" y="0" width="1680" height="909"></rect>
<g fill="none" stroke-width="2" stroke="#90ee90">
<path d="M863.4461531119823 680.521043087448 L863.4461531119823 671.6369891350179,863.4461531119823 671.6369891350179,863.4461531119823 662.7529351825877"/>
<path d="M863.3996365280915 653.8690032340724 L867.391410648306 645.932241899739"/>
<path d="M863.3996365280915 653.8690032340724 L859.3249693195842 645.9744789772267"/>
<path d="M862.9344898217947 618.3364407637995 L866.8011063564577 610.337959004592,866.8011063564577 610.337959004592,870.6677232617925 602.3394772453846"/>
<path d="M862.9344898217947 618.3364407637995 L858.7363233066396 610.506893758552,858.7363233066396 610.506893758552,854.5381567385317 602.6773467533045"/>
<path d="M850.2990527735279 594.8698892346224 L850.066495519773 585.9888786020658"/>
<path d="M850.2990527735279 594.8698892346224 L842.9774716090986 589.8379055506288"/>
<path d="M874.4924070403648 594.3208648402431 L881.5406011548183 588.9125939711732"/>
<path d="M874.4924070403648 594.3208648402431 L874.2598489393605 585.4398542076866"/>
<path d="M860.1443999287095 547.3239198444974 L863.7153257580671 539.1891190445402,863.7153257580671 539.1891190445402,867.2862513226593 531.0543182445833"/>
<path d="M860.1443999287095 547.3239198444974 L855.6621491514126 539.6534659440864,855.6621491514126 539.6534659440864,851.1798990095526 531.9830120436754"/>
<path d="M846.6575468587133 524.3361320107928 L846.0997127649897 515.4696059541155"/>
<path d="M846.6575468587133 524.3361320107928 L839.1564920049381 519.5758103769804"/>
<path d="M828.3287835196011 493.89215626296306 L827.6317480426417 485.0354854113996,827.6317480426417 485.0354854113996,826.9347125656825 476.17881455983604"/>
<path d="M828.3287835196011 493.89215626296306 L820.7538824074243 489.25024620641267,820.7538824074243 489.25024620641267,813.1789812952477 484.6083361498623"/>
<path d="M805.579879350981 480.0061587015495 L800.8983722460982 472.4556753173114"/>
<path d="M805.579879350981 480.0061587015495 L796.7196839418801 479.3555118241771"/>
<path d="M826.1913156011176 467.3259258296298 L829.5480736986443 459.1004354530405"/>
<path d="M826.1913156011176 467.3259258296298 L821.5098118852325 459.77542888940116"/>
<path d="M870.8145346392108 522.9009457376029 L877.659815909446 517.2380255864646"/>
<path d="M870.8145346392108 522.9009457376029 L870.2567005454872 514.0344196809257"/>
<path d="M884.6708522066127 490.1781402020638 L891.4263394428399 484.4084124015553,891.4263394428399 484.4084124015553,898.181826679067 478.63867104505647"/>
<path d="M884.6708522066127 490.1781402020638 L883.9738167296535 481.32146935050025,883.9738167296535 481.32146935050025,883.2767829471932 472.4647984989367"/>
<path d="M882.5333842881294 463.6119097687305 L885.8901423856561 455.38641939214125"/>
<path d="M882.5333842881294 463.6119097687305 L877.8518805722442 456.0614128285019"/>
<path d="M904.9070111929676 472.8336570012036 L913.5346196945841 470.71450322592347"/>
<path d="M904.9070111929676 472.8336570012036 L908.2637692904943 464.6081666246143"/>
<path d="M846.400953986503 405.8865979752344 L849.3226232482901 397.4967141015121,849.3226232482901 397.4967141015121,852.2442925100773 389.10683022778977"/>
<path d="M846.400953986503 405.8865979752344 L841.3307034357476 398.5914687845723,841.3307034357476 398.5914687845723,836.2604545794911 391.2963395939102"/>
<path d="M831.152076110877 384.0278614806261 L829.900302389531 375.232436594268"/>
<path d="M831.152076110877 384.0278614806261 L823.300653125915 379.87072720134745"/>
<path d="M810.4912045522825 355.1157804424129 L809.101434236359 346.3410962215628,809.101434236359 346.3410962215628,807.7116605314379 337.5664391126936"/>
<path d="M810.4912045522825 355.1157804424129 L802.5754583922651 351.0825208045793,802.5754583922651 351.0825208045793,794.65970884325 347.0492340547645"/>
<path d="M786.7229475089165 343.0574557479464 L781.463467191882 335.89753400681053"/>
<path d="M786.7229475089165 343.0574557479464 L777.8390155604013 343.1039799074385"/>
<path d="M806.2759659086032 328.7991564626718 L808.9770105772977 320.33566356038244"/>
<path d="M806.2759659086032 328.7991564626718 L801.0164855915687 321.63923472153596"/>
<path d="M767.6723141181976 298.3962418101513 L765.9619412372894 289.6783843015946,765.9619412372894 289.6783843015946,764.2515615783857 280.96052679303773"/>
<path d="M767.6723141181976 298.3962418101513 L759.614084330738 294.6557373437602,759.614084330738 294.6557373437602,751.5558545432784 290.91523287736925"/>
<path d="M743.4781583534207 287.2169688774635 L737.9598399532445 280.25461214228267"/>
<path d="M743.4781583534207 287.2169688774635 L734.6018990955441 287.5889994815139"/>
<path d="M711.0527170261037 272.678413044013 L705.4257202498645 265.80357378368086,705.4257202498645 265.80357378368086,699.798737029616 258.9287345233489"/>
<path d="M711.0527170261037 272.678413044013 L702.183384879387 273.1897992306912,702.183384879387 273.1897992306912,693.3140662886608 273.7012125293505"/>
<path d="M684.4475402319835 274.2590415395777 L676.2941677250031 270.7307696608931"/>
<path d="M684.4475402319835 274.2590415395777 L676.8006601991008 278.7814013156617"/>
<path d="M694.1358304344682 252.08344732236793 L692.1978253606137 243.41336112443182"/>
<path d="M694.1358304344682 252.08344732236793 L685.9824443714973 248.55514833170218"/>
<path d="M762.4955660113555 272.25175179813465 L764.8846602260197 263.6949665690316"/>
<path d="M762.4955660113555 272.25175179813465 L756.9772543891746 265.2893679509728"/>
<path d="M755.1983220861711 237.47345141883488 L757.4527172009537 228.88020057521146,757.4527172009537 228.88020057521146,759.7071190937316 220.28692261960697"/>
<path d="M755.1983220861711 237.47345141883488 L749.5713320879271 230.59861215850285,749.5713320879271 230.59861215850285,743.9443353116881 223.72380001015185"/>
<path d="M738.2814287165403 216.87851280917087 L736.3434371986763 208.20842661123464"/>
<path d="M738.2814287165403 216.87851280917087 L730.1280562095599 213.35021381850513"/>
<path d="M761.9164947639708 211.68201362412944 L767.7916203908345 205.01794290452676"/>
<path d="M761.9164947639708 211.68201362412944 L759.9784964681116 203.01187320223121"/>
<path d="M855.1219920693374 380.701763644676 L861.5018650483306 374.5192288206089"/>
<path d="M855.1219920693374 380.701763644676 L853.8702183479913 371.90633875831804"/>
<path d="M866.368193257198 346.9926784622817 L872.6501682615956 340.7106968917011,872.6501682615956 340.7106968917011,878.9321422069313 334.42871532112076"/>
<path d="M866.368193257198 346.9926784622817 L864.9784210349633 338.2179942414315,864.9784210349633 338.2179942414315,863.588648825967 329.4433100205813"/>
<path d="M862.1529517540519 320.6760273705594 L864.853997905433 312.21253446827"/>
<path d="M862.1529517540519 320.6760273705594 L856.8934749319213 313.5161327414046"/>
<path d="M885.1811386635595 328.11392825346235 L893.6158877824331 325.3244036345917"/>
<path d="M885.1811386635595 328.11392825346235 L887.8821850267528 319.6504353511731"/>
<path d="M887.0869499544087 279.01255806614523 L893.1345111697862 272.50459813346293,893.1345111697862 272.50459813346293,899.1820723851636 265.99663820078075"/>
<path d="M887.0869499544087 279.01255806614523 L885.3765736845029 270.2947005575884,885.3765736845029 270.2947005575884,883.6661991090958 261.57684304903165"/>
<path d="M881.9102001530679 252.86804094214756 L884.2992977567297 244.31125571304437"/>
<path d="M881.9102001530679 252.86804094214756 L876.3918902253859 245.90568420696675"/>
<path d="M874.6129562278833 218.08976767482872 L876.8673555789131 209.4965168312053,876.8673555789131 209.4965168312053,879.121754929943 200.90326598758196"/>
<path d="M874.6129562278833 218.08976767482872 L868.9859666532642 211.21492841449668,868.9859666532642 211.21492841449668,863.3589768138797 204.34008915416464"/>
<path d="M857.6960675181244 197.49480195318367 L855.7580713403887 188.82471575524752"/>
<path d="M857.6960675181244 197.49480195318367 L849.5426861150253 193.966502962518"/>
<path d="M881.3311289056833 192.29830276814224 L887.2062596160434 185.63428627250164"/>
<path d="M881.3311289056833 192.29830276814224 L879.3931323043229 183.6282165702061"/>
<path d="M905.195475893408 259.45711992214933 L913.5223379671659 256.360389445933"/>
<path d="M905.195475893408 259.45711992214933 L907.5845734970699 250.90033469304623"/>
<path d="M929.0424932417417 233.11135056277297 L937.3196861662049 229.88421145767714,937.3196861662049 229.88421145767714,945.5968790906679 226.65707235258154"/>
<path d="M929.0424932417417 233.11135056277297 L931.2968883565243 224.5181268311306,931.2968883565243 224.5181268311306,933.5512902493025 215.92482176354497"/>
<path d="M935.7606659195417 207.3199127680674 L941.6357915464051 200.65589627242682"/>
<path d="M935.7606659195417 207.3199127680674 L933.8226676236824 198.6498265701313"/>
<path d="M953.8570660250136 223.3866354137395 L962.701692378993 224.22271468554442"/>
<path d="M953.8570660250136 223.3866354137395 L959.7321984298725 216.7226189180989"/>
</g>
<g fill="none" stroke-width="2" stroke="#00ff00">
<path d="M863.4461531119823 662.7529351825877 L863.3996365280915 653.8690032340724,863.3996365280915 653.8690032340724,863.3531199442006 644.9850712855571,863.3531199442006 644.9850712855571,863.2600880472927 636.1015053487861,863.2600880472927 636.1015053487861,863.120543382426 627.2185460425911,863.120543382426 627.2185460425911,862.9344898217947 618.3364407637995,862.9344898217947 618.3364407637995,862.7484362346867 609.4543320960101,862.7484362346867 609.4543320960101,862.5158787691195 600.5733282414488,862.5158787691195 600.5733282414488,862.2368239383228 591.6936528739593,862.2368239383228 591.6936528739593,861.911279261635 582.8155703353568,861.911279261635 582.8155703353568,861.539253741081 573.939304299485,861.539253741081 573.939304299485,861.1207574377476 565.0651191081594,861.1207574377476 565.0651191081594,860.6558020013141 556.1932384352235,860.6558020013141 556.1932384352235,860.1443999287095 547.3239198444974,860.1443999287095 547.3239198444974,859.6329982797295 538.4545876977807,859.6329982797295 538.4545876977807,859.0751637623812 529.5880616411032,859.0751637623812 529.5880616411032,858.4709122625908 520.7245856822947,858.4709122625908 520.7245856822947,857.8202603017219 511.86439027319386,857.8202603017219 511.86439027319386,857.1232252483874 503.0077194216303,857.1232252483874 503.0077194216303,856.3798270129483 494.1548306914241,856.3798270129483 494.1548306914241,855.5900855057657 485.30594097842373,855.5900855057657 485.30594097842373,854.75402148445 476.46132140243964,854.75402148445 476.46132140243964,853.8716595192343 467.6211888593202,853.8716595192343 467.6211888593202,852.9430233331019 458.78580091288563,852.9430233331019 458.78580091288563,851.9681374962856 449.955415126956,851.9681374962856 449.955415126956,850.9470299680157 441.1302212853984,850.9470299680157 441.1302212853984,849.8797278602734 432.3105040640142,849.8797278602734 432.3105040640142,848.7662608267881 423.4965074706328,848.7662608267881 423.4965074706328,847.6066593685384 414.68847551308374,847.6066593685384 414.68847551308374,846.400953986503 405.8865979752344"/>
<path d="M847.6066593685384 414.68847551308374 L850.5722169969093 406.3139912446013,850.5722169969093 406.3139912446013,849.4126155386598 397.5059321750711,849.4126155386598 397.5059321750711,848.2530140804099 388.69790021752215"/>
<path d="M848.7662608267881 423.4965074706328 L851.7756263330492 415.1376668152196,851.7756263330492 415.1376668152196,850.6621592995639 406.3236702218382,850.6621592995639 406.3236702218382,849.5486922660785 397.5096736284568"/>
<path d="M849.8797278602734 432.3105040640142 L852.932819061232 423.96755102949976,852.932819061232 423.96755102949976,851.8655169534898 415.14783380811565,851.8655169534898 415.14783380811565,850.7982148457475 406.3281436987125"/>
<path d="M850.9470299680157 441.1302212853984 L854.0437629859802 432.80337276763123,854.0437629859802 432.80337276763123,853.022654610461 423.9781789260738,853.022654610461 423.9781789260738,852.0015470821911 415.15301219649734"/>
<path d="M851.9681374962856 449.955415126956 L855.1084276063153 441.64486090980347,855.1084276063153 441.64486090980347,854.133541769499 432.81446156788314,854.133541769499 432.81446156788314,853.1586559326824 423.984062225963"/>
<path d="M852.9430233331019 458.78580091288563 L856.1267832685079 450.49182567214893,856.1267832685079 450.49182567214893,855.1981470823755 441.65643772571434,855.1981470823755 441.65643772571434,854.2695100489935 432.82104977927975"/>
<path d="M853.8716595192343 467.6211888593202 L857.0988032842018 459.3439959348571,857.0988032842018 459.3439959348571,856.2164408953614 450.5038633917377,856.2164408953614 450.5038633917377,855.3340789301457 441.6637308486184"/>
<path d="M854.75402148445 476.46132140243964 L858.024460117791 468.20114124608904,858.024460117791 468.20114124608904,857.1883969437249 459.35650811411455,857.1883969437249 459.35650811411455,856.352333346034 450.51188853813034"/>
<path d="M855.5900855057657 485.30594097842373 L858.9037287754182 477.0630040420249,858.9037287754182 477.0630040420249,858.113986844611 468.2141143290244,858.113986844611 468.2141143290244,857.3242453374284 459.3652381720146"/>
<path d="M856.3798270129483 494.1548306914241 L859.7365846868504 485.9293403148348,859.7365846868504 485.9293403148348,858.9931864514114 477.07645158462867,858.9931864514114 477.07645158462867,858.2497877923475 468.22354929843186"/>
<path d="M857.1232252483874 503.0077194216303 L860.5230056117907 494.7999331686706,860.5230056117907 494.7999331686706,859.8259707702686 485.94326231710704,859.8259707702686 485.94326231710704,859.1289357169339 477.0865914655435"/>
<path d="M857.8202603017219 511.86439027319386 L861.2629695217545 503.6745114837217,861.2629695217545 503.6745114837217,860.6123173490732 494.8143160746208,860.6123173490732 494.8143160746208,859.9616653882043 485.95412066552"/>
<path d="M858.4709122625908 520.7245856822947 L861.9564564004745 512.552844808149,861.9564564004745 512.552844808149,861.352204794778 503.68936884934027,861.352204794778 503.68936884934027,860.7479532949876 494.8258793345412"/>
<path d="M859.0751637623812 529.5880616411032 L862.6034470259798 521.4346891341229,862.6034470259798 521.4346891341229,862.0456126674907 512.5681630774455,862.0456126674907 512.5681630774455,861.4877782560485 503.70163702076815"/>
<path d="M859.6329982797295 538.4545876977807 L863.2039238443216 530.3198004538142,863.2039238443216 530.3198004538142,862.6925219040996 521.4504683070975,862.6925219040996 521.4504683070975,862.1811200433074 512.5811497163714"/>
<path d="M860.6558020013141 556.1932384352235 L864.2692722214055 548.0772533501193,864.2692722214055 548.0772533501193,863.804316784972 539.2053726771834,863.804316784972 539.2053726771834,863.3393613220621 530.3334920042474"/>
<path d="M861.1207574377476 565.0651191081594 L864.776673158681 556.9681530777661,864.776673158681 556.9681530777661,864.3581769612538 548.0939678864403,864.3581769612538 548.0939678864403,863.9396806579203 539.2197826951146"/>
<path d="M861.539253741081 573.939304299485 L865.2375147756138 565.8616013316321,865.2375147756138 565.8616013316321,864.8654891491535 556.9853420737555,864.8654891491535 556.9853420737555,864.4934635226934 548.109082815879"/>
<path d="M861.911279261635 582.8155703353568 L865.6517841516506 574.7573405478972,865.6517841516506 574.7573405478972,865.3262393690566 565.8792512312995,865.3262393690566 565.8792512312995,865.0006946923687 557.0011619147017"/>
<path d="M862.2368239383228 591.6936528739593 L866.0194700607368 583.6551199407369,866.0194700607368 583.6551199407369,865.7404153358461 574.7754513512427,865.7404153358461 574.7754513512427,865.4613603991432 565.8957759837531"/>
<path d="M862.5158787691195 600.5733282414488 L866.3405625476918 592.554709058312,866.3405625476918 592.554709058312,866.1080050821246 583.6736984257556,866.1080050821246 583.6736984257556,865.8754478283698 574.792687793199"/>
<path d="M862.7484362346867 609.4543320960101 L866.6150527163969 601.4558571147979,866.6150527163969 601.4558571147979,866.4289992881482 592.5737484470087,866.4289992881482 592.5737484470087,866.2429456480874 583.6916465572145"/>
<path d="M863.120543382426 627.2185460425911 L867.0289865816683 619.2404219921591,867.0289865816683 619.2404219921591,866.8894420624224 610.3574592969666,866.8894420624224 610.3574592969666,866.7498973313642 601.4745033797693"/>
<path d="M863.2600880472927 636.1015053487861 L867.210250932638 628.1439525139803,867.210250932638 628.1439525139803,867.1172191350173 619.2603831882116,867.1172191350173 619.2603831882116,867.0241873373966 610.3768172514406"/>
<path d="M863.3531199442006 644.9850712855571 L867.3448941140585 637.0483099512237,867.3448941140585 637.0483099512237,867.298377579811 628.1643780027083,867.298377579811 628.1643780027083,867.2518610455638 619.280446054193"/>
<path d="M863.4461531119823 662.7529351825877 L867.4794292711796 654.8371856335727,867.4794292711796 654.8371856335727,867.4794292711796 645.9531316811427,867.4794292711796 645.9531316811427,867.4794292711796 637.0690777287126"/>
<path d="M854.5381567385317 602.6773467533045 L850.2990527735279 594.8698892346224"/>
<path d="M854.5381567385317 602.6773467533045 L854.352103310283 593.7952380855152,854.352103310283 593.7952380855152,850.1539367421751 585.9656910802676,850.1539367421751 585.9656910802676,845.955770174067 578.1361440750202"/>
<path d="M870.6677232617925 602.3394772453846 L874.4924070403648 594.3208648402431"/>
<path d="M870.6677232617925 602.3394772453846 L877.7441375595279 596.9681871184752,877.7441375595279 596.9681871184752,881.6107551002997 588.9697053592678,881.6107551002997 588.9697053592678,885.4773709465726 580.9712303780556"/>
<path d="M851.1798990095526 531.9830120436754 L846.6575468587133 524.3361320107928,846.6575468587133 524.3361320107928,842.1351955551236 516.6892519779102,842.1351955551236 516.6892519779102,837.5728676354667 509.0661627084042,837.5728676354667 509.0661627084042,832.9706867981561 501.4670539861421,832.9706867981561 501.4670539861421,828.3287835196011 493.89215626296306"/>
<path d="M832.9706867981561 501.4670539861421 L832.3200365317861 492.6068585770413,832.3200365317861 492.6068585770413,827.7178556944756 485.00774985477926,827.7178556944756 485.00774985477926,823.1156748571651 477.4086546885078"/>
<path d="M837.5728676354667 509.0661627084042 L836.9686161356763 500.202673193605,836.9686161356763 500.202673193605,832.4062865215204 492.579583924099,832.4062865215204 492.579583924099,827.8439602963623 484.95648109860235"/>
<path d="M842.1351955551236 516.6892519779102 L841.5773614614 507.82272592123286,841.5773614614 507.82272592123286,837.05501015781 500.1758458883501,837.05501015781 500.1758458883501,832.5326588542201 492.52896585546745"/>
<path d="M851.1798990095526 531.9830120436754 L850.6684967251358 523.1136798969588,850.6684967251358 523.1136798969588,846.1862457360264 515.4432395525386,846.1862457360264 515.4432395525386,841.7039947469173 507.77278565212765"/>
<path d="M813.1789812952477 484.6083361498623 L805.579879350981 480.0061587015495"/>
<path d="M813.1789812952477 484.6083361498623 L808.5370746276949 477.03343842668335,808.5370746276949 477.03343842668335,800.9621735155183 472.3915419261234,800.9621735155183 472.3915419261234,793.387269014344 467.749631869573"/>
<path d="M826.9347125656825 476.17881455983604 L826.1913156011176 467.3259258296298"/>
<path d="M826.9347125656825 476.17881455983604 L830.3344939881475 467.9710283068763,830.3344939881475 467.9710283068763,829.6374585111884 459.11435745531276,829.6374585111884 459.11435745531276,828.9404230342291 450.2576866037492"/>
<path d="M867.2862513226593 531.0543182445833 L870.8145346392108 522.9009457376029,870.8145346392108 522.9009457376029,874.3428183793873 514.747559674632,874.3428183793873 514.747559674632,877.8283626231771 506.57581880048633,877.8283626231771 506.57581880048633,881.2710707841479 498.38592645502354,881.2710707841479 498.38592645502354,884.6708522066127 490.1781402020638"/>
<path d="M881.2710707841479 498.38592645502354 L888.0566760423304 492.6516475697458,888.0566760423304 492.6516475697458,891.4993858978 484.4617687802736,891.4993858978 484.4617687802736,894.9420940587709 476.2718899908013"/>
<path d="M877.8283626231771 506.57581880048633 L884.6438995084454 500.8771379463351,884.6438995084454 500.8771379463351,888.1294429049858 492.70539707218927,888.1294429049858 492.70539707218927,891.6149863015264 484.53365619804356"/>
<path d="M874.3428183793873 514.747559674632 L881.1880996496225 509.0846530794843,881.1880996496225 509.0846530794843,884.7163833897987 500.93126701651346,884.7163833897987 500.93126701651346,888.2446654354762 492.7778809535425"/>
<path d="M867.2862513226593 531.0543182445833 L874.1610893121172 525.4273350243346,874.1610893121172 525.4273350243346,877.732015114998 517.2925342243777,877.732015114998 517.2925342243777,881.3029409178791 509.1577469804113"/>
<path d="M883.2767829471932 472.4647984989367 L882.5333842881294 463.6119097687305"/>
<path d="M883.2767829471932 472.4647984989367 L886.6765626751594 464.257012245977,886.6765626751594 464.257012245977,885.9795271982002 455.4003413944135,885.9795271982002 455.4003413944135,885.2824934157396 446.54367054284995"/>
<path d="M898.181826679067 478.63867104505647 L904.9070111929676 472.8336570012036"/>
<path d="M898.181826679067 478.63867104505647 L906.8204155330113 476.5647400541777,906.8204155330113 476.5647400541777,913.5759010747396 470.79499869767875,913.5759010747396 470.79499869767875,920.3313866164679 465.0252708971703"/>
<path d="M836.2604545794911 391.2963395939102 L831.152076110877 384.0278614806261,831.152076110877 384.0278614806261,826.0436976422629 376.75935625536096,826.0436976422629 376.75935625536096,820.8973318991916 369.51771900332227,820.8973318991916 369.51771900332227,815.7131212195638 362.30313950837746,815.7131212195638 362.30313950837746,810.4912045522825 355.1157804424129,810.4912045522825 355.1157804424129,805.2692912739986 347.92842137644845,805.2692912739986 347.92842137644845,800.0098109569642 340.7685267472936,800.0098109569642 340.7685267472936,794.7129161060724 333.63625922683485,794.7129161060724 333.63625922683485,789.3787558372192 326.5318085989395,789.3787558372192 326.5318085989395,784.0074589323144 319.4553917594562,784.0074589323144 319.4553917594562,778.5991948412399 312.4071984922521,778.5991948412399 312.4071984922521,773.1540923459055 305.3874185811947,773.1540923459055 305.3874185811947,767.6723141181976 298.3962418101513"/>
<path d="M773.1540923459055 305.3874185811947 L771.489389597086 296.66072256681355,771.489389597086 296.66072256681355,766.0442871017516 289.6409426557562,766.0442871017516 289.6409426557562,760.5991913844125 282.6211627446988"/>
<path d="M778.5991948412399 312.4071984922521 L776.9802028924809 303.67190797987627,776.9802028924809 303.67190797987627,771.571932023411 296.62371471267215,771.571932023411 296.62371471267215,766.1636611543412 289.575521445468"/>
<path d="M784.0074589323144 319.4553917594562 L782.434232007578 310.7117507569151,782.434232007578 310.7117507569151,777.0629418806685 303.63533391743175,777.0629418806685 303.63533391743175,771.6916517537591 296.55891707794837"/>
<path d="M789.3787558372192 326.5318085989395 L787.8513278264815 317.7800340020817,787.8513278264815 317.7800340020817,782.517160779633 310.67561048616744,782.517160779633 310.67561048616744,777.1829937327844 303.5711598582721"/>
<path d="M794.7129161060724 333.63625922683485 L793.2313344553005 324.8765950434897,793.2313344553005 324.8765950434897,787.9344396044087 317.74432752303096,787.9344396044087 317.74432752303096,782.6375515315121 310.6120600025722"/>
<path d="M800.0098109569642 340.7685267472936 L798.5741163341295 332.0012440972717,798.5741163341295 332.0012440972717,793.3146360170949 324.84132235613583,793.3146360170949 324.84132235613583,788.0551624780558 317.68142772698104"/>
<path d="M805.2692912739986 347.92842137644845 L803.8795175690776 339.1537642675793,803.8795175690776 339.1537642675793,798.6576009017962 331.9664052016147,798.6576009017962 331.9664052016147,793.4356842345148 324.77904613565016"/>
<path d="M815.7131212195638 362.30313950837746 L814.3693124895256 353.5212977245285,814.3693124895256 353.5212977245285,809.1851018098979 346.3067182295838,809.1851018098979 346.3067182295838,804.00089113027 339.0921116226579"/>
<path d="M820.8973318991916 369.51771900332227 L819.5995254230102 360.72899077628506,819.5995254230102 360.72899077628506,814.453159679939 353.4873535242464,814.453159679939 353.4873535242464,809.3067939368676 346.2456891602268"/>
<path d="M826.0436976422629 376.75935625536096 L824.7919239209168 367.96393136900286,824.7919239209168 367.96393136900286,819.6835454523027 360.6954532557188,819.6835454523027 360.6954532557188,814.5751703726862 353.4269751424347"/>
<path d="M836.2604545794911 391.2963395939102 L835.0547491974556 382.49448916804187,835.0547491974556 382.49448916804187,829.9844986467004 375.19935997737974,829.9844986467004 375.19935997737974,824.9142497904439 367.9042036747366"/>
<path d="M794.65970884325 347.0492340547645 L786.7229475089165 343.0574557479464"/>
<path d="M794.65970884325 347.0492340547645 L789.4377921759686 339.86187498879985,789.4377921759686 339.86187498879985,781.5220426269536 335.82861535096623,781.5220426269536 335.82861535096623,773.6062930779385 331.7953286011514"/>
<path d="M807.7116605314379 337.5664391126936 L806.2759659086032 328.7991564626718"/>
<path d="M807.7116605314379 337.5664391126936 L810.4569858431922 329.1172071124397,810.4569858431922 329.1172071124397,809.0672121382711 320.3425228915895,809.0672121382711 320.3425228915895,807.6774418223476 311.5678386707394"/>
<path d="M751.5558545432784 290.91523287736925 L743.4781583534207 287.2169688774635,743.4781583534207 287.2169688774635,735.4004553855676 283.5187048775577,735.4004553855676 283.5187048775577,727.3035029111647 279.86278979206133,727.3035029111647 279.86278979206133,719.18750427007 276.2493320688987,719.18750427007 276.2493320688987,711.0527170261037 272.678413044013"/>
<path d="M719.18750427007 276.2493320688987 L713.5965935406165 269.345130533083,713.5965935406165 269.345130533083,705.4806084555124 265.7316456979393,705.4806084555124 265.7316456979393,697.3646233704083 262.1181879747768"/>
<path d="M727.3035029111647 279.86278979206133 L721.7488002324114 272.9294157646294,721.7488002324114 272.9294157646294,713.6518477580087 269.2735006791332,713.6518477580087 269.2735006791332,705.5548952836058 265.6175855936368"/>
<path d="M735.4004553855676 283.5187048775577 L729.8821369853914 276.55634814237686,729.8821369853914 276.55634814237686,721.8044340175384 272.8580841424711,721.8044340175384 272.8580841424711,713.7267310496853 269.1598201425653"/>
<path d="M751.5558545432784 290.91523287736925 L746.0740763155706 283.92405610632596,746.0740763155706 283.92405610632596,738.0158533061062 280.1835516399349,738.0158533061062 280.1835516399349,729.9576167406512 276.44304717354385"/>
<path d="M693.3140662886608 273.7012125293505 L684.4475402319835 274.2590415395777"/>
<path d="M693.3140662886608 273.7012125293505 L685.1792790446943 270.1302935044648,685.1792790446943 270.1302935044648,676.3099468979777 270.64167969114305,676.3099468979777 270.64167969114305,667.4406283072516 271.15309298980236"/>
<path d="M699.798737029616 258.9287345233489 L694.1358304344682 252.08344732236793"/>
<path d="M699.798737029616 258.9287345233489 L697.9061580800208 250.248589780441,697.9061580800208 250.248589780441,692.2791748597723 243.37375052010896,692.2791748597723 243.37375052010896,686.6521780835332 236.49891125977692"/>
<path d="M764.2515615783857 280.96052679303773 L762.4955660113555 272.25175179813465,762.4955660113555 272.25175179813465,760.7395636663299 263.5429768032316,760.7395636663299 263.5429768032316,758.9379928591445 254.8435012178308,758.9379928591445 254.8435012178308,757.0908942577709 246.1535961617427,757.0908942577709 246.1535961617427,755.1983220861711 237.47345141883488"/>
<path d="M757.0908942577709 246.1535961617427 L759.390254593135 237.57224747780288,759.390254593135 237.57224747780288,757.5431559917612 228.8823424217148,757.5431559917612 228.8823424217148,755.6960573903875 220.1924102536458"/>
<path d="M758.9379928591445 254.8435012178308 L761.2822574131326 246.27432581338516,761.2822574131326 246.27432581338516,759.480679827952 237.57485022798423,759.480679827952 237.57485022798423,757.6791090207665 228.87537464258352"/>
<path d="M760.7395636663299 263.5429768032316 L763.1286646589895 254.98619157412855,763.1286646589895 254.98619157412855,761.3726623139638 246.27738946724446,761.3726623139638 246.27738946724446,759.6166667469336 237.5686144723414"/>
<path d="M764.2515615783857 280.96052679303773 L766.6854312297639 272.41637574710677,766.6854312297639 272.41637574710677,764.9750583488557 263.6985182385499,764.9750583488557 263.6985182385499,763.264678689952 254.98066072999322"/>
<path d="M743.9443353116881 223.72380001015185 L738.2814287165403 216.87851280917087"/>
<path d="M743.9443353116881 223.72380001015185 L742.0517699180834 215.04368237922506,742.0517699180834 215.04368237922506,736.4247731418443 208.16884311889302,736.4247731418443 208.16884311889302,730.7977899215957 201.29400385856098"/>
<path d="M759.7071190937316 220.28692261960697 L761.9164947639708 211.68201362412944"/>
<path d="M759.7071190937316 220.28692261960697 L765.6170632822665 213.65375955840807,765.6170632822665 213.65375955840807,767.8714583970492 205.06050871478465,767.8714583970492 205.06050871478465,770.1258602898272 196.4672578711613"/>
<path d="M852.2442925100773 389.10683022778977 L855.1219920693374 380.701763644676,855.1219920693374 380.701763644676,857.9996920522223 372.29666994958126,857.9996920522223 372.29666994958126,860.8333437501975 363.87666466490566,860.8333437501975 363.87666466490566,863.6228696267042 355.4419104625356,863.6228696267042 355.4419104625356,866.368193257198 346.9926784622817,866.368193257198 346.9926784622817,869.1135170862657 338.54341935004663,869.1135170862657 338.54341935004663,871.814563449459 330.0799264477572,871.814563449459 330.0799264477572,874.4712571533929 321.6024166512619,874.4712571533929 321.6024166512619,877.0835278763666 313.11110685640904,877.0835278763666 313.11110685640904,879.6513010604322 304.60621395904707,879.6513010604322 304.60621395904707,882.1745097728865 296.08800907898666,882.1745097728865 296.08800907898666,884.6530819975294 287.5567091120762,884.6530819975294 287.5567091120762,887.0869499544087 279.01255806614523"/>
<path d="M884.6530819975294 287.5567091120762 L890.7346348591557 281.0805244211916,890.7346348591557 281.0805244211916,893.2132070837988 272.54922445428116,893.2132070837988 272.54922445428116,895.691777613943 264.01792448737064"/>
<path d="M882.1745097728865 296.08800907898666 L888.2898882198778 289.64373518980494,888.2898882198778 289.64373518980494,890.8130969323319 281.12553030974453,890.8130969323319 281.12553030974453,893.3363022557884 272.60732542968407"/>
<path d="M879.6513010604322 304.60621395904707 L885.8003390319046 298.19406776741675,885.8003390319046 298.19406776741675,888.3681130632195 289.6891748700548,888.3681130632195 289.6891748700548,890.9358870945346 281.184309084674"/>
<path d="M877.0835278763666 313.11110685640904 L883.266055075189 306.73122392223524,883.266055075189 306.73122392223524,885.8783249509135 298.23991412738246,885.8783249509135 298.23991412738246,888.4905948266377 289.7486043325296"/>
<path d="M874.4712571533929 321.6024166512619 L880.6871041296838 315.2549867584122,880.6871041296838 315.2549867584122,883.3437986808672 306.7774769619168,883.3437986808672 306.7774769619168,886.0004932320505 298.29996716542155"/>
<path d="M871.814563449459 330.0799264477572 L878.0635590588379 323.7651664920801,878.0635590588379 323.7651664920801,880.7646054220312 315.30164647780964,880.7646054220312 315.30164647780964,883.4656517852245 306.83815357552015"/>
<path d="M869.1135170862657 338.54341935004663 L875.3954918788509 332.2614648914472,875.3954918788509 332.2614648914472,878.140814648857 323.8122328911933,878.140814648857 323.8122328911933,880.8861382661123 315.36297377895824"/>
<path d="M863.6228696267042 355.4419104625356 L869.9376505650425 349.19292417290023,869.9376505650425 349.19292417290023,872.7271764547875 340.7581699705303,872.7271764547875 340.7581699705303,875.5167019209075 332.32341576816015"/>
<path d="M860.8333437501975 363.87666466490566 L867.1807573334962 357.6608092161207,867.1807573334962 357.6608092161207,870.0144092432838 349.2407768194641,870.0144092432838 349.2407768194641,872.8480611530714 340.8207444228075"/>
<path d="M857.9996920522223 372.29666994958126 L864.3795648194031 366.11416223749524,864.3795648194031 366.11416223749524,867.2572643786632 357.7090685424005,867.2572643786632 357.7090685424005,870.1349643615481 349.3040019592867"/>
<path d="M852.2442925100773 389.10683022778977 L858.6564492923253 382.9577787003268,858.6564492923253 382.9577787003268,861.5781181304877 374.56789482660446,861.5781181304877 374.56789482660446,864.4997871804625 366.17801095288206"/>
<path d="M863.588648825967 329.4433100205813 L862.1529517540519 320.6760273705594"/>
<path d="M863.588648825967 329.4433100205813 L866.333972429984 320.99407802032727,866.333972429984 320.99407802032727,864.9442002077495 312.2193937994772,864.9442002077495 312.2193937994772,863.5544280186106 303.44473669060807"/>
<path d="M878.9321422069313 334.42871532112076 L885.1811386635595 328.11392825346235"/>
<path d="M878.9321422069313 334.42871532112076 L887.3813809851805 331.6833832313712,887.3813809851805 331.6833832313712,893.663354083267 325.4014287727718,893.663354083267 325.4014287727718,899.945328875852 319.1194472021912"/>
<path d="M883.6661991090958 261.57684304903165 L881.9102001530679 252.86804094214756,881.9102001530679 252.86804094214756,880.15420119704 244.1592659472445,880.15420119704 244.1592659472445,878.3526286953557 235.45981747382464,878.3526286953557 235.45981747382464,876.5055300939821 226.76988530575562,876.5055300939821 226.76988530575562,874.6129562278833 218.08976767482872"/>
<path d="M876.5055300939821 226.76988530575562 L878.8048921238451 218.1885637337967,878.8048921238451 218.1885637337967,876.9577935224713 209.49863156572758,876.9577935224713 209.49863156572758,875.1106949210975 200.80869939765856"/>
<path d="M878.3526286953557 235.45981747382464 L880.6968915548449 226.89061495739796,880.6968915548449 226.89061495739796,878.8953173586619 218.19116648397818,878.8953173586619 218.19116648397818,877.0937448569778 209.49169089857736"/>
<path d="M880.15420119704 244.1592659472445 L882.5433004952006 235.60248071814132,882.5433004952006 235.60248071814132,880.7873015391727 226.89370572323838,880.7873015391727 226.89370572323838,879.0313025831448 218.18493072833525"/>
<path d="M883.6661991090958 261.57684304903165 L886.1000670659752 253.03266489111957,886.1000670659752 253.03266489111957,884.389692490568 244.31480738256272,884.389692490568 244.31480738256272,882.679316220662 235.5969498740059"/>
<path d="M863.3589768138797 204.34008915416464 L857.6960675181244 197.49480195318367"/>
<path d="M863.3589768138797 204.34008915416464 L861.4664034243588 195.65997152323786,861.4664034243588 195.65997152323786,855.8394132143027 188.7851322629057,855.8394132143027 188.7851322629057,850.2124240633082 181.91029300257378"/>
<path d="M879.121754929943 200.90326598758196 L881.3311289056833 192.29830276814224"/>
<path d="M879.121754929943 200.90326598758196 L885.0316974239789 194.27004870242087,885.0316974239789 194.27004870242087,887.2860959277591 185.67679785879753,887.2860959277591 185.67679785879753,889.5404961260384 177.0835470151741"/>
<path d="M899.1820723851636 265.99663820078075 L905.195475893408 259.45711992214933,905.195475893408 259.45711992214933,911.208876012655 252.91760164351786,911.208876012655 252.91760164351786,917.1879557528825 246.34666057884255,917.1879557528825 246.34666057884255,923.1325490532068 239.7445407359528,923.1325490532068 239.7445407359528,929.0424932417417 233.11135056277297"/>
<path d="M923.1325490532068 239.7445407359528 L931.4265310719389 236.56078080054675,931.4265310719389 236.56078080054675,937.371117594268 229.95863384567596,937.371117594268 229.95863384567596,943.3157108945923 223.3564868908052"/>
<path d="M917.1879557528825 246.34666057884255 L925.4984896360493 243.20638826105028,925.4984896360493 243.20638826105028,931.4775693762768 236.63547430835598,931.4775693762768 236.63547430835598,937.4566491165044 230.06453324368067"/>
<path d="M911.208876012655 252.91760164351786 L919.5357414754103 249.82087116730162,919.5357414754103 249.82087116730162,925.549141594657 243.2813257766891,925.549141594657 243.2813257766891,931.5625451029016 236.74180749805765"/>
<path d="M899.1820723851636 265.99663820078075 L907.5250355866708 262.9435580140646,907.5250355866708 262.9435580140646,913.5725968020483 256.4355980813823,913.5725968020483 256.4355980813823,919.6201580174258 249.92766526068118"/>
<path d="M933.5512902493025 215.92482176354497 L935.7606659195417 207.3199127680674"/>
<path d="M933.5512902493025 215.92482176354497 L939.4612344378371 209.29165870234615,939.4612344378371 209.29165870234615,941.7156295526199 200.69840785872273,941.7156295526199 200.69840785872273,943.9700314453979 192.10515701509928"/>
<path d="M945.5968790906679 226.65707235258154 L953.8570660250136 223.3866354137395"/>
<path d="M945.5968790906679 226.65707235258154 L954.4370116337872 227.53943177604913,954.4370116337872 227.53943177604913,962.7142045582502 224.31229267095333,962.7142045582502 224.31229267095333,970.9913974827134 221.0851535658577"/>
</g>
<g fill="none" stroke-width="2" stroke="#008000">
<path d="M863.4461531119823 662.7529351825877 L859.3714858538316 654.858410925742,859.3714858538316 654.858410925742,859.3249693195842 645.9744789772267,859.3249693195842 645.9744789772267,859.2784523617119 637.0905470287113"/>
<path d="M863.3531199442006 644.9850712855571 L859.2371730996801 637.111989216729,859.2371730996801 637.111989216729,859.1441408784347 628.228423279958,859.1441408784347 628.228423279958,859.0511090808138 619.3448573431868"/>
<path d="M863.2600880472927 636.1015053487861 L859.102974300574 628.250082363824,859.102974300574 628.250082363824,858.9634297813283 619.3671230576291,858.9634297813283 619.3671230576291,858.8238848384576 610.4841671404317"/>
<path d="M863.120543382426 627.2185460425911 L858.9223767348883 619.388995648346,858.9223767348883 619.388995648346,858.7363233066396 610.506893758552,858.7363233066396 610.506893758552,858.5502698783912 601.6247850907627"/>
<path d="M854.5381567385317 602.6773467533045 L847.2165755741024 597.6453630693109,847.2165755741024 597.6453630693109,842.9774716090986 589.8379055506288,842.9774716090986 589.8379055506288,838.7383676440948 582.0304480319467"/>
<path d="M870.6677232617925 602.3394772453846 L870.4351655844131 593.4584666128281,870.4351655844131 593.4584666128281,874.2598489393605 585.4398542076866,874.2598489393605 585.4398542076866,878.0845335651823 577.4212350245498"/>
<path d="M862.7484362346867 609.4543320960101 L858.5093320578708 601.646874577328,858.5093320578708 601.646874577328,858.2767748041158 592.7658639447715,858.2767748041158 592.7658639447715,858.0442171267362 583.8848600902102"/>
<path d="M862.5158787691195 600.5733282414488 L858.2359530567643 592.7881703271853,858.2359530567643 592.7881703271853,857.9568983318735 583.908501737691,857.9568983318735 583.908501737691,857.677843606983 575.0288263702015"/>
<path d="M862.2368239383228 591.6936528739593 L857.9161943521897 583.931018237958,857.9161943521897 583.931018237958,857.5906493577834 575.0529289213603,857.5906493577834 575.0529289213603,857.2651047870016 566.1748396047625"/>
<path d="M861.911279261635 582.8155703353568 L857.5500639930167 575.0756555394804,857.5500639930167 575.0756555394804,857.1780380488381 566.1993895036088,857.1780380488381 566.1993895036088,856.806012528284 557.3231302457323"/>
<path d="M861.539253741081 573.939304299485 L857.1375721462377 566.2223397955727,857.1375721462377 566.2223397955727,856.7190758429043 557.3481410482565,856.7190758429043 557.3481410482565,856.300579539571 548.4739558569306"/>
<path d="M861.1207574377476 565.0651191081594 L856.6787302497203 557.3712946800782,856.6787302497203 557.3712946800782,856.2137746014744 548.4994140071424,856.2137746014744 548.4994140071424,855.7488193768534 539.6275468901969"/>
<path d="M860.6558020013141 556.1932384352235 L856.1735514358296 548.5227845348126,856.1735514358296 548.5227845348126,855.6621491514126 539.6534659440864,855.6621491514126 539.6534659440864,855.150747714245 530.7841337973698"/>
<path d="M851.1798990095526 531.9830120436754 L843.678843308528 527.222690409863,843.678843308528 527.222690409863,839.1564920049381 519.5758103769804,839.1564920049381 519.5758103769804,834.634142395847 511.92894390008826"/>
<path d="M842.1351955551236 516.6892519779102 L834.6093179881926 511.9682833846005,834.6093179881926 511.9682833846005,830.0469917630344 504.3451805591039,830.0469917630344 504.3451805591039,825.4846621488787 496.72209128959787"/>
<path d="M837.5728676354667 509.0661627084042 L830.0223740842356 504.3846556035214,830.0223740842356 504.3846556035214,825.4201966359227 496.7855468812594,825.4201966359227 496.7855468812594,820.8180157986124 489.1864517149879"/>
<path d="M832.9706867981561 501.4670539861421 L825.3957856859795 496.8251439295917,825.3957856859795 496.8251439295917,820.7538824074243 489.25024620641267,820.7538824074243 489.25024620641267,816.1119757398716 481.67534848323373"/>
<path d="M813.1789812952477 484.6083361498623 L804.3187858861469 483.9576892724899,804.3187858861469 483.9576892724899,796.7196839418801 479.3555118241771,796.7196839418801 479.3555118241771,789.1205819976134 474.7533343758642"/>
<path d="M826.9347125656825 476.17881455983604 L822.2532088497974 468.628331175598,822.2532088497974 468.628331175598,821.5098118852325 459.77542888940116,821.5098118852325 459.77542888940116,820.7664115316699 450.9225266032046"/>
<path d="M867.2862513226593 531.0543182445833 L866.7284172289357 522.187792187906,866.7284172289357 522.187792187906,870.2567005454872 514.0344196809257,870.2567005454872 514.0344196809257,873.7849834384142 505.88103361795464"/>
<path d="M874.3428183793873 514.747559674632 L873.7385668795969 505.8840837158235,873.7385668795969 505.8840837158235,877.2241102761373 497.71232928568713,877.2241102761373 497.71232928568713,880.7096545199271 489.5405884115414"/>
<path d="M877.8283626231771 506.57581880048633 L877.1777098150588 497.7156233913855,877.1777098150588 497.7156233913855,880.620418823279 489.5257310459227,880.620418823279 489.5257310459227,884.0631286787484 481.33585225645044"/>
<path d="M881.2710707841479 498.38592645502354 L880.5740370016873 489.5292691594505,880.5740370016873 489.5292691594505,883.9738167296535 481.32146935050025,883.9738167296535 481.32146935050025,887.3735964576198 473.11366954155"/>
<path d="M883.2767829471932 472.4647984989367 L878.595279231308 464.91431511469864,878.595279231308 464.91431511469864,877.8518805722442 456.0614128285019,877.8518805722442 456.0614128285019,877.1084810659312 447.20851054230513"/>
<path d="M898.181826679067 478.63867104505647 L901.5385847765938 470.4131942244577,901.5385847765938 470.4131942244577,908.2637692904943 464.6081666246143,908.2637692904943 464.6081666246143,914.9889538043948 458.8031390247709"/>
<path d="M859.6329982797295 538.4545876977807 L855.1106465525148 530.807707664898,855.1106465525148 530.807707664898,854.5528124587912 521.9411951642111,854.5528124587912 521.9411951642111,853.9949783650676 513.0746691075337"/>
<path d="M859.0751637623812 529.5880616411032 L854.5128358427241 521.9649723715972,854.5128358427241 521.9649723715972,853.9085843429338 513.1014964127887,853.9085843429338 513.1014964127887,853.3043328431436 504.23800689798946"/>
<path d="M858.4709122625908 520.7245856822947 L853.8687322725298 513.1254905160231,853.8687322725298 513.1254905160231,853.2180803116609 504.2652951069224,853.2180803116609 504.2652951069224,852.5674283507919 495.4050996978216"/>
<path d="M857.8202603017219 511.86439027319386 L853.1783544814186 504.2894925500149,853.1783544814186 504.2894925500149,852.4813198517088 495.4328216984514,852.4813198517088 495.4328216984514,851.7842852219989 486.57615084688786"/>
<path d="M857.1232252483874 503.0077194216303 L852.441721956127 495.4572360373923,852.441721956127 495.4572360373923,851.6983232970633 486.60433375119555,851.6983232970633 486.60433375119555,850.9549246379995 477.75144502098925"/>
<path d="M856.3798270129483 494.1548306914241 L851.6588533361421 486.6289514299943,851.6588533361421 486.6289514299943,850.8691118289596 477.78006171699394,850.8691118289596 477.78006171699394,850.0793694745277 468.931185559984"/>
<path d="M855.5900855057657 485.30594097842373 L850.8297706499485 477.8048962916412,850.8297706499485 477.8048962916412,849.9937074758824 468.9602631596666,849.9937074758824 468.9602631596666,849.1576443018162 460.1156435836825"/>
<path d="M854.75402148445 476.46132140243964 L849.9544976205294 468.9852875181813,849.9544976205294 468.9852875181813,849.0721348080642 460.14516853105243,849.0721348080642 460.14516853105243,848.1897736900979 451.30504954392364"/>
<path d="M853.8716595192343 467.6211888593202 L849.0330579708686 460.170396229425,849.0330579708686 460.170396229425,848.1044200902372 451.33500828299054,848.1044200902372 451.33500828299054,847.1757839041048 442.49962033655595"/>
<path d="M852.9430233331019 458.78580091288563 L848.0654754239491 451.36043932122107,848.0654754239491 451.36043932122107,847.0905895871326 442.53003997930074,847.0905895871326 442.53003997930074,846.1157037503164 433.69964063738047"/>
<path d="M851.9681374962856 449.955415126956 L847.0517770917523 442.5556879133797,847.0517770917523 442.5556879133797,846.030668716233 433.73052118380326,846.030668716233 433.73052118380326,845.0095620352125 424.9053273422458"/>
<path d="M850.9470299680157 441.1302212853984 L845.9919917807578 433.75635890174965,845.9919917807578 433.75635890174965,844.9246896730157 424.9366416803654,844.9246896730157 424.9366416803654,843.8573875652735 416.1169244589813"/>
<path d="M849.8797278602734 432.3105040640142 L844.8861482974457 424.9626962941603,844.8861482974457 424.9626962941603,843.7726812639603 416.14869970077893,843.7726812639603 416.14869970077893,842.6592142304752 407.33467599541655"/>
<path d="M848.7662608267881 423.4965074706328 L843.7342771427947 416.17494409844113,843.7342771427947 416.17494409844113,842.5746756845448 407.36688502891104,842.5746756845448 407.36688502891104,841.4150742262951 398.5588259593809"/>
<path d="M847.6066593685384 414.68847551308374 L842.5364088177831 407.3933192104406,842.5364088177831 407.3933192104406,841.3307034357476 398.5914687845723,841.3307034357476 398.5914687845723,840.1249997482109 389.7896183587041"/>
<path d="M836.2604545794911 391.2963395939102 L828.4090315945291 387.13923242661264,828.4090315945291 387.13923242661264,823.300653125915 379.87072720134745,823.300653125915 379.87072720134745,818.1922780462985 372.6022490880634"/>
<path d="M826.0436976422629 376.75935625536096 L818.1706189624323 372.6434321872875,818.1706189624323 372.6434321872875,813.0242532193612 365.4017949352488,813.0242532193612 365.4017949352488,807.8778874762899 358.1601305712291"/>
<path d="M820.8973318991916 369.51771900332227 L813.0028110313434 365.44305937041605,813.0028110313434 365.44305937041605,807.8185969627181 358.22847987547124,807.8185969627181 358.22847987547124,802.6343862830903 351.01387326854547"/>
<path d="M815.7131212195638 362.30313950837746 L807.7973716705488 358.26985275856276,807.7973716705488 358.26985275856276,802.5754583922651 351.0825208045793,802.5754583922651 351.0825208045793,797.3535417249836 343.89516173861466"/>
<path d="M794.65970884325 347.0492340547645 L785.7757768947347 347.09575821425653,785.7757768947347 347.09575821425653,777.8390155604013 343.1039799074385,777.8390155604013 343.1039799074385,769.9022542260678 339.1122016006205"/>
<path d="M807.7116605314379 337.5664391126936 L802.4521869923988 330.40651737155775,802.4521869923988 330.40651737155775,801.0164855915687 321.63923472153596,801.0164855915687 321.63923472153596,799.580790968734 312.87195207151404"/>
<path d="M805.2692912739986 347.92842137644845 L797.3325299396653 343.9366701816114,797.3325299396653 343.9366701816114,792.073056400626 336.77674844047556,792.073056400626 336.77674844047556,786.8135760835916 329.6168266993397"/>
<path d="M800.0098109569642 340.7685267472936 L792.0522615111561 336.81836533139654,792.0522615111561 336.81836533139654,786.7553666602643 329.6860978109378,786.7553666602643 329.6860978109378,781.4584718093724 322.55380317849796"/>
<path d="M794.7129161060724 333.63625922683485 L786.734795444638 329.7277960378019,786.734795444638 329.7277960378019,781.4006283977895 322.6233725218877,781.4006283977895 322.6233725218877,776.066461350941 315.5189218939924"/>
<path d="M789.3787558372192 326.5318085989395 L781.3802740780117 322.665179196676,781.3802740780117 322.665179196676,776.0089839511023 315.5887894691737,776.0089839511023 315.5887894691737,770.6376938241929 308.5123726296902"/>
<path d="M784.0074589323144 319.4553917594562 L775.988846527173 315.63070459188623,775.988846527173 315.63070459188623,770.5805756581032 308.5825113246822,770.5805756581032 308.5825113246822,765.1723047890333 301.534318057478"/>
<path d="M778.5991948412399 312.4071984922521 L770.5606619080174 308.6245620073,770.5606619080174 308.6245620073,765.1155594126832 301.6047820962427,765.1155594126832 301.6047820962427,759.670463695344 294.58500218518515"/>
<path d="M773.1540923459055 305.3874185811947 L765.0958625584459 301.6469141148037,765.0958625584459 301.6469141148037,759.614084330738 294.6557373437602,759.614084330738 294.6557373437602,754.1323061030301 287.664560572717"/>
<path d="M751.5558545432784 290.91523287736925 L742.6796020633973 291.2872634814197,742.6796020633973 291.2872634814197,734.6018990955441 287.5889994815139,734.6018990955441 287.5889994815139,726.5241961276911 283.8907354816081"/>
<path d="M735.4004553855676 283.5187048775577 L726.5262566382513 283.9372054171381,726.5262566382513 283.9372054171381,718.4293041638484 280.28129033164174,718.4293041638484 280.28129033164174,710.3323516894458 276.6253752461455"/>
<path d="M727.3035029111647 279.86278979206133 L718.4316222382288 280.3277602671717,718.4316222382288 280.3277602671717,710.3156371531247 276.7142754320281,710.3156371531247 276.7142754320281,702.1996385120301 273.1008177088654"/>
<path d="M719.18750427007 276.2493320688987 L710.318185679344 276.76071825557693,710.318185679344 276.76071825557693,702.183384879387 273.1897992306912,702.183384879387 273.1897992306912,694.0485976354205 269.61888020580557"/>
<path d="M693.3140662886608 273.7012125293505 L685.6671862557781 278.2235451934535,685.6671862557781 278.2235451934535,676.8006601991008 278.7814013156617,676.8006601991008 278.7814013156617,667.934147698414 279.3392303258889"/>
<path d="M699.798737029616 258.9287345233489 L691.6453509666451 255.4004355326832,691.6453509666451 255.4004355326832,685.9824443714973 248.55514833170218,685.9824443714973 248.55514833170218,680.3195377763495 241.70988824270225"/>
<path d="M764.2515615783857 280.96052679303773 L758.7332499562049 273.9981700578569,758.7332499562049 273.9981700578569,756.9772543891746 265.2893679509728,756.9772543891746 265.2893679509728,755.2212520441491 256.5805929560698"/>
<path d="M760.7395636663299 263.5429768032316 L755.1848745435673 256.6095756638187,755.1848745435673 256.6095756638187,753.3833037363818 247.91012719039884,753.3833037363818 247.91012719039884,751.5817261512011 239.21065160499813"/>
<path d="M758.9379928591445 254.8435012178308 L753.3470753516957 247.93929968201522,753.3470753516957 247.93929968201522,751.499976750322 239.24936751394608,751.499976750322 239.24936751394608,749.6528849269436 230.55946245785802"/>
<path d="M757.0908942577709 246.1535961617427 L751.463904259527 239.27875690141067,751.463904259527 239.27875690141067,749.5713320879271 230.59861215850285,749.5713320879271 230.59861215850285,747.678753138332 221.91852163955699"/>
<path d="M743.9443353116881 223.72380001015185 L735.7909628047078 220.19550101948622,735.7909628047078 220.19550101948622,730.1280562095599 213.35021381850513,730.1280562095599 213.35021381850513,724.4651360584216 206.50492661752412"/>
<path d="M759.7071190937316 220.28692261960697 L757.7691207978725 211.61683642167085,757.7691207978725 211.61683642167085,759.9784964681116 203.01187320223121,759.9784964681116 203.01187320223121,762.1878721383509 194.40696420675368"/>
<path d="M852.2442925100773 389.10683022778977 L850.9925179414819 380.3114053414317,850.9925179414819 380.3114053414317,853.8702183479913 371.90633875831804,853.8702183479913 371.90633875831804,856.7479179072517 363.50124506322317"/>
<path d="M857.9996920522223 372.29666994958126 L856.7018826106678 363.50794172254405,856.7018826106678 363.50794172254405,859.5355340968308 355.08790932588744,859.5355340968308 355.08790932588744,862.3691859007124 346.66787692923083"/>
<path d="M860.8333437501975 363.87666466490566 L859.4895343847222 355.09482288105664,859.4895343847222 355.09482288105664,862.2790603803734 346.6600686786866,862.2790603803734 346.6600686786866,865.0685862701183 338.2253144763166"/>
<path d="M863.6228696267042 355.4419104625356 L862.2330974177079 346.6672262416854,862.2330974177079 346.6672262416854,864.9784210349633 338.2179942414315,864.9784210349633 338.2179942414315,867.7237446522188 329.76876224117757"/>
<path d="M863.588648825967 329.4433100205813 L858.3291716728794 322.2834153914265,858.3291716728794 322.2834153914265,856.8934749319213 313.5161327414046,856.8934749319213 313.5161327414046,855.4577773437136 304.7488500913826"/>
<path d="M878.9321422069313 334.42871532112076 L881.6331885701245 325.9652224188313,881.6331885701245 325.9652224188313,887.8821850267528 319.6504353511731,887.8821850267528 319.6504353511731,894.1311814833812 313.33567539549585"/>
<path d="M869.1135170862657 338.54341935004663 L867.6778199216828 329.77616381200585,867.6778199216828 329.77616381200585,870.3788658612514 321.3126437977354,870.3788658612514 321.3126437977354,873.07991180082 312.8491508954459"/>
<path d="M871.814563449459 330.0799264477572 L870.332980527813 321.32028937639313,870.332980527813 321.32028937639313,872.9896746553717 312.84277957989775,872.9896746553717 312.84277957989775,875.6463692065549 304.36524267142136"/>
<path d="M874.4712571533929 321.6024166512619 L872.9438299899048 312.85064205440403,872.9438299899048 312.85064205440403,875.556099865629 304.35933225955114,875.556099865629 304.35933225955114,878.1683705886027 295.8680224646983"/>
<path d="M877.0835278763666 313.11110685640904 L875.5102975626326 304.3674387418869,875.5102975626326 304.3674387418869,878.0780707466981 295.8625729565061,878.0780707466981 295.8625729565061,880.645844778013 287.3577071711252"/>
<path d="M879.6513010604322 304.60621395904707 L878.0323108061721 295.8709234466713,878.0323108061721 295.8709234466713,880.5555195186262 287.3527185666108,880.5555195186262 287.3527185666108,883.0787265365815 278.83451368655045"/>
<path d="M882.1745097728865 296.08800907898666 L880.5098036350693 287.3613130646056,880.5098036350693 287.3613130646056,882.9883758597124 278.83001309769514,882.9883758597124 278.83001309769514,885.4669480843555 270.2987131307847"/>
<path d="M884.6530819975294 287.5567091120762 L882.9427057276234 278.83885160351946,882.9427057276234 278.83885160351946,885.3765736845029 270.2947005575884,885.3765736845029 270.2947005575884,887.810443335881 261.7505223996763"/>
<path d="M883.6661991090958 261.57684304903165 L878.1478891814138 254.6144592018697,878.1478891814138 254.6144592018697,876.3918902253859 245.90568420696675,876.3918902253859 245.90568420696675,874.635891269358 237.1969092120636"/>
<path d="M880.15420119704 244.1592659472445 L874.5995120742772 237.22589191981257,874.5995120742772 237.22589191981257,872.7979387253436 228.52641633441164,872.7979387253436 228.52641633441164,870.9963662236594 219.82694074901082"/>
<path d="M878.3526286953557 235.45981747382464 L872.7617120351563 228.5555888260279,872.7617120351563 228.5555888260279,870.9146134337827 219.86565665795888,870.9146134337827 219.86565665795888,869.067514832409 211.17577871385183"/>
<path d="M876.5055300939821 226.76988530575562 L870.8785400957382 219.89504604542358,870.8785400957382 219.89504604542358,868.9859666532642 211.21492841449668,868.9859666532642 211.21492841449668,867.0933932107903 202.53481078356978"/>
<path d="M863.3589768138797 204.34008915416464 L855.2055952519213 200.8117901634989,855.2055952519213 200.8117901634989,849.5426861150253 193.966502962518,849.5426861150253 193.966502962518,843.8797769781294 187.12121576153692"/>
<path d="M879.121754929943 200.90326598758196 L877.1837583285824 192.23312556568365,877.1837583285824 192.23312556568365,879.3931323043229 183.6282165702061,879.3931323043229 183.6282165702061,881.6025079745621 175.0232533507666"/>
<path d="M899.1820723851636 265.99663820078075 L901.5711699888255 257.4398529716776,901.5711699888255 257.4398529716776,907.5845734970699 250.90033469304623,907.5845734970699 250.90033469304623,913.5979736163168 244.36081641441478"/>
<path d="M911.208876012655 252.91760164351786 L913.553140566643 244.34842623907224,913.553140566643 244.34842623907224,919.5322203068707 237.7774851743969,919.5322203068707 237.7774851743969,925.5113000470983 231.2065712217026"/>
<path d="M917.1879557528825 246.34666057884255 L919.4873194772442 237.76533900688372,919.4873194772442 237.76533900688372,925.431909388571 231.16319205201296,925.431909388571 231.16319205201296,931.3765026888954 224.56107220912324"/>
<path d="M923.1325490532068 239.7445407359528 L925.3869509459848 231.15128989232937,925.3869509459848 231.15128989232937,931.2968883565243 224.5181268311306,931.2968883565243 224.5181268311306,937.2068325450591 217.88490954596958"/>
<path d="M933.5512902493025 215.92482176354497 L931.6132919534432 207.25473556560883,931.6132919534432 207.25473556560883,933.8226676236824 198.6498265701313,933.8226676236824 198.6498265701313,936.0320432939216 190.04486335069177"/>
<path d="M945.5968790906679 226.65707235258154 L951.4720114955267 219.99302874496,951.4720114955267 219.99302874496,959.7321984298725 216.7226189180989,959.7321984298725 216.7226189180989,967.9923785862229 213.4521548672757"/>
</g>
</svg>