<?xml version="1.0" encoding="utf-8"?>
<!-- Generator: https://github.com/anvaka/l-system -->
<!DOCTYPE svg PUBLIC "-//W3C//DTD SVG 1.1//EN" "http://www.w3.org/Graphics/SVG/1.1/DTD/svg11.dtd">
<svg version="1.1" xmlns="http://www.w3.org/2000/svg" xmlns:xlink="http://www.w3.org/1999/xlink"
    viewBox="0 0 1680 909">
<style>
  path {
   vector-effect: non-scaling-stroke;
  }
</style>

<rect id="background" fill="#0c2952" x="0" y="0" width="1680" height="909"></rect>
<g fill="none" stroke-width="2" stroke="#ffd700">
<path d="M886.3396914722277 755.3456628168615 L886.3396914722277 747.0168622364582,886.3396914722277 747.0168622364582,886.3396914722277 738.6880616560551,886.3396914722277 738.6880616560551,886.3396914722277 730.359261075652"/>
<path d="M886.3106185328306 722.0305113302132 L890.065887617093 714.5963425809524,890.065887617093 714.5963425809524,893.821156595863 707.1621738316916"/>
<path d="M886.3106185328306 722.0305113302132 L882.503540887785 714.6227386362586,882.503540887785 714.6227386362586,878.696463931543 707.2149691194893"/>
<path d="M886.1943274888679 705.3733168491226 L886.1361819575783 697.0447196085773,886.1361819575783 697.0447196085773,886.0780364386997 688.7161223680322,886.0780364386997 688.7161223680322,886.0198909198207 680.3875251274867"/>
<path d="M885.6710276607872 655.4036587801307 L889.3221335633792 647.9177845176232,889.3221335633792 647.9177845176232,892.9732393170407 640.431903900745,892.9732393170407 640.431903900745,896.624345070702 632.946023283867"/>
<path d="M885.6710276607872 655.4036587801307 L881.7608924945486 648.0497647941543,881.7608924945486 648.0497647941543,877.8507575765274 640.6958644538074,877.8507575765274 640.6958644538074,873.9406226585063 633.3419768222017"/>
<path d="M870.004841500905 626.0017765047821 L869.8304156176256 617.6748059831002,869.8304156176256 617.6748059831002,869.6559913229388 609.3478227526772"/>
<path d="M870.004841500905 626.0017765047821 L863.1656531188813 621.2484150248564,863.1656531188813 621.2484150248564,856.3264647368577 616.4950535449307"/>
<path d="M862.0820836106932 611.3489411294324 L858.1207038712909 604.022517087387,858.1207038712909 604.022517087387,854.1593257204812 596.6961057540826"/>
<path d="M900.2492990151757 625.4474593433512 L906.8834366250061 620.4118621406324,906.8834366250061 620.4118621406324,913.5175758234292 615.3762776466548"/>
<path d="M900.2492990151757 625.4474593433512 L900.0748731318963 617.120476112928,900.0748731318963 617.120476112928,899.900447248617 608.7935055912461"/>
<path d="M907.4468103530777 610.425091902455 L911.045566816325 602.913908182007,911.045566816325 602.913908182007,914.6443232795725 595.4027244615592"/>
<path d="M884.828004190523 622.0992652428404 L884.5954505111014 613.7737053914228,884.5954505111014 613.7737053914228,884.362896633106 605.4481582487464,884.362896633106 605.4481582487464,884.1303429536845 597.1225983973287"/>
<path d="M883.8687289505255 588.7979154490484 L887.4149597895756 581.2617844697819,887.4149597895756 581.2617844697819,890.9611906286259 573.7256661992565"/>
<path d="M883.8687289505255 588.7979154490484 L879.8562985951922 581.4993235500558,879.8562985951922 581.4993235500558,875.8438686370074 574.2007443598043"/>
<path d="M883.2873870482509 572.1504558636558 L882.9967162956876 563.8267260709595,882.9967162956876 563.8267260709595,882.7060451459764 555.5030089870043,882.7060451459764 555.5030089870043,882.4153743934131 547.1792791943079"/>
<path d="M879.5674233494605 488.94869157686406 L882.9018511033012 481.31648251473035,882.9018511033012 481.31648251473035,886.2362781807487 473.68429887007875,886.2362781807487 473.68429887007875,889.570705419538 466.05208980794504"/>
<path d="M879.5674233494605 488.94869157686406 L875.3527695196851 481.7649994063374,875.3527695196851 481.7649994063374,871.1381148956135 474.5812818183284,871.1381148956135 474.5812818183284,866.9234610658381 467.39758964780174"/>
<path d="M862.6837567187226 460.2286396169742 L862.1607872558567 451.9162587300979,862.1607872558567 451.9162587300979,861.6378162043981 443.60390326070404"/>
<path d="M862.6837567187226 460.2286396169742 L855.6515162047156 455.765838085275,855.6515162047156 455.765838085275,848.6192772793011 451.3030365535757"/>
<path d="M854.1543502483328 445.9204271745754 L849.8896462188416 438.76632095337607,849.8896462188416 438.76632095337607,845.6249453665357 431.61221473217677,845.6249453665357 431.61221473217677,841.3602413370446 424.4581085109773"/>
<path d="M828.4166617442586 403.0857168995445 L827.7776853038566 394.781469606985,827.7776853038566 394.781469606985,827.1387088634547 386.47722231442566,827.1387088634547 386.47722231442566,826.4997324230528 378.1729496043841"/>
<path d="M828.4166617442586 403.0857168995445 L821.3228013103385 398.7215351989364,821.3228013103385 398.7215351989364,814.228934522048 394.35737891581056,814.228934522048 394.35737891581056,807.135074088128 389.9931972152026"/>
<path d="M800.0260203541991 385.65382297726086 L795.6618450079616 378.5599561889703,795.6618450079616 378.5599561889703,791.2976696617242 371.46608940067966"/>
<path d="M800.0260203541991 385.65382297726086 L791.7217667072691 385.01482747374723,791.7217667072691 385.01482747374723,783.4175130603392 384.3758573877159"/>
<path d="M785.7776978543283 377.0247148441921 L778.6535461359488 372.71017348639884,778.6535461359488 372.71017348639884,771.5293817088282 368.39563212860554"/>
<path d="M825.8317673441562 369.87098988522627 L829.0056292883534 362.17063655320715,829.0056292883534 362.17063655320715,832.1794912325504 354.47025780370564"/>
<path d="M825.8317673441562 369.87098988522627 L821.4675983522893 362.77712309693584,821.4675983522893 362.77712309693584,817.1034230060519 355.6832563086452"/>
<path d="M824.4378980355968 353.27179809860735 L823.7409633813171 344.9722276227802,823.7409633813171 344.9722276227802,823.0440287270375 336.6726317294708"/>
<path d="M810.8363932693991 374.7868326203713 L806.422806337687 367.7235938981799,806.422806337687 367.7235938981799,802.0092130516044 360.6603805934708,802.0092130516044 360.6603805934708,797.5956197655219 353.59714187127935"/>
<path d="M793.1573969391488 346.54938239577217 L792.4025421972148 338.2548445814286,792.4025421972148 338.2548445814286,791.6476811009101 329.9603321845671"/>
<path d="M793.1573969391488 346.54938239577217 L786.00329707232 342.2846847206516,786.00329707232 342.2846847206516,778.84918449675 338.0199616280487"/>
<path d="M784.231812938862 332.4848981905729 L779.7690177615334 325.4526687967143,779.7690177615334 325.4526687967143,775.3062162298343 318.4204139853735"/>
<path d="M892.8784710288052 458.40829037390984 L899.2959218225025 453.0993154409588,899.2959218225025 453.0993154409588,905.7133730133479 447.7903405080077"/>
<path d="M892.8784710288052 458.40829037390984 L892.3555011687911 450.09593490451584,892.3555011687911 450.09593490451584,891.8325317059252 441.78355401763974"/>
<path d="M899.4405981314126 443.09771410189444 L902.7216622784384 435.4424005484046,902.7216622784384 435.4424005484046,906.0027256311681 427.78711241239694,906.0027256311681 427.78711241239694,909.2837889838976 420.1318242763892"/>
<path d="M918.9663691489972 397.09786643344523 L925.3090699074637 391.69980322524293,925.3090699074637 391.69980322524293,931.6517706659304 386.30174001704074,931.6517706659304 386.30174001704074,937.9944714243968 380.90367680883844"/>
<path d="M918.9663691489972 397.09786643344523 L918.3273927085953 388.7936191408858,918.3273927085953 388.7936191408858,917.6884162681932 380.48937184832647,917.6884162681932 380.48937184832647,917.049436650606 372.1850991382849"/>
<path d="M916.38147792608 363.8831394191272 L919.5553366930919 356.1827860871079,919.5553366930919 356.1827860871079,922.7291954601037 348.48240733760645"/>
<path d="M916.38147792608 363.8831394191272 L912.0173025798425 356.78927263083654,912.0173025798425 356.78927263083654,907.6531288221978 349.695405842546"/>
<path d="M914.9876054403354 347.2839476325083 L914.2906676088704 338.98437715668103,914.2906676088704 338.98437715668103,913.5937329545907 330.6847812633715"/>
<path d="M944.3182901707444 375.48352580856965 L952.413561278697 373.5250579670132,952.413561278697 373.5250579670132,960.5088323866496 371.56661554293896"/>
<path d="M944.3182901707444 375.48352580856965 L947.4921521149414 367.78314705906826,947.4921521149414 367.78314705906826,950.6660077047682 360.082793727049"/>
<path d="M956.9280111343078 364.5990990588635 L963.2328747932748 359.1568856840103,963.2328747932748 359.1568856840103,969.5377320978714 353.71467230915715"/>
<path d="M931.5272377116954 366.24144967380107 L934.6472590741375 358.51913563712657,934.6472590741375 358.51913563712657,937.7672836137651 350.79679618296973,937.7672836137651 350.79679618296973,940.8873049762075 343.0744821462952"/>
<path d="M943.9803583899931 335.34128942722185 L950.2470704081178 329.8552054780225,950.2470704081178 329.8552054780225,956.5137824262426 324.36912152882314"/>
<path d="M943.9803583899931 335.34128942722185 L943.2254972936882 327.04675161287815,943.2254972936882 327.04675161287815,942.4706361973837 318.75226463349895"/>
<path d="M950.1124276503219 319.8534516340647 L953.1784622804863 312.1095073200039,953.1784622804863 312.1095073200039,956.2445032650215 304.36561384090766"/>
<path d="M874.6006876662043 422.50548669033606 L873.9037514233319 414.2058907970266,873.9037514233319 414.2058907970266,873.2068151804596 405.9063203211995,873.2068151804596 405.9063203211995,872.5098789375872 397.6067244278901"/>
<path d="M871.783976296517 389.3096194478401 L874.9040000418485 381.5872799936833,874.9040000418485 381.5872799936833,878.0240237871795 373.86496595700874"/>
<path d="M871.783976296517 389.3096194478401 L867.3703845990271 382.2463807256487,867.3703845990271 382.2463807256487,862.9567929015373 375.1831674209396"/>
<path d="M870.2742556925004 372.7205692366349 L869.5193945961959 364.42605683977354,869.5193945961959 364.42605683977354,868.7645334998913 356.13151902542984,868.7645334998913 356.13151902542984,868.0096724035865 347.83700662856836"/>
<path d="M865.571436876009 322.96993996647564 L868.5833354461876 315.2047974722267,868.5833354461876 315.2047974722267,871.5952356049588 307.43965497797774,871.5952356049588 307.43965497797774,874.6071341751374 299.6745124837287"/>
<path d="M865.571436876009 322.96993996647564 L861.0596574446259 315.96905032821905,861.0596574446259 315.96905032821905,856.5478764246503 308.9681098549979,856.5478764246503 308.9681098549979,852.0360985818598 301.9672202167412"/>
<path d="M847.4999072473779 294.98208941747333 L846.6293108228788 286.6989386351732,846.6293108228788 286.6989386351732,845.7587143983795 278.4157370179085"/>
<path d="M847.4999072473779 294.98208941747333 L840.2869563776077 290.81768912727176,840.2869563776077 290.81768912727176,833.0740023306522 286.6532888370702"/>
<path d="M838.3788183280717 281.04359967173775 L833.8182738684186 274.07438021635204,833.8182738684186 274.07438021635204,829.2577262315802 267.10510992600206"/>
<path d="M877.5919091145805 291.8989488217614 L883.7814141403828 286.3258608308545,883.7814141403828 286.3258608308545,889.970919166185 280.7528236749121"/>
<path d="M877.5919091145805 291.8989488217614 L876.7213126900814 283.61574720449676,876.7213126900814 283.61574720449676,875.8507154712859 275.3325964221966"/>
<path d="M883.5071392524569 276.3269791623899 L886.4647544082713 268.540994332704,886.4647544082713 268.540994332704,889.4223693903335 260.7550095030183"/>
<path d="M861.944530551181 289.8528923364059 L861.0161284176974 281.5759942547367,861.0161284176974 281.5759942547367,860.0877246956211 273.2990961730676,860.0877246956211 273.2990961730676,859.1593225621377 265.0221980913985"/>
<path d="M858.2020334600883 256.74860428242056 L861.1052214587265 248.94218379701385,861.1052214587265 248.94218379701385,864.0084078687719 241.13576331160715"/>
<path d="M858.2020334600883 256.74860428242056 L853.5929479637274 249.81136001969287,853.5929479637274 249.81136001969287,848.983859290181 242.87416659192962"/>
<path d="M856.2297067363406 240.20817771474057 L855.2435465516519 231.9379898483828,855.2435465516519 231.9379898483828,854.2573831897779 223.66775114706056"/>
</g>
<g fill="none" stroke-width="2" stroke="#008000">
<path d="M886.3396914722277 730.359261075652 L882.5326141188378 722.9514883816973,882.5326141188378 722.9514883816973,878.7255367654477 715.5437188649281,878.7255367654477 715.5437188649281,871.9703483964494 710.6717212866472"/>
<path d="M886.3396914722277 730.359261075652 L890.1208878714752 722.9382458734502,890.1208878714752 722.9382458734502,893.9020842707226 715.5172306712487,893.9020842707226 715.5172306712487,900.6402246578048 710.6216837956724"/>
<path d="M886.3106185328306 722.0305113302132 L882.477706399977 714.6360732828789,882.477706399977 714.6360732828789,878.6447941616307 707.2416352355444,878.6447941616307 707.2416352355444,871.8726404175335 702.3932504982644"/>
<path d="M886.3106185328306 722.0305113302132 L890.065887617093 714.5963425809524,890.065887617093 714.5963425809524,893.821156595863 707.1621738316916,893.821156595863 707.1621738316916,900.5421687771008 702.243134848155"/>
<path d="M886.0198909198207 680.3875251274867 L882.1611904366055 673.0065106879604,882.1611904366055 673.0065106879604,878.302490573934 665.6254962484339,878.302490573934 665.6254962484339,871.5134532672588 660.80078154149"/>
<path d="M886.0198909198207 680.3875251274867 L889.7491869798273 672.9402917923546,889.7491869798273 672.9402917923546,893.4784828660813 665.4930584572224,893.4784828660813 665.4930584572224,900.1822826460647 660.5505909094311"/>
<path d="M885.8163852773657 663.7311884864218 L881.9062503097011 656.3772945004455,881.9062503097011 656.3772945004455,877.99611539168 649.0234005144691,877.99611539168 649.0234005144691,871.1735611631898 644.2462037905728"/>
<path d="M885.8163852773657 663.7311884864218 L889.4935995014221 656.2581055718516,889.4935995014221 656.2581055718516,893.1708137751219 648.7850163029108,893.1708137751219 648.7850163029108,899.8399456979225 643.7958695489856"/>
<path d="M873.9406226585063 633.3419768222017 L867.1014342764825 628.588615342276,867.1014342764825 628.588615342276,860.2622458944588 623.8352538623502,860.2622458944588 623.8352538623502,852.0105063544294 622.7049130096551"/>
<path d="M873.9406226585063 633.3419768222017 L873.7952648433537 625.0144471159105,873.7952648433537 625.0144471159105,873.649907028201 616.6869174096192,873.649907028201 616.6869174096192,877.3010131790105 609.2010367927412"/>
<path d="M870.004841500905 626.0017765047821 L863.1491031607577 621.2723201669031,863.1491031607577 621.2723201669031,856.2933648206105 616.542863829024,856.2933648206105 616.542863829024,848.0377284628352 615.441320983707"/>
<path d="M870.004841500905 626.0017765047821 L869.8304156176256 617.6748059831002,869.8304156176256 617.6748059831002,869.6559913229388 609.3478227526772,869.6559913229388 609.3478227526772,873.2809436788198 601.8492461034202"/>
<path d="M896.624345070702 632.946023283867 L896.4499199817191 624.619052762185,896.4499199817191 624.619052762185,896.275494892736 616.2920822405031,896.275494892736 616.2920822405031,892.3397137351348 608.9518819230835"/>
<path d="M896.624345070702 632.946023283867 L903.2760207432782 627.9336322424333,903.2760207432782 627.9336322424333,909.927696415854 622.9212284922586,909.927696415854 622.9212284922586,918.1299655924813 621.4749483353204"/>
<path d="M900.2492990151757 625.4474593433512 L900.0458082409549 617.1211369674663,900.0458082409549 617.1211369674663,899.8423174667341 608.7948273003226,899.8423174667341 608.7948273003226,895.8809377273319 601.4684032582771"/>
<path d="M900.2492990151757 625.4474593433512 L906.8834366250061 620.4118621406324,906.8834366250061 620.4118621406324,913.5175758234292 615.3762776466548,913.5175758234292 615.3762776466548,921.714745617682 613.9013774047144"/>
<path d="M885.6710276607872 655.4036587801307 L881.7352466521164 648.0634521083405,881.7352466521164 648.0634521083405,877.7994658916633 640.723251790921,877.7994658916633 640.723251790921,870.9602767153434 635.9699030197363"/>
<path d="M885.6710276607872 655.4036587801307 L889.3221335633792 647.9177845176232,889.3221335633792 647.9177845176232,892.9732393170407 640.431903900745,892.9732393170407 640.431903900745,899.6249153867649 635.4195128593115"/>
<path d="M885.2931117479399 638.7503722369345 L881.3061828716826 631.4378261401921,881.3061828716826 631.4378261401921,877.3192533997029 624.1252800434497,877.3192533997029 624.1252800434497,870.447048502546 619.4197796825819"/>
<path d="M885.2931117479399 638.7503722369345 L888.8918678140391 631.2391885164865,888.8918678140391 631.2391885164865,892.4906236815642 623.7280047960385,892.4906236815642 623.7280047960385,899.1071445933133 618.6692903932225"/>
<path d="M884.1303429536845 597.1225983973287 L880.1179127969255 589.8240192070772,880.1179127969255 589.8240192070772,876.1054820444442 582.5254400168257,876.1054820444442 582.5254400168257,869.2168931970945 577.8439591766746"/>
<path d="M884.1303429536845 597.1225983973287 L887.7028580508339 589.5989092756187,887.7028580508339 589.5989092756187,891.2753733465576 582.0752074451675,891.2753733465576 582.0752074451675,897.8741957477044 576.9934266772186"/>
<path d="M883.8687289505255 588.7979154490484 L879.8308461639143 581.5133794177344,879.8308461639143 581.5133794177344,875.7929637744512 574.2288433864206,875.7929637744512 574.2288433864206,868.8880751723188 569.5714456106919"/>
<path d="M883.8687289505255 588.7979154490484 L887.4149597895756 581.2617844697819,887.4149597895756 581.2617844697819,890.9611906286259 573.7256661992565,890.9611906286259 573.7256661992565,897.5422338980941 568.6208826098804"/>
<path d="M882.4153743934131 547.1792791943079 L878.3520880247474 539.9088879918605,878.3520880247474 539.9088879918605,874.2888024503783 532.6384967894132,874.2888024503783 532.6384967894132,867.3676982888729 528.0052202043303"/>
<path d="M882.4153743934131 547.1792791943079 L885.9352774369972 539.630820736155,885.9352774369972 539.630820736155,889.455180579868 532.0823622780019,889.455180579868 532.0823622780019,896.0183652880256 526.9546394109043"/>
<path d="M881.7468759445376 530.5351238816065 L877.6329321366195 523.2932765117147,877.6329321366195 523.2932765117147,873.518989520146 516.0514291418227,873.518989520146 516.0514291418227,866.5657084147174 511.4665728604071"/>
<path d="M881.7468759445376 530.5351238816065 L885.2139955651252 522.9622646405031,885.2139955651252 522.9622646405031,888.6811151857125 515.3894308168819,888.6811151857125 515.3894308168819,895.2083419008896 510.21600731671685"/>
<path d="M880.962196567232 513.8960266478708 L876.7977962770303 506.68307895528585,876.7977962770303 506.68307895528585,872.6333951925326 499.47013126270093,872.6333951925326 499.47013126270093,865.6482755134132 494.93394945977474"/>
<path d="M880.962196567232 513.8960266478708 L884.3763637286376 506.2991733035329,884.3763637286376 506.2991733035329,887.7905309893299 498.7022945417127,887.7905309893299 498.7022945417127,894.2814814965632 493.48345000078467"/>
<path d="M880.0613747848678 497.26282627001484 L875.8467201607962 490.07913409948804,875.8467201607962 490.07913409948804,871.6320655367244 482.89541651147914,871.6320655367244 482.89541651147914,864.6154472427393 478.4081125269005"/>
<path d="M880.0613747848678 497.26282627001484 L883.4224229827252 489.6423092497115,883.4224229827252 489.6423092497115,886.783471230226 482.0217922294081,886.783471230226 482.0217922294081,893.2378293499366 476.7577554050574"/>
<path d="M866.9234610658381 467.39758964780174 L859.8912221404238 462.9347881161024,859.8912221404238 462.9347881161024,852.8589832150093 458.4719865844033,852.8589832150093 458.4719865844033,844.5671460081536 457.68818768456833"/>
<path d="M866.9234610658381 467.39758964780174 L866.429510424727 459.08345495465096,866.429510424727 459.08345495465096,865.9355581950233 450.76929484401796,865.9355581950233 450.76929484401796,869.269985551716 443.1371111993664"/>
<path d="M862.6837567187226 460.2286396169742 L855.6359829458816 455.79041679060094,855.6359829458816 455.79041679060094,848.588207584448 451.3521939642279,848.588207584448 451.3521939642279,840.2936856560307 450.5973455766644"/>
<path d="M862.6837567187226 460.2286396169742 L862.1607872558567 451.9162587300979,862.1607872558567 451.9162587300979,861.6378162043981 443.60390326070404,861.6378162043981 443.60390326070404,864.9455822108134 435.9601038266689"/>
<path d="M841.3602413370446 424.4581085109773 L834.2970185007796 420.0445152248948,834.2970185007796 420.0445152248948,827.2337956645146 415.6309219388122,827.2337956645146 415.6309219388122,818.9366906844646 414.9050240635201"/>
<path d="M841.3602413370446 424.4581085109773 L840.8082594067941 416.1476085177869,840.8082594067941 416.1476085177869,840.2562774765439 407.8371339420789,840.2562774765439 407.8371339420789,843.5373408292736 400.1818458060711"/>
<path d="M832.7560486909415 410.19478334221446 L825.6621819026509 405.8306016416064,825.6621819026509 405.8306016416064,818.5683214687309 401.46641994099843,818.5683214687309 401.46641994099843,810.266349040832 400.7984739252135"/>
<path d="M832.7560486909415 410.19478334221446 L832.1460608890343 401.8883501461825,832.1460608890343 401.8883501461825,831.536073087127 393.5819169501505,831.536073087127 393.5819169501505,834.7636167538151 385.90388016753803"/>
<path d="M807.135074088128 389.9931972152026 L798.8308204411981 389.35422712917125,798.8308204411981 389.35422712917125,790.5265667942682 388.7152316256577,790.5265667942682 388.7152316256577,782.8373336107289 391.9159534942119"/>
<path d="M807.135074088128 389.9931972152026 L802.7956871414451 382.88413077253256,802.7956871414451 382.88413077253256,798.4563001947622 375.7750897473447,798.4563001947622 375.7750897473447,797.8173237543604 367.4708424547854"/>
<path d="M800.0260203541991 385.65382297726086 L791.7195871581671 385.04382882098315,791.7195871581671 385.04382882098315,783.4131539621351 384.43383466470533,783.4131539621351 384.43383466470533,775.7351362426342 387.6613719770228"/>
<path d="M800.0260203541991 385.65382297726086 L795.6618450079616 378.5599561889703,795.6618450079616 378.5599561889703,791.2976696617242 371.46608940067966,791.2976696617242 371.46608940067966,790.6297109371981 363.1641042640398"/>
<path d="M826.4997324230528 378.1729496043841 L822.1355570768154 371.07908281609355,822.1355570768154 371.07908281609355,817.7713817305779 363.98524144528517,817.7713817305779 363.98524144528517,810.662327996649 359.64584178986115"/>
<path d="M826.4997324230528 378.1729496043841 L829.7004479372365 370.483729129586,829.7004479372365 370.483729129586,832.9011698057907 362.7944832373056,832.9011698057907 362.7944832373056,839.2438705642573 357.3964200291034"/>
<path d="M825.8317673441562 369.87098988522627 L821.4428607876991 362.792399003762,821.4428607876991 362.792399003762,817.0539478768717 355.71380812229773,817.0539478768717 355.71380812229773,809.9297898041216 351.39926676450443"/>
<path d="M825.8317673441562 369.87098988522627 L829.0056292883534 362.17063655320715,829.0056292883534 362.17063655320715,832.1794912325504 354.47025780370564,832.1794912325504 354.47025780370564,838.5033068017127 349.0501068034369"/>
<path d="M828.4166617442586 403.0857168995445 L821.3076080103295 398.7463426616026,821.3076080103295 398.7463426616026,814.1985542764007 394.4069430061786,814.1985542764007 394.4069430061786,805.8943006294706 393.7679729201474"/>
<path d="M828.4166617442586 403.0857168995445 L827.7776853038566 394.781469606985,827.7776853038566 394.781469606985,827.1387088634547 386.47722231442566,827.1387088634547 386.47722231442566,830.3394243776385 378.78797642214533"/>
<path d="M819.6635798415642 388.91325922978956 L812.5244063911808 384.6236270045914,812.5244063911808 384.6236270045914,805.3852265864269 380.33396936191116,805.3852265864269 380.33396936191116,797.0767155112218 379.75297655286926"/>
<path d="M819.6635798415642 388.91325922978956 L818.9666451872845 380.6136887539623,818.9666451872845 380.6136887539623,818.2697105330049 372.3140928606529,818.2697105330049 372.3140928606529,821.4166680722509 364.6027083413415"/>
<path d="M797.5956197655219 353.59714187127935 L790.4415135443226 349.3324441961588,790.4415135443226 349.3324441961588,783.2874073231231 345.0677465210381,783.2874073231231 345.0677465210381,774.9769200386739 344.5157550592321"/>
<path d="M797.5956197655219 353.59714187127935 L796.8697155358592 345.3000368912295,796.8697155358592 345.3000368912295,796.143817660567 337.00293191117964,796.143817660567 337.00293191117964,799.2638390230094 329.280617874505"/>
<path d="M793.1573969391488 346.54938239577217 L785.9884532626919 342.3096701056935,785.9884532626919 342.3096701056935,778.8194968774937 338.06995781561477,778.8194968774937 338.06995781561477,770.5071414080999 337.54699311852676"/>
<path d="M793.1573969391488 346.54938239577217 L792.4025421972148 338.2548445814286,792.4025421972148 338.2548445814286,791.6476811009101 329.9603321845671,791.6476811009101 329.9603321845671,794.7407281603251 322.2271394654938"/>
<path d="M889.570705419538 466.05208980794504 L889.0477357580979 457.73973433855116,889.0477357580979 457.73973433855116,888.5247660966579 449.42735345167495,888.5247660966579 449.42735345167495,884.2850615509683 442.25840342084746"/>
<path d="M889.570705419538 466.05208980794504 L896.0066494173057 460.7655585118119,896.0066494173057 460.7655585118119,902.442592620777 455.4790017981965,902.442592620777 455.4790017981965,910.5771019669376 453.6905260778612"/>
<path d="M892.8784710288052 458.40829037390984 L892.3264890985548 450.0978157982016,892.3264890985548 450.0978157982016,891.7745067711564 441.7873158050113,891.7745067711564 441.7873158050113,887.5098039331098 434.63320958381195"/>
<path d="M892.8784710288052 458.40829037390984 L899.2959218225025 453.0993154409588,899.2959218225025 453.0993154409588,905.7133730133479 447.7903405080077,905.7133730133479 447.7903405080077,913.8415883554687 445.9734734600103"/>
<path d="M909.2837889838976 420.1318242763892 L908.7028009406336 411.82330684681347,908.7028009406336 411.82330684681347,908.1218128973695 403.51478941723786,908.1218128973695 403.51478941723786,903.8321647862451 396.3756286755955"/>
<path d="M909.2837889838976 420.1318242763892 L915.6826687324851 414.800481959067,915.6826687324851 414.800481959067,922.0815484810727 409.46913964174473,922.0815484810727 409.46913964174473,930.2033745035956 407.62390668356744"/>
<path d="M915.7656504576282 404.7871123257255 L915.1266740172262 396.48283961568393,915.1266740172262 396.48283961568393,914.4876943996392 388.1785923231246,914.4876943996392 388.1785923231246,910.1483106301415 381.0695512979367"/>
<path d="M915.7656504576282 404.7871123257255 L922.1271569757671 399.4112131620365,922.1271569757671 399.4112131620365,928.4886603167206 394.03533941582987,928.4886603167206 394.03533941582987,936.5974058674459 392.1334508897396"/>
<path d="M917.049436650606 372.1850991382849 L912.6852628929613 365.0912577674765,912.6852628929613 365.0912577674765,908.3210891353165 357.99739097918604,908.3210891353165 357.99739097918604,901.2120354013874 353.65799132376196"/>
<path d="M917.049436650606 372.1850991382849 L920.2501553419752 364.49587866348685,920.2501553419752 364.49587866348685,923.450874033344 356.8066327712065,923.450874033344 356.8066327712065,929.7935747918107 351.4085695630043"/>
<path d="M916.38147792608 363.8831394191272 L911.992566603845 356.8045485376628,911.992566603845 356.8045485376628,907.6036568702028 349.72595765619843,907.6036568702028 349.72595765619843,900.479498797453 345.4114162984052"/>
<path d="M916.38147792608 363.8831394191272 L919.5553366930919 356.1827860871079,919.5553366930919 356.1827860871079,922.7291954601037 348.48240733760645,922.7291954601037 348.48240733760645,929.0530142064512 343.06225633733766"/>
<path d="M937.9944714243968 380.90367680883844 L941.1683333685941 373.20332347681926,941.1683333685941 373.20332347681926,944.3421889584206 365.50297014480014,944.3421889584206 365.50297014480014,943.6742302338945 357.20098500816005"/>
<path d="M937.9944714243968 380.90367680883844 L946.0965290001075 378.9734986250151,946.0965290001075 378.9734986250151,954.1985865758182 377.0433204411917,954.1985865758182 377.0433204411917,962.2938513294004 379.0017628652661"/>
<path d="M944.3182901707444 375.48352580856965 L947.4652540643609 367.7721158717761,947.4652540643609 367.7721158717761,950.6122116036071 360.06073135246476,950.6122116036071 360.06073135246476,949.9152769493273 351.7611354591553"/>
<path d="M944.3182901707444 375.48352580856965 L952.413561278697 373.5250579670132,952.413561278697 373.5250579670132,960.5088323866496 371.56661554293896,960.5088323866496 371.56661554293896,968.6108836079898 373.49679372676235"/>
<path d="M918.9663691489972 397.09786643344523 L918.2984104244711 388.7959067142874,918.2984104244711 388.7959067142874,917.6304485227597 380.4939215776475,917.6304485227597 380.4939215776475,913.2662731765222 373.40005478935683"/>
<path d="M918.9663691489972 397.09786643344523 L925.3090699074637 391.69980322524293,925.3090699074637 391.69980322524293,931.6517706659304 386.30174001704074,931.6517706659304 386.30174001704074,939.7538250644557 384.37156183321736"/>
<path d="M925.2871886324403 381.6861285821146 L924.5612875799629 373.38902360206475,924.5612875799629 373.38902360206475,923.8353833503002 365.0918932045326,923.8353833503002 365.0918932045326,919.4217932414028 358.0286798998235"/>
<path d="M925.2871886324403 381.6861285821146 L931.592049114222 376.2439152072615,931.592049114222 376.2439152072615,937.8969127731891 370.8017018324084,937.8969127731891 370.8017018324084,945.9852957434548 368.8149951680832"/>
<path d="M940.8873049762075 343.0744821462952 L940.1324438799027 334.77994433195147,940.1324438799027 334.77994433195147,939.3775859607834 326.48543193509005,939.3775859607834 326.48543193509005,934.9393663115957 319.4376724595828"/>
<path d="M940.8873049762075 343.0744821462952 L947.1731309409768 337.61028264930434,947.1731309409768 337.61028264930434,953.458956905746 332.14610856979584,953.458956905746 332.14610856979584,961.5403564227662 330.1311885001844"/>
<path d="M943.9803583899931 335.34128942722185 L943.196546781417 327.0494458659956,943.196546781417 327.0494458659956,942.4127351728409 318.75760230476936,942.4127351728409 318.75760230476936,937.9499431726975 311.72539832839306"/>
<path d="M943.9803583899931 335.34128942722185 L950.2470704081178 329.8552054780225,950.2470704081178 329.8552054780225,956.5137824262426 324.36912152882314,956.5137824262426 324.36912152882314,964.588103174459 322.32601347140746"/>
<path d="M879.5674233494605 488.94869157686406 L875.327719002345 481.77974154603646,875.327719002345 481.77974154603646,871.0880154495258 474.61079151520903,871.0880154495258 474.61079151520903,864.0557765241114 470.1480154009921"/>
<path d="M879.5674233494605 488.94869157686406 L882.9018511033012 481.31648251473035,882.9018511033012 481.31648251473035,886.2362781807487 473.68429887007875,886.2362781807487 473.68429887007875,892.6722220606132 468.39774215646344"/>
<path d="M878.4924719563444 472.3258361142797 L874.2028222566272 465.18667537263747,874.2028222566272 465.18667537263747,869.9131733512064 458.0474892135131,869.9131733512064 458.0474892135131,862.8499489263488 453.63389592743044"/>
<path d="M878.4924719563444 472.3258361142797 L881.7735353090738 464.6705479782721,881.7735353090738 464.6705479782721,885.0545990589517 457.01525984226436,885.0545990589517 457.01525984226436,891.4534792046874 451.68391752494216"/>
<path d="M877.3014976997658 455.71088548867215 L872.9621131359718 448.60184446348427,872.9621131359718 448.60184446348427,868.6227277778816 441.4927780208141,868.6227277778816 441.4927780208141,861.5288625781837 437.1286217376884"/>
<path d="M877.3014976997658 455.71088548867215 L880.5290377921204 448.03287412354183,880.5290377921204 448.03287412354183,883.756577884475 440.35486275841157,883.756577884475 440.35486275841157,890.1180828140211 434.9789890122049"/>
<path d="M875.9945593576524 439.104678476955 L871.6056504183066 432.0260875954907,871.6056504183066 432.0260875954907,867.2167406846643 424.94749671402633,867.2167406846643 424.94749671402633,860.0925810233215 420.632955356233"/>
<path d="M875.9945593576524 439.104678476955 L879.1684189189607 431.40429972745346,879.1684189189607 431.40429972745346,882.3422776859726 423.70394639543434,882.3422776859726 423.70394639543434,888.6660970280421 418.2837953951655"/>
<path d="M872.5098789375872 397.6067244278901 L868.0962872400974 390.5434857056987,868.0962872400974 390.5434857056987,863.6826955426073 383.4802724009895,863.6826955426073 383.4802724009895,856.5435205036315 379.19061475830927"/>
<path d="M872.5098789375872 397.6067244278901 L875.6568396540187 389.89533990857865,875.6568396540187 389.89533990857865,878.80380037045 382.18392997178506,878.80380037045 382.18392997178506,885.1086610508058 376.74171659693184"/>
<path d="M871.783976296517 389.3096194478401 L867.3457566473293 382.2618345548506,867.3457566473293 382.2618345548506,862.9075354095488 375.21407507934344,862.9075354095488 375.21407507934344,855.753430776942 370.9493519867405"/>
<path d="M871.783976296517 389.3096194478401 L874.9040000418485 381.5872799936833,874.9040000418485 381.5872799936833,878.0240237871795 373.86496595700874,878.0240237871795 373.86496595700874,884.3098491562266 368.400766460018"/>
<path d="M868.0096724035865 347.83700662856836 L863.5468788148505 340.80475181722767,863.5468788148505 340.80475181722767,859.0840836375219 333.7725224233691,859.0840836375219 333.7725224233691,851.9151336066944 329.53281013329035"/>
<path d="M868.0096724035865 347.83700662856836 L871.1027210515944 340.10381390949516,871.1027210515944 340.10381390949516,874.1957704938982 332.37064660790406,874.1957704938982 332.37064660790406,880.4624837034676 326.88453724122246"/>
<path d="M866.4131145600896 331.25611542916226 L861.9013351287066 324.2552003734234,861.9013351287066 324.2552003734234,857.389554108731 317.2543107351668,857.389554108731 317.2543107351668,850.1911833422106 313.0647471375476"/>
<path d="M866.4131145600896 331.25611542916226 L869.4521002233728 323.501521190043,869.4521002233728 323.501521190043,872.4910874752487 315.7469523684058,872.4910874752487 315.7469523684058,878.7193484028186 310.2172266022004"/>
<path d="M852.0360985818598 301.9672202167412 L844.8231445349043 297.80281992653966,844.8231445349043 297.80281992653966,837.6101936651341 293.63841963633797,837.6101936651341 293.63841963633797,829.2928087114419 293.202509815922"/>
<path d="M852.0360985818598 301.9672202167412 L851.1944208977792 293.68107017153676,851.1944208977792 293.68107017153676,850.3527432136985 285.39486929136774,850.3527432136985 285.39486929136774,853.3646417838771 277.6297267971188"/>
<path d="M847.4999072473779 294.98208941747333 L840.2724620583602 290.84290326965385,840.2724620583602 290.84290326965385,833.0450168693427 286.70371712183436,833.0450168693427 286.70371712183436,824.7261577016807 286.2968340661364"/>
<path d="M847.4999072473779 294.98208941747333 L846.6293108228788 286.6989386351732,846.6293108228788 286.6989386351732,845.7587143983795 278.4157370179085,845.7587143983795 278.4157370179085,848.7434893378228 270.6401225209767"/>
<path d="M874.6071341751374 299.6745124837287 L873.7365369563418 291.39136170142854,873.7365369563418 291.39136170142854,872.8659413261389 283.10816008416384,872.8659413261389 283.10816008416384,868.329749991657 276.1230801198605"/>
<path d="M874.6071341751374 299.6745124837287 L880.8160547816117 294.1231310226547,880.8160547816117 294.1231310226547,887.024975884521 288.57169872661643,887.024975884521 288.57169872661643,895.0774553703911 286.4441537931994"/>
<path d="M877.5919091145805 291.8989488217614 L876.692404275515 283.6188481373299,876.692404275515 283.6188481373299,875.7928986421531 275.33874745289864,875.7928986421531 275.33874745289864,871.2323533882036 268.36952799751305"/>
<path d="M877.5919091145805 291.8989488217614 L883.7814141403828 286.3258608308545,883.7814141403828 286.3258608308545,889.970919166185 280.7528236749121,889.970919166185 280.7528236749121,898.0159228343782 278.5971670061376"/>
<path d="M865.571436876009 322.96993996647564 L861.0352471301196 315.98480916720774,861.0352471301196 315.98480916720774,856.4990589728231 308.9997292029044,856.4990589728231 308.9997292029044,849.2861049258676 304.83532891270283"/>
<path d="M865.571436876009 322.96993996647564 L868.5833354461876 315.2047974722267,868.5833354461876 315.2047974722267,871.5952356049588 307.43965497797774,871.5952356049588 307.43965497797774,877.8041562114329 301.8882735169038"/>
<path d="M863.801334818148 306.4066884997441 L859.2164896568806 299.45343122320514,859.2164896568806 299.45343122320514,854.6316460842062 292.5001231117019,854.6316460842062 292.5001231117019,847.389795537129 288.3862019412289"/>
<path d="M863.801334818148 306.4066884997441 L866.7589511778177 298.62070367005833,866.7589511778177 298.62070367005833,869.7165659488946 290.8347188403725,869.7165659488946 290.8347188403725,875.8865795387264 285.24012765949055"/>
<path d="M859.1593225621377 265.0221980913985 L854.5502338885914 258.08500466363535,854.5502338885914 258.08500466363535,849.9411483922305 251.14776040090752,849.9411483922305 251.14776040090752,842.6849814482815 247.05910420778125"/>
<path d="M859.1593225621377 265.0221980913985 L862.0897422158105 257.22594459888774,862.0897422158105 257.22594459888774,865.020160280891 249.42969110637702,865.020160280891 249.42969110637702,871.1706079694721 243.81359673552004"/>
<path d="M858.2020334600883 256.74860428242056 L853.5687600521907 249.82752553839754,853.5687600521907 249.82752553839754,848.9354834671079 242.90639595941005,848.9354834671079 242.90639595941005,841.6650890874752 238.84310641355904"/>
<path d="M858.2020334600883 256.74860428242056 L861.1052214587265 248.94218379701385,861.1052214587265 248.94218379701385,864.0084078687719 241.13576331160715,864.0084078687719 241.13576331160715,870.1392141979521 235.49816575077514"/>
</g>
<g fill="none" stroke-width="2" stroke="#00ff00">
<path d="M886.3396914722277 730.359261075652 L886.3106185328306 722.0305113302132,886.3106185328306 722.0305113302132,886.2524730077465 713.7019140896679,886.2524730077465 713.7019140896679,886.1943274888679 705.3733168491226"/>
<path d="M886.0198909198207 680.3875251274867 L885.9326735102642 672.059182061764,885.9326735102642 672.059182061764,885.8163852773657 663.7311884864218,885.8163852773657 663.7311884864218,885.6710276607872 655.4036587801307,885.6710276607872 655.4036587801307,885.4966024228736 647.0766819040781,885.4966024228736 647.0766819040781,885.2931117479399 638.7503722369345,885.2931117479399 638.7503722369345,885.0605579692315 630.4248123855168,885.0605579692315 630.4248123855168,884.828004190523 622.0992652428404"/>
<path d="M885.4966024228736 647.0766819040781 L881.5352233784806 639.7502705707739,881.5352233784806 639.7502705707739,877.5738444333747 632.4238465287284,877.5738444333747 632.4238465287284,870.7181052989312 627.6943901908494"/>
<path d="M885.4966024228736 647.0766819040781 L889.1215554737638 639.5781052548211,889.1215554737638 639.5781052548211,892.7465086239412 632.0795286055642,892.7465086239412 632.0795286055642,899.3806470280679 627.0439441115867"/>
<path d="M885.9326735102642 672.059182061764 L882.0482323654937 664.6916833684186,882.0482323654937 664.6916833684186,878.1637905505356 657.3241846750733,878.1637905505356 657.3241846750733,871.3579538766926 652.5231908334298"/>
<path d="M885.9326735102642 672.059182061764 L889.6359513021516 664.5989731019482,889.6359513021516 664.5989731019482,893.3392292181478 657.1387704965031,893.3392292181478 657.1387704965031,900.0257363729485 652.1729315737921"/>
<path d="M873.9406226585063 633.3419768222017 L870.004841500905 626.0017765047821,870.004841500905 626.0017765047821,866.0434617615027 618.6753524627367,866.0434617615027 618.6753524627367,862.0820836106932 611.3489411294324"/>
<path d="M896.624345070702 632.946023283867 L900.2492990151757 625.4474593433512,900.2492990151757 625.4474593433512,903.8480538898305 617.936275622903,903.8480538898305 617.936275622903,907.4468103530777 610.425091902455"/>
<path d="M884.1303429536845 597.1225983973287 L883.8687289505255 588.7979154490484,883.8687289505255 588.7979154490484,883.5780579993882 580.4741856563521,883.5780579993882 580.4741856563521,883.2873870482509 572.1504558636558"/>
<path d="M882.4153743934131 547.1792791943079 L882.0956498700571 538.8566042271245,882.0956498700571 538.8566042271245,881.7468759445376 530.5351238816065,881.7468759445376 530.5351238816065,881.3690565883367 522.2148889927181,881.3690565883367 522.2148889927181,880.962196567232 513.8960266478708,880.962196567232 513.8960266478708,880.5263006470016 505.57866393447557,880.5263006470016 505.57866393447557,880.0613747848678 497.26282627001484,880.0613747848678 497.26282627001484,879.5674233494605 488.94869157686406,879.5674233494605 488.94869157686406,879.0444538865946 480.6363361074702,879.0444538865946 480.6363361074702,878.4924719563444 472.3258361142797,878.4924719563444 472.3258361142797,877.9114839130804 464.0173186847041,877.9114839130804 464.0173186847041,877.3014976997658 455.71088548867215,877.3014976997658 455.71088548867215,876.6625204650676 447.4066381961127,876.6625204650676 447.4066381961127,875.9945593576524 439.104678476955,875.9945593576524 439.104678476955,875.2976231147802 430.80508258364546,875.2976231147802 430.80508258364546,874.6006876662043 422.50548669033606"/>
<path d="M876.6625204650676 447.4066381961127 L872.2983467074228 440.31277140782214,872.2983467074228 440.31277140782214,867.9341713611852 433.2189046195316,867.9341713611852 433.2189046195316,860.8251176272563 428.87953038158986"/>
<path d="M876.6625204650676 447.4066381961127 L879.8632395535847 439.7174177213147,879.8632395535847 439.7174177213147,883.0639584435277 432.0281718290343,883.0639584435277 432.0281718290343,889.4066592019943 426.6301086208321"/>
<path d="M877.9114839130804 464.0173186847041 L873.5969401723981 456.8931796750657,873.5969401723981 456.8931796750657,869.2823972260121 449.76901524794505,869.2823972260121 449.76901524794505,862.2038095217331 445.38010233711753"/>
<path d="M877.9114839130804 464.0173186847041 L881.1658056916044 456.3506180991706,881.1658056916044 456.3506180991706,884.4201274701286 448.68391751363714,884.4201274701286 448.68391751363714,890.8003587297152 443.3302840643905"/>
<path d="M879.0444538865946 480.6363361074702 L874.7797506513998 473.4822298862708,874.7797506513998 473.4822298862708,870.5150482105012 466.3281236650714,870.5150482105012 466.3281236650714,863.4672744376602 461.8899008386983"/>
<path d="M879.0444538865946 480.6363361074702 L882.3522194958617 472.992536673435,882.3522194958617 472.992536673435,885.659985105129 465.3487372393998,885.659985105129 465.3487372393998,892.0774362959745 460.0397623064487"/>
<path d="M880.5263006470016 505.57866393447557 L876.3367477723828 498.38028045921413,876.3367477723828 498.38028045921413,872.1471952949121 491.18189698395264,872.1471952949121 491.18189698395264,865.1462834163583 486.67011596397697"/>
<path d="M880.5263006470016 505.57866393447557 L883.9139291769114 497.96991520844944,883.9139291769114 497.96991520844944,887.3015576075342 490.36116648242313,887.3015576075342 490.36116648242313,893.7742510152782 485.1197003823015"/>
<path d="M881.3690565883367 522.2148889927181 L877.2298593203686 514.9874533352564,877.2298593203686 514.9874533352564,873.0906628466969 507.75999226031246,873.0906628466969 507.75999226031246,866.1214187681255 503.1994605094004"/>
<path d="M881.3690565883367 522.2148889927181 L884.8097209785421 514.6299818650331,884.8097209785421 514.6299818650331,888.2503853687475 507.0451001548301,888.2503853687475 507.0451001548301,894.7595136451253 501.8489280080603"/>
<path d="M882.0956498700571 538.8566042271245 L878.0070099600051 531.6004468147315,878.0070099600051 531.6004468147315,873.9183712413978 524.3442894023386,873.9183712413978 524.3442894023386,866.981136510226 519.735184842866"/>
<path d="M882.0956498700571 538.8566042271245 L885.5891825240345 531.2959199600141,885.5891825240345 531.2959199600141,889.0827153765863 523.7352102754215,889.0827153765863 523.7352102754215,895.6279607037824 518.5846116743079"/>
<path d="M866.9234610658381 467.39758964780174 L862.6837567187226 460.2286396169742,862.6837567187226 460.2286396169742,858.419054277824 453.0745333957748,858.419054277824 453.0745333957748,854.1543502483328 445.9204271745754"/>
<path d="M841.3602413370446 424.4581085109773 L837.07059322592 417.3189223518529,837.07059322592 417.3189223518529,832.7560486909415 410.19478334221446,832.7560486909415 410.19478334221446,828.4166617442586 403.0857168995445,828.4166617442586 403.0857168995445,824.0524863980212 395.9918501112538,824.0524863980212 395.9918501112538,819.6635798415642 388.91325922978956,819.6635798415642 388.91325922978956,815.2499865554817 381.8500459250804,815.2499865554817 381.8500459250804,810.8363932693991 374.7868326203713"/>
<path d="M824.0524863980212 395.9918501112538 L816.928328325271 391.6773087534606,816.928328325271 391.6773087534606,809.804170252521 387.3627673956673,809.804170252521 387.3627673956673,801.497737056489 386.75277323938957"/>
<path d="M824.0524863980212 395.9918501112538 L823.3845276734951 387.6898903920961,823.3845276734951 387.6898903920961,822.716568948969 379.38790525545613,822.716568948969 379.38790525545613,825.8904245387955 371.6875519234369"/>
<path d="M837.07059322592 417.3189223518529 L829.992005521641 412.9300094410254,829.992005521641 412.9300094410254,822.9134209945472 408.5411219476801,822.9134209945472 408.5411219476801,814.6138314556083 407.8441745846593"/>
<path d="M837.07059322592 417.3189223518529 L836.4896035940634 409.01043033975947,836.4896035940634 409.01043033975947,835.908617139392 400.70191291018375,835.908617139392 400.70191291018375,839.1629381236198 393.0352123246504"/>
<path d="M807.135074088128 389.9931972152026 L800.0260203541991 385.65382297726086,800.0260203541991 385.65382297726086,792.901862281449 381.3392562019854,792.901862281449 381.3392562019854,785.7776978543283 377.0247148441921"/>
<path d="M826.4997324230528 378.1729496043841 L825.8317673441562 369.87098988522627,825.8317673441562 369.87098988522627,825.1348326898765 361.57139399191686,825.1348326898765 361.57139399191686,824.4378980355968 353.27179809860735"/>
<path d="M797.5956197655219 353.59714187127935 L793.1573969391488 346.54938239577217,793.1573969391488 346.54938239577217,788.6946081161907 339.5171275844315,788.6946081161907 339.5171275844315,784.231812938862 332.4848981905729"/>
<path d="M889.570705419538 466.05208980794504 L892.8784710288052 458.40829037390984,892.8784710288052 458.40829037390984,896.1595347786828 450.7530022379021,896.1595347786828 450.7530022379021,899.4405981314126 443.09771410189444"/>
<path d="M909.2837889838976 420.1318242763892 L912.5381099681256 412.4651236908558,912.5381099681256 412.4651236908558,915.7656504576282 404.7871123257255,915.7656504576282 404.7871123257255,918.9663691489972 397.09786643344523,918.9663691489972 397.09786643344523,922.1402279160089 389.397513101426,922.1402279160089 389.397513101426,925.2871886324403 381.6861285821146,925.2871886324403 381.6861285821146,928.4072131720678 373.9637891279579,928.4072131720678 373.9637891279579,931.5272377116954 366.24144967380107"/>
<path d="M922.1402279160089 389.397513101426 L921.4432932617293 381.09791720811654,921.4432932617293 381.09791720811654,920.7463554302644 372.79832131480714,920.7463554302644 372.79832131480714,916.3574456966221 365.71975585082504"/>
<path d="M922.1402279160089 389.397513101426 L928.4640498395418 383.977336683675,928.4640498395418 383.977336683675,934.7878685858893 378.5571856834062,934.7878685858893 378.5571856834062,942.8831365166567 376.5987178418497"/>
<path d="M912.5381099681256 412.4651236908558 L911.9281237548108 404.1586904948237,911.9281237548108 404.1586904948237,911.3181375414963 395.8522572987917,911.3181375414963 395.8522572987917,907.0035945951104 388.72809287167115"/>
<path d="M912.5381099681256 412.4651236908558 L918.9183428163047 407.1114648241268,918.9183428163047 407.1114648241268,925.2985724872985 401.7578313748801,925.2985724872985 401.7578313748801,933.4139075202944 399.8842579240053"/>
<path d="M917.049436650606 372.1850991382849 L916.38147792608 363.8831394191272,916.38147792608 363.8831394191272,915.6845400946152 355.5835435258177,915.6845400946152 355.5835435258177,914.9876054403354 347.2839476325083"/>
<path d="M937.9944714243968 380.90367680883844 L944.3182901707444 375.48352580856965,944.3182901707444 375.48352580856965,950.6231538297114 370.0413124337165,950.6231538297114 370.0413124337165,956.9280111343078 364.5990990588635"/>
<path d="M940.8873049762075 343.0744821462952 L943.9803583899931 335.34128942722185,943.9803583899931 335.34128942722185,947.0463930201574 327.5973959481255,947.0463930201574 327.5973959481255,950.1124276503219 319.8534516340647"/>
<path d="M872.5098789375872 397.6067244278901 L871.783976296517 389.3096194478401,871.783976296517 389.3096194478401,871.0291152002125 381.0150816334964,871.0291152002125 381.0150816334964,870.2742556925004 372.7205692366349"/>
<path d="M868.0096724035865 347.83700662856836 L867.2258639721958 339.54516306734223,867.2258639721958 339.54516306734223,866.4131145600896 331.25611542916226,866.4131145600896 331.25611542916226,865.571436876009 322.96993996647564,865.571436876009 322.96993996647564,864.7008404515099 314.6867891841754,864.7008404515099 314.6867891841754,863.801334818148 306.4066884997441,863.801334818148 306.4066884997441,862.8729326846643 298.129790418075,862.8729326846643 298.129790418075,861.944530551181 289.8528923364059"/>
<path d="M864.7008404515099 314.6867891841754 L860.1402959918566 307.7175188938254,860.1402959918566 307.7175188938254,855.5797499436109 300.7482994384398,855.5797499436109 300.7482994384398,848.3523047545933 296.6091132906202"/>
<path d="M864.7008404515099 314.6867891841754 L867.6856153909531 306.9111746872436,867.6856153909531 306.9111746872436,870.6703903303962 299.13556019031176,870.6703903303962 299.13556019031176,876.8598959519206 293.5625230343693"/>
<path d="M867.2258639721958 339.54516306734223 L862.7385488674688 332.52854000757895,862.7385488674688 332.52854000757895,858.2512353513345 325.511942365298,858.2512353513345 325.511942365298,851.0675304720666 321.29726629522565"/>
<path d="M867.2258639721958 339.54516306734223 L870.2919001909531 331.8012441707636,870.2919001909531 331.8012441707636,873.3579356154137 324.0572998567028,873.3579356154137 324.0572998567028,879.6054606116326 318.54938229025925"/>
<path d="M852.0360985818598 301.9672202167412 L847.4999072473779 294.98208941747333,847.4999072473779 294.98208941747333,842.9393627877248 288.01286996208773,842.9393627877248 288.01286996208773,838.3788183280717 281.04359967173775"/>
<path d="M874.6071341751374 299.6745124837287 L877.5919091145805 291.8989488217614,877.5919091145805 291.8989488217614,880.5495242828058 284.1129639920756,880.5495242828058 284.1129639920756,883.5071392524569 276.3269791623899"/>
<path d="M859.1593225621377 265.0221980913985 L858.2020334600883 256.74860428242056,858.2020334600883 256.74860428242056,857.2158700982145 248.47841641606274,857.2158700982145 248.47841641606274,856.2297067363406 240.20817771474057"/>
</g>
</svg>