<?xml version="1.0" encoding="UTF-8" standalone="no"?>
<!-- Generator: https://github.com/anvaka/l-system -->

<svg
   version="1.1"
   viewBox="0 0 199.7468 531.79633"
   id="svg461"
   sodipodi:docname="grains2.svg"
   width="199.7468"
   height="531.79633"
   inkscape:version="1.1.2 (0a00cf5339, 2022-02-04)"
   xmlns:inkscape="http://www.inkscape.org/namespaces/inkscape"
   xmlns:sodipodi="http://sodipodi.sourceforge.net/DTD/sodipodi-0.dtd"
   xmlns="http://www.w3.org/2000/svg"
   xmlns:svg="http://www.w3.org/2000/svg">
  <defs
     id="defs465" />
  <sodipodi:namedview
     id="namedview463"
     pagecolor="#ffffff"
     bordercolor="#666666"
     borderopacity="1.0"
     inkscape:pageshadow="2"
     inkscape:pageopacity="0.0"
     inkscape:pagecheckerboard="0"
     showgrid="false"
     inkscape:zoom="0.8875"
     inkscape:cx="69.859155"
     inkscape:cy="230.98592"
     inkscape:window-width="1920"
     inkscape:window-height="1055"
     inkscape:window-x="0"
     inkscape:window-y="25"
     inkscape:window-maximized="1"
     inkscape:current-layer="svg461" />
  <style
     id="style2">
  path {
   vector-effect: non-scaling-stroke;
  }
</style>
  <g
     fill="none"
     stroke-width="2"
     stroke="#ffd700"
     id="g133"
     transform="translate(-770.44435,-223.54935)">
    <path
       d="m 886.33969,755.34566 v -8.3288 0 -8.3288 0 -8.3288"
       id="path5" />
    <path
       d="m 886.31062,722.03051 3.75527,-7.43417 v 0 l 3.75527,-7.43417"
       id="path7" />
    <path
       d="m 886.31062,722.03051 -3.80708,-7.40777 v 0 l -3.80708,-7.40777"
       id="path9" />
    <path
       d="m 886.19433,705.37332 -0.0582,-8.3286 v 0 l -0.0581,-8.3286 v 0 l -0.0581,-8.32859"
       id="path11" />
    <path
       d="m 885.67103,655.40366 3.6511,-7.48588 v 0 l 3.65111,-7.48588 v 0 l 3.65111,-7.48588"
       id="path13" />
    <path
       d="m 885.67103,655.40366 -3.91014,-7.3539 v 0 l -3.91013,-7.3539 v 0 l -3.91014,-7.35388"
       id="path15" />
    <path
       d="m 870.00484,626.00178 -0.17442,-8.32697 v 0 l -0.17443,-8.32699"
       id="path17" />
    <path
       d="m 870.00484,626.00178 -6.83919,-4.75336 v 0 l -6.83919,-4.75337"
       id="path19" />
    <path
       d="m 862.08208,611.34894 -3.96138,-7.32642 v 0 l -3.96137,-7.32641"
       id="path21" />
    <path
       d="m 900.2493,625.44746 6.63414,-5.0356 v 0 l 6.63414,-5.03558"
       id="path23" />
    <path
       d="m 900.2493,625.44746 -0.17443,-8.32698 v 0 l -0.17442,-8.32697"
       id="path25" />
    <path
       d="m 907.44681,610.42509 3.59876,-7.51118 v 0 l 3.59875,-7.51119"
       id="path27" />
    <path
       d="m 884.828,622.09927 -0.23255,-8.32556 v 0 l -0.23255,-8.32555 v 0 l -0.23256,-8.32556"
       id="path29" />
    <path
       d="m 883.86873,588.79792 3.54623,-7.53614 v 0 l 3.54623,-7.53611"
       id="path31" />
    <path
       d="m 883.86873,588.79792 -4.01243,-7.2986 v 0 l -4.01243,-7.29858"
       id="path33" />
    <path
       d="m 883.28739,572.15046 -0.29067,-8.32373 v 0 l -0.29067,-8.32372 v 0 l -0.29068,-8.32373"
       id="path35" />
    <path
       d="m 879.56742,488.94869 3.33443,-7.63221 v 0 l 3.33443,-7.63218 v 0 l 3.33443,-7.63221"
       id="path37" />
    <path
       d="m 879.56742,488.94869 -4.21465,-7.18369 v 0 l -4.21466,-7.18372 v 0 l -4.21465,-7.18369"
       id="path39" />
    <path
       d="m 862.68376,460.22864 -0.52297,-8.31238 v 0 l -0.52297,-8.31236"
       id="path41" />
    <path
       d="m 862.68376,460.22864 -7.03224,-4.4628 v 0 l -7.03224,-4.4628"
       id="path43" />
    <path
       d="m 854.15435,445.92043 -4.2647,-7.15411 v 0 l -4.2647,-7.15411 v 0 l -4.26471,-7.1541"
       id="path45" />
    <path
       d="m 828.41666,403.08572 -0.63897,-8.30425 v 0 l -0.63898,-8.30425 v 0 l -0.63898,-8.30427"
       id="path47" />
    <path
       d="m 828.41666,403.08572 -7.09386,-4.36418 v 0 l -7.09387,-4.36416 v 0 l -7.09386,-4.36418"
       id="path49" />
    <path
       d="m 800.02602,385.65382 -4.36417,-7.09386 v 0 l -4.36418,-7.09387"
       id="path51" />
    <path
       d="m 800.02602,385.65382 -8.30425,-0.63899 v 0 l -8.30426,-0.63897"
       id="path53" />
    <path
       d="m 785.7777,377.02471 -7.12415,-4.31454 v 0 l -7.12417,-4.31454"
       id="path55" />
    <path
       d="m 825.83177,369.87099 3.17386,-7.70035 v 0 l 3.17386,-7.70038"
       id="path57" />
    <path
       d="m 825.83177,369.87099 -4.36417,-7.09387 v 0 l -4.36418,-7.09386"
       id="path59" />
    <path
       d="m 824.4379,353.2718 -0.69694,-8.29957 v 0 l -0.69693,-8.2996"
       id="path61" />
    <path
       d="m 810.83639,374.78683 -4.41358,-7.06324 v 0 l -4.4136,-7.06321 v 0 l -4.41359,-7.06324"
       id="path63" />
    <path
       d="m 793.1574,346.54938 -0.75486,-8.29454 v 0 l -0.75486,-8.29451"
       id="path65" />
    <path
       d="m 793.1574,346.54938 -7.1541,-4.2647 v 0 l -7.15412,-4.26472"
       id="path67" />
    <path
       d="m 784.23181,332.4849 -4.46279,-7.03223 v 0 l -4.4628,-7.03226"
       id="path69" />
    <path
       d="m 892.87847,458.40829 6.41745,-5.30897 v 0 l 6.41745,-5.30898"
       id="path71" />
    <path
       d="m 892.87847,458.40829 -0.52297,-8.31236 v 0 l -0.52297,-8.31238"
       id="path73" />
    <path
       d="m 899.4406,443.09771 3.28106,-7.65531 v 0 l 3.28107,-7.65529 v 0 l 3.28106,-7.65529"
       id="path75" />
    <path
       d="m 918.96637,397.09787 6.3427,-5.39807 v 0 l 6.3427,-5.39806 v 0 l 6.3427,-5.39806"
       id="path77" />
    <path
       d="m 918.96637,397.09787 -0.63898,-8.30425 v 0 l -0.63897,-8.30425 v 0 l -0.63898,-8.30427"
       id="path79" />
    <path
       d="m 916.38148,363.88314 3.17386,-7.70035 v 0 l 3.17386,-7.70038"
       id="path81" />
    <path
       d="m 916.38148,363.88314 -4.36418,-7.09387 v 0 l -4.36417,-7.09386"
       id="path83" />
    <path
       d="m 914.98761,347.28395 -0.69694,-8.29957 v 0 l -0.69694,-8.2996"
       id="path85" />
    <path
       d="m 944.31829,375.48353 8.09527,-1.95847 v 0 l 8.09527,-1.95844"
       id="path87" />
    <path
       d="m 944.31829,375.48353 3.17386,-7.70038 v 0 l 3.17386,-7.70036"
       id="path89" />
    <path
       d="m 956.92801,364.5991 6.30486,-5.44221 v 0 l 6.30486,-5.44222"
       id="path91" />
    <path
       d="m 931.52724,366.24145 3.12002,-7.72231 v 0 l 3.12002,-7.72234 v 0 l 3.12002,-7.72232"
       id="path93" />
    <path
       d="m 943.98036,335.34129 6.26671,-5.48608 v 0 l 6.26671,-5.48609"
       id="path95" />
    <path
       d="m 943.98036,335.34129 -0.75486,-8.29454 v 0 l -0.75486,-8.29449"
       id="path97" />
    <path
       d="m 950.11243,319.85345 3.06603,-7.74394 v 0 l 3.06604,-7.7439"
       id="path99" />
    <path
       d="m 874.60069,422.50549 -0.69694,-8.2996 v 0 l -0.69693,-8.29957 v 0 l -0.69694,-8.2996"
       id="path101" />
    <path
       d="m 871.78398,389.30962 3.12002,-7.72234 v 0 l 3.12002,-7.72231"
       id="path103" />
    <path
       d="m 871.78398,389.30962 -4.4136,-7.06324 v 0 l -4.41359,-7.06321"
       id="path105" />
    <path
       d="m 870.27426,372.72057 -0.75487,-8.29451 v 0 l -0.75486,-8.29454 v 0 l -0.75486,-8.29451"
       id="path107" />
    <path
       d="m 865.57144,322.96994 3.0119,-7.76514 v 0 l 3.0119,-7.76515 v 0 l 3.01189,-7.76514"
       id="path109" />
    <path
       d="m 865.57144,322.96994 -4.51178,-7.00089 v 0 l -4.51178,-7.00094 v 0 l -4.51178,-7.00089"
       id="path111" />
    <path
       d="m 847.49991,294.98209 -0.8706,-8.28315 v 0 l -0.8706,-8.2832"
       id="path113" />
    <path
       d="m 847.49991,294.98209 -7.21295,-4.1644 v 0 l -7.21296,-4.1644"
       id="path115" />
    <path
       d="m 838.37882,281.0436 -4.56055,-6.96922 v 0 l -4.56054,-6.96927"
       id="path117" />
    <path
       d="m 877.59191,291.89895 6.1895,-5.57309 v 0 l 6.18951,-5.57304"
       id="path119" />
    <path
       d="m 877.59191,291.89895 -0.8706,-8.2832 v 0 l -0.87059,-8.28315"
       id="path121" />
    <path
       d="m 883.50714,276.32698 2.95761,-7.78599 v 0 l 2.95762,-7.78598"
       id="path123" />
    <path
       d="m 861.94453,289.85289 -0.9284,-8.2769 v 0 l -0.92841,-8.27689 v 0 l -0.9284,-8.2769"
       id="path125" />
    <path
       d="m 858.20203,256.7486 2.90319,-7.80642 v 0 l 2.90319,-7.80642"
       id="path127" />
    <path
       d="m 858.20203,256.7486 -4.60908,-6.93724 v 0 l -4.60909,-6.93719"
       id="path129" />
    <path
       d="m 856.22971,240.20818 -0.98616,-8.27019 v 0 l -0.98617,-8.27024"
       id="path131" />
  </g>
  <g
     fill="none"
     stroke-width="2"
     stroke="#008000"
     id="g359"
     transform="translate(-770.44435,-223.54935)">
    <path
       d="m 886.33969,730.35926 -3.80708,-7.40777 v 0 l -3.80707,-7.40777 v 0 l -6.75519,-4.872"
       id="path135" />
    <path
       d="m 886.33969,730.35926 3.7812,-7.42101 v 0 l 3.78119,-7.42102 v 0 l 6.73814,-4.89555"
       id="path137" />
    <path
       d="m 886.31062,722.03051 -3.83291,-7.39444 v 0 l -3.83292,-7.39443 v 0 l -6.77215,-4.84839"
       id="path139" />
    <path
       d="m 886.31062,722.03051 3.75527,-7.43417 v 0 l 3.75527,-7.43417 v 0 l 6.72101,-4.91904"
       id="path141" />
    <path
       d="m 886.01989,680.38753 -3.8587,-7.38102 v 0 l -3.8587,-7.38101 v 0 l -6.78904,-4.82472"
       id="path143" />
    <path
       d="m 886.01989,680.38753 3.7293,-7.44724 v 0 l 3.72929,-7.44723 v 0 l 6.7038,-4.94247"
       id="path145" />
    <path
       d="m 885.81639,663.73119 -3.91014,-7.3539 v 0 l -3.91013,-7.35389 v 0 l -6.82256,-4.7772"
       id="path147" />
    <path
       d="m 885.81639,663.73119 3.67721,-7.47308 v 0 l 3.67721,-7.47309 v 0 l 6.66914,-4.98915"
       id="path149" />
    <path
       d="m 873.94062,633.34198 -6.83919,-4.75336 v 0 l -6.83918,-4.75337 v 0 l -8.25174,-1.13034"
       id="path151" />
    <path
       d="m 873.94062,633.34198 -0.14536,-8.32753 v 0 l -0.14535,-8.32753 v 0 l 3.6511,-7.48588"
       id="path153" />
    <path
       d="m 870.00484,626.00178 -6.85574,-4.72946 v 0 l -6.85574,-4.72946 v 0 l -8.25563,-1.10154"
       id="path155" />
    <path
       d="m 870.00484,626.00178 -0.17442,-8.32697 v 0 l -0.17443,-8.32699 v 0 l 3.62495,-7.49857"
       id="path157" />
    <path
       d="m 896.62435,632.94602 -0.17443,-8.32697 v 0 l -0.17443,-8.32697 v 0 l -3.93578,-7.3402"
       id="path159" />
    <path
       d="m 896.62435,632.94602 6.65167,-5.01239 v 0 l 6.65168,-5.0124 v 0 l 8.20227,-1.44628"
       id="path161" />
    <path
       d="m 900.2493,625.44746 -0.20349,-8.32632 v 0 l -0.20349,-8.32631 v 0 l -3.96138,-7.32643"
       id="path163" />
    <path
       d="m 900.2493,625.44746 6.63414,-5.0356 v 0 l 6.63414,-5.03558 v 0 l 8.19717,-1.4749"
       id="path165" />
    <path
       d="m 885.67103,655.40366 -3.93578,-7.34021 v 0 l -3.93578,-7.3402 v 0 l -6.83919,-4.75335"
       id="path167" />
    <path
       d="m 885.67103,655.40366 3.6511,-7.48588 v 0 l 3.65111,-7.48588 v 0 l 6.65168,-5.01239"
       id="path169" />
    <path
       d="m 885.29311,638.75037 -3.98693,-7.31254 v 0 l -3.98693,-7.31255 v 0 l -6.8722,-4.7055"
       id="path171" />
    <path
       d="m 885.29311,638.75037 3.59876,-7.51118 v 0 l 3.59875,-7.51119 v 0 l 6.61652,-5.05871"
       id="path173" />
    <path
       d="m 884.13034,597.1226 -4.01243,-7.29858 v 0 l -4.01243,-7.29858 v 0 l -6.88859,-4.68148"
       id="path175" />
    <path
       d="m 884.13034,597.1226 3.57252,-7.52369 v 0 l 3.57251,-7.5237 v 0 l 6.59883,-5.08178"
       id="path177" />
    <path
       d="m 883.86873,588.79792 -4.03788,-7.28454 v 0 l -4.03789,-7.28454 v 0 l -6.90488,-4.65739"
       id="path179" />
    <path
       d="m 883.86873,588.79792 3.54623,-7.53614 v 0 l 3.54623,-7.53611 v 0 l 6.58104,-5.10479"
       id="path181" />
    <path
       d="m 882.41537,547.17928 -4.06328,-7.27039 v 0 l -4.06329,-7.27039 v 0 l -6.9211,-4.63328"
       id="path183" />
    <path
       d="m 882.41537,547.17928 3.51991,-7.54846 v 0 l 3.5199,-7.54846 v 0 l 6.56319,-5.12772"
       id="path185" />
    <path
       d="m 881.74688,530.53512 -4.11395,-7.24184 v 0 l -4.11394,-7.24185 v 0 l -6.95328,-4.58486"
       id="path187" />
    <path
       d="m 881.74688,530.53512 3.46712,-7.57286 v 0 l 3.46712,-7.57283 v 0 l 6.52722,-5.17342"
       id="path189" />
    <path
       d="m 880.9622,513.89603 -4.1644,-7.21295 v 0 l -4.1644,-7.21295 v 0 l -6.98512,-4.53618"
       id="path191" />
    <path
       d="m 880.9622,513.89603 3.41416,-7.59686 v 0 l 3.41417,-7.59688 v 0 l 6.49095,-5.21884"
       id="path193" />
    <path
       d="m 880.06137,497.26283 -4.21465,-7.1837 v 0 l -4.21465,-7.18371 v 0 l -7.01662,-4.48731"
       id="path195" />
    <path
       d="m 880.06137,497.26283 3.36105,-7.62052 v 0 l 3.36105,-7.62052 v 0 l 6.45436,-5.26403"
       id="path197" />
    <path
       d="m 866.92346,467.39759 -7.03224,-4.4628 v 0 l -7.03224,-4.4628 v 0 l -8.29183,-0.7838"
       id="path199" />
    <path
       d="m 866.92346,467.39759 -0.49395,-8.31414 v 0 l -0.49395,-8.31416 v 0 l 3.33443,-7.63218"
       id="path201" />
    <path
       d="m 862.68376,460.22864 -7.04778,-4.43822 v 0 l -7.04777,-4.43823 v 0 l -8.29452,-0.75484"
       id="path203" />
    <path
       d="m 862.68376,460.22864 -0.52297,-8.31238 v 0 l -0.52297,-8.31236 v 0 l 3.30776,-7.6438"
       id="path205" />
    <path
       d="m 841.36024,424.45811 -7.06322,-4.41359 v 0 l -7.06322,-4.4136 v 0 l -8.29711,-0.7259"
       id="path207" />
    <path
       d="m 841.36024,424.45811 -0.55198,-8.3105 v 0 l -0.55198,-8.31048 v 0 l 3.28106,-7.65528"
       id="path209" />
    <path
       d="m 832.75605,410.19478 -7.09387,-4.36418 v 0 l -7.09386,-4.36418 v 0 l -8.30197,-0.66795"
       id="path211" />
    <path
       d="m 832.75605,410.19478 -0.60999,-8.30643 v 0 l -0.60999,-8.30643 v 0 l 3.22755,-7.67804"
       id="path213" />
    <path
       d="m 807.13507,389.9932 -8.30425,-0.63897 v 0 l -8.30425,-0.639 v 0 l -7.68924,3.20072"
       id="path215" />
    <path
       d="m 807.13507,389.9932 -4.33938,-7.10907 v 0 l -4.33939,-7.10904 v 0 l -0.63898,-8.30425"
       id="path217" />
    <path
       d="m 800.02602,385.65382 -8.30643,-0.60999 v 0 l -8.30644,-0.61 v 0 l -7.67801,3.22754"
       id="path219" />
    <path
       d="m 800.02602,385.65382 -4.36417,-7.09386 v 0 l -4.36418,-7.09387 v 0 l -0.66796,-8.30199"
       id="path221" />
    <path
       d="m 826.49973,378.17295 -4.36417,-7.09387 v 0 l -4.36418,-7.09384 v 0 l -7.10905,-4.3394"
       id="path223" />
    <path
       d="m 826.49973,378.17295 3.20072,-7.68922 v 0 l 3.20072,-7.68925 v 0 l 6.3427,-5.39806"
       id="path225" />
    <path
       d="m 825.83177,369.87099 -4.38891,-7.07859 v 0 l -4.38891,-7.07859 v 0 l -7.12416,-4.31454"
       id="path227" />
    <path
       d="m 825.83177,369.87099 3.17386,-7.70035 v 0 l 3.17386,-7.70038 v 0 l 6.32382,-5.42015"
       id="path229" />
    <path
       d="m 828.41666,403.08572 -7.10905,-4.33938 v 0 l -7.10906,-4.3394 v 0 l -8.30425,-0.63897"
       id="path231" />
    <path
       d="m 828.41666,403.08572 -0.63897,-8.30425 v 0 l -0.63898,-8.30425 v 0 l 3.20071,-7.68924"
       id="path233" />
    <path
       d="m 819.66358,388.91326 -7.13917,-4.28963 v 0 l -7.13918,-4.28966 v 0 l -8.30851,-0.58099"
       id="path235" />
    <path
       d="m 819.66358,388.91326 -0.69693,-8.29957 v 0 l -0.69694,-8.2996 v 0 l 3.14696,-7.71138"
       id="path237" />
    <path
       d="m 797.59562,353.59714 -7.15411,-4.2647 v 0 l -7.1541,-4.26469 v 0 l -8.31049,-0.55199"
       id="path239" />
    <path
       d="m 797.59562,353.59714 -0.7259,-8.2971 v 0 l -0.7259,-8.29711 v 0 l 3.12002,-7.72231"
       id="path241" />
    <path
       d="m 793.1574,346.54938 -7.16895,-4.23971 v 0 l -7.16895,-4.23971 v 0 l -8.31236,-0.52297"
       id="path243" />
    <path
       d="m 793.1574,346.54938 -0.75486,-8.29454 v 0 l -0.75486,-8.29451 v 0 l 3.09305,-7.73319"
       id="path245" />
    <path
       d="m 889.57071,466.05209 -0.52297,-8.31236 v 0 l -0.52297,-8.31238 v 0 l -4.23971,-7.16895"
       id="path247" />
    <path
       d="m 889.57071,466.05209 6.43594,-5.28653 v 0 l 6.43594,-5.28656 v 0 l 8.13451,-1.78847"
       id="path249" />
    <path
       d="m 892.87847,458.40829 -0.55198,-8.31047 v 0 l -0.55198,-8.3105 v 0 l -4.26471,-7.15411"
       id="path251" />
    <path
       d="m 892.87847,458.40829 6.41745,-5.30897 v 0 l 6.41745,-5.30898 v 0 l 8.12822,-1.81687"
       id="path253" />
    <path
       d="m 909.28379,420.13182 -0.58099,-8.30851 v 0 l -0.58099,-8.30852 v 0 l -4.28965,-7.13916"
       id="path255" />
    <path
       d="m 909.28379,420.13182 6.39888,-5.33134 v 0 l 6.39888,-5.33134 v 0 l 8.12182,-1.84523"
       id="path257" />
    <path
       d="m 915.76565,404.78711 -0.63898,-8.30427 v 0 l -0.63898,-8.30425 v 0 l -4.33938,-7.10904"
       id="path259" />
    <path
       d="m 915.76565,404.78711 6.36151,-5.3759 v 0 l 6.3615,-5.37587 v 0 l 8.10875,-1.90189"
       id="path261" />
    <path
       d="m 917.04944,372.1851 -4.36418,-7.09384 v 0 l -4.36417,-7.09387 v 0 l -7.10905,-4.3394"
       id="path263" />
    <path
       d="m 917.04944,372.1851 3.20072,-7.68922 v 0 l 3.20071,-7.68925 v 0 l 6.3427,-5.39806"
       id="path265" />
    <path
       d="m 916.38148,363.88314 -4.38891,-7.07859 v 0 l -4.38891,-7.07859 v 0 l -7.12416,-4.31454"
       id="path267" />
    <path
       d="m 916.38148,363.88314 3.17386,-7.70035 v 0 l 3.17386,-7.70038 v 0 l 6.32381,-5.42015"
       id="path269" />
    <path
       d="m 937.99447,380.90368 3.17386,-7.70036 v 0 l 3.17386,-7.70035 v 0 l -0.66796,-8.30198"
       id="path271" />
    <path
       d="m 937.99447,380.90368 8.10206,-1.93018 v 0 l 8.10206,-1.93018 v 0 l 8.09526,1.95844"
       id="path273" />
    <path
       d="m 944.31829,375.48353 3.14696,-7.71141 v 0 l 3.14696,-7.71139 v 0 l -0.69693,-8.29959"
       id="path275" />
    <path
       d="m 944.31829,375.48353 8.09527,-1.95847 v 0 l 8.09527,-1.95844 v 0 l 8.10205,1.93017"
       id="path277" />
    <path
       d="m 918.96637,397.09787 -0.66796,-8.30196 v 0 l -0.66796,-8.30199 v 0 l -4.36418,-7.09387"
       id="path279" />
    <path
       d="m 918.96637,397.09787 6.3427,-5.39807 v 0 l 6.3427,-5.39806 v 0 l 8.10206,-1.93018"
       id="path281" />
    <path
       d="m 925.28719,381.68613 -0.7259,-8.29711 v 0 l -0.72591,-8.29713 v 0 l -4.41359,-7.06321"
       id="path283" />
    <path
       d="m 925.28719,381.68613 6.30486,-5.44221 v 0 l 6.30486,-5.44222 v 0 l 8.08839,-1.9867"
       id="path285" />
    <path
       d="m 940.8873,343.07448 -0.75486,-8.29454 v 0 l -0.75485,-8.29451 v 0 l -4.43822,-7.04776"
       id="path287" />
    <path
       d="m 940.8873,343.07448 6.28583,-5.4642 v 0 l 6.28583,-5.46417 v 0 l 8.0814,-2.01492"
       id="path289" />
    <path
       d="m 943.98036,335.34129 -0.78381,-8.29184 v 0 l -0.78381,-8.29185 v 0 l -4.4628,-7.0322"
       id="path291" />
    <path
       d="m 943.98036,335.34129 6.26671,-5.48608 v 0 l 6.26671,-5.48609 v 0 l 8.07432,-2.04311"
       id="path293" />
    <path
       d="m 879.56742,488.94869 -4.2397,-7.16895 v 0 l -4.2397,-7.16895 v 0 l -7.03224,-4.46277"
       id="path295" />
    <path
       d="m 879.56742,488.94869 3.33443,-7.63221 v 0 l 3.33443,-7.63218 v 0 l 6.43594,-5.28656"
       id="path297" />
    <path
       d="m 878.49247,472.32584 -4.28965,-7.13916 v 0 l -4.28965,-7.13919 v 0 l -7.06322,-4.41359"
       id="path299" />
    <path
       d="m 878.49247,472.32584 3.28107,-7.65529 v 0 l 3.28106,-7.65529 v 0 l 6.39888,-5.33134"
       id="path301" />
    <path
       d="m 877.3015,455.71089 -4.33939,-7.10905 v 0 l -4.33938,-7.10906 v 0 l -7.09387,-4.36416"
       id="path303" />
    <path
       d="m 877.3015,455.71089 3.22754,-7.67802 v 0 l 3.22754,-7.67801 v 0 l 6.3615,-5.37587"
       id="path305" />
    <path
       d="m 875.99456,439.10468 -4.38891,-7.07859 v 0 l -4.38891,-7.07859 v 0 l -7.12416,-4.31454"
       id="path307" />
    <path
       d="m 875.99456,439.10468 3.17386,-7.70038 v 0 l 3.17386,-7.70035 v 0 l 6.32382,-5.42015"
       id="path309" />
    <path
       d="m 872.50988,397.60672 -4.41359,-7.06323 v 0 l -4.41359,-7.06322 v 0 l -7.13918,-4.28966"
       id="path311" />
    <path
       d="m 872.50988,397.60672 3.14696,-7.71138 v 0 l 3.14696,-7.71141 v 0 l 6.30486,-5.44221"
       id="path313" />
    <path
       d="m 871.78398,389.30962 -4.43822,-7.04779 v 0 l -4.43822,-7.04775 v 0 l -7.15411,-4.26473"
       id="path315" />
    <path
       d="m 871.78398,389.30962 3.12002,-7.72234 v 0 l 3.12002,-7.72231 v 0 l 6.28583,-5.4642"
       id="path317" />
    <path
       d="m 868.00967,347.83701 -4.46279,-7.03226 v 0 l -4.4628,-7.03223 v 0 l -7.16895,-4.23971"
       id="path319" />
    <path
       d="m 868.00967,347.83701 3.09305,-7.7332 v 0 l 3.09305,-7.73316 v 0 l 6.26671,-5.48611"
       id="path321" />
    <path
       d="m 866.41311,331.25612 -4.51177,-7.00092 v 0 l -4.51179,-7.00089 v 0 l -7.19837,-4.18956"
       id="path323" />
    <path
       d="m 866.41311,331.25612 3.03899,-7.7546 v 0 l 3.03899,-7.75457 v 0 l 6.22826,-5.52972"
       id="path325" />
    <path
       d="m 852.0361,301.96722 -7.21296,-4.1644 v 0 l -7.21295,-4.1644 v 0 l -8.31738,-0.43591"
       id="path327" />
    <path
       d="m 852.0361,301.96722 -0.84168,-8.28615 v 0 l -0.84168,-8.2862 v 0 l 3.0119,-7.76514"
       id="path329" />
    <path
       d="m 847.49991,294.98209 -7.22745,-4.13919 v 0 l -7.22744,-4.13918 v 0 l -8.31886,-0.40689"
       id="path331" />
    <path
       d="m 847.49991,294.98209 -0.8706,-8.28315 v 0 l -0.8706,-8.2832 v 0 l 2.98478,-7.77562"
       id="path333" />
    <path
       d="m 874.60713,299.67451 -0.87059,-8.28315 v 0 l -0.8706,-8.2832 v 0 l -4.53619,-6.98508"
       id="path335" />
    <path
       d="m 874.60713,299.67451 6.20892,-5.55138 v 0 l 6.20893,-5.55143 v 0 l 8.05248,-2.12755"
       id="path337" />
    <path
       d="m 877.59191,291.89895 -0.89951,-8.2801 v 0 l -0.8995,-8.2801 v 0 l -4.56055,-6.96922"
       id="path339" />
    <path
       d="m 877.59191,291.89895 6.1895,-5.57309 v 0 l 6.18951,-5.57304 v 0 l 8.045,-2.15565"
       id="path341" />
    <path
       d="m 865.57144,322.96994 -4.53619,-6.98513 v 0 l -4.53619,-6.98508 v 0 l -7.21296,-4.1644"
       id="path343" />
    <path
       d="m 865.57144,322.96994 3.0119,-7.76514 v 0 l 3.0119,-7.76515 v 0 l 6.20892,-5.55138"
       id="path345" />
    <path
       d="m 863.80133,306.40669 -4.58484,-6.95326 v 0 l -4.58484,-6.95331 v 0 l -7.24185,-4.11392"
       id="path347" />
    <path
       d="m 863.80133,306.40669 2.95762,-7.78599 v 0 l 2.95762,-7.78598 v 0 l 6.17001,-5.59459"
       id="path349" />
    <path
       d="m 859.15932,265.0222 -4.60909,-6.9372 v 0 l -4.60908,-6.93724 v 0 l -7.25617,-4.08866"
       id="path351" />
    <path
       d="m 859.15932,265.0222 2.93042,-7.79626 v 0 l 2.93042,-7.79625 v 0 l 6.15045,-5.61609"
       id="path353" />
    <path
       d="m 858.20203,256.7486 -4.63327,-6.92107 v 0 l -4.63328,-6.92113 v 0 l -7.27039,-4.06329"
       id="path355" />
    <path
       d="m 858.20203,256.7486 2.90319,-7.80642 v 0 l 2.90319,-7.80642 v 0 l 6.1308,-5.63759"
       id="path357" />
  </g>
  <g
     fill="none"
     stroke-width="2"
     stroke="#00ff00"
     id="g459"
     transform="translate(-770.44435,-223.54935)">
    <path
       d="m 886.33969,730.35926 -0.0291,-8.32875 v 0 l -0.0581,-8.3286 v 0 l -0.0581,-8.32859"
       id="path361" />
    <path
       d="m 886.01989,680.38753 -0.0872,-8.32835 v 0 l -0.11628,-8.32799 v 0 l -0.14536,-8.32753 v 0 l -0.17443,-8.32698 v 0 l -0.20349,-8.32631 v 0 l -0.23255,-8.32556 v 0 l -0.23256,-8.32554"
       id="path363" />
    <path
       d="m 885.4966,647.07668 -3.96138,-7.32641 v 0 l -3.96138,-7.32642 v 0 l -6.85573,-4.72946"
       id="path365" />
    <path
       d="m 885.4966,647.07668 3.62496,-7.49857 v 0 l 3.62495,-7.49858 v 0 l 6.63414,-5.03559"
       id="path367" />
    <path
       d="m 885.93267,672.05918 -3.88444,-7.3675 v 0 l -3.88444,-7.3675 v 0 l -6.80584,-4.80099"
       id="path369" />
    <path
       d="m 885.93267,672.05918 3.70328,-7.46021 v 0 l 3.70328,-7.4602 v 0 l 6.68651,-4.96584"
       id="path371" />
    <path
       d="m 873.94062,633.34198 -3.93578,-7.3402 v 0 l -3.96138,-7.32643 v 0 l -3.96138,-7.32641"
       id="path373" />
    <path
       d="m 896.62435,632.94602 3.62495,-7.49856 v 0 l 3.59875,-7.51118 v 0 l 3.59876,-7.51119"
       id="path375" />
    <path
       d="m 884.13034,597.1226 -0.26161,-8.32468 v 0 l -0.29067,-8.32373 v 0 l -0.29067,-8.32373"
       id="path377" />
    <path
       d="m 882.41537,547.17928 -0.31972,-8.32268 v 0 l -0.34877,-8.32148 v 0 l -0.37782,-8.32023 v 0 l -0.40686,-8.31886 v 0 l -0.4359,-8.31737 v 0 l -0.46493,-8.31583 v 0 l -0.49395,-8.31414 v 0 l -0.52297,-8.31235 v 0 l -0.55198,-8.3105 v 0 l -0.58099,-8.30852 v 0 l -0.60998,-8.30643 v 0 l -0.63898,-8.30425 v 0 l -0.66796,-8.30196 v 0 l -0.69694,-8.2996 v 0 l -0.69693,-8.29959"
       id="path379" />
    <path
       d="m 876.66252,447.40664 -4.36417,-7.09387 v 0 l -4.36418,-7.09387 v 0 l -7.10905,-4.33937"
       id="path381" />
    <path
       d="m 876.66252,447.40664 3.20072,-7.68922 v 0 l 3.20072,-7.68925 v 0 l 6.3427,-5.39806"
       id="path383" />
    <path
       d="m 877.91148,464.01732 -4.31454,-7.12414 v 0 l -4.31454,-7.12416 v 0 l -7.07859,-4.38892"
       id="path385" />
    <path
       d="m 877.91148,464.01732 3.25433,-7.6667 v 0 l 3.25432,-7.6667 v 0 l 6.38023,-5.35364"
       id="path387" />
    <path
       d="m 879.04445,480.63634 -4.2647,-7.15411 v 0 l -4.2647,-7.15411 v 0 l -7.04778,-4.43822"
       id="path389" />
    <path
       d="m 879.04445,480.63634 3.30777,-7.6438 v 0 l 3.30777,-7.6438 v 0 l 6.41745,-5.30898"
       id="path391" />
    <path
       d="m 880.5263,505.57866 -4.18955,-7.19838 v 0 l -4.18955,-7.19838 v 0 l -7.00092,-4.51178"
       id="path393" />
    <path
       d="m 880.5263,505.57866 3.38763,-7.60874 v 0 l 3.38763,-7.60875 v 0 l 6.47269,-5.24147"
       id="path395" />
    <path
       d="m 881.36906,522.21489 -4.1392,-7.22744 v 0 l -4.1392,-7.22746 v 0 l -6.96924,-4.56053"
       id="path397" />
    <path
       d="m 881.36906,522.21489 3.44066,-7.58491 v 0 l 3.44067,-7.58488 v 0 l 6.50912,-5.19617"
       id="path399" />
    <path
       d="m 882.09565,538.8566 -4.08864,-7.25615 v 0 l -4.08864,-7.25616 v 0 l -6.93723,-4.60911"
       id="path401" />
    <path
       d="m 882.09565,538.8566 3.49353,-7.56068 v 0 l 3.49354,-7.56071 v 0 l 6.54524,-5.1506"
       id="path403" />
    <path
       d="m 866.92346,467.39759 -4.2397,-7.16895 v 0 l -4.26471,-7.15411 v 0 l -4.2647,-7.1541"
       id="path405" />
    <path
       d="m 841.36024,424.45811 -4.28965,-7.13919 v 0 l -4.31454,-7.12414 v 0 l -4.33939,-7.10906 v 0 l -4.36417,-7.09387 v 0 l -4.38891,-7.07859 v 0 l -4.41359,-7.06321 v 0 l -4.4136,-7.06322"
       id="path407" />
    <path
       d="m 824.05249,395.99185 -7.12416,-4.31454 v 0 l -7.12416,-4.31454 v 0 l -8.30643,-0.61"
       id="path409" />
    <path
       d="m 824.05249,395.99185 -0.66796,-8.30196 v 0 l -0.66796,-8.30198 v 0 l 3.17385,-7.70036"
       id="path411" />
    <path
       d="m 837.07059,417.31892 -7.07858,-4.38891 v 0 l -7.07859,-4.38889 v 0 l -8.29959,-0.69695"
       id="path413" />
    <path
       d="m 837.07059,417.31892 -0.58099,-8.30849 v 0 l -0.58098,-8.30852 v 0 l 3.25432,-7.6667"
       id="path415" />
    <path
       d="m 807.13507,389.9932 -7.10905,-4.33938 v 0 l -7.12416,-4.31456 v 0 l -7.12416,-4.31455"
       id="path417" />
    <path
       d="m 826.49973,378.17295 -0.66796,-8.30196 v 0 l -0.69694,-8.2996 v 0 l -0.69693,-8.29959"
       id="path419" />
    <path
       d="m 797.59562,353.59714 -4.43822,-7.04776 v 0 l -4.46279,-7.03225 v 0 l -4.4628,-7.03223"
       id="path421" />
    <path
       d="m 889.57071,466.05209 3.30776,-7.6438 v 0 l 3.28106,-7.65529 v 0 l 3.28107,-7.65529"
       id="path423" />
    <path
       d="m 909.28379,420.13182 3.25432,-7.6667 v 0 l 3.22754,-7.67801 v 0 l 3.20072,-7.68924 v 0 l 3.17386,-7.70036 v 0 l 3.14696,-7.71138 v 0 l 3.12002,-7.72234 v 0 l 3.12003,-7.72234"
       id="path425" />
    <path
       d="m 922.14023,389.39751 -0.69694,-8.29959 v 0 l -0.69693,-8.2996 v 0 l -4.38891,-7.07856"
       id="path427" />
    <path
       d="m 922.14023,389.39751 6.32382,-5.42017 v 0 l 6.32382,-5.42015 v 0 l 8.09527,-1.95847"
       id="path429" />
    <path
       d="m 912.53811,412.46512 -0.60999,-8.30643 v 0 l -0.60998,-8.30643 v 0 l -4.31455,-7.12417"
       id="path431" />
    <path
       d="m 912.53811,412.46512 6.38023,-5.35366 v 0 l 6.38023,-5.35363 v 0 l 8.11534,-1.87357"
       id="path433" />
    <path
       d="m 917.04944,372.1851 -0.66796,-8.30196 v 0 l -0.69694,-8.2996 v 0 l -0.69693,-8.29959"
       id="path435" />
    <path
       d="m 937.99447,380.90368 6.32382,-5.42015 v 0 l 6.30486,-5.44222 v 0 l 6.30486,-5.44221"
       id="path437" />
    <path
       d="m 940.8873,343.07448 3.09306,-7.73319 v 0 l 3.06603,-7.74389 v 0 l 3.06604,-7.74395"
       id="path439" />
    <path
       d="m 872.50988,397.60672 -0.7259,-8.2971 v 0 l -0.75486,-8.29454 v 0 l -0.75486,-8.29451"
       id="path441" />
    <path
       d="m 868.00967,347.83701 -0.78381,-8.29185 v 0 l -0.81275,-8.28904 v 0 l -0.84167,-8.28618 v 0 l -0.8706,-8.28315 v 0 l -0.89951,-8.2801 v 0 l -0.9284,-8.2769 v 0 l -0.9284,-8.2769"
       id="path443" />
    <path
       d="m 864.70084,314.68679 -4.56054,-6.96927 v 0 l -4.56055,-6.96922 v 0 l -7.22745,-4.13919"
       id="path445" />
    <path
       d="m 864.70084,314.68679 2.98478,-7.77562 v 0 l 2.98477,-7.77561 v 0 l 6.18951,-5.57304"
       id="path447" />
    <path
       d="m 867.22586,339.54516 -4.48731,-7.01662 v 0 l -4.48731,-7.0166 v 0 l -7.18371,-4.21467"
       id="path449" />
    <path
       d="m 867.22586,339.54516 3.06604,-7.74392 v 0 l 3.06604,-7.74394 v 0 l 6.24752,-5.50792"
       id="path451" />
    <path
       d="m 852.0361,301.96722 -4.53619,-6.98513 v 0 l -4.56055,-6.96922 v 0 l -4.56054,-6.96927"
       id="path453" />
    <path
       d="m 874.60713,299.67451 2.98478,-7.77556 v 0 l 2.95761,-7.78599 v 0 l 2.95762,-7.78598"
       id="path455" />
    <path
       d="m 859.15932,265.0222 -0.95729,-8.2736 v 0 l -0.98616,-8.27018 v 0 l -0.98616,-8.27024"
       id="path457" />
  </g>
</svg>
