<?xml version="1.0" encoding="UTF-8" standalone="no"?>
<!-- Generator: https://github.com/anvaka/l-system -->

<svg
   version="1.1"
   viewBox="0 0 423.51447 423.51447"
   id="svg264"
   sodipodi:docname="hilbert.svg"
   inkscape:version="1.1.2 (0a00cf5339, 2022-02-04)"
   width="423.51447"
   height="423.51447"
   xmlns:inkscape="http://www.inkscape.org/namespaces/inkscape"
   xmlns:sodipodi="http://sodipodi.sourceforge.net/DTD/sodipodi-0.dtd"
   xmlns="http://www.w3.org/2000/svg"
   xmlns:svg="http://www.w3.org/2000/svg">
  <defs
     id="defs268" />
  <sodipodi:namedview
     id="namedview266"
     pagecolor="#ffffff"
     bordercolor="#666666"
     borderopacity="1.0"
     inkscape:pageshadow="2"
     inkscape:pageopacity="0.0"
     inkscape:pagecheckerboard="0"
     showgrid="false"
     inkscape:zoom="0.76785714"
     inkscape:cx="1.3023256"
     inkscape:cy="186.23256"
     inkscape:window-width="1920"
     inkscape:window-height="1055"
     inkscape:window-x="0"
     inkscape:window-y="25"
     inkscape:window-maximized="1"
     inkscape:current-layer="svg264" />
  <style
     id="style257">
  path {
   vector-effect: non-scaling-stroke;
  }
</style>
  <g
     fill="none"
     stroke-width="2"
     stroke="#ffffff"
     id="g262"
     transform="translate(-838.66153,-268.82567)">
    <path
       d="m 839.66153,269.82567 v 13.59724 0 h 13.59724 v 0 -13.59724 0 h 13.59725 v 0 h 13.59724 v 0 13.59724 0 h -13.59724 v 0 13.59725 0 h 13.59724 v 0 13.59724 0 h -13.59724 v 0 h -13.59725 v 0 -13.59724 0 h -13.59724 v 0 13.59724 0 13.59724 0 h 13.59724 v 0 13.59724 0 h -13.59724 v 0 13.59724 0 13.59724 0 h 13.59724 v 0 -13.59724 0 h 13.59725 v 0 13.59724 0 h 13.59724 v 0 -13.59724 0 -13.59724 0 h -13.59724 v 0 -13.59724 0 h 13.59724 v 0 h 13.59724 v 0 h 13.59724 v 0 13.59724 0 H 894.0505 v 0 13.59724 0 13.59724 0 h 13.59724 v 0 -13.59724 0 h 13.59724 v 0 13.59724 0 h 13.59724 v 0 -13.59724 0 -13.59724 0 h -13.59724 v 0 -13.59724 0 h 13.59724 v 0 -13.59724 0 -13.59724 0 h -13.59724 v 0 13.59724 0 h -13.59724 v 0 H 894.0505 v 0 -13.59724 0 h 13.59724 v 0 -13.59725 0 H 894.0505 v 0 -13.59724 0 h 13.59724 v 0 h 13.59724 v 0 13.59724 0 h 13.59724 v 0 -13.59724 0 h 13.59724 v 0 h 13.59724 v 0 13.59724 0 h -13.59724 v 0 13.59725 0 13.59724 0 h 13.59724 v 0 -13.59724 0 h 13.59725 v 0 13.59724 0 h 13.59724 v 0 -13.59724 0 -13.59725 0 h -13.59724 v 0 -13.59724 0 h 13.59724 v 0 h 13.59721 v 0 13.59724 0 h 13.5973 v 0 -13.59724 0 h 13.5972 v 0 h 13.5973 v 0 13.59724 0 h -13.5973 v 0 13.59725 0 h 13.5973 v 0 13.59724 0 h -13.5973 v 0 h -13.5972 v 0 -13.59724 0 h -13.5973 v 0 13.59724 0 13.59724 0 13.59724 0 h 13.5973 v 0 -13.59724 0 h 13.5972 v 0 h 13.5973 v 0 13.59724 0 h -13.5973 v 0 13.59724 0 h 13.5973 v 0 13.59724 0 h -13.5973 v 0 h -13.5972 v 0 -13.59724 0 h -13.5973 v 0 13.59724 0 h -13.59721 v 0 h -13.59724 v 0 -13.59724 0 h 13.59724 v 0 -13.59724 0 -13.59724 0 h -13.59724 v 0 13.59724 0 H 962.0367 v 0 -13.59724 0 h -13.59724 v 0 13.59724 0 13.59724 0 h 13.59724 v 0 13.59724 0 h -13.59724 v 0 13.59724 0 h 13.59724 v 0 13.59724 0 h -13.59724 v 0 13.59725 0 13.59724 0 h 13.59724 v 0 -13.59724 0 h 13.59725 v 0 13.59724 0 h 13.59724 v 0 -13.59724 0 -13.59725 0 h -13.59724 v 0 -13.59724 0 h 13.59724 v 0 h 13.59721 v 0 13.59724 0 h 13.5973 v 0 -13.59724 0 h 13.5972 v 0 h 13.5973 v 0 13.59724 0 h -13.5973 v 0 13.59725 0 h 13.5973 v 0 13.59724 0 h -13.5973 v 0 h -13.5972 v 0 -13.59724 0 h -13.5973 v 0 13.59724 0 13.59724 0 13.59724 0 h 13.5973 v 0 -13.59724 0 h 13.5972 v 0 h 13.5973 v 0 13.59724 0 h -13.5973 v 0 13.59724 0 h 13.5973 v 0 13.59724 0 h -13.5973 v 0 h -13.5972 v 0 -13.59724 0 h -13.5973 v 0 13.59724 0 h -13.59721 v 0 h -13.59724 v 0 -13.59724 0 h 13.59724 v 0 -13.59724 0 -13.59724 0 h -13.59724 v 0 13.59724 0 H 962.0367 v 0 -13.59724 0 h -13.59724 v 0 13.59724 0 13.59724 0 h 13.59724 v 0 13.59724 0 h -13.59724 v 0 h -13.59724 v 0 -13.59724 0 h -13.59724 v 0 13.59724 0 h -13.59724 v 0 H 894.0505 v 0 -13.59724 0 h 13.59724 v 0 -13.59724 0 H 894.0505 v 0 -13.59724 0 h 13.59724 v 0 h 13.59724 v 0 13.59724 0 h 13.59724 v 0 -13.59724 0 -13.59724 0 h -13.59724 v 0 -13.59724 0 h 13.59724 v 0 -13.59725 0 -13.59724 0 h -13.59724 v 0 13.59724 0 h -13.59724 v 0 -13.59724 0 H 894.0505 v 0 13.59724 0 13.59725 0 h 13.59724 v 0 13.59724 0 H 894.0505 v 0 h -13.59724 v 0 h -13.59724 v 0 -13.59724 0 h 13.59724 v 0 -13.59725 0 -13.59724 0 h -13.59724 v 0 13.59724 0 h -13.59725 v 0 -13.59724 0 h -13.59724 v 0 13.59724 0 13.59725 0 h 13.59724 v 0 13.59724 0 h -13.59724 v 0 13.59724 0 13.59724 0 h 13.59724 v 0 -13.59724 0 h 13.59725 v 0 h 13.59724 v 0 13.59724 0 h -13.59724 v 0 13.59724 0 h 13.59724 v 0 13.59724 0 h -13.59724 v 0 h -13.59725 v 0 -13.59724 0 h -13.59724 v 0 13.59724 0 13.59724 0 h 13.59724 v 0 13.59724 0 h -13.59724 v 0 13.59725 0 13.59724 0 h 13.59724 v 0 -13.59724 0 h 13.59725 v 0 13.59724 0 h 13.59724 v 0 -13.59724 0 -13.59725 0 h -13.59724 v 0 -13.59724 0 h 13.59724 v 0 h 13.59724 v 0 13.59724 0 h 13.59724 v 0 -13.59724 0 h 13.59724 v 0 h 13.59724 v 0 13.59724 0 h -13.59724 v 0 13.59725 0 h 13.59724 v 0 13.59724 0 h -13.59724 v 0 h -13.59724 v 0 -13.59724 0 H 894.0505 v 0 13.59724 0 13.59724 0 13.59724 0 h 13.59724 v 0 -13.59724 0 h 13.59724 v 0 h 13.59724 v 0 13.59724 0 h -13.59724 v 0 13.59724 0 h 13.59724 v 0 13.59724 0 h -13.59724 v 0 h -13.59724 v 0 -13.59724 0 H 894.0505 v 0 13.59724 0 h -13.59724 v 0 h -13.59724 v 0 -13.59724 0 h 13.59724 v 0 -13.59724 0 -13.59724 0 h -13.59724 v 0 13.59724 0 h -13.59725 v 0 -13.59724 0 h -13.59724 v 0 13.59724 0 13.59724 0 h 13.59724 v 0 13.59724 0 h -13.59724 v 0 13.59724 0 13.59724 0 h 13.59724 v 0 -13.59724 0 h 13.59725 v 0 h 13.59724 v 0 13.59724 0 h -13.59724 v 0 13.59725 0 h 13.59724 v 0 13.59724 0 h -13.59724 v 0 h -13.59725 v 0 -13.59724 0 h -13.59724 v 0 13.59724 0 13.59724 0 h 13.59724 v 0 13.59724 0 h -13.59724 v 0 13.59724 0 13.59724 0 h 13.59724 v 0 -13.59724 0 h 13.59725 v 0 13.59724 0 h 13.59724 v 0 -13.59724 0 -13.59724 0 h -13.59724 v 0 -13.59724 0 h 13.59724 v 0 h 13.59724 v 0 h 13.59724 v 0 13.59724 0 H 894.0505 v 0 13.59724 0 13.59724 0 h 13.59724 v 0 -13.59724 0 h 13.59724 v 0 13.59724 0 h 13.59724 v 0 -13.59724 0 -13.59724 0 h -13.59724 v 0 -13.59724 0 h 13.59724 v 0 -13.59724 0 -13.59724 0 h -13.59724 v 0 13.59724 0 h -13.59724 v 0 H 894.0505 v 0 -13.59724 0 h 13.59724 v 0 -13.59725 0 H 894.0505 v 0 -13.59724 0 h 13.59724 v 0 h 13.59724 v 0 13.59724 0 h 13.59724 v 0 -13.59724 0 h 13.59724 v 0 13.59724 0 h 13.59724 v 0 -13.59724 0 h 13.59725 v 0 h 13.59724 v 0 13.59724 0 h -13.59724 v 0 13.59725 0 h 13.59724 v 0 13.59724 0 h -13.59724 v 0 H 962.0367 v 0 -13.59724 0 h -13.59724 v 0 13.59724 0 13.59724 0 h 13.59724 v 0 13.59724 0 h -13.59724 v 0 13.59724 0 13.59724 0 h 13.59724 v 0 -13.59724 0 h 13.59725 v 0 13.59724 0 h 13.59724 v 0 -13.59724 0 -13.59724 0 h -13.59724 v 0 -13.59724 0 h 13.59724 v 0 h 13.59721 v 0 h 13.5973 v 0 13.59724 0 h -13.5973 v 0 13.59724 0 13.59724 0 h 13.5973 v 0 -13.59724 0 h 13.5972 v 0 13.59724 0 h 13.5973 v 0 -13.59724 0 -13.59724 0 h -13.5973 v 0 -13.59724 0 h 13.5973 v 0 -13.59724 0 -13.59724 0 h -13.5973 v 0 13.59724 0 h -13.5972 v 0 h -13.5973 v 0 -13.59724 0 h 13.5973 v 0 -13.59725 0 h -13.5973 v 0 -13.59724 0 h 13.5973 v 0 h 13.5972 v 0 13.59724 0 h 13.5973 v 0 -13.59724 0 -13.59724 0 h -13.5973 v 0 -13.59724 0 h 13.5973 v 0 -13.59724 0 -13.59724 0 h -13.5973 v 0 13.59724 0 h -13.5972 v 0 -13.59724 0 h -13.5973 v 0 13.59724 0 13.59724 0 h 13.5973 v 0 13.59724 0 h -13.5973 v 0 h -13.59721 v 0 -13.59724 0 h -13.59724 v 0 13.59724 0 H 962.0367 v 0 h -13.59724 v 0 -13.59724 0 h 13.59724 v 0 -13.59724 0 h -13.59724 v 0 -13.59724 0 h 13.59724 v 0 h 13.59725 v 0 13.59724 0 h 13.59724 v 0 -13.59724 0 -13.59724 0 -13.59724 0 h -13.59724 v 0 13.59724 0 H 962.0367 v 0 h -13.59724 v 0 -13.59724 0 h 13.59724 v 0 -13.59725 0 h -13.59724 v 0 -13.59724 0 h 13.59724 v 0 h 13.59725 v 0 13.59724 0 h 13.59724 v 0 -13.59724 0 h 13.59721 v 0 h 13.5973 v 0 13.59724 0 h -13.5973 v 0 13.59725 0 13.59724 0 h 13.5973 v 0 -13.59724 0 h 13.5972 v 0 13.59724 0 h 13.5973 v 0 -13.59724 0 -13.59725 0 h -13.5973 v 0 -13.59724 0 h 13.5973 v 0 h 13.5972 v 0 h 13.5972 v 0 13.59724 0 h -13.5972 v 0 13.59725 0 13.59724 0 h 13.5972 v 0 -13.59724 0 h 13.5973 v 0 13.59724 0 h 13.5972 v 0 -13.59724 0 -13.59725 0 h -13.5972 v 0 -13.59724 0 h 13.5972 v 0 h 13.5973 v 0 13.59724 0 h 13.5972 v 0 -13.59724 0 h 13.5972 v 0 h 13.5973 v 0 13.59724 0 h -13.5973 v 0 13.59725 0 h 13.5973 v 0 13.59724 0 h -13.5973 v 0 h -13.5972 v 0 -13.59724 0 h -13.5972 v 0 13.59724 0 13.59724 0 13.59724 0 h 13.5972 v 0 -13.59724 0 h 13.5972 v 0 h 13.5973 v 0 13.59724 0 h -13.5973 v 0 13.59724 0 h 13.5973 v 0 13.59724 0 h -13.5973 v 0 h -13.5972 v 0 -13.59724 0 h -13.5972 v 0 13.59724 0 h -13.5973 v 0 h -13.5972 v 0 -13.59724 0 h 13.5972 v 0 -13.59724 0 -13.59724 0 h -13.5972 v 0 13.59724 0 h -13.5973 v 0 -13.59724 0 h -13.5972 v 0 13.59724 0 13.59724 0 h 13.5972 v 0 13.59724 0 h -13.5972 v 0 13.59724 0 13.59724 0 h 13.5972 v 0 -13.59724 0 h 13.5973 v 0 h 13.5972 v 0 13.59724 0 h -13.5972 v 0 13.59725 0 h 13.5972 v 0 13.59724 0 h -13.5972 v 0 h -13.5973 v 0 -13.59724 0 h -13.5972 v 0 13.59724 0 13.59724 0 h 13.5972 v 0 13.59724 0 h -13.5972 v 0 13.59724 0 13.59724 0 h 13.5972 v 0 -13.59724 0 h 13.5973 v 0 13.59724 0 h 13.5972 v 0 -13.59724 0 -13.59724 0 h -13.5972 v 0 -13.59724 0 h 13.5972 v 0 h 13.5973 v 0 h 13.5972 v 0 13.59724 0 h -13.5972 v 0 13.59724 0 13.59724 0 h 13.5972 v 0 -13.59724 0 h 13.5972 v 0 13.59724 0 h 13.5973 v 0 -13.59724 0 -13.59724 0 h -13.5973 v 0 -13.59724 0 h 13.5973 v 0 -13.59724 0 -13.59724 0 h -13.5973 v 0 13.59724 0 h -13.5972 v 0 h -13.5972 v 0 -13.59724 0 h 13.5972 v 0 -13.59725 0 h -13.5972 v 0 -13.59724 0 h 13.5972 v 0 h 13.5972 v 0 13.59724 0 h 13.5973 v 0 -13.59724 0 h 13.5972 v 0 13.59724 0 h 13.5973 v 0 -13.59724 0 h 13.5972 v 0 h 13.5972 v 0 13.59724 0 h -13.5972 v 0 13.59725 0 h 13.5972 v 0 13.59724 0 h -13.5972 v 0 h -13.5972 v 0 -13.59724 0 h -13.5973 v 0 13.59724 0 13.59724 0 h 13.5973 v 0 13.59724 0 h -13.5973 v 0 13.59724 0 13.59724 0 h 13.5973 v 0 -13.59724 0 h 13.5972 v 0 13.59724 0 h 13.5972 v 0 -13.59724 0 -13.59724 0 h -13.5972 v 0 -13.59724 0 h 13.5972 v 0 h 13.5973 v 0 h 13.5972 v 0 13.59724 0 h -13.5972 v 0 13.59724 0 13.59724 0 h 13.5972 v 0 -13.59724 0 h 13.5973 v 0 13.59724 0 h 13.5972 v 0 -13.59724 0 -13.59724 0 h -13.5972 v 0 -13.59724 0 h 13.5972 v 0 -13.59724 0 -13.59724 0 h -13.5972 v 0 13.59724 0 h -13.5973 v 0 h -13.5972 v 0 -13.59724 0 h 13.5972 v 0 -13.59725 0 h -13.5972 v 0 -13.59724 0 h 13.5972 v 0 h 13.5973 v 0 13.59724 0 h 13.5972 v 0 -13.59724 0 -13.59724 0 h -13.5972 v 0 -13.59724 0 h 13.5972 v 0 -13.59724 0 -13.59724 0 h -13.5972 v 0 13.59724 0 h -13.5973 v 0 -13.59724 0 h -13.5972 v 0 13.59724 0 13.59724 0 h 13.5972 v 0 13.59724 0 h -13.5972 v 0 h -13.5973 v 0 -13.59724 0 h -13.5972 v 0 13.59724 0 h -13.5972 v 0 h -13.5973 v 0 -13.59724 0 h 13.5973 v 0 -13.59724 0 h -13.5973 v 0 -13.59724 0 h 13.5973 v 0 h 13.5972 v 0 13.59724 0 h 13.5972 v 0 -13.59724 0 -13.59724 0 -13.59724 0 h -13.5972 v 0 13.59724 0 h -13.5972 v 0 h -13.5973 v 0 -13.59724 0 h 13.5973 v 0 -13.59725 0 h -13.5973 v 0 -13.59724 0 h 13.5973 v 0 h 13.5972 v 0 13.59724 0 h 13.5972 v 0 -13.59724 0 h 13.5973 v 0 h 13.5972 v 0 13.59724 0 h -13.5972 v 0 13.59725 0 13.59724 0 h 13.5972 v 0 -13.59724 0 h 13.5973 v 0 13.59724 0 h 13.5972 v 0 -13.59724 0 -13.59725 0 h -13.5972 v 0 -13.59724 0 h 13.5972 v 0 -13.59724 0 -13.59724 0 h -13.5972 v 0 13.59724 0 h -13.5973 v 0 h -13.5972 v 0 -13.59724 0 h 13.5972 v 0 -13.59724 0 h -13.5972 v 0 -13.59724 0 h 13.5972 v 0 h 13.5973 v 0 13.59724 0 h 13.5972 v 0 -13.59724 0 -13.59724 0 h -13.5972 v 0 -13.59724 0 h 13.5972 v 0 -13.59725 0 -13.59724 0 h -13.5972 v 0 13.59724 0 h -13.5973 v 0 -13.59724 0 h -13.5972 v 0 13.59724 0 13.59725 0 h 13.5972 v 0 13.59724 0 h -13.5972 v 0 h -13.5973 v 0 h -13.5972 v 0 -13.59724 0 h 13.5972 v 0 -13.59725 0 -13.59724 0 h -13.5972 v 0 13.59724 0 h -13.5972 v 0 -13.59724 0 h -13.5973 v 0 13.59724 0 13.59725 0 h 13.5973 v 0 13.59724 0 h -13.5973 v 0 13.59724 0 13.59724 0 h 13.5973 v 0 -13.59724 0 h 13.5972 v 0 h 13.5972 v 0 13.59724 0 h -13.5972 v 0 13.59724 0 h 13.5972 v 0 13.59724 0 h -13.5972 v 0 h -13.5972 v 0 -13.59724 0 h -13.5973 v 0 13.59724 0 h -13.5972 v 0 h -13.5973 v 0 -13.59724 0 h 13.5973 v 0 -13.59724 0 -13.59724 0 h -13.5973 v 0 13.59724 0 h -13.5972 v 0 -13.59724 0 h -13.5972 v 0 13.59724 0 13.59724 0 h 13.5972 v 0 13.59724 0 h -13.5972 v 0 h -13.5973 v 0 -13.59724 0 h -13.5972 v 0 13.59724 0 h -13.5973 v 0 h -13.5972 v 0 -13.59724 0 h 13.5972 v 0 -13.59724 0 h -13.5972 v 0 -13.59724 0 h 13.5972 v 0 h 13.5973 v 0 13.59724 0 h 13.5972 v 0 -13.59724 0 -13.59724 0 -13.59724 0 h -13.5972 v 0 13.59724 0 h -13.5973 v 0 h -13.5972 v 0 -13.59724 0 h 13.5972 v 0 -13.59725 0 h -13.5972 v 0 -13.59724 0 h 13.5972 v 0 h 13.5973 v 0 13.59724 0 h 13.5972 v 0 -13.59724 0 h 13.5973 v 0 h 13.5972 v 0 13.59724 0 h -13.5972 v 0 13.59725 0 13.59724 0 h 13.5972 v 0 -13.59724 0 h 13.5972 v 0 13.59724 0 h 13.5973 v 0 -13.59724 0 -13.59725 0 h -13.5973 v 0 -13.59724 0 h 13.5973 v 0 -13.59724 0 h -13.5973 v 0 -13.59724 0 h 13.5973 v 0 -13.59724 0 -13.59724 0 h -13.5973 v 0 13.59724 0 h -13.5972 v 0 -13.59724 0 h -13.5972 v 0 13.59724 0 13.59724 0 h 13.5972 v 0 13.59724 0 h -13.5972 v 0 h -13.5973 v 0 -13.59724 0 h -13.5972 v 0 13.59724 0 h -13.5973 v 0 h -13.5972 v 0 -13.59724 0 h 13.5972 v 0 -13.59724 0 h -13.5972 v 0 -13.59724 0 h 13.5972 v 0 h 13.5973 v 0 13.59724 0 h 13.5972 v 0 -13.59724 0 -13.59724 0 -13.59724 0 h -13.5972 v 0 13.59724 0 h -13.5973 v 0 h -13.5972 v 0 -13.59724 0 h 13.5972 v 0 -13.59725 0 h -13.5972 v 0 -13.59724 0 h 13.5972 v 0 h 13.5973 v 0 13.59724 0 h 13.5972 v 0 -13.59724 0 h 13.5973 v 0 h 13.5972 v 0 13.59724 0 h -13.5972 v 0 13.59725 0 13.59724 0 h 13.5972 v 0 -13.59724 0 h 13.5972 v 0 13.59724 0 h 13.5973 v 0 -13.59724 0 -13.59725 0 h -13.5973 v 0 -13.59724 0 h 13.5973 v 0 h 13.5972 v 0 13.59724 0 h 13.5973 v 0 -13.59724 0 h 13.5972 v 0 h 13.5972 v 0 13.59724 0 h -13.5972 v 0 13.59725 0 h 13.5972 v 0 13.59724 0 h -13.5972 v 0 h -13.5972 v 0 -13.59724 0 h -13.5973 v 0 13.59724 0 13.59724 0 h 13.5973 v 0 13.59724 0 h -13.5973 v 0 13.59724 0 13.59724 0 h 13.5973 v 0 -13.59724 0 h 13.5972 v 0 13.59724 0 h 13.5972 v 0 -13.59724 0 -13.59724 0 h -13.5972 v 0 -13.59724 0 h 13.5972 v 0 h 13.5973 v 0 h 13.5972 v 0 13.59724 0 h -13.5972 v 0 13.59724 0 13.59724 0 h 13.5972 v 0 -13.59724 0 h 13.5973 v 0 13.59724 0 h 13.5972 v 0 -13.59724 0 -13.59724 0 h -13.5972 v 0 -13.59724 0 h 13.5972 v 0 -13.59724 0 -13.59724 0 h -13.5972 v 0 13.59724 0 h -13.5973 v 0 h -13.5972 v 0 -13.59724 0 h 13.5972 v 0 -13.59725 0 h -13.5972 v 0 -13.59724 0 h 13.5972 v 0 h 13.5973 v 0 13.59724 0 h 13.5972 v 0 -13.59724"
       id="path260" />
  </g>
</svg>
