<?xml version="1.0" encoding="utf-8"?>
<!-- Generator: https://github.com/anvaka/l-system -->
<!DOCTYPE svg PUBLIC "-//W3C//DTD SVG 1.1//EN" "http://www.w3.org/Graphics/SVG/1.1/DTD/svg11.dtd">
<svg version="1.1" xmlns="http://www.w3.org/2000/svg" xmlns:xlink="http://www.w3.org/1999/xlink"
    viewBox="0 0 1680 909">
<style>
  path {
   vector-effect: non-scaling-stroke;
  }
</style>

<rect id="background" fill="#0c2952" x="0" y="0" width="1680" height="909"></rect>
<g fill="none" stroke-width="2" stroke="#ffffff">
<path d="M827.0809936919014 335.242845474803 L834.7481589241839 348.52276588278824,834.7481589241839 348.52276588278824,842.4153241564666 335.242845474803"/>
<path d="M834.7481589241839 348.52276588278824 L842.4153241564666 361.8026862907735,842.4153241564666 361.8026862907735,857.7496546210316 361.8026862907735,857.7496546210316 361.8026862907735,873.0839850855969 361.8026862907735,873.0839850855969 361.8026862907735,880.7511503178795 348.52276588278824,880.7511503178795 348.52276588278824,888.418315550162 335.24284547480295"/>
<path d="M880.7511503178795 348.52276588278824 L888.418315550162 361.8026862907735,888.418315550162 361.8026862907735,903.752646014727 361.8026862907735,903.752646014727 361.8026862907735,919.0869764792923 361.8026862907735,919.0869764792923 361.8026862907735,926.7541417115749 348.52276588278824,926.7541417115749 348.52276588278824,934.4213069438575 335.24284547480283"/>
<path d="M926.7541417115749 348.52276588278824 L934.4213069438575 361.8026862907735,934.4213069438575 361.8026862907735,949.7556374084224 361.8026862907735,949.7556374084224 361.8026862907735,965.0899678729877 361.8026862907735,965.0899678729877 361.8026862907735,972.7571331052703 348.52276588278824,972.7571331052703 348.52276588278824,980.4242983375527 335.2428454748026,980.4242983375527 335.2428454748026,972.7571331052703 321.9629250668176,972.7571331052703 321.9629250668176,965.0899678729877 335.2428454748026"/>
<path d="M972.7571331052703 321.9629250668176 L965.0899678729877 308.68300465883243,965.0899678729877 308.68300465883243,949.7556374084224 308.68300465883243,949.7556374084224 308.68300465883243,934.4213069438575 308.68300465883243,934.4213069438575 308.68300465883243,926.7541417115749 321.9629250668176,926.7541417115749 321.9629250668176,919.0869764792923 335.242845474803"/>
<path d="M926.7541417115749 321.9629250668176 L919.0869764792923 308.68300465883243,919.0869764792923 308.68300465883243,903.752646014727 308.68300465883243,903.752646014727 308.68300465883243,888.418315550162 308.68300465883243,888.418315550162 308.68300465883243,880.7511503178795 321.9629250668176,880.7511503178795 321.9629250668176,873.0839850855969 335.24284547480335"/>
<path d="M880.7511503178795 321.9629250668176 L873.0839850855969 308.68300465883243,873.0839850855969 308.68300465883243,857.7496546210316 308.68300465883243,857.7496546210316 308.68300465883243,842.4153241564666 308.68300465883243,842.4153241564666 308.68300465883243,834.7481589241839 321.9629250668176,834.7481589241839 321.9629250668176,827.0809936919014 335.24284547480386"/>
<path d="M834.7481589241839 321.9629250668176 L842.4153241564666 335.24284547480363"/>
<path d="M834.7481589241839 321.9629250668176 L850.0824893887492 321.9629250668176,850.0824893887492 321.9629250668176,857.7496546210316 308.68300465883243,857.7496546210316 308.68300465883243,865.4168198533142 295.4030857132428,865.4168198533142 295.4030857132428,857.7496546210316 282.1231638428618,857.7496546210316 282.1231638428618,850.0824893887492 295.4030857132428"/>
<path d="M857.7496546210316 282.1231638428618 L865.4168198533142 268.8432478220637,865.4168198533142 268.8432478220637,880.7511503178795 268.8432478220637,880.7511503178795 268.8432478220637,896.0854807824446 268.8432478220637,896.0854807824446 268.8432478220637,903.752646014727 282.1231638428618,903.752646014727 282.1231638428618,911.4198112470096 295.4030857132428"/>
<path d="M903.752646014727 282.1231638428618 L888.418315550162 282.1231638428618"/>
<path d="M903.752646014727 282.1231638428618 L896.0854807824446 295.4030857132428"/>
<path d="M903.752646014727 282.1231638428618 L911.4198112470096 268.8432478220637,911.4198112470096 268.8432478220637,926.7541417115749 268.8432478220637,926.7541417115749 268.8432478220637,942.0884721761399 268.8432478220637,942.0884721761399 268.8432478220637,949.7556374084224 282.1231638428618,949.7556374084224 282.1231638428618,957.4228026407051 295.4030857132428"/>
<path d="M949.7556374084224 282.1231638428618 L934.4213069438575 282.1231638428618"/>
<path d="M949.7556374084224 282.1231638428618 L942.0884721761399 295.4030857132428"/>
<path d="M926.7541417115749 268.8432478220637 L919.0869764792923 282.1231638428618"/>
<path d="M926.7541417115749 268.8432478220637 L934.4213069438575 255.5633259516827,934.4213069438575 255.5633259516827,926.7541417115749 242.28340993088446,926.7541417115749 242.28340993088446,919.0869764792923 229.0034822109206,919.0869764792923 229.0034822109206,903.752646014727 229.0034822109206,903.752646014727 229.0034822109206,888.418315550162 229.0034822109206,888.418315550162 229.0034822109206,880.7511503178795 242.28340993088446,880.7511503178795 242.28340993088446,888.418315550162 255.5633259516827"/>
<path d="M880.7511503178795 242.28340993088446 L873.0839850855969 255.5633259516827"/>
<path d="M880.7511503178795 242.28340993088446 L896.0854807824446 242.28340993088446,896.0854807824446 242.28340993088446,903.752646014727 229.0034822109206,903.752646014727 229.0034822109206,911.4198112470096 215.72357203970535,911.4198112470096 215.72357203970535,903.752646014727 202.4436501693243,903.752646014727 202.4436501693243,896.0854807824446 215.72357203970535,896.0854807824446 215.72357203970535,903.752646014727 229.0034822109206,903.752646014727 229.0034822109206,911.4198112470096 242.28340993088446,911.4198112470096 242.28340993088446,926.7541417115749 242.28340993088446,926.7541417115749 242.28340993088446,919.0869764792923 255.5633259516827,919.0869764792923 255.5633259516827,926.7541417115749 268.8432478220637,926.7541417115749 268.8432478220637,934.4213069438575 282.1231638428618"/>
<path d="M903.752646014727 282.1231638428618 L919.0869764792923 282.1231638428618"/>
<path d="M880.7511503178795 268.8432478220637 L873.0839850855969 282.1231638428618"/>
<path d="M880.7511503178795 268.8432478220637 L888.418315550162 255.5633259516827"/>
<path d="M880.7511503178795 268.8432478220637 L873.0839850855969 255.5633259516827"/>
<path d="M880.7511503178795 268.8432478220637 L888.418315550162 282.1231638428618"/>
<path d="M857.7496546210316 282.1231638428618 L873.0839850855969 282.1231638428618"/>
<path d="M857.7496546210316 308.68300465883243 L850.0824893887492 295.4030857132428"/>
<path d="M857.7496546210316 308.68300465883243 L865.4168198533142 321.9629250668176,865.4168198533142 321.9629250668176,880.7511503178795 321.9629250668176,880.7511503178795 321.9629250668176,888.418315550162 335.24284547480323"/>
<path d="M880.7511503178795 321.9629250668176 L896.0854807824446 321.9629250668176,896.0854807824446 321.9629250668176,903.752646014727 308.68300465883243,903.752646014727 308.68300465883243,911.4198112470096 295.4030857132428"/>
<path d="M903.752646014727 308.68300465883243 L896.0854807824446 295.4030857132428"/>
<path d="M903.752646014727 308.68300465883243 L911.4198112470096 321.9629250668176,911.4198112470096 321.9629250668176,926.7541417115749 321.9629250668176,926.7541417115749 321.9629250668176,934.4213069438575 335.24284547480295"/>
<path d="M926.7541417115749 321.9629250668176 L942.0884721761399 321.9629250668176,942.0884721761399 321.9629250668176,949.7556374084224 308.68300465883243,949.7556374084224 308.68300465883243,957.4228026407051 295.4030857132428"/>
<path d="M949.7556374084224 308.68300465883243 L942.0884721761399 295.4030857132428"/>
<path d="M949.7556374084224 308.68300465883243 L957.4228026407051 321.9629250668176,957.4228026407051 321.9629250668176,972.7571331052703 321.9629250668176"/>
<path d="M972.7571331052703 348.52276588278824 L965.0899678729877 335.2428454748026"/>
<path d="M972.7571331052703 348.52276588278824 L957.4228026407051 348.52276588278824,957.4228026407051 348.52276588278824,949.7556374084224 361.8026862907735,949.7556374084224 361.8026862907735,942.0884721761399 375.0826052363632,942.0884721761399 375.0826052363632,949.7556374084224 388.36252710674415,949.7556374084224 388.36252710674415,957.4228026407051 375.0826052363632"/>
<path d="M949.7556374084224 388.36252710674415 L942.0884721761399 401.6424431275423,942.0884721761399 401.6424431275423,926.7541417115749 401.6424431275423,926.7541417115749 401.6424431275423,911.4198112470096 401.6424431275423,911.4198112470096 401.6424431275423,903.752646014727 388.36252710674415,903.752646014727 388.36252710674415,896.0854807824446 375.0826052363631"/>
<path d="M903.752646014727 388.36252710674415 L919.0869764792923 388.36252710674415"/>
<path d="M903.752646014727 388.36252710674415 L911.4198112470096 375.0826052363631"/>
<path d="M903.752646014727 388.36252710674415 L896.0854807824446 401.6424431275423,896.0854807824446 401.6424431275423,880.7511503178795 401.6424431275423,880.7511503178795 401.6424431275423,865.4168198533142 401.6424431275423,865.4168198533142 401.6424431275423,857.7496546210316 388.36252710674415,857.7496546210316 388.36252710674415,850.0824893887492 375.0826052363631"/>
<path d="M857.7496546210316 388.36252710674415 L873.0839850855969 388.36252710674415"/>
<path d="M857.7496546210316 388.36252710674415 L865.4168198533142 375.0826052363631"/>
<path d="M880.7511503178795 401.6424431275423 L888.418315550162 388.36252710674415"/>
<path d="M880.7511503178795 401.6424431275423 L873.0839850855969 414.92236499792324,873.0839850855969 414.92236499792324,880.7511503178795 428.2022810187214,880.7511503178795 428.2022810187214,888.418315550162 441.4822087386853,888.418315550162 441.4822087386853,903.752646014727 441.4822087386853,903.752646014727 441.4822087386853,919.0869764792923 441.4822087386853,919.0869764792923 441.4822087386853,926.7541417115749 428.2022810187214,926.7541417115749 428.2022810187214,919.0869764792923 414.92236499792335"/>
<path d="M926.7541417115749 428.2022810187214 L934.4213069438575 414.92236499792335"/>
<path d="M926.7541417115749 428.2022810187214 L911.4198112470096 428.2022810187214,911.4198112470096 428.2022810187214,903.752646014727 441.4822087386853,903.752646014727 441.4822087386853,896.0854807824446 454.7621189099006,896.0854807824446 454.7621189099006,903.752646014727 468.0420407802816,903.752646014727 468.0420407802816,911.4198112470096 454.7621189099006,911.4198112470096 454.7621189099006,903.752646014727 441.4822087386853,903.752646014727 441.4822087386853,896.0854807824446 428.2022810187214,896.0854807824446 428.2022810187214,880.7511503178795 428.2022810187214,880.7511503178795 428.2022810187214,888.418315550162 414.92236499792335,888.418315550162 414.92236499792335,880.7511503178795 401.6424431275423,880.7511503178795 401.6424431275423,873.0839850855969 388.36252710674415"/>
<path d="M903.752646014727 388.36252710674415 L888.418315550162 388.36252710674415"/>
<path d="M926.7541417115749 401.6424431275423 L934.4213069438575 388.36252710674415"/>
<path d="M926.7541417115749 401.6424431275423 L919.0869764792923 414.92236499792335"/>
<path d="M926.7541417115749 401.6424431275423 L934.4213069438575 414.92236499792335"/>
<path d="M926.7541417115749 401.6424431275423 L919.0869764792923 388.36252710674415"/>
<path d="M949.7556374084224 388.36252710674415 L934.4213069438575 388.36252710674415"/>
<path d="M949.7556374084224 361.8026862907735 L957.4228026407051 375.0826052363632"/>
<path d="M949.7556374084224 361.8026862907735 L942.0884721761399 348.52276588278824,942.0884721761399 348.52276588278824,926.7541417115749 348.52276588278824,926.7541417115749 348.52276588278824,919.0869764792923 335.24284547480283"/>
<path d="M926.7541417115749 348.52276588278824 L911.4198112470096 348.52276588278824,911.4198112470096 348.52276588278824,903.752646014727 361.8026862907735,903.752646014727 361.8026862907735,896.0854807824446 375.0826052363631"/>
<path d="M903.752646014727 361.8026862907735 L911.4198112470096 375.0826052363631"/>
<path d="M903.752646014727 361.8026862907735 L896.0854807824446 348.52276588278824,896.0854807824446 348.52276588278824,880.7511503178795 348.52276588278824,880.7511503178795 348.52276588278824,873.0839850855969 335.24284547480295"/>
<path d="M880.7511503178795 348.52276588278824 L865.4168198533142 348.52276588278824,865.4168198533142 348.52276588278824,857.7496546210316 361.8026862907735,857.7496546210316 361.8026862907735,850.0824893887492 375.0826052363631"/>
<path d="M857.7496546210316 361.8026862907735 L865.4168198533142 375.0826052363631"/>
<path d="M857.7496546210316 361.8026862907735 L850.0824893887492 348.52276588278824,850.0824893887492 348.52276588278824,834.7481589241839 348.52276588278824"/>
</g>
</svg>