<?xml version="1.0" encoding="utf-8"?>
<!-- Generator: https://github.com/anvaka/l-system -->
<!DOCTYPE svg PUBLIC "-//W3C//DTD SVG 1.1//EN" "http://www.w3.org/Graphics/SVG/1.1/DTD/svg11.dtd">
<svg version="1.1" xmlns="http://www.w3.org/2000/svg" xmlns:xlink="http://www.w3.org/1999/xlink"
    viewBox="0 0 1680 909">
<style>
  path {
   vector-effect: non-scaling-stroke;
  }
</style>

<rect id="background" fill="#0c2952" x="0" y="0" width="1680" height="909"></rect>
<g fill="none" stroke-width="2" stroke="#008000">
<path d="M1036.7466632273363 664.9809564158024 L1047.2723270537072 657.7677491127719,1047.2723270537072 657.7677491127719,1054.350289221269 647.9012445669767"/>
</g>
<g fill="none" stroke-width="2" stroke="#ee82ee">
<path d="M1036.7466632273363 664.9809564158024 L1039.4471364600222 654.1188027640384,1039.4471364600222 654.1188027640384,1037.7891012143893 643.46368662957,1037.7891012143893 643.46368662957,1032.0649912492731 634.5156182520626"/>
<path d="M1036.7466632273363 664.9809564158024 L1043.6814353391176 655.2533803218494,1043.6814353391176 655.2533803218494,1042.0581252221032 644.6075687126273,1042.0581252221032 644.6075687126273,1036.3693142759926 635.6689602321529,1036.3693142759926 635.6689602321529,1027.4083861048073 629.7585499804926"/>
<path d="M1043.6814353391176 655.2533803218494 L1046.4609259848878 644.222372933367,1046.4609259848878 644.222372933367,1044.8471760972811 633.3973212173221,1044.8471760972811 633.3973212173221,1039.1341877671914 624.290720425089,1039.1341877671914 624.290720425089,1030.1211641211944 618.234955036437,1030.1211641211944 618.234955036437,1019.0241382892541 616.2178788004779"/>
<path d="M1050.5659746934202 610.4113127966424 L1044.8045958954235 600.9553838012812,1044.8045958954235 600.9553838012812,1035.6859132986863 594.5964937682104,1035.6859132986863 594.5964937682104,1024.4454537505314 592.340733019413"/>
<path d="M1044.6662817686072 602.5363204141246 L1052.024595844685 591.7756356422263,1052.024595844685 591.7756356422263,1055.0198917671623 579.6262415567043,1055.0198917671623 579.6262415567043,1053.3963662764957 567.674098396734"/>
<path d="M1074.1802857557043 559.8490363172373 L1076.2538105245537 547.0419459393617,1076.2538105245537 547.0419459393617,1073.6230816938173 534.8420403679593,1073.6230816938173 534.8420403679593,1066.7379076921134 524.8511278602153"/>
<path d="M1074.1802857557043 559.8490363172373 L1080.9531333908385 547.8705649362264,1080.9531333908385 547.8705649362264,1078.3643843498965 535.678061834067,1078.3643843498965 535.678061834067,1071.5219485288133 525.6946852376565,1071.5219485288133 525.6946852376565,1061.4040737824316 519.284846737928"/>
<path d="M1080.9531333908385 547.8705649362264 L1083.1056886251433 534.8420403679593,1083.1056886251433 534.8420403679593,1080.5130048558758 522.4222064628257,1080.5130048558758 522.4222064628257,1073.6278768607633 512.2274331286295,1073.6278768607633 512.2274331286295,1063.4364536031228 505.6351452210666,1063.4364536031228 505.6351452210666,1051.3485362338217 503.61245987237226"/>
<path d="M1084.9285884745846 495.1803897620462 L1077.9567936270678 484.5443328614816,1077.9567936270678 484.5443328614816,1067.6152469977412 477.5698837271401,1067.6152469977412 477.5698837271401,1055.3385683807603 475.24409117227856"/>
<path d="M1077.9567936270678 486.27833873048803 L1085.1449597384642 472.9398158324558,1085.1449597384642 472.9398158324558,1087.458997331829 458.46610524154516,1087.458997331829 458.46610524154516,1084.7595574903614 444.6083178797545"/>
<path d="M1106.9234688453112 433.07637980154715 L1110.3054570325437 417.81424621246236,1110.3054570325437 417.81424621246236,1108.5064762599368 402.8969656615293,1108.5064762599368 402.8969656615293,1101.9146616887306 390.1080283300916"/>
<path d="M1106.9234688453112 433.07637980154715 L1115.406652363065 418.99196522829806,1115.406652363065 418.99196522829806,1113.657711853411 404.0862379427096,1113.657711853411 404.0862379427096,1107.1169325713188 391.3090827785057,1107.1169325713188 391.3090827785057,1096.767562229896 382.2200667859383"/>
<path d="M1115.406652363065 418.99196522829806 L1118.9050433071006 403.44194566608786,1118.9050433071006 403.44194566608786,1117.1734310661304 388.2344925642744,1117.1734310661304 388.2344925642744,1110.6023878587857 375.17086963260283,1110.6023878587857 375.17086963260283,1100.1836337725247 365.8268759900768,1100.1836337725247 365.8268759900768,1087.4020596824053 361.357297260192"/>
<path d="M1124.4180801302514 355.569688492384 L1117.7868136163809 341.90577069606036,1117.7868136163809 341.90577069606036,1107.2272165547413 332.02583747438507,1107.2272165547413 332.02583747438507,1094.2526127199558 327.11075866177913"/>
<path d="M1117.6867967049031 343.81419219031227 L1126.8060820174508 327.9372076799612,1126.8060820174508 327.9372076799612,1130.6420838752551 310.46558644544695,1130.6420838752551 310.46558644544695,1128.9246635633851 293.3177034982908"/>
</g>
<g fill="none" stroke-width="2" stroke="#00ff00">
<path d="M1036.7466632273363 664.9809564158024 L1039.4471364600222 654.1188027640384,1039.4471364600222 654.1188027640384,1037.7891012143893 643.46368662957,1037.7891012143893 643.46368662957,1040.5428529768947 632.2439822345757,1040.5428529768947 632.2439822345757,1047.6827348025504 622.0001443633348,1047.6827348025504 622.0001443633348,1050.5659746934202 610.4113127966424,1050.5659746934202 610.4113127966424,1044.8045958954235 600.9553838012812,1044.8045958954235 600.9553838012812,1035.6859132986863 594.5964937682104,1035.6859132986863 594.5964937682104,1029.6968023852808 584.8410307570359,1029.6968023852808 584.8410307570359,1027.8529576434885 572.9342516392522"/>
<path d="M1050.5659746934202 610.4113127966424 L1048.945982652803 599.024224187347,1048.945982652803 599.024224187347,1043.1214813129618 589.3900490511769"/>
<path d="M1036.7466632273363 664.9809564158024 L1043.6814353391176 655.2533803218494,1043.6814353391176 655.2533803218494,1042.0581252221032 644.6075687126273,1042.0581252221032 644.6075687126273,1036.3693142759926 635.6689602321529,1036.3693142759926 635.6689602321529,1034.6579695920313 624.6823364167734,1034.6579695920313 624.6823364167734,1037.431700861858 613.1160590262651,1037.431700861858 613.1160590262651,1044.6662817686072 602.5363204141246,1044.6662817686072 602.5363204141246,1052.024595844685 591.7756356422263,1052.024595844685 591.7756356422263,1055.0198917671623 579.6262415567043,1055.0198917671623 579.6262415567043,1062.5963248127866 568.478988837565,1062.5963248127866 568.478988837565,1074.1802857557043 559.8490363172373,1074.1802857557043 559.8490363172373,1076.2538105245537 547.0419459393617,1076.2538105245537 547.0419459393617,1073.6230816938173 534.8420403679593,1073.6230816938173 534.8420403679593,1075.728964019176 521.5786490853844,1075.728964019176 521.5786490853844,1082.7007160182384 508.9251878205978,1082.7007160182384 508.9251878205978,1084.9285884745846 495.1803897620462,1084.9285884745846 495.1803897620462,1077.9567936270678 484.5443328614816,1077.9567936270678 484.5443328614816,1067.6152469977412 477.5698837271401,1067.6152469977412 477.5698837271401,1060.3484030601016 466.5667957784916,1060.3484030601016 466.5667957784916,1057.390617079409 452.7862308225113"/>
<path d="M1084.9285884745846 495.1803897620462 L1082.280737526069 482.0479028194588,1082.280737526069 482.0479028194588,1075.218984577234 471.189594956079"/>
<path d="M1074.1802857557043 559.8490363172373 L1080.9531333908385 547.8705649362264,1080.9531333908385 547.8705649362264,1078.3643843498965 535.678061834067,1078.3643843498965 535.678061834067,1071.5219485288133 525.6946852376565,1071.5219485288133 525.6946852376565,1068.8003202917396 513.0786635210574,1068.8003202917396 513.0786635210574,1070.9005939948584 499.37199231381055,1070.9005939948584 499.37199231381055,1077.9567936270678 486.27833873048803,1077.9567936270678 486.27833873048803,1085.1449597384642 472.9398158324558,1085.1449597384642 472.9398158324558,1087.458997331829 458.46610524154516,1087.458997331829 458.46610524154516,1094.8747100759945 444.6083178797545,1094.8747100759945 444.6083178797545,1106.9234688453112 433.07637980154715,1106.9234688453112 433.07637980154715,1110.3054570325437 417.81424621246236,1110.3054570325437 417.81424621246236,1108.5064762599368 402.8969656615293,1108.5064762599368 402.8969656615293,1111.9711601835422 387.0334381158602,1111.9711601835422 387.0334381158602,1120.7595118505362 372.06551446132505,1120.7595118505362 372.06551446132505,1124.4180801302514 355.569688492384,1124.4180801302514 355.569688492384,1117.7868136163809 341.90577069606036,1117.7868136163809 341.90577069606036,1107.2272165547413 332.02583747438507,1107.2272165547413 332.02583747438507,1100.2785304064262 317.8316618618466,1100.2785304064262 317.8316618618466,1098.2412864652333 300.761366922059"/>
<path d="M1124.4180801302514 355.569688492384 L1122.6897168269875 339.4076075196106,1122.6897168269875 339.4076075196106,1115.9722137329275 325.4360095758587"/>
<path d="M1106.9234688453112 433.07637980154715 L1115.406652363065 418.99196522829806,1115.406652363065 418.99196522829806,1113.657711853411 404.0862379427096,1113.657711853411 404.0862379427096,1107.1169325713188 391.3090827785057,1107.1169325713188 391.3090827785057,1105.250046687256 375.8280557237762,1105.250046687256 375.8280557237762,1108.75185421644 359.3702589127286,1108.75185421644 359.3702589127286,1117.6867967049031 343.81419219031227,1117.6867967049031 343.81419219031227,1126.8060820174508 327.9372076799612,1126.8060820174508 327.9372076799612,1130.6420838752551 310.46558644544695,1130.6420838752551 310.46558644544695,1140.0899372432543 293.9028660417235,1140.0899372432543 293.9028660417235,1154.550369789523 280.11207231339506"/>
<path d="M1117.6867967049031 343.81419219031227 L1131.4686054331275 330.9650966166393,1131.4686054331275 330.9650966166393,1140.8266035577985 314.78865567265393"/>
<path d="M1115.406652363065 418.99196522829806 L1118.9050433071006 403.44194566608786,1118.9050433071006 403.44194566608786,1117.1734310661304 388.2344925642744"/>
<path d="M1118.9050433071006 403.44194566608786 L1127.6750153301257 388.78484297723514,1127.6750153301257 388.78484297723514,1141.1430642684472 376.7714404381058,1141.1430642684472 376.7714404381058,1150.3150846114447 361.54848272630903"/>
<path d="M1106.9234688453112 433.07637980154715 L1119.7974095795753 421.8433383288551,1119.7974095795753 421.8433383288551,1128.4901106335822 407.510562634922"/>
<path d="M1077.9567936270678 486.27833873048803 L1089.5093359361817 475.45959045032737,1089.5093359361817 475.45959045032737,1096.874407301929 461.8930225138109"/>
<path d="M1080.9531333908385 547.8705649362264 L1083.1056886251433 534.8420403679593,1083.1056886251433 534.8420403679593,1080.5130048558758 522.4222064628257"/>
<path d="M1083.1056886251433 534.8420403679593 L1090.0810881630384 522.4222064628257,1090.0810881630384 522.4222064628257,1101.4286699623842 512.2274331286295,1101.4286699623842 512.2274331286295,1108.7003285800001 499.37199231381055"/>
<path d="M1074.1802857557043 559.8490363172373 L1085.0856477267248 550.256473074299,1085.0856477267248 550.256473074299,1092.0164218219156 538.0852844866217"/>
<path d="M1044.6662817686072 602.5363204141246 L1055.799732315275 594.4190137341604,1055.799732315275 594.4190137341604,1063.3175436281238 583.4955009971234"/>
<path d="M1043.6814353391176 655.2533803218494 L1046.4609259848878 644.222372933367,1046.4609259848878 644.222372933367,1044.8471760972811 633.3973212173221"/>
<path d="M1046.4609259848878 644.222372933367 L1053.590705250708 634.1622823563513,1053.590705250708 634.1622823563513,1064.5200852765802 626.5116981642128,1064.5200852765802 626.5116981642128,1071.9215926141906 616.1335344336311"/>
</g>
</svg>