<?xml version="1.0" encoding="utf-8"?>
<!-- Generator: https://github.com/anvaka/l-system -->
<!DOCTYPE svg PUBLIC "-//W3C//DTD SVG 1.1//EN" "http://www.w3.org/Graphics/SVG/1.1/DTD/svg11.dtd">
<svg version="1.1" xmlns="http://www.w3.org/2000/svg" xmlns:xlink="http://www.w3.org/1999/xlink"
    viewBox="0 0 1680 909">
<style>
  path {
   vector-effect: non-scaling-stroke;
  }
</style>

<rect id="background" fill="#0c2952" x="0" y="0" width="1680" height="909"></rect>
<g fill="none" stroke-width="4" stroke="#00ff00">
<path d="M925.1561197909275 488.08669603839326 L918.4010157742741 475.6262540339445"/>
<path d="M925.1561197909275 488.08669603839326 L919.0749134417746 475.26035765490207"/>
<path d="M925.1561197909275 488.08669603839326 L923.433194922883 473.84426621227425"/>
<path d="M925.1561197909275 488.08669603839326 L925.7244788513557 473.6639381888706"/>
<path d="M928.0758642474306 413.99485830660876 L928.6840051797626 398.56259019285443"/>
<path d="M930.5598824759336 350.9600693889965 L931.2029356357594 334.64186377870396,931.2029356357594 334.64186377870396,931.8551865702292 318.0902541714024"/>
<path d="M923.8777035550365 285.65796601830345 L919.801507397471 269.0862702240102"/>
<path d="M898.4567194646855 222.0591318988153 L889.6580988777763 206.61222536036678"/>
<path d="M943.2475649159647 268.3854606826182 L948.7314339245577 251.56461037692608"/>
<path d="M974.4950444040953 203.78767736860286 L984.8240705068823 188.08499239245532"/>
<path d="M923.986663552761 459.13827391782416 L923.390068790611 444.3703238058315"/>
<path d="M922.7853481057481 429.40121704888963 L922.172333284985 414.2268058413841,922.172333284985 414.2268058413841,921.5508530484622 398.8428503719612,921.5508530484622 398.8428503719612,916.525800389505 384.2596219338119"/>
<path d="M911.4303824188515 369.47218687380024 L902.3017874654955 356.76329093834323"/>
<path d="M920.9207314691744 383.2449731972911 L924.812837154976 367.74551972256336"/>
<path d="M928.7598274255918 352.0275063241666 L937.0635241677285 337.7371291077738"/>
<path d="M912.2287389721569 462.6211290038029 L905.6338737653813 449.6299498670034"/>
<path d="M898.9491806952651 436.4618097858754 L892.1728068113955 423.1130747405045,892.1728068113955 423.1130747405045,881.5417446431056 412.46600124247163"/>
<path d="M892.1728068113955 423.1130747405045 L885.3028514982701 409.5800006087036,885.3028514982701 409.5800006087036,874.7350966844625 398.57324857797175"/>
<path d="M864.0193597532846 387.4123707627763 L850.4639028578877 379.79465900712165"/>
<path d="M878.3373694330802 395.85873572015555 L875.5425425650141 380.39184351410245"/>
<path d="M872.7083074148949 364.70685051168743 L874.434124728856 348.55799666919955"/>
<path d="M890.4541525329967 424.0755681176733 L883.2262300088213 410.7429637034799"/>
<path d="M860.9309115378393 369.6170920897234 L853.2880475715481 355.5191003727942,853.2880475715481 355.5191003727942,845.535865519621 341.21944763071735"/>
<path d="M822.3267354619968 317.85787495562204 L810.4677398512612 305.92098990796757"/>
<path d="M768.3359775182116 277.0299919431153 L752.9470081490566 268.45135927648306"/>
<path d="M830.4222128161197 293.5910459399911 L826.717252133299 276.6638740430476"/>
<path d="M825.0056841015028 223.58674045074235 L826.0531737005217 205.22882421283944"/>
<path d="M837.6720098316925 326.71380382695776 L829.6940362292962 311.9976566526589,829.6940362292962 311.9976566526589,821.5994494443581 297.06641881778694,821.5994494443581 297.06641881778694,809.6477906360502 284.8885805110922"/>
<path d="M797.5188372661811 272.530084739133 L782.4629338925276 263.9819270731719"/>
<path d="M813.385680927527 281.91532696919694 L809.526883486967 264.77601048528805"/>
<path d="M805.6104180285582 247.38055451125777 L806.5040040953901 229.33998165324934"/>
<path d="M868.4667471838978 383.51767120960324 L856.3918232568744 373.59776762413657"/>
<path d="M868.4667471838978 383.51767120960324 L859.9033998799936 370.2653994028393"/>
<path d="M843.6572403035854 364.19071885813565 L830.9863404590409 354.31989985220116"/>
<path d="M818.1328997489383 344.3068928592586 L805.0929447511314 334.1485880958819,805.0929447511314 334.1485880958819,789.5842831378483 328.31283019213987"/>
<path d="M805.0929447511314 334.1485880958819 L791.8623861328713 323.8418004837613,791.8623861328713 323.8418004837613,776.2316087524933 317.61978248432615"/>
<path d="M760.3689824507319 311.30546801510735 L743.3858788885856 309.6631973851596"/>
<path d="M778.4370144646085 313.3832376227989 L768.1850056633482 299.33765668506993"/>
<path d="M757.7797851333974 285.0821707640692 L751.5101000743147 268.2815560635628"/>
</g>
<g fill="none" stroke-width="4" stroke="#008000">
<path d="M925.7244788513557 473.6639381888706 L926.3004757075779 459.0473625806239,926.3004757075779 459.0473625806239,926.8842652972135 444.2330374952708,926.8842652972135 444.2330374952708,927.476007031185 429.2169176992755,927.476007031185 429.2169176992755,928.0758642474306 413.99485830660876,928.0758642474306 413.99485830660876,924.253816083674 399.2246820048236,924.253816083674 399.2246820048236,916.3074777478017 386.19096270165767"/>
<path d="M927.476007031185 429.2169176992755 L932.4756738030164 414.65241631410197,932.4756738030164 414.65241631410197,941.5874161211825 401.8152096833736"/>
<path d="M926.8842652972135 444.2330374952708 L923.1061632049688 429.8699972844533,923.1061632049688 429.8699972844533,915.2609370449248 417.22517331228346"/>
<path d="M928.6840051797626 398.56259019285443 L929.3006028767273 382.9157220542571,929.3006028767273 382.9157220542571,929.9258344351076 367.0497598584483,929.9258344351076 367.0497598584483,930.5598824759336 350.9600693889965,930.5598824759336 350.9600693889965,931.2029356357594 334.64186377870396,931.2029356357594 334.64186377870396,927.2665818366273 318.7760278958515,927.2665818366273 318.7760278958515,919.0557508447419 304.69339875439175"/>
<path d="M931.2029356357594 334.64186377870396 L931.8551865702292 318.0902541714024,931.8551865702292 318.0902541714024,932.5168334699829 301.30021125408024,932.5168334699829 301.30021125408024,937.8432712090446 284.9622411447558,937.8432712090446 284.9622411447558,943.2475649159647 268.3854606826182,943.2475649159647 268.3854606826182,944.0076989450835 250.85864130290227,944.0076989450835 250.85864130290227,940.0203394237583 233.78302416057977"/>
<path d="M931.8551865702292 318.0902541714024 L927.8951763175735 301.99092471112,927.8951763175735 301.99092471112,923.8777035550365 285.65796601830345,923.8777035550365 285.65796601830345,915.5220892659506 271.12745017921316,915.5220892659506 271.12745017921316,903.5220595727982 259.60973063867704"/>
<path d="M930.5598824759336 350.9600693889965 L926.6469139476793 335.32276791909044,926.6469139476793 335.32276791909044,918.4903727347019 321.45918821034354"/>
<path d="M919.801507397471 269.0862702240102 L915.665291652262 252.27057945095,915.665291652262 252.27057945095,907.1248214555889 237.27687879364103,907.1248214555889 237.27687879364103,898.4567194646855 222.0591318988153,898.4567194646855 222.0591318988153,886.057182805692 209.9118672117014,886.057182805692 209.9118672117014,870.9718763446965 201.82048826894382"/>
<path d="M889.6580988777763 206.61222536036678 L880.7259926684244 190.9309947945014"/>
<path d="M948.7314339245577 251.56461037692608 L954.2966488698617 234.49422930670698,954.2966488698617 234.49422930670698,964.3203843506865 219.2556617052747,964.3203843506865 219.2556617052747,974.4950444040953 203.78767736860286,974.4950444040953 203.78767736860286,980.3823426675863 185.96640837033618,980.3823426675863 185.96640837033618,981.4553725405149 167.13975132942625"/>
<path d="M984.8240705068823 188.08499239245532 L995.3109989976186 172.1422851865708"/>
<path d="M925.1561197909275 488.08669603839326 L918.7355701096191 475.43889517289443,918.7355701096191 475.43889517289443,912.2287389721569 462.6211290038029,912.2287389721569 462.6211290038029,902.1290730016523 452.2710058318932,902.1290730016523 452.2710058318932,889.2947779587968 445.35444145230616"/>
<path d="M925.1561197909275 488.08669603839326 L919.4188146370291 475.0907640745378,919.4188146370291 475.0907640745378,913.6044096914236 461.92018850700794,913.6044096914236 461.92018850700794,904.0731192735226 451.0254381314085,904.0731192735226 451.0254381314085,891.6314249632667 443.4160058555809"/>
<path d="M925.1561197909275 488.08669603839326 L919.7670374860993 474.93023234122893"/>
<path d="M925.1561197909275 488.08669603839326 L921.1983298745805 474.38081032881365"/>
<path d="M925.1561197909275 488.08669603839326 L922.3052218034763 474.0686345781103,922.3052218034763 474.0686345781103,919.4160125121784 459.86219380214885,919.4160125121784 459.86219380214885,912.4187796395973 447.10750583017153,912.4187796395973 447.10750583017153,901.8925121292222 436.9596577107806"/>
<path d="M925.1561197909275 488.08669603839326 L924.5752943335106 473.7090904718636,924.5752943335106 473.7090904718636,923.986663552761 459.13827391782416,923.986663552761 459.13827391782416,919.1140578165744 445.357517701141,919.1140578165744 445.357517701141,910.3486551494051 433.59824079266565"/>
<path d="M923.390068790611 444.3703238058315 L922.7853481057481 429.40121704888963"/>
<path d="M922.172333284985 414.2268058413841 L921.5508530484622 398.8428503719612,921.5508530484622 398.8428503719612,920.9207314691744 383.2449731972911"/>
<path d="M916.525800389505 384.2596219338119 L911.4303824188515 369.47218687380024"/>
<path d="M902.3017874654955 356.76329093834323 L893.0435528340603 343.8739195668039"/>
<path d="M924.812837154976 367.74551972256336 L928.7598274255918 352.0275063241666"/>
<path d="M937.0635241677285 337.7371291077738 L945.4859910771162 323.2423525082178"/>
<path d="M923.433194922883 473.84426621227425 L921.6871168243773 459.41044193465814,921.6871168243773 459.41044193465814,919.9174155695698 444.7813406650021,919.9174155695698 444.7813406650021,918.1236086626839 429.95296768894195,918.1236086626839 429.95296768894195,920.7537048500608 414.8824062961474,920.7537048500608 414.8824062961474,927.7150500161032 400.8759467776761"/>
<path d="M919.9174155695698 444.7813406650021 L913.9097275714378 431.28159694809784,913.9097275714378 431.28159694809784,904.1533777061439 420.11647227616487"/>
<path d="M919.0749134417746 475.26035765490207 L912.9119858436604 462.2616547219911,912.9119858436604 462.2616547219911,906.665678509687 449.08708851173583,906.665678509687 449.08708851173583,897.7137752130335 437.43485068658066,897.7137752130335 437.43485068658066,888.6390968054064 425.6228049589882,888.6390968054064 425.6228049589882,876.4128676863127 416.9501899582671,876.4128676863127 416.9501899582671,862.0747961042534 412.2281256528111"/>
<path d="M906.665678509687 449.08708851173583 L900.3342879648518 435.73306815275066,900.3342879648518 435.73306815275066,893.9160652812375 422.1959003135845,893.9160652812375 422.1959003135845,883.7624674417001 411.07298529977305,883.7624674417001 411.07298529977305,870.7218359167323 403.3738494599652"/>
<path d="M900.3342879648518 435.73306815275066 L898.1348481424351 420.78431224914436,898.1348481424351 420.78431224914436,900.3828906448247 405.5118690407599"/>
<path d="M906.665678509687 449.08708851173583 L896.7372187792863 438.2988335690626,896.7372187792863 438.2988335690626,883.9644127498226 430.89198494223643"/>
<path d="M905.6338737653813 449.6299498670034 L898.9491806952651 436.4618097858754"/>
<path d="M892.1728068113955 423.1130747405045 L881.8185441418354 412.1818570878156,881.8185441418354 412.1818570878156,871.3203004321142 401.09862879247345,871.3203004321142 401.09862879247345,857.9732986695213 393.5114195295996,857.9732986695213 393.5114195295996,842.9112084499397 390.12899698040724"/>
<path d="M892.1728068113955 423.1130747405045 L884.2803513129154 410.18832424002466,884.2803513129154 410.18832424002466,876.2781506865055 397.08384202677803,876.2781506865055 397.08384202677803,864.762052314169 386.8055680836157,864.762052314169 386.8055680836157,850.6935754904036 380.28244030851573"/>
<path d="M892.1728068113955 423.1130747405045 L885.3028514982701 409.5800006087036,885.3028514982701 409.5800006087036,878.3373694330802 395.85873572015555,878.3373694330802 395.85873572015555,871.2743538953413 381.94534067862776,871.2743538953413 381.94534067862776,864.1117352850081 367.83573840223744,864.1117352850081 367.83573840223744,861.1761996171392 351.9502088318349,861.1761996171392 351.9502088318349,862.8318858318416 335.5946465607138"/>
<path d="M871.2743538953413 381.94534067862776 L860.4586581996757 370.58853677961076,860.4586581996757 370.58853677961076,846.7816619835695 362.7972619466234"/>
<path d="M874.7350966844625 398.57324857797175 L864.0193597532846 387.4123707627763"/>
<path d="M850.4639028578877 379.79465900712165 L836.7159352709215 372.06876886283544"/>
<path d="M875.5425425650141 380.39184351410245 L872.7083074148949 364.70685051168743"/>
<path d="M874.434124728856 348.55799666919955 L876.1846302519656 332.1781745040566"/>
<path d="M881.5417446431056 412.46600124247163 L870.7628523993502 401.6708682681995,870.7628523993502 401.6708682681995,859.8330247998009 390.7245793241686,859.8330247998009 390.7245793241686,846.7798688343853 382.1902416387808,846.7798688343853 382.1902416387808,833.5413423365375 373.5346946255831,833.5413423365375 373.5346946255831,818.3006376959798 369.0260955467802,818.3006376959798 369.0260955467802,802.3519054130511 369.0999139226137"/>
<path d="M859.8330247998009 390.7245793241686 L848.7490693018776 379.62393060221916,848.7490693018776 379.62393060221916,837.5077026640096 368.3656265152955,837.5077026640096 368.3656265152955,823.4444024884335 360.74680958722047,823.4444024884335 360.74680958722047,807.7344706405255 357.4625126628128"/>
<path d="M848.7490693018776 379.62393060221916 L841.137764720997 365.52951841156266,841.137764720997 365.52951841156266,837.7490083617104 349.5708237692128"/>
<path d="M859.8330247998009 390.7245793241686 L846.1254506441119 383.3708485873123,846.1254506441119 383.3708485873123,830.7996750229785 380.2938372643077"/>
<path d="M918.4010157742741 475.6262540339445 L911.5551344503878 462.9983645158365,911.5551344503878 462.9983645158365,904.6166343429768 450.1996309151958,904.6166343429768 450.1996309151958,897.5836208093111 437.22655774427335,897.5836208093111 437.22655774427335,890.4541525329967 424.0755681176733,890.4541525329967 424.0755681176733,879.7206221808221 413.53145134712764,879.7206221808221 413.53145134712764,866.2830364627252 406.55795972142516"/>
<path d="M897.5836208093111 437.22655774427335 L894.5932758344978 422.4451192398228,894.5932758344978 422.4451192398228,896.0272220983259 407.108111903752"/>
<path d="M904.6166343429768 450.1996309151958 L894.1257641824141 439.9770623502355,894.1257641824141 439.9770623502355,880.9712568619289 433.28056511045816"/>
<path d="M883.2262300088213 410.7429637034799 L875.8977965071398 397.2249626744148,875.8977965071398 397.2249626744148,868.4667471838978 383.51767120960324,868.4667471838978 383.51767120960324,856.1494537262474 373.9223304322968,856.1494537262474 373.9223304322968,843.6572403035854 364.19071885813565,843.6572403035854 364.19071885813565,828.8440238268146 358.4352517215486,828.8440238268146 358.4352517215486,812.9658302164314 357.1916126498235"/>
<path d="M868.4667471838978 383.51767120960324 L856.6426001930075 373.2796456541034,856.6426001930075 373.2796456541034,844.6505301202941 362.89623536303924,844.6505301202941 362.89623536303924,830.1321755896072 356.36187927159136,830.1321755896072 356.36187927159136,814.3137772274572 354.27727001344533"/>
<path d="M868.4667471838978 383.51767120960324 L858.9299226305334 370.992329815797,858.9299226305334 370.992329815797,849.257652267769 358.28910656948483,849.257652267769 358.28910656948483,836.3125931389899 348.8248343298421,836.3125931389899 348.8248343298421,821.1692761600195 343.4419841273292"/>
<path d="M868.4667471838978 383.51767120960324 L860.9309115378393 369.6170920897234,860.9309115378393 369.6170920897234,853.2880475715481 355.5191003727942,853.2880475715481 355.5191003727942,841.9049034263978 344.10764660455555,841.9049034263978 344.10764660455555,827.7109633633347 336.3829427555613"/>
<path d="M853.2880475715481 355.5191003727942 L845.535865519621 341.21944763071735,845.535865519621 341.21944763071735,837.6720098316925 326.71380382695776,837.6720098316925 326.71380382695776,834.0734114864936 310.2725778594015,834.0734114864936 310.2725778594015,830.4222128161197 293.5910459399911,830.4222128161197 293.5910459399911,822.2733927677983 278.41435375794396,822.2733927677983 278.41435375794396,810.2380886330941 266.00785345165815"/>
<path d="M845.535865519621 341.21944763071735 L834.0148933654633 329.6228069379194,834.0148933654633 329.6228069379194,822.3267354619968 317.85787495562204,822.3267354619968 317.85787495562204,807.7822381264308 309.82841420743813,807.7822381264308 309.82841420743813,791.5873525796071 306.2358554520756"/>
<path d="M860.9309115378393 369.6170920897234 L849.682868436335 358.3867773543121,849.682868436335 358.3867773543121,835.6460635430866 350.81943637815453"/>
<path d="M810.4677398512612 305.92098990796757 L798.4341197616199 293.80834113677787,798.4341197616199 293.80834113677787,783.4966585158407 285.481387853447,783.4966585158407 285.481387853447,768.3359775182116 277.0299919431153,768.3359775182116 277.0299919431153,751.4783491706122 273.1093704602903,751.4783491706122 273.1093704602903,734.3220141495317 274.0502025931385"/>
<path d="M752.9470081490566 268.45135927648306 L737.3245816147675 259.74256123405456"/>
<path d="M826.717252133299 276.6638740430476 L822.9573330581694 259.4856221641834,822.9573330581694 259.4856221641834,823.9738555595948 241.67030305561582,823.9738555595948 241.67030305561582,825.0056841015028 223.58674045074235,825.0056841015028 223.58674045074235,821.1472246270223 205.61494041075818,821.1472246270223 205.61494041075818,812.6160775072735 189.18576642858406"/>
<path d="M826.0531737005217 205.22882421283944 L827.1166693791754 186.5902659489714"/>
<path d="M829.6940362292962 311.9976566526589 L821.5994494443581 297.06641881778694,821.5994494443581 297.06641881778694,813.385680927527 281.91532696919694"/>
<path d="M809.6477906360502 284.8885805110922 L797.5188372661811 272.530084739133"/>
<path d="M782.4629338925276 263.9819270731719 L767.1803196082967 255.30506177874855"/>
<path d="M809.526883486967 264.77601048528805 L805.6104180285582 247.38055451125777"/>
<path d="M806.5040040953901 229.33998165324934 L807.4111323662916 211.02573584505117"/>
<path d="M859.9033998799936 370.2653994028393 L851.2184318204365 356.82492207957506,851.2184318204365 356.82492207957506,842.4092468537207 343.19220173622153,842.4092468537207 343.19220173622153,833.4731472740851 329.3630848708149,833.4731472740851 329.3630848708149,828.6379064225722 313.26992891633995,828.6379064225722 313.26992891633995,828.4149063709407 296.1998397606598"/>
<path d="M842.4092468537207 343.19220173622153 L830.0555408835479 332.5500534273876,830.0555408835479 332.5500534273876,815.169139530328 325.8297688684109"/>
<path d="M856.3918232568744 373.59776762413657 L844.1454081374944 363.5369705987239,844.1454081374944 363.5369705987239,831.7238357074117 353.33228448161225,831.7238357074117 353.33228448161225,817.3966250384074 345.7982654557786,817.3966250384074 345.7982654557786,802.8615212357485 338.1549208531431,802.8615212357485 338.1549208531431,786.7277448127272 334.9339659004752,786.7277448127272 334.9339659004752,770.3563931616932 336.44179780621323"/>
<path d="M831.7238357074117 353.33228448161225 L819.1233142954563 342.98057362289984,819.1233142954563 342.98057362289984,806.3399418812929 332.4786501097655,806.3399418812929 332.4786501097655,791.071092183039 325.97005834336755,791.071092183039 325.97005834336755,774.5843935179713 324.0374501253088"/>
<path d="M819.1233142954563 342.98057362289984 L809.7257911619425 329.2089768055405,809.7257911619425 329.2089768055405,804.4154355941721 313.0835819086001"/>
<path d="M831.7238357074117 353.33228448161225 L816.8578048990881 347.067656721661,816.8578048990881 347.067656721661,800.7974351304108 345.3161634120821"/>
<path d="M830.9863404590409 354.31989985220116 L818.1328997489383 344.3068928592586"/>
<path d="M805.0929447511314 334.1485880958819 L789.7192436291189 327.9152268715317,789.7192436291189 327.9152268715317,774.1191865515334 321.5900971000408,774.1191865515334 321.5900971000408,757.3696087938247 319.8943537754427,757.3696087938247 319.8943537754427,740.8764242191645 322.99429765617623"/>
<path d="M805.0929447511314 334.1485880958819 L791.1627394543033 324.8888968933787,791.1627394543033 324.8888968933787,777.0274191647744 315.4928621873627,777.0274191647744 315.4928621873627,760.8023613723022 310.3865769715665,760.8023613723022 310.3865769715665,743.8281190801216 310.02499593639055"/>
<path d="M805.0929447511314 334.1485880958819 L791.8623861328713 323.8418004837613,791.8623861328713 323.8418004837613,778.4370144646085 313.3832376227989,778.4370144646085 313.3832376227989,764.8124943515916 302.76954847568464,764.8124943515916 302.76954847568464,750.9843618227487 291.99724244737797,750.9843618227487 291.99724244737797,740.3713108910041 277.57915924292195,740.3713108910041 277.57915924292195,733.9220107185458 260.59419793184685"/>
<path d="M764.8124943515916 302.76954847568464 L748.7460112869377 296.29708660715573,748.7460112869377 296.29708660715573,731.5475473189169 294.5294630361114"/>
<path d="M776.2316087524933 317.61978248432615 L760.3689824507319 311.30546801510735"/>
<path d="M743.3858788885856 309.6631973851596 L726.1470751450282 307.996200857141"/>
<path d="M768.1850056633482 299.33765668506993 L757.7797851333974 285.0821707640692"/>
<path d="M751.5101000743147 268.2815560635628 L745.1452947734705 251.22606645950802"/>
<path d="M789.5842831378483 328.31283019213987 L773.8472645627081 322.391144467152,773.8472645627081 322.391144467152,757.8768072164679 316.38161734410073,757.8768072164679 316.38161734410073,740.9549355958003 313.63548419270944,740.9549355958003 313.63548419270944,723.7782576121751 310.84801826686487,723.7782576121751 310.84801826686487,706.5556560008166 312.93469657503704,706.5556560008166 312.93469657503704,690.7250221609959 319.7275790872942"/>
<path d="M757.8768072164679 316.38161734410073 L741.667678461977 310.28226651370403,741.667678461977 310.28226651370403,725.214489236239 304.0910933707582,725.214489236239 304.0910933707582,707.699464178764 302.65962086625876,707.699464178764 302.65962086625876,690.5639122635293 306.1225779624728"/>
<path d="M741.667678461977 310.28226651370403 L727.3937455592828 299.7201791289057,727.3937455592828 299.7201791289057,716.2907341775764 285.42817736077745"/>
<path d="M757.8768072164679 316.38161734410073 L740.8675981584737 315.0633617735226,740.8675981584737 315.0633617735226,724.239780180017 318.5675606633228"/>
</g>
<g fill="none" stroke-width="4" stroke="#90ee90">
<path d="M928.0758642474306 413.99485830660876 L928.6840051797626 398.56259019285443,928.6840051797626 398.56259019285443,933.7615939690522 383.5824237323763,933.7615939690522 383.5824237323763,943.0099299674898 370.34793186071175"/>
<path d="M930.5598824759336 350.9600693889965 L931.2029356357594 334.64186377870396,931.2029356357594 334.64186377870396,931.8551865702292 318.0902541714024,931.8551865702292 318.0902541714024,937.1384906223924 301.99092471112,937.1384906223924 301.99092471112,946.7468304297912 287.6843363548159"/>
<path d="M931.2029356357594 334.64186377870396 L936.4437913038308 318.7760278958515,936.4437913038308 318.7760278958515,945.977916095224 304.69339875439175"/>
<path d="M923.8777035550365 285.65796601830345 L919.801507397471 269.0862702240102,919.801507397471 269.0862702240102,920.3890257703948 251.56461037692608,920.3890257703948 251.56461037692608,925.7440299776548 234.49422930670698"/>
<path d="M898.4567194646855 222.0591318988153 L889.6580988777763 206.61222536036678,889.6580988777763 206.61222536036678,885.1677205077204 188.8123823731327,885.1677205077204 188.8123823731327,885.5129655896582 170.00750750433144"/>
<path d="M943.2475649159647 268.3854606826182 L948.7314339245577 251.56461037692608,948.7314339245577 251.56461037692608,958.6395475119594 236.5656736475139,958.6395475119594 236.5656736475139,972.2697399142786 224.61757050569915"/>
<path d="M974.4950444040953 203.78767736860286 L984.8240705068823 188.08499239245532,984.8240705068823 188.08499239245532,998.9669595911886 175.4923694825772,998.9669595911886 175.4923694825772,1015.8638534712198 167.0112267054942"/>
<path d="M923.986663552761 459.13827391782416 L923.390068790611 444.3703238058315,923.390068790611 444.3703238058315,927.19296090423 429.7094237988149,927.19296090423 429.7094237988149,935.2012037519429 416.44171578233096"/>
<path d="M919.4160125121784 459.86219380214885 L916.4877143779911 445.46354919250354,916.4877143779911 445.46354919250354,917.9210918080968 430.48368887567483,917.9210918080968 430.48368887567483,923.725587996393 416.22331707972904"/>
<path d="M913.6044096914236 461.92018850700794 L906.34577801166 449.3128652467922"/>
<path d="M913.6044096914236 461.92018850700794 L907.711341045043 448.5714267317291,907.711341045043 448.5714267317291,905.9633129380043 433.7490294311244,905.9633129380043 433.7490294311244,908.6399874763739 418.72334297123695"/>
<path d="M893.9160652812375 422.1959003135845 L887.4092070501181 408.47178799787577,887.4092070501181 408.47178799787577,885.0893182502696 393.1256245587819,885.0893182502696 393.1256245587819,887.2775024540748 377.44567329062465"/>
<path d="M906.665678509687 449.08708851173583 L898.0210512869404 437.1926103803287"/>
<path d="M906.665678509687 449.08708851173583 L899.310353109826 436.30649844443684"/>
<path d="M888.6390968054064 425.6228049589882 L878.2604347874436 414.7089163406269"/>
<path d="M888.6390968054064 425.6228049589882 L879.4391018099813 413.64764102499703,879.4391018099813 413.64764102499703,873.9975841455454 399.2166796005551,873.9975841455454 399.2166796005551,872.8964873438604 383.52331335591964"/>
<path d="M912.2287389721569 462.6211290038029 L905.6338737653813 449.6299498670034,905.6338737653813 449.6299498670034,903.101095337369 434.95063416275667,903.101095337369 434.95063416275667,904.976156373145 419.83717763814826"/>
<path d="M876.2781506865055 397.08384202677803 L868.163893021109 383.79586637519253,868.163893021109 383.79586637519253,864.0975073679979 368.4236496594735,864.0975073679979 368.4236496594735,864.5405779986875 352.23182980599586"/>
<path d="M892.1728068113955 423.1130747405045 L882.1026882964915 411.90505435782495"/>
<path d="M892.1728068113955 423.1130747405045 L883.3087305610032 410.87499302206663"/>
<path d="M871.3203004321142 401.09862879247345 L859.5989183222686 391.0553820979211"/>
<path d="M871.3203004321142 401.09862879247345 L860.6750545221385 389.8602103721065,860.6750545221385 389.8602103721065,853.556646823825 375.74251392668805,853.556646823825 375.74251392668805,850.6795411075263 359.8865848305225"/>
<path d="M837.5077026640096 368.3656265152955 L826.105547519869 356.94629835449507,826.105547519869 356.94629835449507,818.2214873297127 342.4854809606661,818.2214873297127 342.4854809606661,814.6172968515714 326.12803174171705"/>
<path d="M859.8330247998009 390.7245793241686 L846.9960262655853 381.84765636245965"/>
<path d="M859.8330247998009 390.7245793241686 L847.948003258265 380.53737475286607"/>
<path d="M833.5413423365375 373.5346946255831 L819.3295928014904 366.1990360060338"/>
<path d="M833.5413423365375 373.5346946255831 L820.1134546858395 364.7553448293204,820.1134546858395 364.7553448293204,809.495866812782 352.2698107115765,809.495866812782 352.2698107115765,802.6717336399387 337.0395282602219"/>
<path d="M890.4541525329967 424.0755681176733 L883.2262300088213 410.7429637034799,883.2262300088213 410.7429637034799,880.0944796272918 395.5718481027194,880.0944796272918 395.5718481027194,881.4469897080435 379.83192766060296"/>
<path d="M860.9309115378393 369.6170920897234 L853.2880475715481 355.5191003727942,853.2880475715481 355.5191003727942,845.535865519621 341.21944763071735,845.535865519621 341.21944763071735,842.0198330131363 325.0011510496022,842.0198330131363 325.0011510496022,843.1451675702908 308.17820505457513"/>
<path d="M853.2880475715481 355.5191003727942 L849.8526013372933 339.51904312600584,849.8526013372933 339.51904312600584,851.026243800362 322.9218508603109"/>
<path d="M822.3267354619968 317.85787495562204 L810.4677398512612 305.92098990796757,810.4677398512612 305.92098990796757,802.1720100530966 290.83508759488274,802.1720100530966 290.83508759488274,798.2300424123083 273.7619277055032"/>
<path d="M768.3359775182116 277.0299919431153 L752.9470081490566 268.45135927648306,752.9470081490566 268.45135927648306,740.1119395663353 255.68693539305227,740.1119395663353 255.68693539305227,730.9613891799142 239.64049292391724"/>
<path d="M830.4222128161197 293.5910459399911 L826.717252133299 276.6638740430476,826.717252133299 276.6638740430476,827.7541220164957 259.1080972679688,827.7541220164957 259.1080972679688,833.5391582797131 242.33918137927876"/>
<path d="M825.0056841015028 223.58674045074235 L826.0531737005217 205.22882421283944,826.0531737005217 205.22882421283944,831.9578572541901 187.66354975259162,831.9578572541901 187.66354975259162,842.3026163238367 172.28826361936686"/>
<path d="M849.257652267769 358.28910656948483 L839.4470433285072 345.40418546058913,839.4470433285072 345.40418546058913,833.5214726758347 329.96192073646995,833.5214726758347 329.96192073646995,832.0867601870461 313.1967654857812"/>
<path d="M868.4667471838978 383.51767120960324 L856.9016195541618 372.9682152925341"/>
<path d="M868.4667471838978 383.51767120960324 L858.0164784798864 371.7933958594097"/>
<path d="M844.6505301202941 362.89623536303924 L831.5213406198386 353.6933244139644"/>
<path d="M844.6505301202941 362.89623536303924 L832.486934013761 352.3642947753352,832.486934013761 352.3642947753352,823.5933869900041 338.5236070361928,823.5933869900041 338.5236070361928,818.8191621705095 322.4557083120466"/>
<path d="M806.3399418812929 332.4786501097655 L793.3697162867195 321.8232347902989,793.3697162867195 321.8232347902989,783.6442289039032 307.6930932594041,783.6442289039032 307.6930932594041,778.0616578337855 291.168918703833"/>
<path d="M831.7238357074117 353.33228448161225 L817.5796655877243 345.42711450472893"/>
<path d="M831.7238357074117 353.33228448161225 L818.4069549360372 343.9941800474899"/>
<path d="M802.8615212357485 338.1549208531431 L787.471525555648 331.9508396964158"/>
<path d="M802.8615212357485 338.1549208531431 L788.113959383279 330.3998543040836,788.113959383279 330.3998543040836,775.8200667916043 318.5709512960814,775.8200667916043 318.5709512960814,767.0831277805859 303.538523594346"/>
<path d="M843.6572403035854 364.19071885813565 L830.9863404590409 354.31989985220116,830.9863404590409 354.31989985220116,821.4082401478848 340.97388288908337,821.4082401478848 340.97388288908337,815.8276511497953 325.18827484287164"/>
<path d="M777.0274191647744 315.4928621873627 L762.6824053667126 305.9574485582207,762.6824053667126 305.9574485582207,751.2389887780803 292.56608275826727,751.2389887780803 292.56608275826727,743.7193894294337 276.31302677895"/>
<path d="M805.0929447511314 334.1485880958819 L789.8645741206312 327.5213036697427"/>
<path d="M805.0929447511314 334.1485880958819 L790.5473934901001 325.98766545459563"/>
<path d="M774.1191865515334 321.5900971000408 L757.8038346195825 316.8046668113173"/>
<path d="M774.1191865515334 321.5900971000408 L758.2877084678788 315.1711413538733,758.2877084678788 315.1711413538733,744.4954308129805 304.37609329562906,744.4954308129805 304.37609329562906,733.949059967877 289.9649570658262"/>
<path d="M725.214489236239 304.0910933707582 L708.511682718075 297.8059903103833,708.511682718075 297.8059903103833,693.7661074032111 286.9870718245106,693.7661074032111 286.9870718245106,682.2330517102772 272.3768250424222"/>
<path d="M757.8768072164679 316.38161734410073 L741.0053882121417 313.2091756701541"/>
<path d="M757.8768072164679 316.38161734410073 L741.3181748510742 311.5214957893887"/>
<path d="M723.7782576121751 310.84801826686487 L706.2498102819667 309.75832570208854"/>
<path d="M723.7782576121751 310.84801826686487 L706.3410002725166 308.01826107861314,706.3410002725166 308.01826107861314,689.8787230299697 300.34445590798595,689.8787230299697 300.34445590798595,675.7737661289675 288.2918506975053"/>
</g>
</svg>