<?xml version="1.0" encoding="UTF-8" standalone="no"?>
<!-- Generator: https://github.com/anvaka/l-system -->

<svg
   version="1.1"
   viewBox="0 0 342.28653 323.81613"
   id="svg1616"
   sodipodi:docname="succulent.svg"
   width="342.28653"
   height="323.81613"
   inkscape:version="1.1.2 (0a00cf5339, 2022-02-04)"
   xmlns:inkscape="http://www.inkscape.org/namespaces/inkscape"
   xmlns:sodipodi="http://sodipodi.sourceforge.net/DTD/sodipodi-0.dtd"
   xmlns="http://www.w3.org/2000/svg"
   xmlns:svg="http://www.w3.org/2000/svg">
  <defs
     id="defs1620" />
  <sodipodi:namedview
     id="namedview1618"
     pagecolor="#ffffff"
     bordercolor="#666666"
     borderopacity="1.0"
     inkscape:pageshadow="2"
     inkscape:pageopacity="0.0"
     inkscape:pagecheckerboard="0"
     showgrid="false"
     inkscape:zoom="0.76785714"
     inkscape:cx="165.39535"
     inkscape:cy="289.11628"
     inkscape:window-width="1920"
     inkscape:window-height="1055"
     inkscape:window-x="0"
     inkscape:window-y="25"
     inkscape:window-maximized="1"
     inkscape:current-layer="svg1616" />
  <style
     id="style1259">
  path {
   vector-effect: non-scaling-stroke;
  }
</style>
  <g
     fill="none"
     stroke-width="4"
     stroke="#00ff00"
     id="g1340"
     transform="translate(-674.47451,-165.22376)">
    <path
       d="m 925.15612,488.0867 -6.7551,-12.46045"
       id="path1262" />
    <path
       d="m 925.15612,488.0867 -6.08121,-12.82634"
       id="path1264" />
    <path
       d="m 925.15612,488.0867 -1.72293,-14.24243"
       id="path1266" />
    <path
       d="m 925.15612,488.0867 0.56836,-14.42276"
       id="path1268" />
    <path
       d="m 928.07586,413.99486 0.60815,-15.43227"
       id="path1270" />
    <path
       d="m 930.55988,350.96007 0.64306,-16.31821 v 0 l 0.65225,-16.55161"
       id="path1272" />
    <path
       d="m 923.8777,285.65797 -4.07619,-16.5717"
       id="path1274" />
    <path
       d="m 898.45672,222.05913 -8.79862,-15.4469"
       id="path1276" />
    <path
       d="m 943.24756,268.38546 5.48387,-16.82085"
       id="path1278" />
    <path
       d="m 974.49504,203.78768 10.32903,-15.70269"
       id="path1280" />
    <path
       d="m 923.98666,459.13827 -0.59659,-14.76795"
       id="path1282" />
    <path
       d="m 922.78535,429.40122 -0.61302,-15.17441 v 0 l -0.62148,-15.38396 v 0 l -5.02505,-14.58323"
       id="path1284" />
    <path
       d="m 911.43038,369.47219 -9.12859,-12.7089"
       id="path1286" />
    <path
       d="m 920.92073,383.24497 3.89211,-15.49945"
       id="path1288" />
    <path
       d="m 928.75983,352.02751 8.30369,-14.29038"
       id="path1290" />
    <path
       d="m 912.22874,462.62113 -6.59487,-12.99118"
       id="path1292" />
    <path
       d="m 898.94918,436.46181 -6.77637,-13.34874 v 0 L 881.54174,412.466"
       id="path1294" />
    <path
       d="M 892.17281,423.11307 885.30285,409.58 v 0 L 874.7351,398.57325"
       id="path1296" />
    <path
       d="M 864.01936,387.41237 850.4639,379.79466"
       id="path1298" />
    <path
       d="m 878.33737,395.85874 -2.79483,-15.4669"
       id="path1300" />
    <path
       d="M 872.70831,364.70685 874.43412,348.558"
       id="path1302" />
    <path
       d="m 890.45415,424.07557 -7.22792,-13.33261"
       id="path1304" />
    <path
       d="m 860.93091,369.61709 -7.64286,-14.09799 v 0 l -7.75218,-14.29965"
       id="path1306" />
    <path
       d="m 822.32674,317.85787 -11.859,-11.93688"
       id="path1308" />
    <path
       d="m 768.33598,277.02999 -15.38897,-8.57863"
       id="path1310" />
    <path
       d="m 830.42221,293.59105 -3.70496,-16.92718"
       id="path1312" />
    <path
       d="m 825.00568,223.58674 1.04749,-18.35792"
       id="path1314" />
    <path
       d="m 837.67201,326.7138 -7.97797,-14.71614 v 0 l -8.09459,-14.93124 v 0 l -11.95166,-12.17784"
       id="path1316" />
    <path
       d="m 797.51884,272.53008 -15.05591,-8.54815"
       id="path1318" />
    <path
       d="m 813.38568,281.91533 -3.8588,-17.13932"
       id="path1320" />
    <path
       d="M 805.61042,247.38055 806.504,229.33998"
       id="path1322" />
    <path
       d="m 868.46675,383.51767 -12.07493,-9.9199"
       id="path1324" />
    <path
       d="M 868.46675,383.51767 859.9034,370.2654"
       id="path1326" />
    <path
       d="m 843.65724,364.19072 -12.6709,-9.87082"
       id="path1328" />
    <path
       d="m 818.1329,344.30689 -13.03996,-10.1583 v 0 l -15.50866,-5.83576"
       id="path1330" />
    <path
       d="M 805.09294,334.14859 791.86239,323.8418 v 0 l -15.63078,-6.22202"
       id="path1332" />
    <path
       d="m 760.36898,311.30547 -16.9831,-1.64227"
       id="path1334" />
    <path
       d="m 778.43701,313.38324 -10.252,-14.04558"
       id="path1336" />
    <path
       d="M 757.77979,285.08217 751.5101,268.28156"
       id="path1338" />
  </g>
  <g
     fill="none"
     stroke-width="4"
     stroke="#008000"
     id="g1502"
     transform="translate(-674.47451,-165.22376)">
    <path
       d="m 925.72448,473.66394 0.576,-14.61658 v 0 l 0.58379,-14.81432 v 0 l 0.59174,-15.01612 v 0 l 0.59985,-15.22206 v 0 l -3.82204,-14.77018 v 0 l -7.94634,-13.03372"
       id="path1342" />
    <path
       d="m 927.47601,429.21692 4.99966,-14.5645 v 0 l 9.11175,-12.83721"
       id="path1344" />
    <path
       d="M 926.88427,444.23304 923.10616,429.87 v 0 l -7.84522,-12.64483"
       id="path1346" />
    <path
       d="m 928.68401,398.56259 0.61659,-15.64687 v 0 l 0.62523,-15.86596 v 0 l 0.63405,-16.08969 v 0 l 0.64306,-16.31821 v 0 l -3.93636,-15.86583 v 0 l -8.21083,-14.08263"
       id="path1348" />
    <path
       d="m 931.20294,334.64186 0.65225,-16.55161 v 0 l 0.66164,-16.79004 v 0 l 5.32644,-16.33797 v 0 l 5.40429,-16.57678 v 0 l 0.76014,-17.52682 v 0 l -3.98736,-17.07562"
       id="path1350" />
    <path
       d="m 931.85519,318.09025 -3.96001,-16.09933 v 0 l -4.01748,-16.33295 v 0 l -8.35561,-14.53052 v 0 l -12.00003,-11.51772"
       id="path1352" />
    <path
       d="m 930.55988,350.96007 -3.91297,-15.6373 v 0 l -8.15654,-13.86358"
       id="path1354" />
    <path
       d="m 919.80151,269.08627 -4.13622,-16.81569 v 0 l -8.54047,-14.9937 v 0 l -8.6681,-15.21775 v 0 l -12.39954,-12.14726 v 0 l -15.0853,-8.09138"
       id="path1356" />
    <path
       d="m 889.6581,206.61223 -8.93211,-15.68124"
       id="path1358" />
    <path
       d="m 948.73143,251.56461 5.56522,-17.07038 v 0 l 10.02373,-15.23857 v 0 l 10.17466,-15.46798 v 0 l 5.8873,-17.82127 v 0 l 1.07303,-18.82666"
       id="path1360" />
    <path
       d="M 984.82407,188.08499 995.311,172.14229"
       id="path1362" />
    <path
       d="m 925.15612,488.0867 -6.42055,-12.6478 v 0 l -6.50683,-12.81777 v 0 l -10.09967,-10.35012 v 0 l -12.83429,-6.91657"
       id="path1364" />
    <path
       d="m 925.15612,488.0867 -5.73731,-12.99594 v 0 l -5.8144,-13.17057 v 0 l -9.53129,-10.89475 v 0 l -12.4417,-7.60943"
       id="path1366" />
    <path
       d="m 925.15612,488.0867 -5.38908,-13.15647"
       id="path1368" />
    <path
       d="m 925.15612,488.0867 -3.95779,-13.70589"
       id="path1370" />
    <path
       d="m 925.15612,488.0867 -2.8509,-14.01807 v 0 l -2.88921,-14.20644 v 0 l -6.99723,-12.75468 v 0 l -10.52627,-10.14785"
       id="path1372" />
    <path
       d="m 925.15612,488.0867 -0.58083,-14.37761 v 0 l -0.58863,-14.57082 v 0 l -4.8726,-13.78075 v 0 l -8.7654,-11.75928"
       id="path1374" />
    <path
       d="m 923.39007,444.37032 -0.60472,-14.9691"
       id="path1376" />
    <path
       d="m 922.17233,414.22681 -0.62148,-15.38396 v 0 l -0.63012,-15.59788"
       id="path1378" />
    <path
       d="m 916.5258,384.25962 -5.09542,-14.78743"
       id="path1380" />
    <path
       d="m 902.30179,356.76329 -9.25824,-12.88937"
       id="path1382" />
    <path
       d="m 924.81284,367.74552 3.94699,-15.71801"
       id="path1384" />
    <path
       d="m 937.06352,337.73713 8.42247,-14.49478"
       id="path1386" />
    <path
       d="m 923.43319,473.84427 -1.74607,-14.43383 v 0 l -1.7697,-14.6291 v 0 l -1.79381,-14.82837 v 0 l 2.63009,-15.07056 v 0 l 6.96135,-14.00646"
       id="path1388" />
    <path
       d="m 919.91742,444.78134 -6.00769,-13.49974 v 0 l -9.75635,-11.16513"
       id="path1390" />
    <path
       d="m 919.07491,475.26036 -6.16292,-12.99871 v 0 l -6.24631,-13.17456 v 0 l -8.9519,-11.65224 v 0 L 888.6391,425.6228 v 0 l -12.22623,-8.67261 v 0 l -14.33807,-4.72206"
       id="path1392" />
    <path
       d="m 906.66568,449.08709 -6.33139,-13.35402 v 0 l -6.41822,-13.53717 v 0 l -10.1536,-11.12291 v 0 l -13.04063,-7.69914"
       id="path1394" />
    <path
       d="m 900.33429,435.73307 -2.19944,-14.94876 v 0 l 2.24804,-15.27244"
       id="path1396" />
    <path
       d="m 906.66568,449.08709 -9.92846,-10.78826 v 0 l -12.77281,-7.40685"
       id="path1398" />
    <path
       d="m 905.63387,449.62995 -6.68469,-13.16814"
       id="path1400" />
    <path
       d="m 892.17281,423.11307 -10.35427,-10.93121 v 0 L 871.3203,401.09863 v 0 l -13.347,-7.58721 v 0 L 842.91121,390.129"
       id="path1402" />
    <path
       d="m 892.17281,423.11307 -7.89246,-12.92475 v 0 l -8.0022,-13.10448 v 0 l -11.5161,-10.27827 v 0 l -14.06847,-6.52313"
       id="path1404" />
    <path
       d="M 892.17281,423.11307 885.30285,409.58 v 0 l -6.96548,-13.72126 v 0 l -7.06302,-13.9134 v 0 l -7.16261,-14.1096 v 0 l -2.93554,-15.88553 v 0 l 1.65569,-16.35556"
       id="path1406" />
    <path
       d="m 871.27435,381.94534 -10.81569,-11.3568 v 0 l -13.677,-7.79128"
       id="path1408" />
    <path
       d="M 874.7351,398.57325 864.01936,387.41237"
       id="path1410" />
    <path
       d="m 850.4639,379.79466 -13.74796,-7.72589"
       id="path1412" />
    <path
       d="m 875.54254,380.39184 -2.83423,-15.68499"
       id="path1414" />
    <path
       d="m 874.43412,348.558 1.75051,-16.37983"
       id="path1416" />
    <path
       d="m 881.54174,412.466 -10.77889,-10.79513 v 0 l -10.92983,-10.94629 v 0 l -13.05315,-8.53434 v 0 l -13.23853,-8.65555 v 0 l -15.2407,-4.50859 v 0 l -15.94873,0.0738"
       id="path1418" />
    <path
       d="m 859.83302,390.72458 -11.08395,-11.10065 v 0 l -11.24137,-11.2583 v 0 l -14.0633,-7.61882 v 0 l -15.70993,-3.2843"
       id="path1420" />
    <path
       d="m 848.74907,379.62393 -7.61131,-14.09441 v 0 l -3.38875,-15.9587"
       id="path1422" />
    <path
       d="m 859.83302,390.72458 -13.70757,-7.35373 v 0 l -15.32577,-3.07701"
       id="path1424" />
    <path
       d="m 918.40102,475.62625 -6.84589,-12.62789 v 0 l -6.9385,-12.79873 v 0 l -7.03301,-12.97307 v 0 l -7.12947,-13.15099 v 0 l -10.73353,-10.54412 v 0 l -13.43758,-6.97349"
       id="path1426" />
    <path
       d="m 897.58362,437.22656 -2.99034,-14.78144 v 0 l 1.43394,-15.33701"
       id="path1428" />
    <path
       d="m 904.61663,450.19963 -10.49087,-10.22257 v 0 l -13.1545,-6.69649"
       id="path1430" />
    <path
       d="m 883.22623,410.74296 -7.32843,-13.518 v 0 l -7.43105,-13.70729 v 0 l -12.3173,-9.59534 v 0 l -12.49221,-9.73161 v 0 l -14.81322,-5.75547 v 0 l -15.87819,-1.24364"
       id="path1432" />
    <path
       d="M 868.46675,383.51767 856.6426,373.27965 v 0 l -11.99207,-10.38341 v 0 l -14.51835,-6.53436 v 0 l -15.8184,-2.08461"
       id="path1434" />
    <path
       d="m 868.46675,383.51767 -9.53683,-12.52534 v 0 l -9.67227,-12.70322 v 0 l -12.94506,-9.46428 v 0 l -15.14331,-5.38285"
       id="path1436" />
    <path
       d="m 868.46675,383.51767 -7.53584,-13.90058 v 0 l -7.64286,-14.09799 v 0 L 841.9049,344.10765 v 0 l -14.19394,-7.72471"
       id="path1438" />
    <path
       d="m 853.28805,355.5191 -7.75218,-14.29965 v 0 l -7.86386,-14.50565 v 0 l -3.5986,-16.44122 v 0 l -3.6512,-16.68153 v 0 l -8.14882,-15.1767 v 0 l -12.0353,-12.4065"
       id="path1440" />
    <path
       d="m 845.53587,341.21945 -11.52098,-11.59664 v 0 l -11.68815,-11.76494 v 0 l -14.5445,-8.02946 v 0 l -16.19489,-3.59255"
       id="path1442" />
    <path
       d="m 860.93091,369.61709 -11.24804,-11.23031 v 0 l -14.03681,-7.56734"
       id="path1444" />
    <path
       d="m 810.46774,305.92099 -12.03362,-12.11265 v 0 l -14.93746,-8.32695 v 0 l -15.16068,-8.4514 v 0 l -16.85763,-3.92062 v 0 l -17.15634,0.94083"
       id="path1446" />
    <path
       d="m 752.94701,268.45136 -15.62243,-8.7088"
       id="path1448" />
    <path
       d="m 826.71725,276.66387 -3.75992,-17.17825 v 0 l 1.01653,-17.81532 v 0 l 1.03182,-18.08356 v 0 l -3.85846,-17.9718 v 0 l -8.53114,-16.42917"
       id="path1450" />
    <path
       d="m 826.05317,205.22882 1.0635,-18.63855"
       id="path1452" />
    <path
       d="m 829.69404,311.99766 -8.09459,-14.93124 v 0 l -8.21377,-15.15109"
       id="path1454" />
    <path
       d="m 809.64779,284.88858 -12.12895,-12.3585"
       id="path1456" />
    <path
       d="m 782.46293,263.98193 -15.28261,-8.67687"
       id="path1458" />
    <path
       d="m 809.52688,264.77601 -3.91646,-17.39546"
       id="path1460" />
    <path
       d="m 806.504,229.33998 0.90713,-18.31424"
       id="path1462" />
    <path
       d="m 859.9034,370.2654 -8.68497,-13.44048 v 0 l -8.80918,-13.63272 v 0 l -8.9361,-13.82912 v 0 l -4.83524,-16.09315 v 0 l -0.223,-17.07009"
       id="path1464" />
    <path
       d="m 842.40925,343.1922 -12.35371,-10.64215 v 0 l -14.8864,-6.72028"
       id="path1466" />
    <path
       d="m 856.39182,373.59777 -12.24641,-10.0608 v 0 l -12.42157,-10.20469 v 0 l -14.32721,-7.53401 v 0 l -14.53511,-7.64335 v 0 l -16.13378,-3.22095 v 0 l -16.37135,1.50783"
       id="path1468" />
    <path
       d="m 831.72384,353.33228 -12.60053,-10.35171 v 0 l -12.78337,-10.50192 v 0 l -15.26885,-6.50859 v 0 l -16.4867,-1.93261"
       id="path1470" />
    <path
       d="m 819.12331,342.98057 -9.39752,-13.77159 v 0 l -5.31035,-16.1254"
       id="path1472" />
    <path
       d="m 831.72384,353.33228 -14.86604,-6.26462 v 0 l -16.06036,-1.7515"
       id="path1474" />
    <path
       d="M 830.98634,354.3199 818.1329,344.30689"
       id="path1476" />
    <path
       d="m 805.09294,334.14859 -15.3737,-6.23336 v 0 l -15.60005,-6.32513 v 0 l -16.74958,-1.69575 v 0 l -16.49319,3.09995"
       id="path1478" />
    <path
       d="m 805.09294,334.14859 -13.9302,-9.25969 v 0 l -14.13532,-9.39604 v 0 l -16.22506,-5.10628 v 0 L 743.82812,310.025"
       id="path1480" />
    <path
       d="M 805.09294,334.14859 791.86239,323.8418 v 0 l -13.42538,-10.45856 v 0 l -13.62452,-10.61369 v 0 l -13.82813,-10.77231 v 0 l -10.61305,-14.41808 v 0 l -6.4493,-16.98496"
       id="path1482" />
    <path
       d="m 764.81249,302.76955 -16.06648,-6.47246 v 0 l -17.19846,-1.76763"
       id="path1484" />
    <path
       d="m 776.23161,317.61978 -15.86263,-6.31431"
       id="path1486" />
    <path
       d="m 743.38588,309.6632 -17.2388,-1.667"
       id="path1488" />
    <path
       d="M 768.18501,299.33766 757.77979,285.08217"
       id="path1490" />
    <path
       d="m 751.5101,268.28156 -6.36481,-17.05549"
       id="path1492" />
    <path
       d="m 789.58428,328.31283 -15.73702,-5.92169 v 0 l -15.97045,-6.00952 v 0 l -16.92187,-2.74614 v 0 l -17.17668,-2.78746 v 0 l -17.2226,2.08668 v 0 l -15.83064,6.79288"
       id="path1494" />
    <path
       d="m 757.87681,316.38162 -16.20913,-6.09935 v 0 l -16.45319,-6.19118 v 0 l -17.51503,-1.43147 v 0 l -17.13555,3.46296"
       id="path1496" />
    <path
       d="m 741.66768,310.28227 -14.27393,-10.56209 v 0 l -11.10302,-14.292"
       id="path1498" />
    <path
       d="m 757.87681,316.38162 -17.00921,-1.31826 v 0 l -16.62782,3.5042"
       id="path1500" />
  </g>
  <g
     fill="none"
     stroke-width="4"
     stroke="#90ee90"
     id="g1614"
     transform="translate(-674.47451,-165.22376)">
    <path
       d="m 928.07586,413.99486 0.60815,-15.43227 v 0 l 5.07758,-14.98017 v 0 l 9.24834,-13.23449"
       id="path1504" />
    <path
       d="m 930.55988,350.96007 0.64306,-16.31821 v 0 l 0.65225,-16.55161 v 0 l 5.2833,-16.09933 v 0 l 9.60834,-14.30658"
       id="path1506" />
    <path
       d="m 931.20294,334.64186 5.24085,-15.86583 v 0 l 9.53413,-14.08263"
       id="path1508" />
    <path
       d="m 923.8777,285.65797 -4.07619,-16.5717 v 0 l 0.58752,-17.52166 v 0 l 5.355,-17.07038"
       id="path1510" />
    <path
       d="m 898.45672,222.05913 -8.79862,-15.4469 v 0 l -4.49038,-17.79985 v 0 l 0.34525,-18.80487"
       id="path1512" />
    <path
       d="m 943.24756,268.38546 5.48387,-16.82085 v 0 l 9.90812,-14.99894 v 0 l 13.63019,-11.9481"
       id="path1514" />
    <path
       d="m 974.49504,203.78768 10.32903,-15.70269 v 0 l 14.14289,-12.59262 v 0 l 16.89694,-8.48114"
       id="path1516" />
    <path
       d="m 923.98666,459.13827 -0.59659,-14.76795 v 0 l 3.80289,-14.6609 v 0 l 8.00824,-13.2677"
       id="path1518" />
    <path
       d="m 919.41601,459.86219 -2.9283,-14.39864 v 0 l 1.43338,-14.97986 v 0 l 5.8045,-14.26037"
       id="path1520" />
    <path
       d="m 913.60441,461.92019 -7.25863,-12.60732"
       id="path1522" />
    <path
       d="m 913.60441,461.92019 -5.89307,-13.34876 v 0 l -1.74803,-14.8224 v 0 l 2.67668,-15.02569"
       id="path1524" />
    <path
       d="m 893.91607,422.1959 -6.50686,-13.72411 v 0 l -2.31989,-15.34617 v 0 l 2.18818,-15.67995"
       id="path1526" />
    <path
       d="m 906.66568,449.08709 -8.64463,-11.89448"
       id="path1528" />
    <path
       d="M 906.66568,449.08709 899.31035,436.3065"
       id="path1530" />
    <path
       d="M 888.6391,425.6228 878.26043,414.70892"
       id="path1532" />
    <path
       d="m 888.6391,425.6228 -9.2,-11.97516 v 0 l -5.44152,-14.43096 v 0 l -1.10109,-15.69337"
       id="path1534" />
    <path
       d="m 912.22874,462.62113 -6.59487,-12.99118 v 0 l -2.53277,-14.67932 v 0 l 1.87506,-15.11345"
       id="path1536" />
    <path
       d="m 876.27815,397.08384 -8.11426,-13.28797 v 0 l -4.06638,-15.37222 v 0 l 0.44307,-16.19182"
       id="path1538" />
    <path
       d="M 892.17281,423.11307 882.10269,411.90505"
       id="path1540" />
    <path
       d="m 892.17281,423.11307 -8.86408,-12.23808"
       id="path1542" />
    <path
       d="M 871.3203,401.09863 859.59892,391.05538"
       id="path1544" />
    <path
       d="m 871.3203,401.09863 -10.64525,-11.23842 v 0 l -7.1184,-14.1177 v 0 l -2.87711,-15.85593"
       id="path1546" />
    <path
       d="M 837.5077,368.36563 826.10555,356.9463 v 0 l -7.88406,-14.46082 v 0 l -3.60419,-16.35745"
       id="path1548" />
    <path
       d="m 859.83302,390.72458 -12.83699,-8.87692"
       id="path1550" />
    <path
       d="M 859.83302,390.72458 847.948,380.53737"
       id="path1552" />
    <path
       d="m 833.54134,373.53469 -14.21175,-7.33565"
       id="path1554" />
    <path
       d="m 833.54134,373.53469 -13.42789,-8.77935 v 0 l -10.61758,-12.48553 v 0 l -6.82414,-15.23028"
       id="path1556" />
    <path
       d="m 890.45415,424.07557 -7.22792,-13.33261 v 0 l -3.13175,-15.17111 v 0 l 1.35251,-15.73992"
       id="path1558" />
    <path
       d="m 860.93091,369.61709 -7.64286,-14.09799 v 0 l -7.75218,-14.29965 v 0 l -3.51604,-16.2183 v 0 l 1.12534,-16.82294"
       id="path1560" />
    <path
       d="m 853.28805,355.5191 -3.43545,-16.00006 v 0 l 1.17364,-16.59719"
       id="path1562" />
    <path
       d="m 822.32674,317.85787 -11.859,-11.93688 v 0 l -8.29573,-15.0859 v 0 l -3.94197,-17.07316"
       id="path1564" />
    <path
       d="m 768.33598,277.02999 -15.38897,-8.57863 v 0 l -12.83507,-12.76442 v 0 l -9.15055,-16.04645"
       id="path1566" />
    <path
       d="m 830.42221,293.59105 -3.70496,-16.92718 v 0 l 1.03687,-17.55577 v 0 l 5.78504,-16.76892"
       id="path1568" />
    <path
       d="m 825.00568,223.58674 1.04749,-18.35792 v 0 l 5.90469,-17.56527 v 0 l 10.34476,-15.37529"
       id="path1570" />
    <path
       d="m 849.25765,358.28911 -9.81061,-12.88492 v 0 l -5.92557,-15.44227 v 0 l -1.43471,-16.76515"
       id="path1572" />
    <path
       d="M 868.46675,383.51767 856.90162,372.96822"
       id="path1574" />
    <path
       d="M 868.46675,383.51767 858.01648,371.7934"
       id="path1576" />
    <path
       d="m 844.65053,362.89624 -13.12919,-9.20292"
       id="path1578" />
    <path
       d="m 844.65053,362.89624 -12.1636,-10.53195 v 0 l -8.89354,-13.84068 v 0 l -4.77423,-16.0679"
       id="path1580" />
    <path
       d="m 806.33994,332.47865 -12.97022,-10.65542 v 0 l -9.72549,-14.13014 v 0 l -5.58257,-16.52417"
       id="path1582" />
    <path
       d="m 831.72384,353.33228 -14.14417,-7.90517"
       id="path1584" />
    <path
       d="m 831.72384,353.33228 -13.31689,-9.3381"
       id="path1586" />
    <path
       d="m 802.86152,338.15492 -15.38999,-6.20408"
       id="path1588" />
    <path
       d="m 802.86152,338.15492 -14.74756,-7.75507 v 0 l -12.29389,-11.8289 v 0 l -8.73694,-15.03243"
       id="path1590" />
    <path
       d="m 843.65724,364.19072 -12.6709,-9.87082 v 0 l -9.5781,-13.34602 v 0 l -5.58059,-15.78561"
       id="path1592" />
    <path
       d="m 777.02742,315.49286 -14.34501,-9.53541 v 0 l -11.44342,-13.39137 v 0 l -7.5196,-16.25305"
       id="path1594" />
    <path
       d="M 805.09294,334.14859 789.86457,327.5213"
       id="path1596" />
    <path
       d="m 805.09294,334.14859 -14.54555,-8.16092"
       id="path1598" />
    <path
       d="m 774.11919,321.5901 -16.31536,-4.78543"
       id="path1600" />
    <path
       d="m 774.11919,321.5901 -15.83148,-6.41896 v 0 l -13.79228,-10.79505 v 0 l -10.54637,-14.41113"
       id="path1602" />
    <path
       d="m 725.21449,304.09109 -16.70281,-6.2851 v 0 l -14.74557,-10.81892 v 0 l -11.53306,-14.61024"
       id="path1604" />
    <path
       d="m 757.87681,316.38162 -16.87142,-3.17244"
       id="path1606" />
    <path
       d="M 757.87681,316.38162 741.31817,311.5215"
       id="path1608" />
    <path
       d="m 723.77826,310.84802 -17.52845,-1.08969"
       id="path1610" />
    <path
       d="M 723.77826,310.84802 706.341,308.01826 v 0 l -16.46228,-7.6738 v 0 l -14.10495,-12.05261"
       id="path1612" />
  </g>
</svg>
