<?xml version="1.0" encoding="utf-8"?>
<!-- Generator: https://github.com/anvaka/l-system -->
<!DOCTYPE svg PUBLIC "-//W3C//DTD SVG 1.1//EN" "http://www.w3.org/Graphics/SVG/1.1/DTD/svg11.dtd">
<svg version="1.1" xmlns="http://www.w3.org/2000/svg" xmlns:xlink="http://www.w3.org/1999/xlink"
    viewBox="0 0 1680 909">
<style>
  path {
   vector-effect: non-scaling-stroke;
  }
</style>

<rect id="background" fill="#0c2952" x="0" y="0" width="1680" height="909"></rect>
<g fill="none" stroke-width="2" stroke="#ffffff">
<path d="M774.4428125785147 772.7752132973518 L774.4428125785147 764.1496524110338,774.4428125785147 764.1496524110338,774.4428125785147 755.524091524716,774.4428125785147 755.524091524716,774.4428125785147 746.8985306383981,774.4428125785147 746.8985306383981,774.4428125785147 738.2729697520801,774.4428125785147 738.2729697520801,774.4428125785147 729.6474088657623,774.4428125785147 729.6474088657623,774.4428125785147 721.0218479794444,774.4428125785147 721.0218479794444,774.4428125785147 712.3962870931265,774.4428125785147 712.3962870931265,774.4428125785147 703.7707262068086,774.4428125785147 703.7707262068086,774.4428125785147 695.1451653204907,774.4428125785147 695.1451653204907,774.4428125785147 686.519604434173,774.4428125785147 686.519604434173,774.4428125785147 677.894043547855,774.4428125785147 677.894043547855,774.4428125785147 669.2684826615371,774.4428125785147 669.2684826615371,774.4428125785147 660.6429217752192,774.4428125785147 660.6429217752192,774.4428125785147 652.0173608889013,774.4428125785147 652.0173608889013,774.4428125785147 643.3918000025833,774.4428125785147 643.3918000025833,774.4428125785147 634.7662391162655,774.4428125785147 634.7662391162655,774.4428125785147 626.1406782299476,774.4428125785147 626.1406782299476,774.4428125785147 617.5151173436298,774.4428125785147 617.5151173436298,774.4428125785147 608.8895564573119,774.4428125785147 608.8895564573119,774.4428125785147 600.263995570994,774.4428125785147 600.263995570994,774.4428125785147 591.638434684676,774.4428125785147 591.638434684676,774.4428125785147 583.0128737983581,774.4428125785147 583.0128737983581,774.4428125785147 574.3873129120402,774.4428125785147 574.3873129120402,774.4428125785147 565.7617520257223,774.4428125785147 565.7617520257223,774.4428125785147 557.1361911394044,774.4428125785147 557.1361911394044,774.4428125785147 548.5106302530866,774.4428125785147 548.5106302530866,774.4428125785147 539.8850693667688,774.4428125785147 539.8850693667688,774.4428125785147 531.2595084804508,774.4428125785147 531.2595084804508,774.4428125785147 522.6339475941329,774.4428125785147 522.6339475941329,774.4428125785147 514.008386707815,774.4428125785147 514.008386707815,774.4428125785147 505.3828258214971,774.4428125785147 505.3828258214971,774.4428125785147 496.75726493517914,774.4428125785147 496.75726493517914,777.7436719251222 488.7882817014108,777.7436719251222 488.7882817014108,781.0445312717295 480.8192984676425,781.0445312717295 480.8192984676425,784.3453904126875 472.85031523387414,784.3453904126875 472.85031523387414,787.6462499649441 464.88135832322854,787.6462499649441 464.88135832322854,790.9471095172009 456.9123750894602,790.9471095172009 456.9123750894602,794.2479682468601 448.9433918556919,794.2479682468601 448.9433918556919,797.5488269765192 440.97440862192343,797.5488269765192 440.97440862192343,800.8496873513735 433.0054253881551,800.8496873513735 433.0054253881551,806.9488782988727 426.9062262146801,806.9488782988727 426.9062262146801,813.048070891567 420.807053364328,813.048070891567 420.807053364328,819.1472634842613 414.70785419085297,819.1472634842613 414.70785419085297,825.2464560769556 408.6086550173779,825.2464560769556 408.6086550173779,831.3456519600403 402.50945584390297,831.3456519600403 402.50945584390297,837.4448445527345 396.41028299355077,837.4448445527345 396.41028299355077,843.5440371454288 390.31108382007585,843.5440371454288 390.31108382007585,849.6432297381231 384.2118846466008,849.6432297381231 384.2118846466008,857.6122063911108 380.9110440140886,857.6122063911108 380.9110440140886,865.5811830440985 377.6101770584535,865.5811830440985 377.6101770584535,873.5501662778669 374.30931010281853,873.5501662778669 374.30931010281853,881.5191429308545 371.00844314718347,881.5191429308545 371.00844314718347,890.1447038171724 371.00844314718347,890.1447038171724 371.00844314718347,898.7702647034902 371.00844314718347,898.7702647034902 371.00844314718347,906.7392479372586 367.7076025146712"/>
<path d="M881.5191429308545 371.00844314718347 L887.6183421043296 364.90927029683127,887.6183421043296 364.90927029683127,893.7175281162431 358.8100711233563,893.7175281162431 358.8100711233563,899.816727289718 352.71087194988127,899.816727289718 352.71087194988127,905.9159133016316 346.61167277640624,905.9159133016316 346.61167277640624,909.2167670957053 338.64271586576075"/>
<path d="M881.5191429308545 371.00844314718347 L884.8200033057088 363.03948623653787"/>
<path d="M881.5191429308545 371.00844314718347 L875.4199503381602 377.1076423206585,875.4199503381602 377.1076423206585,869.3207577454658 383.2068414941334,869.3207577454658 383.2068414941334,863.2215651527715 389.30604066760833,863.2215651527715 389.30604066760833,857.1223725600772 395.40521351796065,857.1223725600772 395.40521351796065,865.7479334463951 395.40521351796065,865.7479334463951 395.40521351796065,874.3734943327131 395.40521351796065,874.3734943327131 395.40521351796065,882.3424775664813 392.1043728854484"/>
<path d="M857.1223725600772 395.40521351796065 L849.1533959070896 398.70608047359565,849.1533959070896 398.70608047359565,841.1844126733212 402.0069474292307,841.1844126733212 402.0069474292307,849.8099735596393 402.0069474292307,849.8099735596393 402.0069474292307,858.435534445957 402.0069474292307,858.435534445957 402.0069474292307,866.4045176797255 398.70608047359565"/>
<path d="M841.1844126733212 402.0069474292307 L847.2836052660155 395.9077482557557"/>
<path d="M841.1844126733212 402.0069474292307 L833.2154360203336 405.30781438486576"/>
<path d="M865.5811830440985 377.6101770584535 L874.2067439304163 377.6101770584535,874.2067439304163 377.6101770584535,882.8323048167341 377.6101770584535,882.8323048167341 377.6101770584535,890.8012814697219 374.30931010281853"/>
<path d="M865.5811830440985 377.6101770584535 L871.6803756367927 371.51097788497844"/>
<path d="M849.6432297381231 384.2118846466008 L852.9440835321967 376.2429014128324,852.9440835321967 376.2429014128324,856.2449439070512 368.27394450218685,856.2449439070512 368.27394450218685,859.5458042819055 360.30496126841854,859.5458042819055 360.30496126841854,862.8466646567598 352.3359780346501,862.8466646567598 352.3359780346501,866.1475250316141 344.3669948008818,866.1475250316141 344.3669948008818,869.4483854064683 336.3980115671133,869.4483854064683 336.3980115671133,872.7492392005421 328.4290546564678,872.7492392005421 328.4290546564678,876.0500995753964 320.4600450995767,876.0500995753964 320.4600450995767,884.0190828091648 317.1591781439416,884.0190828091648 317.1591781439416,891.9880594621525 313.8583638345522,891.9880594621525 313.8583638345522,899.9570426959209 310.5574968789172,899.9570426959209 310.5574968789172,907.9260127681277 307.25662992328216,907.9260127681277 307.25662992328216,916.5515736544456 307.25662992328216,916.5515736544456 307.25662992328216,925.1771345407635 307.25662992328216,925.1771345407635 307.25662992328216,933.146117774532 303.95576296764705"/>
<path d="M907.9260127681277 307.25662992328216 L914.0252119416028 301.15740442668425,914.0252119416028 301.15740442668425,920.1243979535164 295.05823157633205,920.1243979535164 295.05823157633205,926.2235971269913 288.95905872597996,926.2235971269913 288.95905872597996,932.3227831389049 282.8598332293821,932.3227831389049 282.8598332293821,935.6236500945399 274.8908763187366"/>
<path d="M907.9260127681277 307.25662992328216 L911.2268797237629 299.28762036639097"/>
<path d="M907.9260127681277 307.25662992328216 L901.8268267562142 313.35580277363425,901.8268267562142 313.35580277363425,895.7276275827392 319.4550282702321,895.7276275827392 319.4550282702321,889.6284415708257 325.5542011205843,889.6284415708257 325.5542011205843,883.5292489781312 331.6534002940593,883.5292489781312 331.6534002940593,892.1548032836685 331.6534002940593,892.1548032836685 331.6534002940593,900.7803641699865 331.6534002940593,900.7803641699865 331.6534002940593,908.7493474037547 328.35250701530134"/>
<path d="M883.5292489781312 331.6534002940593 L875.5602657443629 334.9542409265715,875.5602657443629 334.9542409265715,867.5912890913752 338.2551078822066,867.5912890913752 338.2551078822066,876.2168499776931 338.2551078822066,876.2168499776931 338.2551078822066,884.842410864011 338.2551078822066,884.842410864011 338.2551078822066,892.8113940977794 334.9542409265715"/>
<path d="M867.5912890913752 338.2551078822066 L873.6904816840696 332.15590870873154"/>
<path d="M867.5912890913752 338.2551078822066 L859.6223124383876 341.55597483784163,859.6223124383876 341.55597483784163,851.6533292046191 344.8568154703538,851.6533292046191 344.8568154703538,857.7525217973135 338.75764262000166,857.7525217973135 338.75764262000166,863.8517143900078 332.65844344652663,863.8517143900078 332.65844344652663,869.9509069827021 326.55927059617443"/>
<path d="M863.8517143900078 332.65844344652663 L871.8206976237763 329.3575764908916,871.8206976237763 329.3575764908916,879.7896742767639 326.0567095352566,879.7896742767639 326.0567095352566,885.8888734502389 319.9575366849044"/>
<path d="M851.6533292046191 344.8568154703538 L854.9541895794737 336.88785855970826,854.9541895794737 336.88785855970826,858.255049954328 328.91887532593984,858.255049954328 328.91887532593984,861.5559103291822 320.9498657690487,861.5559103291822 320.9498657690487,864.8567707040365 312.9809088584032,864.8567707040365 312.9809088584032,864.8567707040365 304.35534797208527"/>
<path d="M851.6533292046191 344.8568154703538 L845.5541366119248 350.95601464382884,845.5541366119248 350.95601464382884,839.4549440192307 357.05521381730375,839.4549440192307 357.05521381730375,847.423927252999 353.7543468616688,847.423927252999 353.7543468616688,855.3929039059866 350.4535062291566,855.3929039059866 350.4535062291566,861.4920964986809 344.3543070556815"/>
<path d="M839.4549440192307 357.05521381730375 L842.755804394085 349.08623058353544"/>
<path d="M839.4549440192307 357.05521381730375 L833.3557514265364 363.1544129907788,833.3557514265364 363.1544129907788,827.2565621242323 369.25358584113087,827.2565621242323 369.25358584113087,827.2565621242323 360.6280249548131,827.2565621242323 360.6280249548131,827.2565621242323 352.00246406849516,827.2565621242323 352.00246406849516,827.2565621242323 343.37690318217733,827.2565621242323 343.37690318217733,827.2565621242323 334.75134229585944,827.2565621242323 334.75134229585944,827.2565621242323 326.1257814095415,827.2565621242323 326.1257814095415,827.2565621242323 317.5002205232237,827.2565621242323 317.5002205232237,827.2565621242323 308.8746596369057,827.2565621242323 308.8746596369057,827.2565621242323 300.24909875058785,827.2565621242323 300.24909875058785,827.2565621242323 291.62353786426996,827.2565621242323 291.62353786426996,827.2565621242323 282.99797697795213,827.2565621242323 282.99797697795213,827.2565621242323 274.3724160916342,827.2565621242323 274.3724160916342,827.2565621242323 265.7468552053163,827.2565621242323 265.7468552053163,827.2565621242323 257.12129431899837,827.2565621242323 257.12129431899837,827.2565621242323 248.49573343268057,827.2565621242323 248.49573343268057,827.2565621242323 239.87017254636257,827.2565621242323 239.87017254636257,827.2565621242325 231.24461166004474,827.2565621242325 231.24461166004474,830.5574192086964 223.27565474939925,830.5574192086964 223.27565474939925,833.8582795835508 215.30664519250797,833.8582795835508 215.30664519250797,837.1591399584051 207.33768828186248,837.1591399584051 207.33768828186248,840.4600003332595 199.36873137121688,840.4600003332595 199.36873137121688,846.5591929259537 193.2695058746191,846.5591929259537 193.2695058746191,852.658385518648 187.1703330242669,852.658385518648 187.1703330242669,855.9592393127217 179.20132346737574"/>
<path d="M840.4600003332595 199.36873137121688 L840.4600003332595 190.74317048489897,840.4600003332595 190.74317048489897,840.4600003332595 182.11760959858114,840.4600003332595 182.11760959858114,840.4600003332595 173.49204871226323,840.4600003332595 173.49204871226323,840.4600003332595 164.8664878259453,840.4600003332595 164.8664878259453,837.1591399584051 156.89747826905403"/>
<path d="M840.4600003332595 199.36873137121688 L837.1591399584051 191.39972181432572"/>
<path d="M840.4600003332595 199.36873137121688 L840.4600003332595 207.9942922575347,840.4600003332595 207.9942922575347,840.4600003332595 216.61985314385262,840.4600003332595 216.61985314385262,840.4600003332595 225.24541403017054,840.4600003332595 225.24541403017054,840.4600003332595 233.87097491648845,840.4600003332595 233.87097491648845,846.5591929259537 227.77174941989057,846.5591929259537 227.77174941989057,852.658385518648 221.67257656953848,852.658385518648 221.67257656953848,855.9592393127217 213.7035670126473"/>
<path d="M840.4600003332595 233.87097491648845 L837.1591399584051 241.83993182713405,837.1591399584051 241.83993182713405,833.8582795835507 249.80888873777954,833.8582795835507 249.80888873777954,839.957472176245 243.70971588742734,839.957472176245 243.70971588742734,846.0566647689393 237.61054303707525,846.0566647689393 237.61054303707525,849.3575251437936 229.64153348018397"/>
<path d="M833.8582795835507 249.80888873777954 L830.5574192086964 257.7778982946707"/>
<path d="M833.8582795835508 215.30664519250797 L839.957472176245 209.20747234215577,839.957472176245 209.20747234215577,846.0566647689393 203.10829949180356,846.0566647689393 203.10829949180356,849.3575251437936 195.1392899349125"/>
<path d="M833.8582795835508 215.30664519250797 L833.8582795835508 206.68108430619006"/>
<path d="M827.2565621242325 231.24461166004474 L823.955701749378 223.27565474939925,823.955701749378 223.27565474939925,820.6548413745238 215.30664519250797,820.6548413745238 215.30664519250797,817.3539842900598 207.33768828186248,817.3539842900598 207.33768828186248,814.0531239152054 199.36873137121688,814.0531239152054 199.36873137121688,810.7522635403511 191.39972181432572,810.7522635403511 191.39972181432572,807.4514064558871 183.4307649036801,807.4514064558871 183.4307649036801,804.1505460810328 175.46175534678895,804.1505460810328 175.46175534678895,800.8496873513736 167.49279843614335,800.8496873513736 167.49279843614335,800.8496873513736 158.86723754982552,800.8496873513736 158.86723754982552,800.8496873513736 150.2416766635076,800.8496873513736 150.2416766635076,797.5488269765192 142.27266710661644"/>
<path d="M800.8496873513736 167.49279843614335 L794.7504947586793 161.39357293954558,794.7504947586793 161.39357293954558,788.651302165985 155.29440008919337,788.651302165985 155.29440008919337,782.5521087506932 149.19522723884117,782.5521087506932 149.19522723884117,776.4529161579989 143.0960017422435,776.4529161579989 143.0960017422435,768.4839370372184 139.795187432854"/>
<path d="M807.4514064558871 183.4307649036801 L807.4514064558871 174.8052040173622,807.4514064558871 174.8052040173622,807.4514064558871 166.17964313104437,807.4514064558871 166.17964313104437,804.1505460810328 158.2106335741532"/>
<path d="M814.0531239152054 199.36873137121688 L807.9539313225112 193.2695058746191"/>
<path d="M827.2565621242323 248.49573343268057 L830.5574192086964 240.52677652203496,830.5574192086964 240.52677652203496,833.8582795835508 232.5577669651437,833.8582795835508 232.5577669651437,833.8582795835508 223.93220607882589"/>
<path d="M827.2565621242323 265.7468552053163 L830.5574192086964 257.7778982946707"/>
<path d="M827.2565621242323 300.24909875058785 L830.5574192086964 292.28014183994236,830.5574192086964 292.28014183994236,833.8582795835507 284.3111322830511,833.8582795835507 284.3111322830511,833.8582795835507 275.68557139673317"/>
<path d="M827.2565621242323 300.24909875058785 L823.955701749378 292.28014183994236,823.955701749378 292.28014183994236,820.6548413745238 284.3111322830511,820.6548413745238 284.3111322830511,817.3539842900598 276.3421753724056,817.3539842900598 276.3421753724056,814.0531239152054 268.37321846176,814.0531239152054 268.37321846176,807.9539313225112 262.2739929651622"/>
<path d="M827.2565621242323 317.5002205232237 L830.5574192086964 309.53126361257813,830.5574192086964 309.53126361257813,833.8582795835507 301.5622540556868,833.8582795835507 301.5622540556868,833.8582795835507 292.936693169369"/>
<path d="M827.2565621242323 334.75134229585944 L823.955701749378 326.78238538521384"/>
<path d="M827.2565621242323 369.25358584113087 L823.955701749378 377.2225690748994,823.955701749378 377.2225690748994,820.6548413745238 385.1915523086678,820.6548413745238 385.1915523086678,826.7540339672181 379.0923531351927,826.7540339672181 379.0923531351927,832.8532298503027 372.99318028484055,832.8532298503027 372.99318028484055,836.1540836443763 365.0241970510722"/>
<path d="M820.6548413745238 385.1915523086678 L817.3539842900598 393.1605355424361,817.3539842900598 393.1605355424361,814.0531239152054 401.1295187762044,814.0531239152054 401.1295187762044,820.1523165078996 395.0303196027294,820.1523165078996 395.0303196027294,826.2515091005939 388.93112042925446,826.2515091005939 388.93112042925446,832.3507016932883 382.8319475789024,832.3507016932883 382.8319475789024,838.4498942859826 376.73274840542723,838.4498942859826 376.73274840542723,846.4188709389701 373.43188144979223,846.4188709389701 373.43188144979223,854.3878541727386 370.1310144941573,854.3878541727386 370.1310144941573,860.4870467654329 364.0318416438051"/>
<path d="M838.4498942859826 376.73274840542723 L841.750754660837 368.76376517165886,841.750754660837 368.76376517165886,845.0516150356913 360.79478193789055,845.0516150356913 360.79478193789055,848.3524688297649 352.82579870412223"/>
<path d="M838.4498942859826 376.73274840542723 L838.4498942859826 368.1071875191094"/>
<path d="M838.4498942859826 376.73274840542723 L835.1490339111282 384.70173163919566,835.1490339111282 384.70173163919566,831.8481735362739 392.6707148729641,831.8481735362739 392.6707148729641,828.5473164518099 400.6396717836096"/>
<path d="M826.2515091005939 388.93112042925446 L834.2204857535817 385.63027979674223,834.2204857535817 385.63027979674223,842.1894689873501 382.3294128411072,842.1894689873501 382.3294128411072,848.2886615800443 376.2302136676322"/>
<path d="M814.0531239152054 401.1295187762044 L810.752263540351 409.09850200997283,810.752263540351 409.09850200997283,807.4514064558871 417.0674852437412,807.4514064558871 417.0674852437412,807.4514064558871 408.44192435742326"/>
<path d="M807.4514064558871 417.0674852437412 L804.1505460810328 425.0364421543868"/>
<path d="M827.2565621242323 369.25358584113087 L830.5574192086964 361.2846289304855,830.5574192086964 361.2846289304855,833.8582795835507 353.31564569671707,833.8582795835507 353.31564569671707,837.1591399584051 345.34666246294864,837.1591399584051 345.34666246294864,840.4600003332595 337.3776792291803,840.4600003332595 337.3776792291803,846.5591929259537 331.27848005570536,846.5591929259537 331.27848005570536,852.658385518648 325.17930720535315,852.658385518648 325.17930720535315,855.9592393127217 317.21029764846196"/>
<path d="M840.4600003332595 337.3776792291803 L840.4600003332595 328.7521446659852,840.4600003332595 328.7521446659852,840.4600003332595 320.1265837796674,840.4600003332595 320.1265837796674,840.4600003332595 311.5010228933495,840.4600003332595 311.5010228933495,840.4600003332595 302.87546200703156,840.4600003332595 302.87546200703156,837.1591399584051 294.9064524501403"/>
<path d="M840.4600003332595 337.3776792291803 L837.1591399584051 329.40869599541196"/>
<path d="M840.4600003332595 337.3776792291803 L840.4600003332595 346.0032401154982,840.4600003332595 346.0032401154982,840.4600003332595 354.62880100181604,840.4600003332595 354.62880100181604,840.4600003332595 363.25436188813404,840.4600003332595 363.25436188813404,840.4600003332595 371.87992277445187,840.4600003332595 371.87992277445187,846.5591929259537 365.7807236009769,846.5591929259537 365.7807236009769,852.658385518648 359.68155075062475,852.658385518648 359.68155075062475,855.9592393127217 351.7125675168564"/>
<path d="M840.4600003332595 371.87992277445187 L837.1591399584051 379.8489060082202,837.1591399584051 379.8489060082202,833.8582795835507 387.8178892419886,833.8582795835507 387.8178892419886,839.957472176245 381.7186900685136,839.957472176245 381.7186900685136,846.0566647689393 375.61949089503867,846.0566647689393 375.61949089503867,849.3575251437936 367.6505076612703"/>
<path d="M833.8582795835507 387.8178892419886 L830.5574192086964 395.78687247575704,830.5574192086964 395.78687247575704,827.2565621242323 403.75582938640247,827.2565621242323 403.75582938640247,827.2565621242323 395.13026850008464,827.2565621242323 395.13026850008464,827.2565621242323 386.5047076137667,827.2565621242323 386.5047076137667,827.2565621242323 377.8791467274489"/>
<path d="M827.2565621242323 386.5047076137667 L830.5574192086964 378.5357507031212,830.5574192086964 378.5357507031212,833.8582795835507 370.5667674693529,833.8582795835507 370.5667674693529,833.8582795835507 361.94120658303495"/>
<path d="M827.2565621242323 403.75582938640247 L827.2565621242323 412.38139027272047,827.2565621242323 412.38139027272047,827.2565621242323 421.0069511590383,827.2565621242323 421.0069511590383,827.2565621242323 429.6325120453562,827.2565621242323 429.6325120453562,827.2565621242323 438.2580729316741,827.2565621242323 438.2580729316741,830.5574192086964 430.2891160210285,830.5574192086964 430.2891160210285,833.8582795835507 422.3201327872602,833.8582795835507 422.3201327872602,833.8582795835507 413.69457190094226"/>
<path d="M827.2565621242323 438.2580729316741 L823.955701749378 430.2891160210285,823.955701749378 430.2891160210285,820.6548413745238 422.3201327872602,820.6548413745238 422.3201327872602,817.3539842900598 414.35114955349184,817.3539842900598 414.35114955349184,814.0531239152054 406.3821663197234,814.0531239152054 406.3821663197234,807.9539313225112 400.2829671462485"/>
<path d="M827.2565621242323 438.2580729316741 L827.2565621242323 446.88363381799206,827.2565621242323 446.88363381799206,827.2565621242323 455.50919470430983,827.2565621242323 455.50919470430983,830.5574192086964 447.54023779366435,830.5574192086964 447.54023779366435,833.8582795835507 439.5712545598959,833.8582795835507 439.5712545598959,833.8582795835507 430.9456936735781"/>
<path d="M827.2565621242323 455.50919470430983 L827.2565621242323 464.1347555906278,827.2565621242323 464.1347555906278,827.2565621242323 472.76031647694566,827.2565621242323 472.76031647694566,823.955701749378 464.79135956630006"/>
<path d="M827.2565621242323 472.76031647694566 L827.2565621242323 481.3858773632636,827.2565621242323 481.3858773632636,827.2565621242323 490.0114382495815,827.2565621242323 490.0114382495815,827.2565621242323 498.6369991358993,827.2565621242323 498.6369991358993,827.2565621242323 507.26256002221726,827.2565621242323 507.26256002221726,833.3557514265364 501.16338717186505,833.3557514265364 501.16338717186505,839.4549440192307 495.06418799839,839.4549440192307 495.06418799839,845.5541366119248 488.96498882491505,845.5541366119248 488.96498882491505,851.6533292046191 482.86578965144014,851.6533292046191 482.86578965144014,857.7525217973135 476.76661680108793,857.7525217973135 476.76661680108793,863.8517143900078 470.6674176276129,863.8517143900078 470.6674176276129,869.9509069827021 464.5682184541379,869.9509069827021 464.5682184541379,876.0500995753964 458.4690192806629,876.0500995753964 458.4690192806629,884.0190828091648 455.1681786481507,884.0190828091648 455.1681786481507,891.9880594621525 451.8673116925156,891.9880594621525 451.8673116925156,899.9570426959209 448.5664447368806,899.9570426959209 448.5664447368806,907.9260127681277 445.2656041043684,907.9260127681277 445.2656041043684,916.5515736544456 445.2656041043684,916.5515736544456 445.2656041043684,925.1771345407635 445.2656041043684,925.1771345407635 445.2656041043684,933.146117774532 441.9647371487333"/>
<path d="M907.9260127681277 445.2656041043684 L914.0252119416027 439.16640493089335,914.0252119416027 439.16640493089335,920.1243979535164 433.0672057574183,920.1243979535164 433.0672057574183,926.2235971269913 426.9680065839434,926.2235971269913 426.9680065839434,932.3227831389049 420.8688337335912,932.3227831389049 420.8688337335912,935.6236500945399 412.89985049982283"/>
<path d="M907.9260127681277 445.2656041043684 L911.2268797237629 437.29662087059995"/>
<path d="M907.9260127681277 445.2656041043684 L901.8268267562142 451.3647769547205,901.8268267562142 451.3647769547205,895.7276275827392 457.46397612819555,895.7276275827392 457.46397612819555,889.6284415708257 463.5631753016706,889.6284415708257 463.5631753016706,883.5292489781312 469.6623744751455,883.5292489781312 469.6623744751455,892.1548032836685 469.6623744751455,892.1548032836685 469.6623744751455,900.7803641699865 469.6623744751455,900.7803641699865 469.6623744751455,908.7493474037547 466.36150751951055"/>
<path d="M883.5292489781312 469.6623744751455 L875.5602657443629 472.96321510765773,875.5602657443629 472.96321510765773,867.5912890913752 476.26408206329273,867.5912890913752 476.26408206329273,876.2168499776931 476.26408206329273,876.2168499776931 476.26408206329273,884.842410864011 476.26408206329273,884.842410864011 476.26408206329273,892.8113940977794 472.96321510765773"/>
<path d="M867.5912890913752 476.26408206329273 L873.6904816840696 470.16488288981776"/>
<path d="M867.5912890913752 476.26408206329273 L859.6223124383876 479.5649490189279"/>
<path d="M891.9880594621525 451.8673116925156 L900.6136203484704 451.8673116925156,900.6136203484704 451.8673116925156,909.2391812347882 451.8673116925156,909.2391812347882 451.8673116925156,917.2081644685566 448.5664447368806"/>
<path d="M891.9880594621525 451.8673116925156 L898.0872586356273 445.7681125190407"/>
<path d="M876.0500995753964 458.4690192806629 L879.3509599502507 450.5000623700173,879.3509599502507 450.5000623700173,882.6518203251051 442.531079136249,882.6518203251051 442.531079136249,885.9526806999594 434.56209590248056,885.9526806999594 434.56209590248056,889.253534494033 426.59311266871225,889.253534494033 426.59311266871225,892.5544014496681 418.6241294349439,892.5544014496681 418.6241294349439,895.8552552437417 410.65514620117557,895.8552552437417 410.65514620117557,899.1561221993767 402.68618929052997,899.1561221993767 402.68618929052997,902.4569759934504 394.71720605676154,902.4569759934504 394.71720605676154,908.5561620053641 388.61800688328657,908.5561620053641 388.61800688328657,914.6553611788389 382.51880770981165,914.6553611788389 382.51880770981165,917.9562149729127 374.5498244760432"/>
<path d="M902.4569759934504 394.71720605676154 L902.4569759934504 386.0916451704437,902.4569759934504 386.0916451704437,902.4569759934504 377.4660842841258,902.4569759934504 377.4660842841258,902.4569759934504 368.8405233978079,902.4569759934504 368.8405233978079,902.4569759934504 360.21496251148994,902.4569759934504 360.21496251148994,899.1561221993767 352.24597927772163"/>
<path d="M895.8552552437417 410.65514620117557 L901.9544544172168 404.55597335082325,901.9544544172168 404.55597335082325,908.0536404291303 398.45677417734834,908.0536404291303 398.45677417734834,911.3545073847654 390.48779094357997"/>
<path d="M889.253534494033 426.59311266871225 L889.253534494033 417.9675517823943"/>
<path d="M876.0500995753964 458.4690192806629 L882.1492921680907 452.3698464303107,882.1492921680907 452.3698464303107,888.2484913415656 446.2706472568357,888.2484913415656 446.2706472568357,891.5493451356393 438.30166402306736"/>
<path d="M876.0500995753964 458.4690192806629 L876.0500995753964 449.843458394345,876.0500995753964 449.843458394345,876.0500995753964 441.2178975080271,876.0500995753964 441.2178975080271,876.0500995753964 432.5923366217092,876.0500995753964 432.5923366217092,876.0500995753964 423.96677573539137,876.0500995753964 423.96677573539137,872.7492392005421 415.99781882474576"/>
<path d="M876.0500995753964 458.4690192806629 L872.7492392005421 466.4380025144313,872.7492392005421 466.4380025144313,869.4483854064683 474.4069857481996,869.4483854064683 474.4069857481996,875.5475779991627 468.3077865747247,875.5475779991627 468.3077865747247,881.646770591857 462.20861372437247,881.646770591857 462.20861372437247,884.9476243859306 454.2396304906041"/>
<path d="M869.4483854064683 474.4069857481996 L866.1475250316141 482.375968981968,866.1475250316141 482.375968981968,862.8466646567598 490.3449522157364,862.8466646567598 490.3449522157364,862.8466646567598 481.71939132941856"/>
<path d="M862.8466646567598 490.3449522157364 L859.5458042819055 498.3139354495048,859.5458042819055 498.3139354495048,856.2449439070512 506.2829186832731,856.2449439070512 506.2829186832731,852.9440835321967 514.2518755939187,852.9440835321967 514.2518755939187,849.6432297381231 522.220858827687,849.6432297381231 522.220858827687,857.6122063911108 518.9200181951749,857.6122063911108 518.9200181951749,865.5811830440985 515.6191512395397,865.5811830440985 515.6191512395397,873.5501662778669 512.3182842839046,873.5501662778669 512.3182842839046,881.5191429308545 509.0174173282697,881.5191429308545 509.0174173282697,890.1447038171724 509.0174173282697,890.1447038171724 509.0174173282697,898.7702647034902 509.0174173282697,898.7702647034902 509.0174173282697,906.7392479372586 505.71657669575745"/>
<path d="M881.5191429308545 509.0174173282697 L887.6183421043296 502.9182444779175,887.6183421043296 502.9182444779175,893.7175281162431 496.81904530444257,893.7175281162431 496.81904530444257,899.816727289718 490.71984613096754,899.816727289718 490.71984613096754,905.9159133016316 484.6206469574925,905.9159133016316 484.6206469574925,909.2167670957053 476.65169004684697"/>
<path d="M881.5191429308545 509.0174173282697 L884.8200033057088 501.0484604176241"/>
<path d="M881.5191429308545 509.0174173282697 L875.4199503381602 515.1166165017446,875.4199503381602 515.1166165017446,869.3207577454658 521.2158156752197,869.3207577454658 521.2158156752197,863.2215651527715 527.3150148486947,863.2215651527715 527.3150148486947,857.1223725600772 533.4141876990469,857.1223725600772 533.4141876990469,865.7479334463951 533.4141876990469,865.7479334463951 533.4141876990469,874.3734943327131 533.4141876990469,874.3734943327131 533.4141876990469,882.3424775664813 530.1133470665346"/>
<path d="M857.1223725600772 533.4141876990469 L849.1533959070896 536.7150546546819,849.1533959070896 536.7150546546819,841.1844126733212 540.0159216103169,841.1844126733212 540.0159216103169,849.8099735596393 540.0159216103169,849.8099735596393 540.0159216103169,858.435534445957 540.0159216103169,858.435534445957 540.0159216103169,866.4045176797255 536.7150546546819"/>
<path d="M841.1844126733212 540.0159216103169 L833.2154360203336 543.316788565952,833.2154360203336 543.316788565952,825.2464560769556 546.6176291984642,825.2464560769556 546.6176291984642,831.3456519600403 540.5184300249892,831.3456519600403 540.5184300249892,837.4448445527345 534.419257174637,837.4448445527345 534.419257174637,843.5440371454288 528.320058001162"/>
<path d="M837.4448445527345 534.419257174637 L845.4138212057221 531.118390219002,845.4138212057221 531.118390219002,853.3827978587098 527.817523263367,853.3827978587098 527.817523263367,859.4819904514042 521.7183504130148"/>
<path d="M825.2464560769556 546.6176291984642 L819.1472634842613 552.7168283719392,819.1472634842613 552.7168283719392,813.0480708915669 558.8160143838528,813.0480708915669 558.8160143838528,806.9488782988727 564.9152135573278,806.9488782988727 564.9152135573278,800.8496873513735 571.0143995692414,800.8496873513735 571.0143995692414,804.1505460810328 563.0454294970344,804.1505460810328 563.0454294970344,807.4514064558871 555.076446263266,807.4514064558871 555.076446263266,810.752263540351 547.107476191059,810.752263540351 547.107476191059,814.0531239152054 539.1384929572907,814.0531239152054 539.1384929572907,817.3539842900598 531.1695097235223,817.3539842900598 531.1695097235223,820.6548413745238 523.200526489754,820.6548413745238 523.200526489754,823.955701749378 515.2315432559856"/>
<path d="M820.6548413745238 523.200526489754 L826.754033967218 517.101327316279,826.754033967218 517.101327316279,832.8532298503027 511.00215446592676,832.8532298503027 511.00215446592676,836.1540836443763 503.03317123215845"/>
<path d="M814.0531239152054 539.1384929572907 L820.1523165078996 533.0392937838158,820.1523165078996 533.0392937838158,826.2515091005939 526.9400946103407,826.2515091005939 526.9400946103407,832.3507016932883 520.8409217599885,832.3507016932883 520.8409217599885,838.4498942859826 514.7417225865136,838.4498942859826 514.7417225865136,846.4188709389701 511.4408556308785,846.4188709389701 511.4408556308785,854.3878541727386 508.13998867524344,854.3878541727386 508.13998867524344,860.4870467654329 502.0408158248913"/>
<path d="M838.4498942859826 514.7417225865136 L841.750754660837 506.77273935274513,841.750754660837 506.77273935274513,845.0516150356913 498.8037561189768,845.0516150356913 498.8037561189768,848.3524688297649 490.83477288520845"/>
<path d="M826.2515091005939 526.9400946103407 L834.2204857535817 523.6392539778286,834.2204857535817 523.6392539778286,842.18946898735 520.3383870221934,842.18946898735 520.3383870221934,848.2886615800443 514.2391878487184"/>
<path d="M800.8496873513735 571.0143995692414 L797.5488269765192 578.9833828030097,797.5488269765192 578.9833828030097,794.2479682468601 586.9523660367781,794.2479682468601 586.9523660367781,790.9471095172009 594.9213492705464,790.9471095172009 594.9213492705464,787.6462499649441 602.8903193427534,787.6462499649441 602.8903193427534,784.3453904126875 610.8593025765218,784.3453904126875 610.8593025765218,781.0445312717295 618.8282858102901,781.0445312717295 618.8282858102901,777.7436719251222 626.7972558824971"/>
<path d="M865.5811830440985 515.6191512395397 L874.2067439304163 515.6191512395397,874.2067439304163 515.6191512395397,882.8323048167341 515.6191512395397,882.8323048167341 515.6191512395397,890.8012814697219 512.3182842839046"/>
<path d="M865.5811830440985 515.6191512395397 L871.6803756367927 509.5199520660647"/>
<path d="M849.6432297381231 522.220858827687 L843.5440371454288 528.320058001162"/>
<path d="M863.8517143900078 470.6674176276129 L871.8206976237763 467.36655067197785,871.8206976237763 467.36655067197785,879.7896742767639 464.0657100394656,879.7896742767639 464.0657100394656,885.8888734502389 457.96651086599064"/>
<path d="M851.6533292046191 482.86578965144014 L859.6223124383876 479.5649490189279"/>
<path d="M851.6533292046191 482.86578965144014 L854.9541895794735 474.89683274079454,854.9541895794735 474.89683274079454,858.255049954328 466.9278495070262,858.255049954328 466.9278495070262,861.5559103291822 458.9588662732578,861.5559103291822 458.9588662732578,864.8567707040365 450.9898830394894,864.8567707040365 450.9898830394894,864.8567707040365 442.36432215317154"/>
<path d="M851.6533292046191 482.86578965144014 L851.6533292046191 474.2402287651222"/>
<path d="M851.6533292046191 482.86578965144014 L848.3524688297649 490.83477288520845"/>
<path d="M839.4549440192307 495.06418799839 L847.423927252999 491.763321042755,847.423927252999 491.763321042755,855.3929039059866 488.4624804102428,855.3929039059866 488.4624804102428,861.4920964986809 482.3632812367679"/>
<path d="M839.4549440192307 495.06418799839 L842.755804394085 487.09520476462166"/>
<path d="M827.2565621242323 507.26256002221726 L823.955701749378 515.2315432559856"/>
<path d="M833.8582795835507 353.31564569671707 L839.957472176245 347.21644652324204,839.957472176245 347.21644652324204,846.0566647689393 341.11724734976707,846.0566647689393 341.11724734976707,849.3575251437936 333.14826411599876"/>
<path d="M833.8582795835507 353.31564569671707 L833.8582795835507 344.6900848103991"/>
<path d="M827.2565621242323 369.25358584113087 L823.955701749378 361.2846289304855,823.955701749378 361.2846289304855,820.6548413745238 353.31564569671707,820.6548413745238 353.31564569671707,817.3539842900598 345.34666246294864,817.3539842900598 345.34666246294864,814.0531239152054 337.3776792291803,814.0531239152054 337.3776792291803,810.752263540351 329.40869599541196,810.752263540351 329.40869599541196,807.4514064558871 321.43973908476636,807.4514064558871 321.43973908476636,804.1505460810328 313.4707295278752,804.1505460810328 313.4707295278752,800.8496873513735 305.5017726172296,800.8496873513735 305.5017726172296,800.8496873513735 296.8762117309118,800.8496873513735 296.8762117309118,800.8496873513735 288.25065084459385,800.8496873513735 288.25065084459385,797.5488269765192 280.2816412877027"/>
<path d="M800.8496873513735 305.5017726172296 L794.7504947586793 299.4025471206318,794.7504947586793 299.4025471206318,788.651302165985 293.30337427027973,788.651302165985 293.30337427027973,782.5521087506932 287.2042014199274,782.5521087506932 287.2042014199274,776.4529161579989 281.10497592332973,776.4529161579989 281.10497592332973,768.4839370372184 277.80416161394027"/>
<path d="M807.4514064558871 321.43973908476636 L807.4514064558871 312.8141781984485,807.4514064558871 312.8141781984485,807.4514064558871 304.18861731213065,807.4514064558871 304.18861731213065,804.1505460810328 296.21960775523945"/>
<path d="M814.0531239152054 337.3776792291803 L807.9539313225112 331.27848005570536"/>
<path d="M827.2565621242323 369.25358584113087 L827.2565621242323 377.8791467274489"/>
<path d="M851.6533292046191 344.8568154703538 L851.6533292046191 336.231254584036"/>
<path d="M851.6533292046191 344.8568154703538 L848.3524688297649 352.82579870412223"/>
<path d="M891.9880594621525 313.8583638345522 L900.6136203484704 313.8583638345522,900.6136203484704 313.8583638345522,909.2391812347882 313.8583638345522,909.2391812347882 313.8583638345522,917.2081644685566 310.5574968789172"/>
<path d="M891.9880594621525 313.8583638345522 L898.0872586356273 307.7591383379544"/>
<path d="M876.0500995753964 320.4600450995767 L879.3509599502507 312.4910881889311,879.3509599502507 312.4910881889311,882.6518203251051 304.52207863204,882.6518203251051 304.52207863204,885.9526806999594 296.5531217213944,885.9526806999594 296.5531217213944,889.253534494033 288.5841648107488,889.253534494033 288.5841648107488,892.5544014496681 280.61515525385767,892.5544014496681 280.61515525385767,895.8552552437417 272.6461983432121,895.8552552437417 272.6461983432121,899.1561221993767 264.67718878632087,899.1561221993767 264.67718878632087,902.4569759934504 256.7082318756754,902.4569759934504 256.7082318756754,908.5561620053641 250.6090063790775,908.5561620053641 250.6090063790775,914.6553611788389 244.5098335287254,914.6553611788389 244.5098335287254,917.9562149729127 236.5408766180798"/>
<path d="M902.4569759934504 256.7082318756754 L902.4569759934504 248.08267098935747,902.4569759934504 248.08267098935747,902.4569759934504 239.45711010303955,902.4569759934504 239.45711010303955,902.4569759934504 230.83154921672164,902.4569759934504 230.83154921672164,902.4569759934504 222.2059883304038,902.4569759934504 222.2059883304038,899.1561221993767 214.23697877351253"/>
<path d="M895.8552552437417 272.6461983432121 L901.9544544172168 266.54697284661427,901.9544544172168 266.54697284661427,908.0536404291303 260.44779999626206,908.0536404291303 260.44779999626206,911.3545073847654 252.4788430856165"/>
<path d="M889.253534494033 288.5841648107488 L889.253534494033 279.9586039244309"/>
<path d="M876.0500995753964 320.4600450995767 L869.9509069827021 326.55927059617443"/>
<path d="M876.0500995753964 320.4600450995767 L882.1492921680907 314.3608722492245,882.1492921680907 314.3608722492245,888.2484913415656 308.2616467526267,888.2484913415656 308.2616467526267,891.5493451356393 300.2926898419811"/>
<path d="M876.0500995753964 320.4600450995767 L876.0500995753964 311.83448421325875,876.0500995753964 311.83448421325875,876.0500995753964 303.20892332694086,876.0500995753964 303.20892332694086,876.0500995753964 294.5833624406229,876.0500995753964 294.5833624406229,876.0500995753964 285.9578015543051,876.0500995753964 285.9578015543051,872.7492392005421 277.9888446436595"/>
<path d="M869.4483854064683 336.3980115671133 L875.5475779991627 330.2988387167612,875.5475779991627 330.2988387167612,881.646770591857 324.19961322016337,881.646770591857 324.19961322016337,884.9476243859306 316.2306563095179"/>
<path d="M862.8466646567598 352.3359780346501 L862.8466646567598 343.7104171483323"/>
<path d="M837.4448445527345 396.41028299355077 L845.4138212057221 393.1094160379157,845.4138212057221 393.1094160379157,853.3827978587098 389.80854908228065,853.3827978587098 389.80854908228065,859.4819904514042 383.7093762319285"/>
<path d="M825.2464560769556 408.6086550173779 L833.2154360203336 405.30781438486576"/>
<path d="M825.2464560769556 408.6086550173779 L828.5473164518099 400.6396717836096"/>
<path d="M825.2464560769556 408.6086550173779 L825.2464560769556 399.9830941310601"/>
<path d="M825.2464560769556 408.6086550173779 L821.9455989924917 416.57763825114637,821.9455989924917 416.57763825114637,818.6447386176372 424.5466214849147,818.6447386176372 424.5466214849147,815.3438782427829 432.515604718683,815.3438782427829 432.515604718683,812.0430211583189 440.4845879524514,812.0430211583189 440.4845879524514,820.0119978113066 437.18372099681636,820.0119978113066 437.18372099681636,827.9809777546847 433.8828540411813,827.9809777546847 433.8828540411813,834.080170347379 427.7836548677064"/>
<path d="M812.0430211583189 440.4845879524514 L805.9438285656246 446.5837608028036,805.9438285656246 446.5837608028036,799.8446343277352 452.6829599762786,799.8446343277352 452.6829599762786,807.813612625918 449.3820930206435,807.813612625918 449.3820930206435,815.7825925692961 446.08125238813136,815.7825925692961 446.08125238813136,821.8817851619903 439.98205321465633"/>
<path d="M799.8446343277352 452.6829599762786 L803.1454930573943 444.7139767425102"/>
<path d="M799.8446343277352 452.6829599762786 L793.7454417350409 458.7821591497536"/>
<path d="M813.048070891567 420.807053364328 L821.0170508349449 417.50618640869294,821.0170508349449 417.50618640869294,828.986030778323 414.2053194530578,828.986030778323 414.2053194530578,835.085220080627 408.1061466027056"/>
<path d="M813.048070891567 420.807053364328 L816.3489312664213 412.8380701305596"/>
<path d="M800.8496873513735 433.0054253881551 L800.8496873513735 424.37986450183723,800.8496873513735 424.37986450183723,800.8496873513735 415.7543036155193,800.8496873513735 415.7543036155193,800.8496873513735 407.12874272920146,800.8496873513735 407.12874272920146,800.8496873513735 398.5031818428836,800.8496873513735 398.5031818428836,800.8496873513735 389.87762095656564,800.8496873513735 389.87762095656564,800.8496873513735 381.25206007024775,800.8496873513735 381.25206007024775,800.8496873513735 372.6264991839298,800.8496873513735 372.6264991839298,800.8496873513735 364.000938297612,800.8496873513735 364.000938297612,804.1505460810328 356.03195506384367,804.1505460810328 356.03195506384367,807.4514064558871 348.06299815319807,807.4514064558871 348.06299815319807,807.4514064558871 339.43743726688024"/>
<path d="M800.8496873513735 364.000938297612 L797.5488269765192 356.03195506384367,797.5488269765192 356.03195506384367,794.2479682468601 348.06299815319807,794.2479682468601 348.06299815319807,790.9471095172009 340.09401491942975,790.9471095172009 340.09401491942975,787.6462499649442 332.1250316856613,787.6462499649442 332.1250316856613,781.5470573722499 326.0258588353092"/>
<path d="M800.8496873513735 381.25206007024775 L804.1505460810328 373.2830768364794,804.1505460810328 373.2830768364794,807.4514064558871 365.3141199258338,807.4514064558871 365.3141199258338,807.4514064558871 356.688559039516"/>
<path d="M800.8496873513735 398.5031818428836 L797.5488269765192 390.5341986091152"/>
<path d="M800.8496873513735 433.0054253881551 L804.1505460810328 425.0364421543868"/>
<path d="M800.8496873513735 433.0054253881551 L797.5488269765192 425.0364421543868,797.5488269765192 425.0364421543868,794.2479682468601 417.0674852437412,794.2479682468601 417.0674852437412,790.9471095172009 409.09850200997283,790.9471095172009 409.09850200997283,787.6462499649442 401.1295187762044,787.6462499649442 401.1295187762044,781.5470573722499 395.0303196027294"/>
<path d="M800.8496873513735 433.0054253881551 L800.8496873513735 441.63098627447306,800.8496873513735 441.63098627447306,800.8496873513735 450.25654716079083,800.8496873513735 450.25654716079083,804.1505460810328 442.2875639270225,804.1505460810328 442.2875639270225,807.4514064558871 434.3186070163769,807.4514064558871 434.3186070163769,807.4514064558871 425.6930461300591"/>
<path d="M800.8496873513735 450.25654716079083 L800.8496873513735 458.8821080471088,800.8496873513735 458.8821080471088,800.8496873513735 467.5076689334267,800.8496873513735 467.5076689334267,797.5488269765192 459.53868569965834"/>
<path d="M800.8496873513735 467.5076689334267 L800.8496873513735 476.1332298197446,800.8496873513735 476.1332298197446,800.8496873513735 484.75879070606254,800.8496873513735 484.75879070606254,800.8496873513735 493.3843515923803,800.8496873513735 493.3843515923803,800.8496873513735 502.00991247869825,800.8496873513735 502.00991247869825,806.9488782988727 495.9107133052232,806.9488782988727 495.9107133052232,813.048070891567 489.811540454871,813.048070891567 489.811540454871,819.1472634842613 483.71234128139605,819.1472634842613 483.71234128139605,825.2464560769556 477.61314210792113,825.2464560769556 477.61314210792113,833.2154360203336 474.3123014754089,833.2154360203336 474.3123014754089,841.1844126733212 471.01143451977373,841.1844126733212 471.01143451977373,847.2836052660155 464.9122353462988"/>
<path d="M825.2464560769556 477.61314210792113 L828.5473164518099 469.6441588741527,828.5473164518099 469.6441588741527,831.8481735362739 461.6752019635072,831.8481735362739 461.6752019635072,835.1490339111282 453.7062187297388,835.1490339111282 453.7062187297388,838.4498942859826 445.7372354959704,838.4498942859826 445.7372354959704,838.4498942859826 437.11167460965254"/>
<path d="M825.2464560769556 477.61314210792113 L825.2464560769556 468.98758122160325"/>
<path d="M825.2464560769556 477.61314210792113 L821.9455989924917 485.58212534168945,821.9455989924917 485.58212534168945,818.6447386176372 493.5511085754578,818.6447386176372 493.5511085754578,815.3438782427829 501.52009180922613,815.3438782427829 501.52009180922613,812.0430211583189 509.4890750429945,812.0430211583189 509.4890750429945,820.0119978113066 506.1882080873595,820.0119978113066 506.1882080873595,827.9809777546847 502.88734113172444,827.9809777546847 502.88734113172444,834.080170347379 496.7881419582494"/>
<path d="M812.0430211583189 509.4890750429945 L805.9438285656246 515.5882478933466,805.9438285656246 515.5882478933466,799.8446343277352 521.6874470668217,799.8446343277352 521.6874470668217,807.813612625918 518.3865801111866,807.813612625918 518.3865801111866,815.7825925692961 515.0857394786744,815.7825925692961 515.0857394786744,821.8817851619903 508.98654030519947"/>
<path d="M799.8446343277352 521.6874470668217 L793.7454417350408 527.7866462402967,793.7454417350408 527.7866462402967,787.6462499649441 533.8858454137717,787.6462499649441 533.8858454137717,790.9471095172009 525.9168621800034,790.9471095172009 525.9168621800034,794.2479682468601 517.947878946235,794.2479682468601 517.947878946235,797.5488269765192 509.9788957124667"/>
<path d="M794.2479682468601 517.947878946235 L800.3471608395544 511.84867977275997,800.3471608395544 511.84867977275997,806.4463534322487 505.74948059928494,806.4463534322487 505.74948059928494,809.747213807103 497.78052368863945"/>
<path d="M787.6462499649441 533.8858454137717 L784.3453904126875 541.8548023244173,784.3453904126875 541.8548023244173,781.0445312717295 549.8237855581856,781.0445312717295 549.8237855581856,777.7436719251222 557.7927687919539"/>
<path d="M813.048070891567 489.811540454871 L821.0170508349449 486.510673499236,821.0170508349449 486.510673499236,828.986030778323 483.20980654360096,828.986030778323 483.20980654360096,835.085220080627 477.1106336932489"/>
<path d="M813.048070891567 489.811540454871 L816.3489312664213 481.84255722110265"/>
<path d="M800.8496873513735 502.00991247869825 L797.5488269765192 509.9788957124667"/>
<path d="M794.2479682468601 448.9433918556919 L800.3471608395544 442.8441926822168,800.3471608395544 442.8441926822168,806.4463534322487 436.7449935087418,806.4463534322487 436.7449935087418,809.747213807103 428.7760365980963"/>
<path d="M787.6462499649441 464.88135832322854 L793.7454417350409 458.7821591497536"/>
<path d="M787.6462499649441 464.88135832322854 L787.6462499649441 456.25579743691065,787.6462499649441 456.25579743691065,787.6462499649441 447.6302365505928,787.6462499649441 447.6302365505928,787.6462499649442 439.0046756642749,787.6462499649442 439.0046756642749,787.6462499649442 430.379114777957,787.6462499649442 430.379114777957,784.3453904126875 422.4101315441887"/>
<path d="M787.6462499649441 464.88135832322854 L784.3453904126875 456.9123750894602"/>
<path d="M787.6462499649441 464.88135832322854 L787.6462499649441 473.5069192095465,787.6462499649441 473.5069192095465,787.6462499649441 482.13248009586437,787.6462499649441 482.13248009586437,787.6462499649441 490.7580409821823,787.6462499649441 490.7580409821823,787.6462499649441 499.38360186850014,787.6462499649441 499.38360186850014,793.7454417350408 493.2844026950251,793.7454417350408 493.2844026950251,799.8446343277352 487.18520352155014,799.8446343277352 487.18520352155014,803.1454930573943 479.2162202877818"/>
<path d="M787.6462499649441 499.38360186850014 L784.3453904126875 507.35255877914574,784.3453904126875 507.35255877914574,781.0445312717295 515.321542012914,781.0445312717295 515.321542012914,787.143723453125 509.22236916256196,787.143723453125 509.22236916256196,793.2429168684168 503.12316998908693,793.2429168684168 503.12316998908693,796.543775598076 495.1541867553185"/>
<path d="M781.0445312717295 515.321542012914 L777.7436719251222 523.2905252466825"/>
<path d="M781.0445312717295 480.8192984676425 L787.143723453125 474.7201256172903,787.143723453125 474.7201256172903,793.2429168684168 468.62092644381534,793.2429168684168 468.62092644381534,796.543775598076 460.651943210047"/>
<path d="M781.0445312717295 480.8192984676425 L781.0445312717295 472.19373758132457"/>
<path d="M774.4428125785147 496.75726493517914 L771.1419532319075 488.7882817014108,771.1419532319075 488.7882817014108,767.8410938853001 480.8192984676425,767.8410938853001 480.8192984676425,764.5402347443421 472.85031523387414,764.5402347443421 472.85031523387414,761.2393751920854 464.88135832322854,761.2393751920854 464.88135832322854,757.9385156398287 456.9123750894602,757.9385156398287 456.9123750894602,754.6376569101694 448.9433918556919,754.6376569101694 448.9433918556919,751.3367981805103 440.97440862192343,751.3367981805103 440.97440862192343,748.0359378056559 433.0054253881551,748.0359378056559 433.0054253881551,744.7350790759969 425.0364421543868,744.7350790759969 425.0364421543868,741.4342187011424 417.0674852437412,741.4342187011424 417.0674852437412,738.1333616166785 409.09850200997283,738.1333616166785 409.09850200997283,734.8325012418242 401.1295187762044,734.8325012418242 401.1295187762044,731.5316408669698 393.1605355424361,731.5316408669698 393.1605355424361,728.2307837825059 385.1915523086678,728.2307837825059 385.1915523086678,724.9299234076515 377.2225690748994,724.9299234076515 377.2225690748994,721.629063032797 369.25358584113087,721.629063032797 369.25358584113087,718.3282059483331 361.2846289304855,718.3282059483331 361.2846289304855,715.0273455734789 353.31564569671707,715.0273455734789 353.31564569671707,711.7264851986245 345.34666246294864,711.7264851986245 345.34666246294864,708.4256248237701 337.3776792291803,708.4256248237701 337.3776792291803,705.1247710296965 329.40869599541196,705.1247710296965 329.40869599541196,701.8239106548422 321.43973908476636,701.8239106548422 321.43973908476636,698.5230502799878 313.4707295278752,698.5230502799878 313.4707295278752,695.2221899051335 305.5017726172296,695.2221899051335 305.5017726172296,691.9213295302792 297.5327630603384,691.9213295302792 297.5327630603384,688.6204691554249 289.56380614969294,688.6204691554249 289.56380614969294,685.3196153613512 281.59484923904733,685.3196153613512 281.59484923904733,682.0187549864968 273.62583968215614,682.0187549864968 273.62583968215614,678.7178946116426 265.6568827715106,678.7178946116426 265.6568827715106,675.4170342367883 257.6878732146195,675.4170342367883 257.6878732146195,672.1161738619338 249.7189163039739,672.1161738619338 249.7189163039739,668.8153134870795 241.74990674708272,668.8153134870795 241.74990674708272,668.8153134870795 233.1243458607648,668.8153134870795 233.1243458607648,668.8153134870795 224.498784974447,668.8153134870795 224.498784974447,668.8153134870795 215.8732240881291,668.8153134870795 215.8732240881291,668.8153134870795 207.24766320181118,668.8153134870795 207.24766320181118,668.8153134870795 198.62210231549327,668.8153134870795 198.62210231549327,668.8153134870795 189.99654142917532,668.8153134870795 189.99654142917532,668.8153134870795 181.3709805428574,668.8153134870795 181.3709805428574,668.8153134870795 172.7454196565396,668.8153134870795 172.7454196565396,672.1161738619338 164.77646274589412,672.1161738619338 164.77646274589412,675.4170342367883 156.80750583524852,675.4170342367883 156.80750583524852,678.7178946116426 148.83849627835724,678.7178946116426 148.83849627835724,682.0187549864968 140.86953936771175,682.0187549864968 140.86953936771175,688.1179475791912 134.77031387111398,688.1179475791912 134.77031387111398,694.2171401718855 128.67114102076178,694.2171401718855 128.67114102076178,697.5180005467398 120.70218411011618"/>
<path d="M682.0187549864968 140.86953936771175 L682.0187549864968 132.24397848139384,682.0187549864968 132.24397848139384,682.0187549864968 123.61841759507601,682.0187549864968 123.61841759507601,682.0187549864968 114.9928567087581,682.0187549864968 114.9928567087581,682.0187549864968 106.36729582244018,682.0187549864968 106.36729582244018,678.7178946116426 98.39828626554902"/>
<path d="M682.0187549864968 140.86953936771175 L678.7178946116426 132.9005298108206"/>
<path d="M682.0187549864968 140.86953936771175 L682.0187549864968 149.49510025402955,682.0187549864968 149.49510025402955,682.0187549864968 158.12066114034747,682.0187549864968 158.12066114034747,682.0187549864968 166.7462220266654,682.0187549864968 166.7462220266654,682.0187549864968 175.37178291298332,682.0187549864968 175.37178291298332,688.1179475791912 169.27255741638544,688.1179475791912 169.27255741638544,694.2171401718855 163.17338456603323,694.2171401718855 163.17338456603323,697.5180005467398 155.20442765538775"/>
<path d="M682.0187549864968 175.37178291298332 L678.7178946116426 183.3407398236289,678.7178946116426 183.3407398236289,675.4170342367883 191.30974938051997,675.4170342367883 191.30974938051997,681.5162268294824 185.2105238839222,681.5162268294824 185.2105238839222,687.6154194221767 179.11135103357012,687.6154194221767 179.11135103357012,690.9162797970312 171.14234147667884"/>
<path d="M675.4170342367883 191.30974938051997 L675.4170342367883 182.68418849420226"/>
<path d="M675.4170342367883 191.30974938051997 L672.1161738619338 199.27870629116558"/>
<path d="M675.4170342367883 156.80750583524852 L681.5162268294824 150.70828033865064,681.5162268294824 150.70828033865064,687.6154194221767 144.60910748829843,687.6154194221767 144.60910748829843,690.9162797970312 136.64009793140735"/>
<path d="M675.4170342367883 156.80750583524852 L675.4170342367883 148.1819449489306"/>
<path d="M668.8153134870795 172.7454196565396 L665.5144596930058 164.77646274589412,665.5144596930058 164.77646274589412,662.2135993181515 156.80750583524852,662.2135993181515 156.80750583524852,658.9127455240779 148.83849627835724,658.9127455240779 148.83849627835724,655.6118785684429 140.86953936771175,655.6118785684429 140.86953936771175,652.3110247743692 132.9005298108206,652.3110247743692 132.9005298108206,649.0101578187341 124.93157290017498,649.0101578187341 124.93157290017498,645.7093040246606 116.96261598952948,645.7093040246606 116.96261598952948,642.4084370690256 108.99360643263832,642.4084370690256 108.99360643263832,642.4084370690256 100.3680455463204,642.4084370690256 100.3680455463204,642.4084370690256 91.74248466000248,642.4084370690256 91.74248466000248,639.1075832749519 83.77352774935689"/>
<path d="M642.4084370690256 108.99360643263832 L636.309251057112 102.89443358228611,636.309251057112 102.89443358228611,630.2100518836369 96.79520808568823,630.2100518836369 96.79520808568823,624.1108658717234 90.69603523533614,624.1108658717234 90.69603523533614,618.0116666982483 84.59686238498384,618.0116666982483 84.59686238498384,610.0426966260413 81.29599542934886"/>
<path d="M649.0101578187341 124.93157290017498 L649.0101578187341 116.30601201385706,649.0101578187341 116.30601201385706,649.0101578187341 107.68045112753924,649.0101578187341 107.68045112753924,645.7093040246606 99.71149421689375"/>
<path d="M655.6118785684429 140.86953936771175 L649.5126925565293 134.77031387111398"/>
<path d="M668.8153134870795 172.7454196565396 L668.8153134870795 164.1198587702217,668.8153134870795 164.1198587702217,668.8153134870795 155.49429788390387,668.8153134870795 155.49429788390387,665.5144596930058 147.52534097325827"/>
<path d="M668.8153134870795 172.7454196565396 L662.7161208943852 166.64624680618752,662.7161208943852 166.64624680618752,656.6169348824716 160.5470739558352,656.6169348824716 160.5470739558352,650.5177357089967 154.44784845923743,650.5177357089967 154.44784845923743,644.418549697083 148.34867560888523,644.418549697083 148.34867560888523,636.4495664633147 145.04780865325026"/>
<path d="M668.8153134870795 172.7454196565396 L672.1161738619338 180.71442921343078,672.1161738619338 180.71442921343078,675.4170342367883 188.68338612407638,675.4170342367883 188.68338612407638,675.4170342367883 180.05782523775846,675.4170342367883 180.05782523775846,675.4170342367883 171.43226435144055,675.4170342367883 171.43226435144055,672.1161738619338 163.46330744079495"/>
<path d="M675.4170342367883 188.68338612407638 L678.7178946116426 196.65239568096743,678.7178946116426 196.65239568096743,682.0187549864968 204.62135259161303,682.0187549864968 204.62135259161303,675.9195623938025 198.52217974126083"/>
<path d="M682.0187549864968 204.62135259161303 L685.3196153613512 212.5903621485042,685.3196153613512 212.5903621485042,688.6204691554249 220.55931905914971,688.6204691554249 220.55931905914971,691.9213295302792 228.5282759697953,691.9213295302792 228.5282759697953,695.2221899051335 236.49728552668648,695.2221899051335 236.49728552668648,698.5230502799878 228.5282759697953,698.5230502799878 228.5282759697953,701.8239106548422 220.55931905914971,701.8239106548422 220.55931905914971,705.1247710296965 212.5903621485042,705.1247710296965 212.5903621485042,708.4256248237701 204.62135259161303,708.4256248237701 204.62135259161303,714.5248174164644 198.52217974126083,714.5248174164644 198.52217974126083,720.624013299549 192.42295424466306,720.624013299549 192.42295424466306,723.9248736744034 184.45399733401746"/>
<path d="M708.4256248237701 204.62135259161303 L708.4256248237701 195.99579170529523,708.4256248237701 195.99579170529523,708.4256248237701 187.3702308189772,708.4256248237701 187.3702308189772,708.4256248237701 178.74466993265938,708.4256248237701 178.74466993265938,708.4256248237701 170.11910904634146,708.4256248237701 170.11910904634146,705.1247710296965 162.15015213569598"/>
<path d="M708.4256248237701 204.62135259161303 L705.1247710296965 196.65239568096743"/>
<path d="M708.4256248237701 204.62135259161303 L708.4256248237701 213.24691347793095,708.4256248237701 213.24691347793095,708.4256248237701 221.87247436424886,708.4256248237701 221.87247436424886,708.4256248237701 230.4980352505668,708.4256248237701 230.4980352505668,708.4256248237701 239.1235961368846,708.4256248237701 239.1235961368846,714.5248174164644 233.0244232865325,714.5248174164644 233.0244232865325,720.624013299549 226.92519778993463,720.624013299549 226.92519778993463,723.9248736744034 218.95624087928903"/>
<path d="M708.4256248237701 239.1235961368846 L705.1247710296965 247.09260569377577,705.1247710296965 247.09260569377577,701.8239106548422 255.06156260442137,701.8239106548422 255.06156260442137,707.9231032475365 248.96238975406916,707.9231032475365 248.96238975406916,714.0222958402308 242.86316425747128,714.0222958402308 242.86316425747128,717.3231562150851 234.8942073468259"/>
<path d="M701.8239106548422 255.06156260442137 L698.5230502799878 263.03051951506694,698.5230502799878 263.03051951506694,695.2221899051335 270.999529071958,695.2221899051335 270.999529071958,695.2221899051335 262.3739681856402,695.2221899051335 262.3739681856402,695.2221899051335 253.7484072993223,695.2221899051335 253.7484072993223,695.2221899051335 245.12284641300448"/>
<path d="M695.2221899051335 253.7484072993223 L698.5230502799878 245.77939774243114,698.5230502799878 245.77939774243114,701.8239106548422 237.81044083178554,701.8239106548422 237.81044083178554,701.8239106548422 229.1848799454677"/>
<path d="M695.2221899051335 270.999529071958 L695.2221899051335 279.62508995827596,695.2221899051335 279.62508995827596,695.2221899051335 288.25065084459385,695.2221899051335 288.25065084459385,695.2221899051335 296.8762117309118"/>
<path d="M701.8239106548422 220.55931905914971 L707.9231032475365 214.4601462087976,707.9231032475365 214.4601462087976,714.0222958402308 208.36092071219983,714.0222958402308 208.36092071219983,717.3231562150851 200.39196380155423"/>
<path d="M701.8239106548422 220.55931905914971 L701.8239106548422 211.933758172832"/>
<path d="M695.2221899051335 236.49728552668648 L695.2221899051335 245.12284641300448"/>
<path d="M668.8153134870795 189.99654142917532 L672.1161738619338 182.02758451852984,672.1161738619338 182.02758451852984,675.4170342367883 174.05862760788423,675.4170342367883 174.05862760788423,675.4170342367883 165.43306672156643"/>
<path d="M668.8153134870795 207.24766320181118 L672.1161738619338 199.27870629116558"/>
<path d="M668.8153134870795 207.24766320181118 L665.5144596930058 199.27870629116558,665.5144596930058 199.27870629116558,662.2135993181515 191.30974938051997,662.2135993181515 191.30974938051997,658.9127455240779 183.3407398236289,658.9127455240779 183.3407398236289,655.6118785684429 175.37178291298332,655.6118785684429 175.37178291298332,649.5126925565293 169.27255741638544"/>
<path d="M668.8153134870795 207.24766320181118 L662.7161208943852 201.14849035145897"/>
<path d="M668.8153134870795 207.24766320181118 L672.1161738619338 215.21667275870234,672.1161738619338 215.21667275870234,675.4170342367883 223.18562966934783,675.4170342367883 223.18562966934783,678.7178946116426 231.1546392262391,678.7178946116426 231.1546392262391,682.0187549864968 239.1235961368846,682.0187549864968 239.1235961368846,685.3196153613512 231.1546392262391,685.3196153613512 231.1546392262391,688.6204691554249 223.18562966934783,688.6204691554249 223.18562966934783,688.6204691554249 214.56006878302992"/>
<path d="M682.0187549864968 239.1235961368846 L682.0187549864968 247.7491570232025,682.0187549864968 247.7491570232025,682.0187549864968 256.3747179095204,682.0187549864968 256.3747179095204,685.3196153613512 248.40576099887483,685.3196153613512 248.40576099887483,688.6204691554249 240.43675144198366,688.6204691554249 240.43675144198366,688.6204691554249 231.81119055566575"/>
<path d="M682.0187549864968 256.3747179095204 L682.0187549864968 265.00027879583837"/>
<path d="M668.8153134870795 224.498784974447 L672.1161738619338 216.5298280638014,672.1161738619338 216.5298280638014,675.4170342367883 208.5608711531558,675.4170342367883 208.5608711531558,675.4170342367883 199.935310266838"/>
<path d="M668.8153134870795 224.498784974447 L665.5144596930058 216.5298280638014"/>
<path d="M668.8153134870795 241.74990674708272 L662.7161208943852 235.65073389673054,662.7161208943852 235.65073389673054,656.6169348824716 229.55156104637834,656.6169348824716 229.55156104637834,650.5177357089967 223.45233554978057,650.5177357089967 223.45233554978057,644.418549697083 217.35316269942837,644.418549697083 217.35316269942837,638.319350523608 211.25398984907616,638.319350523608 211.25398984907616,632.2201645116945 205.1547643524784,632.2201645116945 205.1547643524784,626.1209653382194 199.05559150212628,626.1209653382194 199.05559150212628,620.0217793263058 192.95636600552842,620.0217793263058 192.95636600552842,613.9225801528308 186.85719315517622,613.9225801528308 186.85719315517622,607.8233941409173 180.75802030482402,607.8233941409173 180.75802030482402,601.7241949674424 174.65879480822625,601.7241949674424 174.65879480822625,595.6250089555288 168.55962195787404,595.6250089555288 168.55962195787404,589.5258097820537 162.46044910752195,589.5258097820537 162.46044910752195,583.4266237701402 156.36122361092407,583.4266237701402 156.36122361092407,577.3274245966651 150.26205076057187,577.3274245966651 150.26205076057187,571.2282385847516 144.16282526397399,571.2282385847516 144.16282526397399,567.9273716291165 136.1938683533285,567.9273716291165 136.1938683533285,564.6265178350429 128.2249114426829,564.6265178350429 128.2249114426829,561.3256508794078 120.25590188579173,561.3256508794078 120.25590188579173,558.0247970853342 112.28694497514613,558.0247970853342 112.28694497514613,558.0247970853342 103.66138408882831,558.0247970853342 103.66138408882831,558.0247970853342 95.0358232025104,558.0247970853342 95.0358232025104,554.7239432912605 87.06681364561922"/>
<path d="M558.0247970853342 112.28694497514613 L551.9256110734206 106.18771947854846,551.9256110734206 106.18771947854846,545.8264118999457 100.08854662819626,545.8264118999457 100.08854662819626,539.7272127264706 93.98937377784405,539.7272127264706 93.98937377784405,533.6280398761185 87.89014828124618,533.6280398761185 87.89014828124618,525.6590566423502 84.58928132561121"/>
<path d="M558.0247970853342 112.28694497514613 L550.0558270131272 108.98607801951115"/>
<path d="M558.0247970853342 112.28694497514613 L564.1239962588091 118.38611782549833,564.1239962588091 118.38611782549833,570.2231822707228 124.4853433220962,570.2231822707228 124.4853433220962,576.3223814441978 130.58451617244842,576.3223814441978 130.58451617244842,582.4215674561113 136.6836890228005,582.4215674561113 136.6836890228005,582.4215674561113 128.05812813648268,582.4215674561113 128.05812813648268,582.4215674561113 119.43256725016477,582.4215674561113 119.43256725016477,579.1207136620377 111.46361033951928"/>
<path d="M582.4215674561113 136.6836890228005 L585.7224344117465 144.6526985796918,585.7224344117465 144.6526985796918,589.02328820582 152.62165549033728,589.02328820582 152.62165549033728,589.02328820582 143.99609460401936,589.02328820582 143.99609460401936,589.02328820582 135.37053371770153,589.02328820582 135.37053371770153,585.7224344117465 127.40157680705605"/>
<path d="M589.02328820582 152.62165549033728 L592.3241419998938 160.59066504722855"/>
<path d="M564.6265178350429 128.2249114426829 L564.6265178350429 119.59935055636508,564.6265178350429 119.59935055636508,564.6265178350429 110.97378967004717,564.6265178350429 110.97378967004717,561.3256508794078 103.00478011315589"/>
<path d="M564.6265178350429 128.2249114426829 L558.5273186615678 122.12568594608513"/>
<path d="M571.2282385847516 144.16282526397399 L563.2592553509832 140.8620109545847,563.2592553509832 140.8620109545847,555.2902721172148 137.5611439989496,555.2902721172148 137.5611439989496,547.3213020450078 134.26027704331455,547.3213020450078 134.26027704331455,539.3523188112395 130.95941008767946,539.3523188112395 130.95941008767946,531.3833355774711 127.6585431320445,531.3833355774711 127.6585431320445,523.4143523437028 124.35767617640941,523.4143523437028 124.35767617640941,515.4453691099344 121.05686186702012,515.4453691099344 121.05686186702012,507.47641219928886 117.75599491138495,507.47641219928886 117.75599491138495,501.3772130258138 111.65676941478716,501.3772130258138 111.65676941478716,495.27801385233886 105.55759656443507,495.27801385233886 105.55759656443507,487.30903061857043 102.2567296087999"/>
<path d="M507.47641219928886 117.75599491138495 L498.8508513129709 117.75599491138495,498.8508513129709 117.75599491138495,490.22529042665303 117.75599491138495,490.22529042665303 117.75599491138495,481.5997295403352 117.75599491138495,481.5997295403352 117.75599491138495,472.9741686540173 117.75599491138495,472.9741686540173 117.75599491138495,465.00518542024895 121.05686186702012"/>
<path d="M523.4143523437028 124.35767617640941 L517.3151794933506 118.25850332605722,517.3151794933506 118.25850332605722,511.21598031987554 112.15933047570512,511.21598031987554 112.15933047570512,503.2469970861072 108.85846352007005"/>
<path d="M539.3523188112395 130.95941008767946 L530.7267579249216 130.95941008767946"/>
<path d="M583.4266237701402 156.36122361092407 L580.125756814505 148.39226670027847,580.125756814505 148.39226670027847,576.8249030204315 140.4232571433873,576.8249030204315 140.4232571433873,570.7257038469564 134.32408429303518"/>
<path d="M595.6250089555288 168.55962195787404 L592.3241419998938 160.59066504722855"/>
<path d="M620.0217793263058 192.95636600552842 L616.7209123706708 184.98740909488282,616.7209123706708 184.98740909488282,613.4200585765973 177.01845218423722,613.4200585765973 177.01845218423722,607.3208594031222 170.91922668763954"/>
<path d="M620.0217793263058 192.95636600552842 L612.0527960925374 189.655551696139,612.0527960925374 189.655551696139,604.0838128587692 186.35468474050393,604.0838128587692 186.35468474050393,596.1148427865621 183.05381778486887,596.1148427865621 183.05381778486887,588.1458595527938 179.75295082923378,588.1458595527938 179.75295082923378,579.5202986664759 179.75295082923378"/>
<path d="M632.2201645116945 205.1547643524784 L628.9192975560594 197.18580744183288,628.9192975560594 197.18580744183288,625.6184437619859 189.21679788494163,625.6184437619859 189.21679788494163,619.5192445885108 183.11762503458942"/>
<path d="M644.418549697083 217.35316269942837 L636.4495664633147 214.0522957437934"/>
<path d="M675.4170342367883 257.6878732146195 L675.4170342367883 249.06231232830157,675.4170342367883 249.06231232830157,675.4170342367883 240.43675144198366,675.4170342367883 240.43675144198366,672.1161738619338 232.46779453133806"/>
<path d="M682.0187549864968 273.62583968215614 L682.0187549864968 265.00027879583837"/>
<path d="M695.2221899051335 305.5017726172296 L695.2221899051335 296.8762117309118"/>
<path d="M721.629063032797 369.25358584113087 L721.629063032797 360.6280249548131,721.629063032797 360.6280249548131,721.629063032797 352.00246406849516,721.629063032797 352.00246406849516,721.629063032797 343.37690318217733,721.629063032797 343.37690318217733,721.629063032797 334.75134229585944,721.629063032797 334.75134229585944,724.9299234076515 326.78238538521384,724.9299234076515 326.78238538521384,728.2307837825059 318.81337582832265,728.2307837825059 318.81337582832265,728.2307837825059 310.1878149420048"/>
<path d="M721.629063032797 334.75134229585944 L718.3282059483331 326.78238538521384,718.3282059483331 326.78238538521384,715.0273455734789 318.81337582832265,715.0273455734789 318.81337582832265,711.7264851986245 310.84441891767716,711.7264851986245 310.84441891767716,708.4256248237701 302.87546200703156,708.4256248237701 302.87546200703156,702.3264322310758 296.7762365104337"/>
<path d="M721.629063032797 334.75134229585944 L715.5298737304933 328.65216944550724"/>
<path d="M721.629063032797 334.75134229585944 L724.9299234076515 342.72032552962776,724.9299234076515 342.72032552962776,728.2307837825059 350.6893087633962,728.2307837825059 350.6893087633962,731.5316408669698 358.65829199716455,731.5316408669698 358.65829199716455,734.8325012418242 366.62727523093287,734.8325012418242 366.62727523093287,738.1333616166785 358.65829199716455,738.1333616166785 358.65829199716455,741.4342187011424 350.6893087633962,741.4342187011424 350.6893087633962,741.4342187011424 342.0637478770783"/>
<path d="M734.8325012418242 366.62727523093287 L734.8325012418242 375.25283611725075,734.8325012418242 375.25283611725075,734.8325012418242 383.8783970035687,734.8325012418242 383.8783970035687,738.1333616166785 375.9094137698004,738.1333616166785 375.9094137698004,741.4342187011424 367.94043053603195,741.4342187011424 367.94043053603195,741.4342187011424 359.314869649714"/>
<path d="M734.8325012418242 383.8783970035687 L734.8325012418242 392.5039578898865"/>
<path d="M721.629063032797 352.00246406849516 L724.9299234076515 344.03350715784967,724.9299234076515 344.03350715784967,728.2307837825059 336.06452392408136,728.2307837825059 336.06452392408136,728.2307837825059 327.4389367146406"/>
<path d="M721.629063032797 352.00246406849516 L718.3282059483331 344.03350715784967"/>
<path d="M721.629063032797 369.25358584113087 L715.5298737304933 363.1544129907788,715.5298737304933 363.1544129907788,709.430681137799 357.05521381730375,709.430681137799 357.05521381730375,703.3314885451045 350.95601464382884,703.3314885451045 350.95601464382884,697.2322959524103 344.8568154703538,697.2322959524103 344.8568154703538,691.1331033597161 338.75764262000166,691.1331033597161 338.75764262000166,685.0339107670218 332.65844344652663,685.0339107670218 332.65844344652663,678.9347181743275 326.55927059617443,678.9347181743275 326.55927059617443,672.8355255816331 320.4600450995767,672.8355255816331 320.4600450995767,669.5346652067789 312.4910881889311,669.5346652067789 312.4910881889311,666.2338048319245 304.52207863204,666.2338048319245 304.52207863204,660.1346122392303 298.4229057816877"/>
<path d="M672.8355255816331 320.4600450995767 L664.8665423478648 317.1591781439416,664.8665423478648 317.1591781439416,656.8975656948771 313.8583638345522,656.8975656948771 313.8583638345522,648.9285824611087 310.5574968789172,648.9285824611087 310.5574968789172,640.9596123889019 307.25662992328216,640.9596123889019 307.25662992328216,632.3340515025839 307.25662992328216"/>
<path d="M685.0339107670218 332.65844344652663 L681.7330503921673 324.68948653588114,681.7330503921673 324.68948653588114,678.432190017313 316.7204769789899,678.432190017313 316.7204769789899,672.3329974246187 310.6213041286377"/>
<path d="M697.2322959524103 344.8568154703538 L689.2633127186419 341.55597483784163"/>
<path d="M728.2307837825059 385.1915523086678 L728.2307837825059 376.56599142234984,728.2307837825059 376.56599142234984,728.2307837825059 367.94043053603195,728.2307837825059 367.94043053603195,724.9299234076515 359.9714473022636"/>
<path d="M734.8325012418242 401.1295187762044 L734.8325012418242 392.5039578898865"/>
<path d="M748.0359378056559 433.0054253881551 L748.0359378056559 424.37986450183723,748.0359378056559 424.37986450183723,748.0359378056559 415.7543036155193,748.0359378056559 415.7543036155193,744.7350790759969 407.785320381751"/>
<path d="M748.0359378056559 433.0054253881551 L741.9367468581568 426.9062262146801,741.9367468581568 426.9062262146801,735.8375542654625 420.807053364328,735.8375542654625 420.807053364328,729.7383616727682 414.70785419085297,729.7383616727682 414.70785419085297,723.639169080074 408.6086550173779,723.639169080074 408.6086550173779,715.670189136696 405.30781438486576"/>
<path d="M754.6376569101694 448.9433918556919 L754.6376569101694 440.317830969374,754.6376569101694 440.317830969374,754.6376569101694 431.69227008305603,754.6376569101694 431.69227008305603,751.3367981805103 423.7232868492877"/>
<path d="M761.2393751920854 464.88135832322854 L755.1401834219887 458.7821591497536"/>
<path d="M774.4428125785147 514.008386707815 L777.7436719251222 506.03940347404665,777.7436719251222 506.03940347404665,781.0445312717295 498.07042024027834,781.0445312717295 498.07042024027834,781.0445312717295 489.4448593539604"/>
<path d="M774.4428125785147 531.2595084804508 L777.7436719251222 523.2905252466825"/>
<path d="M774.4428125785147 565.7617520257223 L777.7436719251222 557.7927687919539"/>
<path d="M774.4428125785147 634.7662391162655 L777.7436719251222 626.7972558824971"/>
</g>
</svg>