<?xml version="1.0" encoding="utf-8"?>
<!-- Generator: https://github.com/anvaka/l-system -->
<!DOCTYPE svg PUBLIC "-//W3C//DTD SVG 1.1//EN" "http://www.w3.org/Graphics/SVG/1.1/DTD/svg11.dtd">
<svg version="1.1" xmlns="http://www.w3.org/2000/svg" xmlns:xlink="http://www.w3.org/1999/xlink"
    viewBox="0 0 1680 909">
<style>
  path {
   vector-effect: non-scaling-stroke;
  }
</style>

<rect id="background" fill="#0c2952" x="0" y="0" width="1680" height="909"></rect>
<g fill="none" stroke-width="2" stroke="#a52a2a">
<path d="M819.0530258800795 718.8419263452824 L818.9837600455223 712.4593622942589,818.9837600455223 712.4593622942589,818.9140346053636 706.034447462243,818.9140346053636 706.034447462243,818.8438449773935 699.5667596172922,818.8438449773935 699.5667596172922,818.7731864880511 693.0558681098215,818.7731864880511 693.0558681098215,818.7020544540945 686.5013413982132,818.7020544540945 686.5013413982132,818.6304440837383 679.9027379389848,818.6304440837383 679.9027379389848,818.5583505049025 673.2596087898496,818.5583505049025 673.2596087898496,818.4857688723005 666.5715074773973,818.4857688723005 666.5715074773973,818.4126942131144 659.8379757767748,818.4126942131144 659.8379757767748,818.3391213922824 653.0585405129602,818.3391213922824 653.0585405129602,818.2650453617123 646.2327365248715,818.2650453617123 646.2327365248715,818.1904610048855 639.3600923461958,818.1904610048855 639.3600923461958,818.1153629428579 632.4401123291733,818.1153629428579 632.4401123291733,818.0397459147399 625.4723117042827,818.0397459147399 625.4723117042827,817.9636045875701 618.4561990609099,817.9636045875701 618.4561990609099,817.8869333581953 611.3912580913355,817.8869333581953 611.3912580913355,817.8097267416393 604.276983377395,817.8097267416393 604.276983377395,817.7319792435261 597.1128686347377,817.7319792435261 597.1128686347377,817.6536848919694 589.8983635784157,817.6536848919694 589.8983635784157,817.5748380319795 582.6329471241901,817.5748380319795 582.6329471241901,817.4954327944263 575.31607845568,817.4954327944263 575.31607845568,817.4154632267564 567.94720906938,817.4154632267564 567.94720906938,817.3349234293955 560.5257953435781,817.3349234293955 560.5257953435781,817.2538070036582 553.0512476655156,817.2538070036582 553.0512476655156,817.1721078745788 545.5230062519204,817.1721078745788 545.5230062519204,817.0898197407124 537.9404904503251,817.0898197407124 537.9404904503251,817.0069362094254 530.3031112056173,817.0069362094254 530.3031112056173,816.9234507952399 522.6102709074942,816.9234507952399 522.6102709074942,816.8393570621282 514.8613765022665,816.8393570621282 514.8613765022665,816.7546480468969 507.0557863600456,816.7546480468969 507.0557863600456,816.669317118179 499.1928894274289,816.669317118179 499.1928894274289,816.5833574018285 491.2720522799076"/>
</g>
<g fill="none" stroke-width="2" stroke="#008000">
<path d="M818.7731864880511 693.0558681098215 L815.8878238277634 687.0611276649834"/>
<path d="M818.7731864880511 693.0558681098215 L818.7020544540945 686.5013413982132"/>
<path d="M818.4857688723005 666.5715074773973 L815.5602286100599 660.4053642877003,815.5602286100599 660.4053642877003,812.6147469130926 654.1971914072109"/>
<path d="M818.4857688723005 666.5715074773973 L818.4126942131144 659.8379757767748,818.4126942131144 659.8379757767748,818.3391213922824 653.0585405129602"/>
<path d="M831.6936460316198 637.4418210307189 L834.5666912447082 631.0684999314425"/>
<path d="M818.1153629428579 634.7409323649184 L818.0397459147399 627.7810881306686"/>
<path d="M818.1904610048855 639.3600923461958 L815.223609101174 633.0153157266969"/>
<path d="M818.1904610048855 639.3600923461958 L818.1153629428579 632.4401123291733"/>
<path d="M817.8869333581953 611.3912580913355 L814.8775872789043 604.8602264792845,814.8775872789043 604.8602264792845,811.8471537925859 598.2834287095342,811.8471537925859 598.2834287095342,808.795410355542 591.6603838053297,808.795410355542 591.6603838053297,805.7221309293512 584.9906013256686,805.7221309293512 584.9906013256686,800.1061322889606 579.9580320550044"/>
<path d="M805.7221309293512 584.9906013256686 L802.6270863294499 578.2735715349486"/>
<path d="M817.8869333581953 611.3912580913355 L817.8097267416393 604.276983377395,817.8097267416393 604.276983377395,817.7319792435261 597.1128686347377,817.7319792435261 597.1128686347377,817.6536848919694 589.8983635784157,817.6536848919694 589.8983635784157,817.5748380319795 582.6329471241901,817.5748380319795 582.6329471241901,814.5217637085635 575.9075823741236"/>
<path d="M817.5748380319795 582.6329471241901 L817.4954327944263 575.31607845568"/>
<path d="M831.4583504114503 580.4594714816977 L834.4122339883745 573.7024848651696"/>
<path d="M817.4954327944263 577.6820808729799 L817.4154632267564 570.3216190329657"/>
<path d="M823.3839351558229 569.1344207029638 L823.324679811827 561.7172273983575"/>
<path d="M835.2362389383844 533.9291446954215 L835.2189422192986 526.249483739753,835.2189422192986 526.249483739753,835.2015194671603 518.5138374227874"/>
<path d="M835.2362389383844 533.9291446954215 L838.268191073171 526.8560078839586"/>
<path d="M805.4785193686237 570.3216190329657 L802.3605314302682 563.5043821560388"/>
<path d="M801.8158491911024 533.3248148099392 L798.6279593711811 526.249483739753,798.6279593711811 526.249483739753,795.4168339720296 519.122571814247"/>
<path d="M801.8158491911024 533.3248148099392 L801.6772065258779 525.6429460021423"/>
<path d="M817.2538070036582 553.0512476655156 L814.1557158467435 546.1230083545449,814.1557158467435 546.1230083545449,811.0352891944227 539.1448068379914"/>
<path d="M817.2538070036582 553.0512476655156 L817.1721078745788 545.5230062519204,817.1721078745788 545.5230062519204,817.0898197407124 537.9404904503251"/>
<path d="M831.2093356689027 520.1547148844965 L834.2487380247842 512.9794457008189"/>
<path d="M816.8393570621282 517.2963413539865 L816.7546480468969 509.4996569867591"/>
<path d="M816.9234507952399 522.6102709074942 L813.7789965902326 515.470124536667"/>
<path d="M816.9234507952399 522.6102709074942 L816.8393570621282 514.8613765022665"/>
<path d="M816.5833574018285 491.2720522799076 L813.3911322135333 483.9103848350833,813.3911322135333 483.9103848350833,810.1752094930001 476.49406794001396,810.1752094930001 476.49406794001396,806.9353245965768 469.0224907910069,806.9353245965768 469.0224907910069,803.6712085105708 461.4950333586728,803.6712085105708 461.4950333586728,797.7102324617587 455.6966765219515"/>
<path d="M803.6712085105708 461.4950333586728 L800.3825870481601 453.91106667025116,800.3825870481601 453.91106667025116,797.0691871743157 446.2699518098444,797.0691871743157 446.2699518098444,793.7307233325447 438.5710403835702,793.7307233325447 438.5710403835702,790.366911848157 430.8136741515471,790.366911848157 430.8136741515471,784.2643716530132 424.810012886822,784.2643716530132 424.810012886822,778.1151445723015 418.7604194389249"/>
<path d="M790.366911848157 430.8136741515471 L786.9774629390336 422.9971848402896,786.9774629390336 422.9971848402896,783.5620805988115 415.1208653080033"/>
<path d="M816.5833574018285 491.2720522799076 L816.4967619220159 483.2926321232782,816.4967619220159 483.2926321232782,816.409523599342 475.2539766197519,816.409523599342 475.2539766197519,816.3216352489075 467.15542371017756,816.3216352489075 467.15542371017756,816.2330898815853 458.9963293750414,816.2330898815853 458.9963293750414,812.9916212222493 451.4029555600291"/>
<path d="M816.2330898815853 458.9963293750414 L816.1438794913063 450.775955887708,816.1438794913063 450.775955887708,816.0539968656476 442.493638652843,816.0539968656476 442.493638652843,815.9634343775357 434.1486748667424,815.9634343775357 434.1486748667424,815.8721842840783 425.7403510534782,815.8721842840783 425.7403510534782,812.5799303285349 417.9045284740383,812.5799303285349 417.9045284740383,809.2624883410446 410.00875640342065"/>
<path d="M815.8721842840783 425.7403510534782 L815.7802387243577 417.2679428615512,815.7802387243577 417.2679428615512,815.6875897171733 408.7307148558772"/>
<path d="M830.945365886574 456.2282308185406 L834.0753860142514 448.5958463297656"/>
<path d="M816.1438794913063 453.2840388926957 L816.0539968656476 445.01117135380184"/>
<path d="M822.3822669096912 443.75239089775926 L822.3156375964569 435.41218764453663"/>
<path d="M834.9435507215875 403.9767393758508 L834.9240589193187 395.3224566153306,834.9240589193187 395.3224566153306,834.9044162599671 386.601193909419"/>
<path d="M834.9435507215875 403.9767393758508 L838.1613775698205 395.9664040346127"/>
<path d="M803.3974567775605 445.01117135380184 L800.082925224068 437.3074992879568"/>
<path d="M799.4697930254777 403.33526473857466 L796.0762387212504 395.3224566153306,796.0762387212504 395.3224566153306,792.656418143918 387.2476332488389"/>
<path d="M799.4697930254777 403.33526473857466 L799.3135555677758 394.6785091960484"/>
<path d="M830.6650520048858 388.343682594076 L833.8912590289536 380.2103801422999"/>
<path d="M815.4053403457104 385.3083442058968 L815.3097955763038 376.5142995290771"/>
<path d="M828.4494225203034 394.03459064038896 L828.4047245903745 385.3083442058968,828.4047245903745 385.3083442058968,828.359679530561 376.5142995290771"/>
<path d="M828.4494225203034 394.03459064038896 L831.6545717833887 385.9547835453168"/>
<path d="M856.0468876656386 342.34649700889156 L859.4510442828556 333.836138510394"/>
<path d="M856.0468876656386 342.34649700889156 L862.282838222427 335.72828230830714"/>
<path d="M881.2919263813657 315.5539359031326 L884.8531580927829 306.79766793508355,884.8531580927829 306.79766793508355,888.443285978333 297.97036299886497,888.443285978333 297.97036299886497,892.0626798233876 289.07111798306505,892.0626798233876 289.07111798306505,895.7116829019475 280.09905193918325,895.7116829019475 280.09905193918325,895.940559003847 270.3669922813224"/>
<path d="M895.7116829019475 280.09905193918325 L899.3906755185876 271.05326737181963"/>
<path d="M881.2919263813657 315.5539359031326 L887.7307304962778 308.72043270912377,887.7307304962778 308.72043270912377,894.2218014759836 301.83146806775125"/>
<path d="M921.2505289174939 296.4997386621624 L929.9493674303293 292.38361934710815"/>
<path d="M912.0739297182693 282.7659929380855 L918.7725206512808 275.656287078974"/>
<path d="M908.9738706144435 265.8576679299043 L912.7382773318488 256.6779518904265"/>
<path d="M789.4065718563824 390.479800970621 L789.2100276677894 381.7058753382425"/>
<path d="M774.1468601972069 393.51516833411796 L770.6285642151394 385.40195595146537"/>
<path d="M789.6016014202469 396.6103514538949 L786.1567255688466 388.5405119276788,786.1567255688466 388.5405119276788,782.68508341817 380.4079741139811"/>
<path d="M789.6016014202469 396.6103514538949 L789.4065718563824 387.8940725882589"/>
<path d="M794.8581367353993 338.11690435246993 L794.678584936059 328.9252848238171"/>
<path d="M794.8581367353993 338.11690435246993 L798.0189131826259 329.58972264560174"/>
<path d="M807.653934462656 303.5962297050554 L807.523197941105 294.1165115986742,807.523197941105 294.1165115986742,807.3914007589461 284.55982411408917,807.3914007589461 284.55982411408917,807.2585290455552 274.9252522784297,807.2585290455552 274.9252522784297,807.1245700652383 265.21181172374,807.1245700652383 265.21181172374,803.539398228793 256.1048670310478"/>
<path d="M807.1245700652383 265.21181172374 L806.9895104177856 255.41859194055053"/>
<path d="M807.653934462656 303.5962297050554 L810.9175316776173 294.791661271984,810.9175316776173 294.791661271984,814.2076179655293 285.9156336245728"/>
<path d="M836.9233294075397 270.5626929593028 L843.3119112143634 263.4026463930328"/>
<path d="M823.1895759932445 261.3860783796412 L826.5845750852584 252.22578417010058"/>
<path d="M813.7820259524916 246.92278691815272 L813.6734243087012 236.97267714481112"/>
</g>
<g fill="none" stroke-width="2" stroke="#00ff00">
<path d="M818.7020544540945 686.5013413982132 L821.4541370357657 680.4644032357184"/>
<path d="M815.8878238277634 687.0611276649834 L815.8067511317109 680.4644032357184"/>
<path d="M818.4126942131144 659.8379757767748 L821.2013086318772 653.6278627702119"/>
<path d="M815.5602286100599 660.4053642877003 L815.4769341526876 653.6278627702119"/>
<path d="M818.3391213922824 653.0585405129602 L821.1370207300944 646.8040121560936,821.1370207300944 646.8040121560936,826.3972207546738 642.1389829020695,826.3972207546738 642.1389829020695,831.6936460316198 637.4418210307189"/>
<path d="M812.6147469130926 654.1971914072109 L812.521094624948 647.375281385751,812.521094624948 647.375281385751,815.3086303393915 641.0797874575946,815.3086303393915 641.0797874575946,818.1153629428579 634.7409323649184"/>
<path d="M818.1153629428579 632.4401123291733 L820.9414915068461 626.0495090448401"/>
<path d="M815.223609101174 633.0153157266969 L815.1380003226336 626.0495090448401"/>
<path d="M817.8097267416393 604.276983377395 L820.6743919689964 597.698142113568"/>
<path d="M814.8775872789043 604.8602264792845 L814.7895665180561 597.698142113568"/>
<path d="M817.7319792435261 597.1128686347377 L820.6064431393373 590.4856948785499,820.6064431393373 590.4856948785499,826.0132519142196 585.4902714707565,826.0132519142196 585.4902714707565,831.4583504114503 580.4594714816977"/>
<path d="M811.8471537925859 598.2834287095342 L811.7481683972339 591.0730393419398,811.7481683972339 591.0730393419398,814.6116612563225 584.4011844728739,814.6116612563225 584.4011844728739,817.4954327944263 577.6820808729799"/>
<path d="M817.4954327944263 575.31607845568 L820.3996991912896 568.5408148861719"/>
<path d="M814.5217637085635 575.9075823741236 L814.4312272622233 568.5408148861719"/>
<path d="M817.5748380319795 582.6329471241901 L820.4691018802891 575.9075823741236,820.4691018802891 575.9075823741236,823.3839351558229 569.1344207029638"/>
<path d="M823.324679811827 561.7172273983575 L826.2705966285279 554.8447985015746,826.2705966285279 554.8447985015746,829.2376759859202 547.9230012154864,829.2376759859202 547.9230012154864,832.2261471607654 540.951288167193,832.2261471607654 540.951288167193,835.2362389383844 533.9291446954215"/>
<path d="M838.268191073171 526.8560078839586 L843.9166899657647 521.4648738096322"/>
<path d="M835.2189422192986 526.249483739753 L838.2618801522269 519.122571814247"/>
<path d="M835.2015194671603 518.5138374227874 L838.2555230566552 511.3325804960537"/>
<path d="M802.6270863294499 578.2735715349486 L802.4942823647482 570.9152248497575"/>
<path d="M800.1061322889606 579.9580320550044 L796.9801339878146 573.1992502790695"/>
<path d="M805.7221309293512 584.9906013256686 L805.6007564509748 577.6820808729799,805.6007564509748 577.6820808729799,805.4785193686237 570.3216190329657"/>
<path d="M802.3605314302682 563.5043821560388 L802.2258228998328 556.0404945926784,802.2258228998328 556.0404945926784,802.0901466848607 548.522989871179,802.0901466848607 548.522989871179,801.9534923206595 540.951288167193,801.9534923206595 540.951288167193,801.8158491911024 533.3248148099392"/>
<path d="M801.6772065258779 525.6429460021423 L804.5979151745456 518.5138374227874"/>
<path d="M798.6279593711811 526.249483739753 L798.4771946570962 518.5138374227874"/>
<path d="M795.4168339720296 519.122571814247 L795.2537730371387 511.3325804960537"/>
<path d="M817.1721078745788 545.5230062519204 L820.1170850138574 538.5426553918604"/>
<path d="M814.1557158467435 546.1230083545449 L814.0625544675677 538.5426553918604"/>
<path d="M817.0898197407124 537.9404904503251 L820.0451534014613 530.9074546353272,820.0451534014613 530.9074546353272,825.6069766240092 525.5506060009861,825.6069766240092 525.5506060009861,831.2093356689027 520.1547148844965"/>
<path d="M811.0352891944227 539.1448068379914 L810.9305018253533 531.511798065037,810.9305018253533 531.511798065037,813.8742021537644 524.4298841203262,813.8742021537644 524.4298841203262,816.8393570621282 517.2963413539865"/>
<path d="M816.8393570621282 514.8613765022665 L819.8262016502839 507.66676086314374"/>
<path d="M813.7789965902326 515.470124536667 L813.68309444351 507.66676086314374"/>
<path d="M816.4967619220159 483.2926321232782 L819.526680652513 475.8740222798829"/>
<path d="M813.3911322135333 483.9103848350833 L813.2923665461711 475.8740222798829"/>
<path d="M816.409523599342 475.2539766197519 L819.4504055389964 467.7777794037873,819.4504055389964 467.7777794037873,825.1763931481207 462.02459989844164,825.1763931481207 462.02459989844164,830.945365886574 456.2282308185406"/>
<path d="M810.1752094930001 476.49406794001396 L810.0640946687297 468.40013509739714,810.0640946687297 468.40013509739714,813.0926195388316 460.8703503627315,813.0926195388316 460.8703503627315,816.1438794913063 453.2840388926957"/>
<path d="M816.1438794913063 450.775955887708 L819.2181318876694 443.1230288808643"/>
<path d="M812.9916212222493 451.4029555600291 L812.8898618436258 443.1230288808643"/>
<path d="M816.2330898815853 458.9963293750414 L819.2961377603634 451.4029555600291,819.2961377603634 451.4029555600291,822.3822669096912 443.75239089775926"/>
<path d="M822.3156375964569 435.41218764453663 L825.436661225476 427.64282944942767,825.436661225476 427.64282944942767,828.5814723076488 419.8142567778546,828.5814723076488 419.8142567778546,831.7503442763542 411.92579008194025,831.7503442763542 411.92579008194025,834.9435507215875 403.9767393758508"/>
<path d="M838.1613775698205 395.9664040346127 L844.1591961388013 389.73496145205854"/>
<path d="M834.9240589193187 395.3224566153306 L838.1542625475028 387.2476332488389"/>
<path d="M834.9044162599671 386.601193909419 L838.1470922690048 378.46112227758886"/>
<path d="M800.3825870481601 453.91106667025116 L800.2333206535416 445.64056158182314"/>
<path d="M797.7102324617587 455.6966765219515 L794.3867622032585 448.0622892978263"/>
<path d="M803.6712085105708 461.4950333586728 L803.5348464150779 453.2840388926957,803.5348464150779 453.2840388926957,803.3974567775605 445.01117135380184"/>
<path d="M800.082925224068 437.3074992879568 L799.9313879012633 428.9111673302754,799.9313879012633 428.9111673302754,799.7786956306484 420.4508423903417,799.7786956306484 420.4508423903417,799.6248351579924 411.92579008194025,799.6248351579924 411.92579008194025,799.4697930254777 403.33526473857466"/>
<path d="M799.3135555677758 394.6785091960484 L802.4059561010463 386.601193909419"/>
<path d="M796.0762387212504 395.3224566153306 L795.9062644314537 386.601193909419"/>
<path d="M792.656418143918 387.2476332488389 L792.4724988836027 378.46112227758886"/>
<path d="M815.7802387243577 417.2679428615512 L818.9001404052376 409.3697356296489"/>
<path d="M812.5799303285349 417.9045284740383 L812.475039029109 409.3697356296489"/>
<path d="M815.6875897171733 408.7307148558772 L818.8191161607514 400.76939494225536,818.8191161607514 400.76939494225536,824.7192521026845 394.58048833383947,824.7192521026845 394.58048833383947,830.6650520048858 388.343682594076"/>
<path d="M809.2624883410446 410.00875640342065 L809.1444551546924 401.4108695795315,809.1444551546924 401.4108695795315,812.2628303952798 393.3906432211067,812.2628303952798 393.3906432211067,815.4053403457104 385.3083442058968"/>
<path d="M815.8721842840783 425.7403510534782 L818.9805471201805 417.9045284740383,818.9805471201805 417.9045284740383,822.112691093302 410.00875640342065,822.112691093302 410.00875640342065,825.2688899401595 402.0523442168076,825.2688899401595 402.0523442168076,828.4494225203034 394.03459064038896"/>
<path d="M831.6545717833887 385.9547835453168 L837.650411256886 379.66024105995"/>
<path d="M828.4047245903745 385.3083442058968 L831.6221516553707 377.1632501412078"/>
<path d="M828.359679530561 376.5142995290771 L831.5894785431469 368.3031429061076,831.5894785431469 368.3031429061076,837.632012990931 361.89020071846306,837.632012990931 361.89020071846306,843.7220489979985 355.42684512297785,843.7220489979985 355.42684512297785,849.860148903418 348.9124793091632,849.860148903418 348.9124793091632,856.0468876656386 342.34649700889156,856.0468876656386 342.34649700889156,862.282838222427 335.72828230830714,862.282838222427 335.72828230830714,868.5685938762659 329.0572094552308,868.5685938762659 329.0572094552308,874.9047536921654 322.3326426619311,874.9047536921654 322.3326426619311,881.2919263813657 315.5539359031326"/>
<path d="M862.282838222427 335.72828230830714 L870.4682937319631 331.90031557455615"/>
<path d="M859.4510442828556 333.836138510394 L865.7254914945651 327.15750959953385"/>
<path d="M887.7307304962778 308.72043270912377 L896.1523388172408 304.7206954302049"/>
<path d="M884.8531580927829 306.79766793508355 L891.3325437271583 299.9009003401224"/>
<path d="M894.2218014759836 301.83146806775125 L902.7041681923189 297.78736008281686,902.7041681923189 297.78736008281686,911.9394042864025 297.1461834699739,911.9394042864025 297.1461834699739,921.2505289174939 296.4997386621624"/>
<path d="M888.443285978333 297.97036299886497 L894.9637029320509 291.0095217709122,894.9637029320509 291.0095217709122,903.4838176261467 286.90462120765613,903.4838176261467 286.90462120765613,912.0739297182693 282.7659929380855"/>
<path d="M899.3906755185876 271.05326737181963 L906.0369458508933 263.89524450921044"/>
<path d="M895.940559003847 270.3669922813224 L899.6356722497527 261.243776771004"/>
<path d="M895.7116829019475 280.09905193918325 L902.315534735803 273.0075979556191,902.315534735803 273.0075979556191,908.9738706144435 265.8576679299043"/>
<path d="M786.9774629390336 422.9971848402896 L786.7746333008223 414.4818731770273"/>
<path d="M784.2643716530132 424.810012886822 L780.8386125855563 416.94065669486196"/>
<path d="M783.5620805988115 415.1208653080033 L783.3453568922237 406.54263792495516,783.3453568922237 406.54263792495516,786.3642827697452 398.54219371174133,786.3642827697452 398.54219371174133,789.4065718563824 390.479800970621"/>
<path d="M778.1151445723015 418.7604194389249 L774.6526172024236 410.83758521061696,774.6526172024236 410.83758521061696,774.4007135059488 402.2097787757712,774.4007135059488 402.2097787757712,774.1468601972069 393.51516833411796"/>
<path d="M790.366911848157 430.8136741515471 L790.1777715577755 422.3605992278026,790.1777715577755 422.3605992278026,789.9871842126586 413.84285240325556,789.9871842126586 413.84285240325556,789.7951331425744 405.2596886504029,789.7951331425744 405.2596886504029,789.6016014202469 396.6103514538949"/>
<path d="M789.4065718563824 387.8940725882589 L792.4724988836027 379.7590235018503"/>
<path d="M786.1567255688466 388.5405119276788 L785.9475564519761 379.7590235018503"/>
<path d="M782.68508341817 380.4079741139811 L782.4615586389506 371.5605211101508,782.4615586389506 371.5605211101508,785.5243031337833 363.29782100390355,785.5243031337833 363.29782100390355,788.6111226298641 354.97016617669783,788.6111226298641 354.97016617669783,791.7223039816579 346.5767876732017,791.7223039816579 346.5767876732017,794.8581367353993 338.11690435246993,794.8581367353993 338.11690435246993,798.0189131826259 329.58972264560174,798.0189131826259 329.58972264560174,801.2049368246471 320.99443630759356,801.2049368246471 320.99443630759356,804.4165075868284 312.33022616322125,804.4165075868284 312.33022616322125,807.653934462656 303.5962297050554"/>
<path d="M798.0189131826259 329.58972264560174 L804.0480401407542 322.8941361632905"/>
<path d="M794.678584936059 328.9252848238171 L797.8512665596947 320.3273451300858"/>
<path d="M810.9175316776173 294.791661271984 L817.0968728656321 287.8461709658302"/>
<path d="M807.523197941105 294.1165115986742 L810.7995093622377 285.2377136761453"/>
<path d="M814.2076179655293 285.9156336245728 L820.4255444859657 278.9056724533013,820.4255444859657 278.9056724533013,828.6406868169324 274.75125000647574,828.6406868169324 274.75125000647574,836.9233294075397 270.5626929593028"/>
<path d="M807.3914007589461 284.55982411408917 L810.680524820945 275.6059345775006,810.680524820945 275.6059345775006,816.9094604209528 268.5251114701384,816.9094604209528 268.5251114701384,823.1895759932445 261.3860783796412"/>
<path d="M806.9895104177856 255.41859194055053 L810.3176812171829 246.2336808251051"/>
<path d="M803.539398228793 256.1048670310478 L803.3889919878761 246.2336808251051"/>
<path d="M807.1245700652383 265.21181172374 L810.4396228470976 256.1048670310478,810.4396228470976 256.1048670310478,813.7820259524916 246.92278691815272"/>
</g>
</svg>